<svg width="34" height="34" viewBox="0 0 34 34" fill="none" xmlns="http://www.w3.org/2000/svg">
<rect width="34" height="34" fill="#E5E5E5"/>
<g clip-path="url(#clip0_0_1)">
<rect width="1600" height="4476" transform="translate(-150 -2355)" fill="white"/>
<g filter="url(#filter0_d_0_1)">
<rect x="-40" y="-72" width="883" height="712" rx="10" fill="white"/>
</g>
<circle cx="17" cy="17" r="17" fill="#FFE7E7"/>
<g clip-path="url(#clip1_0_1)">
<path d="M9.96595 16.4586H9.00733C8.84238 16.4589 8.70074 16.5759 8.6694 16.7379L7.15905 24.4896C7.11986 24.6921 7.17336 24.9015 7.30488 25.0604C7.43639 25.2193 7.63211 25.311 7.83836 25.3103H15.2763C15.2763 25.6896 16.0487 26 17.0004 26C17.9522 26 18.7246 25.6896 18.7246 25.3103H26.1625C26.3688 25.311 26.5645 25.2193 26.696 25.0604C26.8275 24.9015 26.881 24.6921 26.8418 24.4896L25.3315 16.7379C25.3001 16.5759 25.1585 16.4589 24.9935 16.4586H9.96595Z" fill="#E64C3C"/>
<path d="M16.9994 17.4621V23.931C16.495 23.7119 15.9692 23.5455 15.4305 23.4345C13.3828 22.9893 11.2535 23.0976 9.26151 23.7483C9.14702 23.7832 9.02261 23.7568 8.93221 23.6783C8.84182 23.5998 8.79818 23.4803 8.81669 23.3621L9.96496 16.4586L10.0615 15.8759C10.0862 15.728 10.203 15.6126 10.3512 15.5897C10.5857 15.5552 10.827 15.5207 11.0684 15.4931C11.4898 16.3122 12.3335 16.8272 13.2546 16.8276C13.3167 16.8276 13.3753 16.8242 13.4339 16.8207C13.6635 16.8028 13.8897 16.7541 14.1063 16.6759C14.1071 16.6832 14.1094 16.6903 14.1132 16.6966C14.3713 17.4192 15.0562 17.9012 15.8236 17.9C16.2557 17.9015 16.6736 17.7458 16.9994 17.4621Z" fill="#F5EFCA"/>
<path d="M24.7379 23.7482C22.746 23.0976 20.6167 22.9893 18.569 23.4345C18.0303 23.5455 17.5045 23.7119 17 23.931V17.462C17.0725 17.4027 17.1395 17.3369 17.2 17.2655C17.5445 17.4025 17.912 17.4727 18.2828 17.4724H18.3034C18.3214 17.7189 18.4153 17.9539 18.5724 18.1448C18.9071 18.4757 19.3255 18.7093 19.7828 18.8207C20.1146 18.9266 20.4106 19.1223 20.6379 19.3862C20.8406 19.6373 21.1841 19.7256 21.4828 19.6034C21.7457 19.4898 21.9163 19.2312 21.9172 18.9448C21.9176 18.8699 21.906 18.7953 21.8828 18.7241C21.8483 18.6172 21.8103 18.5103 21.7655 18.4069C21.679 18.1932 21.5655 17.9916 21.4276 17.8069C22.1115 17.437 22.5917 16.778 22.7345 16.0137C22.7448 16 22.7586 15.9862 22.769 15.9724C22.887 15.8336 22.9835 15.6778 23.0552 15.5103C23.2552 15.5344 23.4517 15.5586 23.6483 15.5896C23.7965 15.6125 23.9132 15.7279 23.9379 15.8758L24.0345 16.4586L25.1828 23.362C25.2013 23.4803 25.1576 23.5998 25.0672 23.6783C24.9768 23.7567 24.8524 23.7832 24.7379 23.7482Z" fill="#F9EAB0"/>
<path d="M18.7236 25.3104C18.7236 25.6897 17.9512 26 16.9995 26C16.0478 26 15.2754 25.6897 15.2754 25.3104L15.4306 23.4345C15.9693 23.5455 16.495 23.7119 16.9995 23.9311C17.504 23.7119 18.0298 23.5455 18.5685 23.4345L18.7236 25.3104Z" fill="#C03A2B"/>
<path d="M23.2087 14.7899C23.2084 15.038 23.1568 15.2834 23.057 15.5106C22.9853 15.6781 22.8888 15.8338 22.7708 15.9726C22.7605 15.9864 22.7467 16.0002 22.7363 16.014C22.5936 16.7783 22.1133 17.4372 21.4294 17.8071C21.5673 17.9918 21.6809 18.1935 21.7674 18.4071C21.8122 18.5106 21.8501 18.6175 21.8846 18.7244C21.9078 18.7956 21.9194 18.8701 21.9191 18.945C21.9181 19.2315 21.7475 19.4901 21.4846 19.6037C21.1859 19.7258 20.8425 19.6375 20.6398 19.3864C20.4124 19.1226 20.1164 18.9268 19.7846 18.8209C19.3273 18.7095 18.909 18.4759 18.5743 18.145C18.4172 17.9541 18.3232 17.7192 18.3053 17.4726H18.2846C17.9138 17.473 17.5464 17.4028 17.2018 17.2657C17.1413 17.3372 17.0744 17.403 17.0018 17.4623C16.676 17.746 16.2581 17.9017 15.826 17.9002C15.0586 17.9014 14.3736 17.4194 14.1156 16.6968C14.1118 16.6905 14.1095 16.6834 14.1087 16.6761C13.8921 16.7543 13.6659 16.803 13.4363 16.8209C13.3777 16.8244 13.3191 16.8278 13.257 16.8278C12.325 16.8272 11.4732 16.3007 11.0558 15.4674C10.6384 14.6341 10.727 13.6366 11.2846 12.8899C11.2431 12.7773 11.2221 12.6582 11.2225 12.5381C11.2205 12.0285 11.5784 11.5883 12.0777 11.4864C12.0796 11.4846 12.082 11.4833 12.0846 11.483C12.0811 11.4416 12.0777 11.4002 12.0777 11.3554C12.0772 11.1641 12.1172 10.975 12.1949 10.8002C12.415 10.2914 12.9164 9.96203 13.4708 9.96229C13.6799 9.96129 13.8864 10.0085 14.0743 10.1002C14.4414 9.48215 15.1071 9.1034 15.826 9.10367C16.3192 9.10188 16.7957 9.2824 17.1639 9.61056C17.3753 9.2696 17.7598 9.07569 18.1596 9.1084C18.5595 9.14111 18.9073 9.39494 19.0605 9.76574C19.1589 9.75474 19.2579 9.74898 19.357 9.74849C20.6931 9.75071 21.8049 10.7756 21.9156 12.1071H21.926C22.2101 12.1071 22.4825 12.2202 22.6831 12.4214C22.8836 12.6226 22.9959 12.8954 22.9949 13.1795C22.9943 13.3653 22.9468 13.5479 22.857 13.7106C23.0858 14.0239 23.209 14.4019 23.2087 14.7899Z" fill="#FB7B76"/>
<path d="M17.0011 7.03448C16.8106 7.03448 16.6562 6.8801 16.6562 6.68966V6.34483C16.6562 6.15438 16.8106 6 17.0011 6C17.1915 6 17.3459 6.15438 17.3459 6.34483V6.68966C17.3459 6.8801 17.1915 7.03448 17.0011 7.03448Z" fill="#F0C419"/>
<path d="M22.5577 9.40814C22.4182 9.40811 22.2925 9.3241 22.2391 9.19526C22.1858 9.06643 22.2153 8.91814 22.3139 8.81952L22.6587 8.4747C22.7453 8.38506 22.8735 8.34911 22.994 8.38066C23.1146 8.41222 23.2088 8.50637 23.2403 8.62693C23.2719 8.74749 23.2359 8.8757 23.1463 8.96228L22.8014 9.30711C22.7368 9.37178 22.6491 9.40812 22.5577 9.40814Z" fill="#F0C419"/>
<path d="M11.4439 9.40814C11.3525 9.40812 11.2648 9.37178 11.2001 9.30711L10.8553 8.96228C10.7656 8.8757 10.7297 8.74749 10.7612 8.62693C10.7928 8.50637 10.887 8.41222 11.0075 8.38066C11.1281 8.34911 11.2563 8.38506 11.3429 8.4747L11.6877 8.81952C11.7863 8.91814 11.8158 9.06643 11.7624 9.19526C11.7091 9.3241 11.5833 9.40811 11.4439 9.40814Z" fill="#F0C419"/>
<path d="M14.0972 7.95703C13.9577 7.95707 13.832 7.8731 13.7786 7.74427L13.3827 6.78841C13.3324 6.67404 13.3479 6.54139 13.4232 6.44168C13.4985 6.34198 13.6219 6.29081 13.7456 6.30795C13.8694 6.32509 13.9742 6.40785 14.0196 6.52428L14.4158 7.48014C14.451 7.56468 14.4511 7.65973 14.4161 7.74434C14.3811 7.82895 14.3139 7.89616 14.2293 7.93117C14.1873 7.94826 14.1425 7.95705 14.0972 7.95703Z" fill="#F0C419"/>
<path d="M19.9035 7.95703C19.8582 7.95694 19.8134 7.94804 19.7715 7.93083C19.6869 7.89582 19.6198 7.82866 19.5848 7.74413C19.5498 7.6596 19.5499 7.56464 19.5849 7.48014L19.9811 6.52428C20.0265 6.40785 20.1313 6.32509 20.2551 6.30795C20.3789 6.29081 20.5022 6.34198 20.5775 6.44168C20.6529 6.54139 20.6683 6.67404 20.618 6.78841L20.2222 7.74427C20.1687 7.8731 20.043 7.95707 19.9035 7.95703Z" fill="#F0C419"/>
<path d="M24.01 12.0626C23.8451 12.0632 23.7029 11.9468 23.6707 11.7851C23.6385 11.6234 23.7254 11.4615 23.8779 11.3989L24.8338 11.003C24.9476 10.9559 25.0779 10.9731 25.1757 11.0481C25.2734 11.1231 25.3237 11.2446 25.3076 11.3667C25.2914 11.4888 25.2114 11.5931 25.0976 11.6402L24.142 12.0361C24.1002 12.0535 24.0553 12.0626 24.01 12.0626Z" fill="#F0C419"/>
<path d="M9.99194 12.0627C9.9466 12.0626 9.90172 12.0536 9.85987 12.0361L8.90436 11.6402C8.79053 11.5931 8.71048 11.4889 8.69437 11.3667C8.67826 11.2446 8.72854 11.1231 8.82627 11.0481C8.92399 10.9731 9.05432 10.9559 9.16815 11.003L10.124 11.3989C10.2765 11.4615 10.3634 11.6234 10.3312 11.7851C10.299 11.9469 10.1568 12.0632 9.99194 12.0627Z" fill="#F0C419"/>
<path d="M22.7689 15.9724C22.7586 15.9862 22.7448 16 22.7344 16.0138C22.6737 16.3459 22.5471 16.6625 22.362 16.9448C22.1815 16.9961 21.9946 17.0216 21.8069 17.0207C21.4651 17.0197 21.1284 16.9382 20.8241 16.7828C20.68 16.7057 20.5448 16.6132 20.4207 16.5069C20.2831 16.5602 20.1371 16.5882 19.9896 16.5897C19.5341 16.592 19.1169 16.3353 18.9138 15.9276C18.8583 15.8173 18.8659 15.6859 18.9337 15.5827C19.0015 15.4796 19.1191 15.4204 19.2423 15.4276C19.3655 15.4347 19.4756 15.507 19.531 15.6172C19.5991 15.748 19.7198 15.8435 19.8627 15.8797C20.0056 15.9159 20.1571 15.8894 20.2793 15.8069C20.4172 15.7128 20.4998 15.5566 20.5 15.3897C20.5005 15.3097 20.4828 15.2307 20.4482 15.1586C20.3788 14.9919 20.4498 14.7998 20.611 14.7183C20.7722 14.6368 20.9689 14.6935 21.062 14.8483C21.1459 15.0164 21.1896 15.2018 21.1896 15.3897C21.1868 15.6306 21.1111 15.865 20.9724 16.0621C21.0276 16.1 21.0827 16.1379 21.1379 16.169C21.3448 16.2755 21.5741 16.331 21.8069 16.331C22.1606 16.333 22.5028 16.2054 22.7689 15.9724Z" fill="#FF5364"/>
<path d="M18.5512 14.6187C18.9979 14.3109 19.3051 13.8392 19.4061 13.3062C19.4317 13.1842 19.3895 13.0578 19.2957 12.9757C19.2019 12.8936 19.071 12.8686 18.9535 12.9102C18.8359 12.9519 18.75 13.0537 18.7288 13.1766C18.6612 13.5322 18.456 13.8469 18.1578 14.0521C17.5841 14.4385 16.8147 14.3508 16.3426 13.8452C16.2142 13.7043 15.9958 13.6942 15.8549 13.8226C15.7139 13.9511 15.7038 14.1695 15.8323 14.3104C16.1248 14.6334 16.5114 14.8563 16.9375 14.9476C16.7443 15.2192 16.4314 15.3801 16.0981 15.3794C15.9077 15.3794 15.7533 15.5337 15.7533 15.7242C15.7533 15.9146 15.9077 16.069 16.0981 16.069C16.812 16.0719 17.4525 15.631 17.7047 14.9632C18.0089 14.9126 18.2981 14.7949 18.5512 14.6187Z" fill="#FF5364"/>
<path d="M21.7668 18.4066C21.5133 18.536 21.2409 18.6244 20.9598 18.6687C20.9416 18.6716 20.9231 18.6727 20.9047 18.6721C20.7231 18.6738 20.5713 18.5343 20.5576 18.3532C20.544 18.1721 20.6731 18.0115 20.8529 17.9859C21.0529 17.9557 21.247 17.8952 21.4288 17.8066C21.5667 17.9913 21.6803 18.193 21.7668 18.4066Z" fill="#FF5364"/>
<path d="M14.0831 15.9997C14.0657 16.0964 14.0565 16.1945 14.0555 16.2928C14.0548 16.4221 14.0722 16.551 14.1072 16.6755C13.8906 16.7537 13.6644 16.8024 13.4348 16.8204C13.3907 16.6514 13.3675 16.4777 13.3658 16.3031C12.7584 16.2369 12.298 15.7245 12.2969 15.1135C12.2957 14.9214 12.4497 14.7644 12.6417 14.7617C12.7327 14.7612 12.8202 14.7969 12.8849 14.8609C12.9496 14.9249 12.9862 15.0121 12.9865 15.1031V15.1135C12.9917 15.3859 13.2074 15.6077 13.4796 15.6203C13.5273 15.4648 13.5933 15.3155 13.6762 15.1755C13.7225 15.0964 13.7988 15.0394 13.8877 15.0173C13.9766 14.9953 14.0707 15.01 14.1486 15.0583C14.3108 15.1585 14.3629 15.3701 14.2658 15.5341C14.1783 15.6775 14.1164 15.835 14.0831 15.9997Z" fill="#FF5364"/>
<path d="M19.2116 18.017C19.0044 18.0832 18.7904 18.126 18.5737 18.1445C18.4166 17.9536 18.3226 17.7187 18.3047 17.4721C18.3381 17.4728 18.3714 17.4716 18.4047 17.4687C18.6095 17.4557 18.812 17.4187 19.0081 17.3584C19.1271 17.3176 19.2588 17.3447 19.3518 17.4293C19.4449 17.5138 19.4846 17.6423 19.4554 17.7646C19.4262 17.8869 19.3328 17.9836 19.2116 18.017Z" fill="#FF5364"/>
<path d="M16.2416 11.8618C16.2416 11.6713 16.0872 11.5169 15.8968 11.5169C15.0211 11.5179 14.3115 12.2275 14.3105 13.1031C14.3105 13.2936 14.4649 13.448 14.6554 13.448C14.8458 13.448 15.0002 13.2936 15.0002 13.1031C15.0002 12.8654 15.0947 12.6373 15.2628 12.4692C15.4309 12.301 15.659 12.2066 15.8968 12.2066C16.0872 12.2066 16.2416 12.0522 16.2416 11.8618Z" fill="#FF5364"/>
<path d="M11.7414 13.8007C11.6788 13.8008 11.6174 13.7836 11.5639 13.7511C11.2795 13.5795 11.0644 13.3136 10.9559 12.9997C10.9035 12.8504 10.8768 12.6934 10.877 12.5352C10.877 11.7537 11.5093 11.1195 12.2907 11.1173C12.7385 11.1155 13.1601 11.3282 13.4249 11.6893C13.4984 11.7883 13.5135 11.9189 13.4646 12.032C13.4156 12.1451 13.3101 12.2235 13.1877 12.2377C13.0653 12.2518 12.9446 12.1996 12.8711 12.1007C12.7359 11.9163 12.5208 11.8076 12.2921 11.8083C11.9657 11.8101 11.6804 12.0288 11.5937 12.3435C11.5071 12.6581 11.6403 12.9921 11.9197 13.1607C12.0526 13.2406 12.1158 13.3993 12.0742 13.5487C12.0326 13.6981 11.8965 13.8013 11.7414 13.8011V13.8007Z" fill="#FF5364"/>
<path d="M19.1414 10.5209C18.951 10.5209 18.7966 10.3665 18.7966 10.1761C18.7966 9.77548 18.4719 9.45073 18.0713 9.45073C17.6707 9.45073 17.3459 9.77548 17.3459 10.1761C17.3459 10.3665 17.1915 10.5209 17.0011 10.5209C16.8106 10.5209 16.6562 10.3665 16.6562 10.1761C16.6562 9.3946 17.2898 8.76108 18.0713 8.76108C18.8527 8.76108 19.4863 9.3946 19.4863 10.1761C19.4863 10.2675 19.4499 10.3552 19.3853 10.4199C19.3206 10.4846 19.2329 10.5209 19.1414 10.5209Z" fill="#FF5364"/>
<path d="M22.3758 14.4969C22.2157 14.4953 22.0777 14.3837 22.0427 14.2275C22.0077 14.0713 22.0848 13.9115 22.2289 13.8417C22.3663 13.7771 22.4804 13.6716 22.5555 13.5396C22.7309 13.2407 22.6699 12.8593 22.4099 12.6301C22.1499 12.4008 21.7639 12.3879 21.4892 12.5993C21.3369 12.7136 21.1208 12.6827 21.0065 12.5303C20.8922 12.378 20.9231 12.1618 21.0755 12.0476C21.3168 11.8649 21.6107 11.7652 21.9134 11.7634C22.5796 11.7589 23.1591 12.2189 23.3058 12.8688C23.4525 13.5186 23.1269 14.183 22.5234 14.4652C22.4772 14.4866 22.4268 14.4975 22.3758 14.4969Z" fill="#FF5364"/>
</g>
</g>
<defs>
<filter id="filter0_d_0_1" x="-100" y="-122" width="1003" height="832" filterUnits="userSpaceOnUse" color-interpolation-filters="sRGB">
<feFlood flood-opacity="0" result="BackgroundImageFix"/>
<feColorMatrix in="SourceAlpha" type="matrix" values="0 0 0 0 0 0 0 0 0 0 0 0 0 0 0 0 0 0 127 0" result="hardAlpha"/>
<feOffset dy="10"/>
<feGaussianBlur stdDeviation="30"/>
<feColorMatrix type="matrix" values="0 0 0 0 0.164706 0 0 0 0 0.401569 0 0 0 0 0.756863 0 0 0 0.15 0"/>
<feBlend mode="normal" in2="BackgroundImageFix" result="effect1_dropShadow_0_1"/>
<feBlend mode="normal" in="SourceGraphic" in2="effect1_dropShadow_0_1" result="shape"/>
</filter>
<clipPath id="clip0_0_1">
<rect width="1600" height="4476" fill="white" transform="translate(-150 -2355)"/>
</clipPath>
<clipPath id="clip1_0_1">
<rect width="20" height="20" fill="white" transform="translate(7 6)"/>
</clipPath>
</defs>
</svg>
