<svg width="15" height="11" viewBox="0 0 15 11" fill="none" xmlns="http://www.w3.org/2000/svg">
<g clip-path="url(#clip0_280_5072)">
<path d="M14.9494 3.16384C14.8759 2.98023 14.729 2.83616 14.5482 2.76271L7.76858 0.0508475C7.59909 -0.0169492 7.40418 -0.0169492 7.23468 0.0508475L0.455022 2.76271C0.0849657 2.9096 -0.0958252 3.33051 0.0510674 3.69774C0.124514 3.88136 0.271406 4.02542 0.452197 4.09887L2.4861 4.91525V9.30791C2.4861 9.59887 2.65841 9.85876 2.92677 9.97175C4.4409 10.6102 5.97762 10.9322 7.50022 10.9322C9.01999 10.9322 10.5595 10.6102 12.0737 9.97175C12.342 9.85876 12.5143 9.59887 12.5143 9.30791V4.91525L14.5482 4.10169C14.7262 4.03107 14.8675 3.89266 14.9437 3.71751C15.0172 3.53955 15.02 3.34463 14.9494 3.16384ZM12.3392 3.4322L7.50022 5.36723L2.66124 3.4322L7.50022 1.49718L12.3392 3.4322ZM3.92677 5.49152L7.23186 6.81356C7.40135 6.88136 7.59627 6.88136 7.76576 6.81356L11.0708 5.49152V8.81921C9.88158 9.26554 8.68101 9.49152 7.50022 9.49152C6.31943 9.49152 5.11886 9.26554 3.92677 8.81921V5.49152Z" fill="#6B57CA"/>
</g>
<defs>
<clipPath id="clip0_280_5072">
<rect width="15" height="10.9322" fill="white"/>
</clipPath>
</defs>
</svg>
