<svg width="18" height="18" viewBox="0 0 18 18" fill="none" xmlns="http://www.w3.org/2000/svg">
<path d="M17.9384 14.2289L16.4943 10.6631C16.3574 10.3209 16.0357 10.1019 15.6662 10.1019C15.5498 10.1019 15.4403 10.1224 15.3308 10.1703C15.1118 10.2593 14.9407 10.4304 14.8449 10.6494C14.7491 10.8684 14.7491 11.1148 14.838 11.3338L15.4608 12.8669L13.5171 12.0114C13.2913 11.9156 13.0312 11.9087 12.8053 12.0046C12.0114 12.3468 11.1559 12.5179 10.273 12.5179C6.71407 12.5179 4.33232 9.74601 4.33232 7.15209C4.33232 4.19544 7.00152 1.78631 10.273 1.78631C13.5445 1.78631 16.2137 4.19544 16.2137 7.15209C16.2137 7.38479 16.1932 7.65856 16.1521 7.91179C16.0768 8.39772 16.419 8.85627 16.9049 8.92471C16.946 8.93156 16.9939 8.93156 17.035 8.93156C17.473 8.93156 17.8494 8.60304 17.9179 8.17186C17.9658 7.82966 17.9932 7.47376 17.9932 7.15209C17.9932 5.2289 17.1787 3.42205 15.7004 2.06692C14.2494 0.732319 12.3194 0 10.273 0C8.22662 0 6.28973 0.732319 4.83878 2.06692C3.55209 3.23726 2.75818 4.79087 2.58023 6.4403C0.965019 7.54905 0 9.31483 0 11.1833C0 12.3331 0.355894 13.4418 1.02662 14.3932L0.0684411 16.7749C-0.0684411 17.1103 0.0136882 17.4935 0.273764 17.7468C0.438023 17.911 0.663878 18 0.896578 18C1.01977 18 1.14297 17.9726 1.25932 17.9247L4.07909 16.6859C4.80456 16.946 5.57795 17.076 6.36502 17.076C6.38555 17.076 6.40608 17.076 6.41977 17.076C7.6038 17.0692 8.75361 16.7544 9.75285 16.1726C10.6152 15.6662 11.3407 14.9749 11.854 14.1536C12.292 14.0715 12.73 13.9483 13.1475 13.7909L16.7544 15.3856C16.8707 15.4335 16.9871 15.4608 17.1171 15.4608C17.3498 15.4608 17.5688 15.3719 17.7399 15.2076C17.9932 14.9544 18.0753 14.5711 17.9384 14.2289ZM2.87453 14.5916C2.99772 14.2836 2.94297 13.9346 2.72395 13.6814C2.10799 12.9627 1.78631 12.1004 1.78631 11.1901C1.78631 10.2867 2.12167 9.4038 2.7308 8.69201C3.04563 9.96502 3.75741 11.1833 4.73612 12.1278C5.97491 13.3186 7.61749 14.0715 9.37643 14.2631C8.54145 14.927 7.45323 15.2966 6.35133 15.2966C6.33764 15.2966 6.3308 15.2966 6.31711 15.2966C5.64639 15.2897 4.9962 15.1597 4.39392 14.8996C4.16806 14.8038 3.90798 14.8038 3.68213 14.9065L2.53916 15.4129L2.87453 14.5916Z" fill="#F04973"/>
<path d="M9.3418 7.17953C9.3418 7.6723 9.73876 8.06926 10.2315 8.06926C10.7243 8.06926 11.1213 7.6723 11.1213 7.17953C11.1213 6.68675 10.7243 6.28979 10.2315 6.28979C9.73876 6.28979 9.3418 6.68675 9.3418 7.17953Z" fill="#F04973"/>
<path d="M12.0938 7.17953C12.0938 7.6723 12.4907 8.06926 12.9835 8.06926C13.4763 8.06926 13.8732 7.6723 13.8732 7.17953C13.8732 6.68675 13.4763 6.28979 12.9835 6.28979C12.4907 6.28979 12.0938 6.68675 12.0938 7.17953Z" fill="#F04973"/>
<path d="M6.59961 7.17953C6.59961 7.6723 6.99657 8.06926 7.48934 8.06926C7.98212 8.06926 8.37908 7.6723 8.37908 7.17953C8.37908 6.68675 7.98212 6.28979 7.48934 6.28979C6.99657 6.28979 6.59961 6.68675 6.59961 7.17953Z" fill="#F04973"/>
</svg>
