<svg width="20" height="20" viewBox="0 0 20 20" fill="none" xmlns="http://www.w3.org/2000/svg">
<g clip-path="url(#clip0_467_8)">
<path d="M10 0C15.5228 0 20 4.47715 20 10C20 15.5228 15.5228 20 10 20C4.47715 20 0 15.5228 0 10C0 4.47715 4.47715 0 10 0Z" fill="#F0F0F0"/>
<path d="M2.06645 16.0879C1.28094 15.0659 0.688633 13.888 0.34375 12.6083H5.54602L2.06645 16.0879Z" fill="#0052B4"/>
<path d="M19.6553 12.6081C19.3104 13.8877 18.7181 15.0657 17.9326 16.0876L14.4531 12.6081H19.6553Z" fill="#0052B4"/>
<path d="M0.34375 7.39111C0.688672 6.1115 1.28098 4.93357 2.06645 3.91162L5.5459 7.39111H0.34375Z" fill="#0052B4"/>
<path d="M16.0889 17.9325C15.0669 18.718 13.889 19.3104 12.6094 19.6553V14.453L16.0889 17.9325Z" fill="#0052B4"/>
<path d="M3.91211 2.06693C4.9341 1.28142 6.11203 0.689118 7.39164 0.344196V5.54639L3.91211 2.06693Z" fill="#0052B4"/>
<path d="M7.3916 19.6553C6.11199 19.3104 4.93406 18.718 3.91211 17.9326L7.3916 14.4531V19.6553Z" fill="#0052B4"/>
<path d="M12.6094 0.344196C13.889 0.689118 15.0669 1.28142 16.0889 2.06689L12.6094 5.54639V0.344196Z" fill="#0052B4"/>
<path d="M14.4531 7.39111L17.9326 3.91158C18.7181 4.93354 19.3104 6.1115 19.6553 7.39111H14.4531Z" fill="#0052B4"/>
<path d="M19.9154 11.3043H11.3044H11.3044V19.9154C10.8774 19.9709 10.4421 20 10 20C9.55785 20 9.12262 19.9709 8.69566 19.9154V11.3044V11.3044H0.0846484C0.0290625 10.8774 0 10.4421 0 10C0 9.55785 0.0290625 9.12262 0.0846484 8.69566H8.69559H8.69563V0.0846481C9.12262 0.0290623 9.55785 0 10 0C10.4421 0 10.8774 0.0290222 11.3043 0.0846481V8.69559V8.69563H19.9154C19.9709 9.12262 20 9.55785 20 10C20 10.4421 19.9709 10.8774 19.9154 11.3043Z" fill="#D80027"/>
<path d="M12.6094 7.39132L17.0717 2.92897C17.277 3.13413 17.4727 3.34862 17.6595 3.57097L13.8391 7.39136H12.6094V7.39132Z" fill="#D80027"/>
<path d="M7.39207 7.39111H7.39199L2.92969 2.92881C3.13484 2.72357 3.34934 2.52779 3.57168 2.34099L7.39207 6.16146V7.39111Z" fill="#D80027"/>
<path d="M7.39 12.6086V12.6087L2.92766 17.071C2.72242 16.8659 2.52664 16.6514 2.33984 16.4291L6.16027 12.6086H7.39V12.6086Z" fill="#D80027"/>
<path d="M12.6094 12.6085L17.0718 17.0709C16.8666 17.2762 16.6521 17.4719 16.4298 17.6587L12.6094 13.8383V12.6085Z" fill="#D80027"/>
</g>
<defs>
<clipPath id="clip0_467_8">
<rect width="20" height="20" fill="white" transform="matrix(1 0 0 -1 0 20)"/>
</clipPath>
</defs>
</svg>
