<svg width="20" height="13" viewBox="0 0 20 13" fill="none" xmlns="http://www.w3.org/2000/svg">
<path fill-rule="evenodd" clip-rule="evenodd" d="M9.9999 0C15.4371 0 19.6942 5.74021 19.8729 5.98462C20.0423 6.21626 20.0423 6.53099 19.8729 6.76283C19.6942 7.00701 15.4371 12.7473 9.9999 12.7473C4.56274 12.7473 0.305391 7.00705 0.126914 6.76263C-0.0423048 6.53076 -0.0423048 6.21626 0.126914 5.98439C0.305391 5.74021 4.56274 0 9.9999 0ZM1.49922 6.37318C2.52606 7.61869 5.99486 11.4286 9.9999 11.4286C14.0135 11.4286 17.4751 7.62064 18.5006 6.37407C17.4733 5.1279 14.0048 1.31867 9.9999 1.31867C5.98626 1.31867 2.52473 5.12657 1.49922 6.37318ZM6.04395 6.37354C6.04395 4.19221 7.81867 2.41748 10 2.41748C12.1813 2.41748 13.9561 4.19221 13.9561 6.37354C13.9561 8.55488 12.1813 10.3296 10 10.3296C7.81867 10.3296 6.04395 8.55488 6.04395 6.37354ZM7.36266 6.37354C7.36266 7.8278 8.5457 9.01089 10 9.01089C11.4543 9.01089 12.6373 7.8278 12.6373 6.37354C12.6373 4.91928 11.4543 3.73619 10 3.73619C8.54574 3.73619 7.36266 4.91928 7.36266 6.37354Z" fill="#BEC3CC"/>
</svg>
