<svg width="21" height="21" viewBox="0 0 21 21" fill="none" xmlns="http://www.w3.org/2000/svg">
<g clip-path="url(#clip0_308_10338)">
<path d="M14.0002 4.70236C17.8637 4.73175 21.0055 7.90356 20.9999 11.7671C20.9961 14.4647 19.4779 16.807 17.2501 17.9905C17.159 18.0389 17.1023 18.1339 17.1023 18.2371V19.9408C17.1023 20.1795 16.8228 20.3087 16.6409 20.1542L15.0684 18.8176C15.0077 18.7661 14.9283 18.7435 14.8494 18.7536C14.5534 18.7916 14.2517 18.8114 13.9453 18.8114C10.0491 18.8114 6.89062 15.653 6.89062 11.7568C6.89072 7.84233 10.0789 4.67254 14.0002 4.70236Z" fill="#E9CEF7"/>
<path d="M20.9981 11.767C20.9942 14.4646 19.4761 16.8069 17.2485 17.9904C17.157 18.0388 17.1007 18.1337 17.1007 18.237V19.9408C17.1007 20.1795 16.821 20.3085 16.6392 20.1538L15.8802 19.5089C15.8806 19.507 15.8806 19.505 15.8806 19.503V17.7991C15.8806 17.6958 15.9375 17.601 16.0284 17.5525C18.2561 16.369 19.7746 14.0267 19.7786 11.3291C19.7825 8.5045 18.1044 6.04951 15.6914 4.92236C18.7393 5.70565 21.0026 8.48676 20.9981 11.767Z" fill="#CB97E7"/>
<path d="M17.9789 9.32106H10.7573C10.5526 9.32106 10.3867 9.15517 10.3867 8.95045C10.3867 8.74572 10.5526 8.57983 10.7573 8.57983H17.9789C18.1836 8.57983 18.3495 8.74572 18.3495 8.95045C18.3495 9.15517 18.1835 9.32106 17.9789 9.32106Z" fill="#BD80E1"/>
<path d="M17.9765 11.1675H16.6909C16.4862 11.1675 16.3203 11.0016 16.3203 10.7969C16.3203 10.5922 16.4862 10.4263 16.6909 10.4263H17.9765C18.1813 10.4263 18.3471 10.5922 18.3471 10.7969C18.3471 11.0016 18.1812 11.1675 17.9765 11.1675Z" fill="#BD80E1"/>
<path d="M14.9675 11.1675H9.91359C9.70886 11.1675 9.54297 11.0016 9.54297 10.7969C9.54297 10.5922 9.70886 10.4263 9.91359 10.4263H14.9674C15.1722 10.4263 15.3381 10.5922 15.3381 10.7969C15.3381 11.0016 15.1722 11.1675 14.9675 11.1675Z" fill="#BD80E1"/>
<path d="M17.977 13.0142H9.91359C9.70886 13.0142 9.54297 12.8483 9.54297 12.6436C9.54297 12.4388 9.70886 12.2729 9.91359 12.2729H17.977C18.1817 12.2729 18.3476 12.4388 18.3476 12.6436C18.3476 12.8482 18.1816 13.0142 17.977 13.0142Z" fill="#BD80E1"/>
<path d="M17.9804 14.8604H13.9487C13.744 14.8604 13.5781 14.6945 13.5781 14.4898C13.5781 14.285 13.744 14.1191 13.9487 14.1191H17.9804C18.1851 14.1191 18.351 14.285 18.351 14.4898C18.351 14.6945 18.1851 14.8604 17.9804 14.8604Z" fill="#BD80E1"/>
<path d="M12.2236 14.8604H9.91359C9.70886 14.8604 9.54297 14.6945 9.54297 14.4898C9.54297 14.285 9.70886 14.1191 9.91359 14.1191H12.2236C12.4283 14.1191 12.5942 14.285 12.5942 14.4898C12.5942 14.6945 12.4283 14.8604 12.2236 14.8604Z" fill="#BD80E1"/>
<path d="M7.28491 0.197474C3.42149 0.226865 0.27965 3.39868 0.285163 7.2622C0.288999 9.95979 1.80718 12.3021 4.03495 13.4856C4.1261 13.5341 4.18282 13.629 4.18282 13.7322V15.4359C4.18282 15.6746 4.46234 15.8039 4.64424 15.6493L6.21674 14.3127C6.27735 14.2612 6.35684 14.2386 6.43571 14.2487C6.73172 14.2867 7.03344 14.3065 7.33981 14.3065C11.236 14.3065 14.3945 11.1481 14.3945 7.25194C14.3944 3.33745 11.2063 0.167652 7.28491 0.197474Z" fill="#FDD4DE"/>
<path d="M14.3953 7.252C14.3953 11.1479 11.2367 14.3066 7.34073 14.3066C7.03436 14.3066 6.7324 14.2868 6.43644 14.2487C6.35786 14.2384 6.27832 14.2611 6.21752 14.3125L4.64511 15.6492C4.46326 15.8039 4.18359 15.6744 4.18359 15.4357V14.5907L5.49211 13.4784C5.55291 13.427 5.63245 13.4047 5.71103 13.4146C6.00704 13.4527 6.30895 13.4724 6.61532 13.4724C10.5112 13.4724 13.6699 10.3138 13.6699 6.4178C13.6699 4.8464 13.156 3.39457 12.2868 2.22192C13.5884 3.50182 14.3953 5.28227 14.3953 7.252Z" fill="#F4A3B7"/>
<path d="M7.33954 11.1862C7.67808 11.1862 7.95252 10.9117 7.95252 10.5732C7.95252 10.2346 7.67808 9.96021 7.33954 9.96021C7.001 9.96021 6.72656 10.2346 6.72656 10.5732C6.72656 10.9117 7.001 11.1862 7.33954 11.1862Z" fill="#F25D81"/>
<path d="M7.33906 9.05476C7.13433 9.05476 6.96844 8.88887 6.96844 8.68414V7.96923C6.96844 7.32332 7.35641 6.7333 7.95692 6.4662C8.54214 6.20586 8.90451 5.60064 8.85863 4.96029C8.80637 4.23171 8.22 3.62851 7.49464 3.55727C6.67391 3.47725 5.94342 4.04895 5.83012 4.86023C5.82044 4.93018 5.81545 5.00191 5.81545 5.0732C5.81545 5.27793 5.64956 5.44382 5.44484 5.44382C5.24011 5.44382 5.07422 5.27793 5.07422 5.0732C5.07422 4.96786 5.08155 4.86176 5.09599 4.75791C5.26442 3.55128 6.35071 2.69977 7.56713 2.81958C8.64719 2.92569 9.52023 3.82322 9.59795 4.90731C9.66608 5.85801 9.1277 6.7567 8.25821 7.14347C7.92499 7.29172 7.70967 7.61583 7.70967 7.96923V8.68414C7.70967 8.88887 7.54378 9.05476 7.33906 9.05476Z" fill="#F25D81"/>
</g>
<defs>
<clipPath id="clip0_308_10338">
<rect width="21" height="21" fill="white"/>
</clipPath>
</defs>
</svg>
