<svg width="20" height="20" viewBox="0 0 20 20" fill="none" xmlns="http://www.w3.org/2000/svg">
<g clip-path="url(#clip0_319_249)">
<path d="M10 0C4.48591 0 0 4.48591 0 10C0 15.5141 4.48591 20 10 20C15.5141 20 20 15.5141 20 10C20 4.48591 15.5141 0 10 0ZM10 17.8142C5.69113 17.8142 2.18579 14.3089 2.18579 10C2.18579 5.69135 5.69113 2.18579 10 2.18579C14.3089 2.18579 17.8142 5.69135 17.8142 10C17.8142 14.3089 14.3089 17.8142 10 17.8142Z" fill="#F04973"/>
<rect width="1.8" height="7" rx="0.9" transform="matrix(1 0 0 -1 9.10156 15)" fill="#F04973"/>
<circle cx="1" cy="1" r="1" transform="matrix(1 0 0 -1 9 7)" fill="#F04973"/>
</g>
<defs>
<clipPath id="clip0_319_249">
<rect width="20" height="20" fill="white"/>
</clipPath>
</defs>
</svg>
