<svg width="17" height="17" viewBox="0 0 17 17" fill="none" xmlns="http://www.w3.org/2000/svg">
<path opacity="0.4" d="M13.4783 0H3.23035C1.44809 0 0 1.47333 0 3.28667V6.74333V13.7133C0 15.5267 1.44809 17 3.23035 17H13.4783C15.2606 17 16.7087 15.5267 16.7087 13.7133V6.74333V3.28667C16.7087 1.47333 15.2606 0 13.4783 0ZM14.4252 1.98333H14.815V2.38V4.87333H11.9746V1.98333H14.4252ZM5.95943 6.74333C6.51639 6.00667 7.35182 5.49667 8.35434 5.49667C9.35686 5.49667 10.1923 6.00667 10.7493 6.74333C11.0834 7.25333 11.3062 7.82 11.3062 8.5C11.3062 10.1433 9.96952 11.5033 8.35434 11.5033C6.73917 11.5033 5.40247 10.1433 5.40247 8.5C5.40247 7.82 5.62526 7.25333 5.95943 6.74333ZM15.0935 13.7133C15.0935 14.62 14.3695 15.3567 13.4783 15.3567H3.23035C2.33922 15.3567 1.61517 14.62 1.61517 13.7133V6.74333H4.12148C3.89869 7.31 3.7873 7.87667 3.7873 8.5C3.7873 11.05 5.84804 13.1467 8.35434 13.1467C10.8606 13.1467 12.9214 11.05 12.9214 8.5C12.9214 7.87667 12.81 7.31 12.5872 6.74333H15.0935V13.7133Z" fill="#454B58"/>
</svg>
