<svg width="20" height="20" viewBox="0 0 20 20" fill="none" xmlns="http://www.w3.org/2000/svg">
<path d="M16.7906 2.87906C14.944 1.02655 12.4838 0 9.87021 0H9.75811L9.75221 0.00589971C4.37168 0.0530973 0 4.46018 0 9.84071C0 11.9882 0.725664 14.1062 2.0413 15.8112L0.707965 18.9027C0.625369 19.0973 0.619469 19.3097 0.702065 19.5103C0.778761 19.705 0.926254 19.8584 1.11504 19.9351C1.21534 19.9764 1.32153 20 1.43363 20C1.47493 20 1.52212 19.9941 1.56932 19.9882L6.60767 19.1032C7.62832 19.4631 8.69027 19.646 9.76991 19.646H9.81121C15.233 19.646 19.646 15.233 19.646 9.81121C19.6519 7.19764 18.6372 4.73156 16.7906 2.87906ZM3.67552 15.9941C3.79351 15.7168 3.74631 15.3923 3.55162 15.1681C2.94985 14.472 2.47788 13.6873 2.14749 12.8319C1.76991 11.8702 1.58112 10.8673 1.58112 9.83481C1.58112 5.28024 5.28614 1.56932 9.84661 1.56932H9.86431C14.3894 1.56932 18.0767 5.25074 18.0826 9.77581V9.80531C18.0826 14.3658 14.3776 18.0767 9.81711 18.0767C8.84366 18.0767 7.88201 17.8997 6.96755 17.5575C6.83776 17.5044 6.69617 17.4926 6.54867 17.5162L2.73156 18.1829L3.67552 15.9941Z" fill="#F04973"/>
<path d="M6.58935 9.22704H13C13.4366 9.22704 13.7847 8.87305 13.7847 8.44238C13.7847 8.0117 13.4307 7.65771 13 7.65771H6.58935C6.15277 7.65771 5.80469 8.0117 5.80469 8.44238C5.80469 8.87305 6.15867 9.22704 6.58935 9.22704Z" fill="#F04973"/>
<path d="M13.0613 11.8347C13.4979 11.8347 13.846 11.4807 13.846 11.05C13.846 10.6194 13.492 10.2654 13.0613 10.2654H6.58935C6.15277 10.2654 5.80469 10.6194 5.80469 11.05C5.80469 11.4807 6.15867 11.8347 6.58935 11.8347H13.0613Z" fill="#F04973"/>
</svg>
