<svg width="17" height="20" viewBox="0 0 17 20" fill="none" xmlns="http://www.w3.org/2000/svg">
<path d="M16.1533 14.6858C14.9617 13.6782 14.2759 12.2031 14.2759 10.6437V8.36398C14.2759 5.37548 12.0498 2.90038 9.16858 2.50575V0.804598C9.16858 0.360153 8.80843 0 8.36399 0C7.91954 0 7.55939 0.360153 7.55939 0.804598V2.50575C4.67816 2.90038 2.45211 5.37931 2.45211 8.36398V10.6437C2.45211 12.2031 1.76628 13.682 0.56705 14.6935C0.206897 15.0038 0 15.4521 0 15.9272C0 16.8199 0.727969 17.5479 1.62069 17.5479H5.21073C5.57088 18.954 6.84674 20 8.36782 20C9.88889 20 11.1648 18.954 11.5249 17.5479H15.1111C16.0038 17.5479 16.7318 16.8199 16.7318 15.9272C16.7318 15.4521 16.5211 15 16.1533 14.6858ZM8.36399 18.3908C7.74713 18.3908 7.21073 18.0498 6.9272 17.5479H9.80077C9.52107 18.0498 8.98084 18.3908 8.36399 18.3908ZM1.62069 15.9387C1.61686 15.9387 1.6092 15.931 1.6092 15.9272C1.6092 15.9234 1.6092 15.9195 1.61303 15.9157C3.16858 14.6015 4.0613 12.682 4.0613 10.6437V8.36398C4.0613 5.99234 5.99234 4.0613 8.36399 4.0613C10.7356 4.0613 12.6667 5.99234 12.6667 8.36398V10.6437C12.6667 12.6782 13.5594 14.6015 15.1149 15.9157C15.1188 15.9195 15.1188 15.9234 15.1188 15.9234C15.1188 15.9272 15.1111 15.9349 15.1073 15.9349H1.62069V15.9387Z" fill="#454B58"/>
</svg>
