<svg width="15" height="15" viewBox="0 0 15 15" fill="none" xmlns="http://www.w3.org/2000/svg">
<g clip-path="url(#clip0_280_5070)">
<path d="M14.9898 14.1459C14.8292 12.4057 14.0744 10.7883 12.8217 9.53915C12.0776 8.79715 11.2104 8.23132 10.2468 7.85231C11.3014 7.01957 11.9223 5.74911 11.9223 4.40391C11.9223 1.97509 9.94162 0 7.50586 0C5.0701 0 3.08402 1.97509 3.08402 4.40391C3.08402 5.74911 3.705 7.01957 4.75961 7.85231C3.79601 8.22598 2.92877 8.79181 2.18466 9.53915C0.92663 10.7936 0.166459 12.4217 0.0112127 14.1673C0.00585938 14.1939 0.00585938 14.2206 0.00585938 14.2473C0.00585938 14.258 0.00585938 14.2633 0.00585938 14.274C0.0112127 14.6744 0.337765 15 0.744617 15C1.14076 15 1.46196 14.6904 1.47802 14.3061C1.75104 11.2313 4.3474 8.80783 7.50586 8.80783C10.675 8.80783 13.2767 11.2473 13.5337 14.3381C13.5712 14.7064 13.8817 15 14.2671 15C14.674 15 15.0059 14.6744 15.0059 14.2687C15.0005 14.226 14.9952 14.1833 14.9898 14.1459ZM7.50051 7.33986C5.87845 7.33986 4.55618 6.02135 4.55618 4.40391C4.55618 2.78648 5.87845 1.46797 7.50051 1.46797C9.12256 1.46797 10.4448 2.78648 10.4448 4.40391C10.4448 6.02135 9.12256 7.33986 7.50051 7.33986Z" fill="#34A3D2"/>
</g>
<defs>
<clipPath id="clip0_280_5070">
<rect width="15" height="15" fill="white"/>
</clipPath>
</defs>
</svg>
