<svg width="34" height="34" viewBox="0 0 34 34" fill="none" xmlns="http://www.w3.org/2000/svg">
<rect width="34" height="34" fill="#E5E5E5"/>
<g clip-path="url(#clip0_0_1)">
<rect width="1600" height="4476" transform="translate(-150 -2674)" fill="white"/>
<g filter="url(#filter0_d_0_1)">
<rect x="-40" y="-391" width="883" height="712" rx="10" fill="white"/>
</g>
<circle cx="17" cy="17" r="17" fill="#F9F3DB"/>
<g clip-path="url(#clip1_0_1)">
<path d="M26.7966 9.23764C26.6688 9.10665 26.4933 9.03322 26.3104 9.03419H7.68966C7.5067 9.03322 7.3312 9.10665 7.20346 9.23764C7.07247 9.36538 6.99904 9.54088 7.00001 9.72384V24.2066C6.99904 24.3896 7.07247 24.5651 7.20346 24.6928C7.3312 24.8238 7.5067 24.8972 7.68966 24.8963H25.9655C26.5369 24.8963 27 24.4331 27 23.8618V9.72384C27.001 9.54088 26.9275 9.36538 26.7966 9.23764Z" fill="#F3D55B"/>
<path d="M26.9995 9.72365V23.8616C26.9995 24.1359 26.8904 24.3989 26.6961 24.5926L25.2754 23.1719V10.7581L26.7961 9.23744C26.9271 9.36519 27.0005 9.54069 26.9995 9.72365Z" fill="#F0C419"/>
<path d="M8.72415 10.7581V23.1719L7.20346 24.6926C7.07247 24.5649 6.99904 24.3894 7.00001 24.2064V9.72365C6.99904 9.54069 7.07247 9.36519 7.20346 9.23744L8.72415 10.7581Z" fill="#F0C419"/>
<path d="M26.6962 24.5927C26.5026 24.787 26.2395 24.8962 25.9652 24.8962H7.68933C7.50637 24.8971 7.33087 24.8237 7.20312 24.6927L8.72381 23.172H25.2755L26.6962 24.5927Z" fill="#F29C1F"/>
<path d="M8.72461 10.7581H25.2763V23.1719H8.72461V10.7581Z" fill="#ECF0F1"/>
<path d="M25.2763 10.7581C25.2763 10.7581 8.72461 10.7581 8.72461 23.1719V10.7581H25.2763Z" fill="white"/>
<path d="M19.4146 13.1721H14.587C14.3966 13.1721 14.2422 13.0177 14.2422 12.8273C14.2422 12.6369 14.3966 12.4825 14.587 12.4825H19.4146C19.605 12.4825 19.7594 12.6369 19.7594 12.8273C19.7594 13.0177 19.605 13.1721 19.4146 13.1721Z" fill="#BDC3C7"/>
<path d="M15.9654 20.7582H11.1378C10.9474 20.7582 10.793 20.6038 10.793 20.4134C10.793 20.2229 10.9474 20.0685 11.1378 20.0685H15.9654C16.1558 20.0685 16.3102 20.2229 16.3102 20.4134C16.3102 20.6038 16.1558 20.7582 15.9654 20.7582Z" fill="#95A5A5"/>
<path d="M20.4484 14.8965H13.5519C13.3614 14.8965 13.207 14.7421 13.207 14.5517C13.207 14.3612 13.3614 14.2068 13.5519 14.2068H20.4484C20.6388 14.2068 20.7932 14.3612 20.7932 14.5517C20.7932 14.7421 20.6388 14.8965 20.4484 14.8965Z" fill="#BDC3C7"/>
<path d="M19.0703 21.9306L19.0703 26.4065C19.0695 26.5266 19.1312 26.6385 19.2333 26.7019C19.3354 26.7652 19.463 26.7709 19.5703 26.7168L20.4669 26.2651C20.5647 26.2169 20.6794 26.2169 20.7772 26.2651L21.6738 26.7168C21.7811 26.7709 21.9087 26.7652 22.0108 26.7019C22.1129 26.6385 22.1746 26.5266 22.1738 26.4065L22.1738 21.9306H19.0703Z" fill="#FF5364"/>
<path d="M15.9654 19.3789C15.121 19.379 14.2909 19.1611 13.5554 18.7465C12.8186 19.1649 11.9851 19.3829 11.1378 19.3789C10.9474 19.3789 10.793 19.2246 10.793 19.0341C10.793 18.8437 10.9474 18.6893 11.1378 18.6893C11.7559 18.692 12.3669 18.5576 12.9268 18.2958C12.5689 18.0215 12.34 17.6117 12.294 17.1631C12.294 16.9562 12.3847 16.2755 13.5516 16.2755C14.7185 16.2755 14.8092 16.9548 14.8092 17.1631C14.7635 17.6122 14.5347 18.0227 14.1768 18.2979C14.7369 18.5585 15.3476 18.6922 15.9654 18.6893C16.1558 18.6893 16.3102 18.8437 16.3102 19.0341C16.3102 19.2246 16.1558 19.3789 15.9654 19.3789ZM13.5516 16.9652C13.2895 16.9652 12.9837 17.0169 12.9837 17.1631C12.9837 17.3093 13.1385 17.6038 13.5488 17.9196C13.9157 17.6389 14.1195 17.3455 14.1195 17.1631C14.1195 17.0169 13.8137 16.9652 13.5516 16.9652Z" fill="#95A5A5"/>
<path d="M23.8955 19.5514C23.8955 19.949 23.1531 20.1955 23.0096 20.5414C22.861 20.8996 23.2058 21.5979 22.9358 21.8679C22.6658 22.1379 21.9676 21.7931 21.6096 21.9414C21.2638 22.0848 21.0172 22.8272 20.6196 22.8272C20.222 22.8272 19.9755 22.0848 19.6296 21.9414C19.2713 21.7928 18.5731 22.1376 18.3031 21.8676C18.0331 21.5976 18.3779 20.8993 18.2296 20.5414C18.0862 20.1955 17.3438 19.949 17.3438 19.5514C17.3438 19.1538 18.0862 18.9072 18.2296 18.5614C18.3782 18.2031 18.0334 17.5048 18.3034 17.2348C18.5734 16.9648 19.2717 17.3096 19.6296 17.1614C19.9744 17.0179 20.222 16.2755 20.6196 16.2755C21.0172 16.2755 21.2638 17.0179 21.6096 17.1614C21.9679 17.31 22.6662 16.9652 22.9362 17.2352C23.2062 17.5052 22.8613 18.2034 23.0096 18.5614C23.1531 18.9072 23.8955 19.1538 23.8955 19.5514Z" fill="#FB7B76"/>
<path d="M20.621 20.7585C21.2875 20.7585 21.8279 20.2181 21.8279 19.5516C21.8279 18.885 21.2875 18.3447 20.621 18.3447C19.9544 18.3447 19.4141 18.885 19.4141 19.5516C19.4141 20.2181 19.9544 20.7585 20.621 20.7585Z" fill="#DF4D60"/>
</g>
</g>
<defs>
<filter id="filter0_d_0_1" x="-100" y="-441" width="1003" height="832" filterUnits="userSpaceOnUse" color-interpolation-filters="sRGB">
<feFlood flood-opacity="0" result="BackgroundImageFix"/>
<feColorMatrix in="SourceAlpha" type="matrix" values="0 0 0 0 0 0 0 0 0 0 0 0 0 0 0 0 0 0 127 0" result="hardAlpha"/>
<feOffset dy="10"/>
<feGaussianBlur stdDeviation="30"/>
<feColorMatrix type="matrix" values="0 0 0 0 0.164706 0 0 0 0 0.401569 0 0 0 0 0.756863 0 0 0 0.15 0"/>
<feBlend mode="normal" in2="BackgroundImageFix" result="effect1_dropShadow_0_1"/>
<feBlend mode="normal" in="SourceGraphic" in2="effect1_dropShadow_0_1" result="shape"/>
</filter>
<clipPath id="clip0_0_1">
<rect width="1600" height="4476" fill="white" transform="translate(-150 -2674)"/>
</clipPath>
<clipPath id="clip1_0_1">
<rect width="20" height="20" fill="white" transform="translate(7 7)"/>
</clipPath>
</defs>
</svg>
