<svg width="20" height="20" viewBox="0 0 20 20" fill="none" xmlns="http://www.w3.org/2000/svg">
<g clip-path="url(#clip0_467_25)">
<path d="M0 9.99992C0 11.2231 0.220039 12.3948 0.621992 13.4782L10 14.3477L19.378 13.4782C19.78 12.3948 20 11.2231 20 9.99992C20 8.77671 19.78 7.60499 19.378 6.52167L10 5.6521L0.621992 6.52167C0.220039 7.60499 0 8.77671 0 9.99992Z" fill="#FFDA44"/>
<path d="M19.3791 6.52176C17.9661 2.71379 14.3007 0 10.0011 0C5.70141 0 2.03598 2.71379 0.623047 6.52176H19.3791Z" fill="#D80027"/>
<path d="M0.623047 13.4783C2.03598 17.2862 5.70141 20 10.0011 20C14.3007 20 17.9661 17.2862 19.3791 13.4783H0.623047Z" fill="#D80027"/>
</g>
<defs>
<clipPath id="clip0_467_25">
<rect width="20" height="20" fill="white"/>
</clipPath>
</defs>
</svg>
