<svg width="21" height="20" viewBox="0 0 21 20" fill="none" xmlns="http://www.w3.org/2000/svg">
<g clip-path="url(#clip0_280_5309)">
<path d="M20.7668 7.52867C20.5849 6.97509 20.1025 6.58758 19.5252 6.54013L13.9498 6.03401L11.7434 0.869909C11.5141 0.340055 10.9921 0 10.4148 0C9.83754 0 9.31559 0.347964 9.08626 0.877817L6.88776 6.04191L1.31243 6.54804C0.735129 6.59549 0.252725 6.983 0.0708349 7.52867C-0.111055 8.08225 0.0550184 8.67537 0.489973 9.06287L4.70508 12.7639L4.68926 12.8351L3.46348 18.2365C3.33695 18.7979 3.55838 19.3832 4.02497 19.7232C4.27803 19.9051 4.56273 20 4.87115 20C5.13212 20 5.38519 19.9288 5.61453 19.7944L10.4228 16.9158L15.231 19.7865C15.4524 19.9209 15.7134 19.9921 15.9744 19.9921C16.2828 19.9921 16.5754 19.8972 16.8205 19.7153C17.295 19.3752 17.5086 18.79 17.382 18.2285L16.1404 12.756L20.3555 9.06287C20.7747 8.68327 20.9487 8.08225 20.7668 7.52867ZM14.5588 11.4749C14.1634 11.8229 13.9815 12.3606 14.1001 12.8826L15.1282 17.4061L11.1582 15.0336C10.9368 14.8992 10.6758 14.828 10.4148 14.828C10.1539 14.828 9.90081 14.8992 9.67147 15.0336L5.70152 17.4061L6.72959 12.8826C6.84822 12.3685 6.67424 11.8229 6.27091 11.4749L2.79128 8.4223L7.40179 8.00316C7.93165 7.95571 8.39033 7.62357 8.59594 7.13325L10.4148 2.8707L12.2337 7.12535C12.4394 7.61566 12.898 7.94781 13.4358 7.99526L18.0463 8.41439L14.5588 11.4749Z" fill="#F9A502"/>
</g>
<defs>
<clipPath id="clip0_280_5309">
<rect width="20.8383" height="20" fill="white"/>
</clipPath>
</defs>
</svg>
