<svg width="28" height="20" viewBox="0 0 28 20" fill="none" xmlns="http://www.w3.org/2000/svg">
<path d="M27.377 5.74863L14.2623 0.0655738C14.0546 -0.0218579 13.8197 -0.0218579 13.612 0.0655738L0.491803 5.74863C0.185792 5.87978 0 6.1694 0 6.50273C0 6.83607 0.191257 7.12568 0.491803 7.25683L5.2459 9.31694V14.8087C5.2459 17.7213 9.06011 20 13.9344 20C18.8087 20 22.623 17.7213 22.623 14.8087V9.31694L23.6066 8.89071L25.2459 8.18033L27.377 7.25683C27.6831 7.12568 27.8689 6.83607 27.8689 6.50273C27.8689 6.1694 27.6776 5.87978 27.377 5.74863ZM21.0328 8.21858L13.9344 11.2951L2.87978 6.50273L13.9344 1.71038L24.9891 6.50273L23.9945 6.93443L21.0328 8.21858ZM6.88525 10.0273L13.6066 12.9399C13.8142 13.0273 14.0546 13.0273 14.2568 12.9399L20.9781 10.0273V14.8087C20.9781 15.6557 20.2896 16.5191 19.0929 17.1858C17.7268 17.9454 15.8907 18.3661 13.9235 18.3661C11.9617 18.3661 10.1257 17.9454 8.75956 17.1858C7.56284 16.5191 6.87432 15.6557 6.87432 14.8087V10.0273H6.88525Z" fill="#454B58"/>
</svg>
