<svg width="20" height="17" viewBox="0 0 20 17" fill="none" xmlns="http://www.w3.org/2000/svg">
<path opacity="0.4" fill-rule="evenodd" clip-rule="evenodd" d="M9.52439 4.52227L9.56691 5.25756L8.85825 5.16753C6.27873 4.82239 4.02519 3.65191 2.11181 1.68612L1.17638 0.710722L0.935431 1.43101C0.425196 3.03666 0.751179 4.73235 1.81417 5.87281C2.3811 6.50307 2.25354 6.59311 1.27559 6.21795C0.935431 6.0979 0.637794 6.00787 0.609447 6.05289C0.510235 6.15793 0.850392 7.52348 1.11968 8.0637C1.48819 8.814 2.23937 9.5493 3.06141 9.98448L3.7559 10.3296L2.93385 10.3446C2.14015 10.3446 2.11181 10.3596 2.19685 10.6748C2.48031 11.6502 3.59999 12.6856 4.84723 13.1358L5.72597 13.4509L4.96062 13.9311C3.82676 14.6214 2.49448 15.0115 1.1622 15.0415C0.524408 15.0565 0 15.1166 0 15.1616C0 15.3116 1.72913 16.152 2.73543 16.4821C5.75432 17.4575 9.34014 17.0373 12.033 15.3717C13.9464 14.1862 15.8598 11.8302 16.7527 9.5493C17.2346 8.33381 17.7165 6.11291 17.7165 5.04748C17.7165 4.3572 17.759 4.26716 18.5527 3.44183C19.0204 2.96163 19.4598 2.43642 19.5448 2.28636C19.6866 2.00124 19.6724 2.00124 18.9496 2.25635C17.7448 2.70653 17.5748 2.64651 18.17 1.97123C18.6094 1.49104 19.1338 0.620685 19.1338 0.365582C19.1338 0.320564 18.9212 0.395594 18.6803 0.530649C18.4252 0.68071 17.8582 0.905801 17.433 1.04086L16.6677 1.29596L15.9732 0.800758C15.5905 0.530649 15.0519 0.230527 14.7685 0.140491C14.0456 -0.0695944 12.9401 -0.0395823 12.2882 0.200515C10.5165 0.875789 9.39683 2.61649 9.52439 4.52227Z" fill="#454B58"/>
</svg>
