<svg width="16" height="17" viewBox="0 0 16 17" fill="none" xmlns="http://www.w3.org/2000/svg">
<path d="M9.34566 0H5.94133C2.66709 0 0 2.66709 0 5.94133V8.5C0 10.7985 1.3227 12.8801 3.40434 13.8776V16.7181C3.40434 16.9566 3.70791 17.0867 3.88138 16.9133L6.35332 14.4413H9.34566C12.6199 14.4413 15.287 11.7742 15.287 8.5V5.94133C15.287 2.66709 12.6199 0 9.34566 0ZM11.926 10.6684C11.8393 11.037 11.6658 11.3622 11.4056 11.6224C11.037 11.9911 10.5599 12.1645 9.97449 12.1645C9.8227 12.1645 9.64923 12.1429 9.47577 12.1212C8.13138 11.9043 6.2449 11.2538 5.00893 10.0179L4.98724 9.99617C3.77296 8.7602 3.10077 6.87372 2.88393 5.52934C2.75383 4.72704 2.9273 4.05485 3.38265 3.59949C3.64286 3.33929 3.9898 3.14413 4.33673 3.07908C4.3801 3.07908 4.42347 3.07908 4.44515 3.07908L5.83291 3.33929C5.94133 3.36097 6.02806 3.4477 6.04974 3.55612L6.44005 5.55102C6.46173 5.63776 6.44005 5.74617 6.35332 5.81122L5.55102 6.61352C6.22321 8.04464 6.98214 8.80357 8.34821 9.41072L9.17219 8.58673C9.23724 8.52168 9.34566 8.5 9.4324 8.5L11.4273 8.89031C11.5357 8.91199 11.6224 8.99872 11.6441 9.10714L11.9043 10.4949C11.926 10.6033 11.926 10.625 11.926 10.6684ZM8.21811 4.25C8.13138 4.25 8.04464 4.25 7.95791 4.27168C7.80612 4.29337 7.65434 4.18495 7.65434 4.01148C7.63265 3.85969 7.74107 3.70791 7.91454 3.70791C8.02296 3.68622 8.13138 3.68622 8.21811 3.68622C9.77934 3.68622 11.0587 4.96556 11.0587 6.52679C11.0587 6.6352 11.0587 6.74362 11.037 6.83036C11.0153 6.98214 10.8852 7.09056 10.7334 7.09056C10.5816 7.06888 10.4732 6.93878 10.4732 6.78699C10.4732 6.70026 10.4949 6.61352 10.4949 6.52679C10.4732 5.26913 9.45408 4.25 8.21811 4.25ZM9.90944 6.5051C9.90944 6.65689 9.77934 6.78699 9.62755 6.78699C9.47577 6.78699 9.34566 6.65689 9.34566 6.5051C9.34566 5.87628 8.84694 5.37755 8.21811 5.37755C8.06633 5.37755 7.93622 5.24745 7.93622 5.09566C7.93622 4.94388 8.06633 4.81378 8.21811 4.81378C9.15051 4.81378 9.90944 5.5727 9.90944 6.5051ZM12.0778 7.4375C12.0344 7.58929 11.8827 7.6977 11.7309 7.65434C11.5791 7.61097 11.4923 7.45918 11.5357 7.3074C11.6008 7.04719 11.6224 6.78699 11.6224 6.52679C11.6224 4.66199 10.1046 3.12245 8.21811 3.12245C8.13138 3.12245 8.04464 3.12245 7.95791 3.12245C7.80612 3.14413 7.67602 3.01403 7.65434 2.86225C7.63265 2.71046 7.76275 2.58036 7.91454 2.55867C8.02296 2.55867 8.10969 2.53699 8.21811 2.53699C10.4082 2.55867 12.1862 4.33673 12.1862 6.5051C12.1862 6.83036 12.1429 7.13393 12.0778 7.4375Z" fill="#454B58"/>
</svg>
