<svg width="17" height="17" viewBox="0 0 17 17" fill="none" xmlns="http://www.w3.org/2000/svg">
<path opacity="0.4" d="M12.9625 1.275C11.6875 0.425 10.0938 0 8.5 0C3.825 0 0 3.825 0 8.5C0 10.0938 0.425 11.6875 1.38125 13.0688L0 16.4688C0 16.6812 0 16.8937 0.2125 17H0.31875H0.425L3.93125 15.725C7.8625 18.1688 13.175 17 15.6187 12.9625C18.1688 9.03125 17 3.71875 12.9625 1.275ZM12.75 10.9438C12.5375 12.0063 11.6875 12.75 10.625 12.75C9.5625 12.75 7.33125 11.3687 6.48125 10.5187C5.63125 9.66875 4.25 7.4375 4.25 6.375C4.25 5.3125 4.99375 4.4625 6.05625 4.25H6.8C6.90625 4.25 7.0125 4.35625 7.11875 4.4625C7.11875 4.4625 7.54375 5.3125 7.8625 5.84375C8.075 6.48125 7.4375 7.225 7.11875 7.54375C7.33125 8.075 7.65 8.60625 7.96875 8.925C8.5 9.35 8.925 9.66875 9.45625 9.88125C9.775 9.5625 10.5188 8.925 11.1562 9.24375C11.6875 9.5625 12.5375 9.9875 12.5375 9.9875C12.6438 9.9875 12.75 10.0938 12.75 10.3062V10.9438Z" fill="#454B58"/>
</svg>
