<svg width="115" height="40" viewBox="0 0 115 40" fill="none" xmlns="http://www.w3.org/2000/svg">
<rect x="0.5" y="0.5" width="114" height="39" rx="11.5" fill="black"/>
<path d="M11.444 29V10.8H19.972C22.156 10.8 23.82 11.2333 24.964 12.1C26.108 12.9493 26.68 14.0933 26.68 15.532C26.68 16.5027 26.4547 17.3347 26.004 18.028C25.5533 18.704 24.9467 19.2327 24.184 19.614C23.4387 19.978 22.624 20.16 21.74 20.16L22.208 19.224C23.2307 19.224 24.1493 19.4147 24.964 19.796C25.7787 20.16 26.42 20.6973 26.888 21.408C27.3733 22.1187 27.616 23.0027 27.616 24.06C27.616 25.62 27.018 26.8333 25.822 27.7C24.626 28.5667 22.8493 29 20.492 29H11.444ZM14.824 26.348H20.284C21.5493 26.348 22.52 26.14 23.196 25.724C23.872 25.308 24.21 24.6407 24.21 23.722C24.21 22.8207 23.872 22.162 23.196 21.746C22.52 21.3127 21.5493 21.096 20.284 21.096H14.564V18.47H19.608C20.7867 18.47 21.688 18.262 22.312 17.846C22.9533 17.43 23.274 16.806 23.274 15.974C23.274 15.1247 22.9533 14.492 22.312 14.076C21.688 13.66 20.7867 13.452 19.608 13.452H14.824V26.348ZM37.4373 29.182C35.8946 29.182 34.5426 28.8787 33.3813 28.272C32.2373 27.648 31.3446 26.7987 30.7033 25.724C30.0793 24.6493 29.7673 23.4273 29.7673 22.058C29.7673 20.6713 30.0706 19.4493 30.6773 18.392C31.3013 17.3173 32.1506 16.4767 33.2253 15.87C34.3173 15.2633 35.5566 14.96 36.9433 14.96C38.2953 14.96 39.5 15.2547 40.5573 15.844C41.6146 16.4333 42.4466 17.2653 43.0533 18.34C43.66 19.4147 43.9633 20.68 43.9633 22.136C43.9633 22.2747 43.9546 22.4307 43.9373 22.604C43.9373 22.7773 43.9286 22.942 43.9113 23.098H32.3413V20.94H42.1953L40.9213 21.616C40.9386 20.8187 40.774 20.1167 40.4273 19.51C40.0806 18.9033 39.604 18.4267 38.9973 18.08C38.408 17.7333 37.7233 17.56 36.9433 17.56C36.146 17.56 35.444 17.7333 34.8373 18.08C34.248 18.4267 33.78 18.912 33.4333 19.536C33.104 20.1427 32.9393 20.862 32.9393 21.694V22.214C32.9393 23.046 33.13 23.7827 33.5113 24.424C33.8926 25.0653 34.43 25.5593 35.1233 25.906C35.8166 26.2527 36.614 26.426 37.5153 26.426C38.2953 26.426 38.9973 26.3047 39.6213 26.062C40.2453 25.8193 40.8 25.438 41.2853 24.918L43.0273 26.92C42.4033 27.648 41.6146 28.2113 40.6613 28.61C39.7253 28.9913 38.6506 29.182 37.4373 29.182ZM47.3971 29V10.8H55.9251C58.1091 10.8 59.7731 11.2333 60.9171 12.1C62.0611 12.9493 62.6331 14.0933 62.6331 15.532C62.6331 16.5027 62.4078 17.3347 61.9571 18.028C61.5065 18.704 60.8998 19.2327 60.1371 19.614C59.3918 19.978 58.5771 20.16 57.6931 20.16L58.1611 19.224C59.1838 19.224 60.1025 19.4147 60.9171 19.796C61.7318 20.16 62.3731 20.6973 62.8411 21.408C63.3265 22.1187 63.5691 23.0027 63.5691 24.06C63.5691 25.62 62.9711 26.8333 61.7751 27.7C60.5791 28.5667 58.8025 29 56.4451 29H47.3971ZM50.7771 26.348H56.2371C57.5025 26.348 58.4731 26.14 59.1491 25.724C59.8251 25.308 60.1631 24.6407 60.1631 23.722C60.1631 22.8207 59.8251 22.162 59.1491 21.746C58.4731 21.3127 57.5025 21.096 56.2371 21.096H50.5171V18.47H55.5611C56.7398 18.47 57.6411 18.262 58.2651 17.846C58.9065 17.43 59.2271 16.806 59.2271 15.974C59.2271 15.1247 58.9065 14.492 58.2651 14.076C57.6411 13.66 56.7398 13.452 55.5611 13.452H50.7771V26.348ZM73.3904 29.182C71.8478 29.182 70.4958 28.8787 69.3344 28.272C68.1904 27.648 67.2978 26.7987 66.6564 25.724C66.0324 24.6493 65.7204 23.4273 65.7204 22.058C65.7204 20.6713 66.0238 19.4493 66.6304 18.392C67.2544 17.3173 68.1038 16.4767 69.1784 15.87C70.2704 15.2633 71.5098 14.96 72.8964 14.96C74.2484 14.96 75.4531 15.2547 76.5104 15.844C77.5678 16.4333 78.3998 17.2653 79.0064 18.34C79.6131 19.4147 79.9164 20.68 79.9164 22.136C79.9164 22.2747 79.9078 22.4307 79.8904 22.604C79.8904 22.7773 79.8818 22.942 79.8644 23.098H68.2944V20.94H78.1484L76.8744 21.616C76.8918 20.8187 76.7271 20.1167 76.3804 19.51C76.0338 18.9033 75.5571 18.4267 74.9504 18.08C74.3611 17.7333 73.6764 17.56 72.8964 17.56C72.0991 17.56 71.3971 17.7333 70.7904 18.08C70.2011 18.4267 69.7331 18.912 69.3864 19.536C69.0571 20.1427 68.8924 20.862 68.8924 21.694V22.214C68.8924 23.046 69.0831 23.7827 69.4644 24.424C69.8458 25.0653 70.3831 25.5593 71.0764 25.906C71.7698 26.2527 72.5671 26.426 73.4684 26.426C74.2484 26.426 74.9504 26.3047 75.5744 26.062C76.1984 25.8193 76.7531 25.438 77.2384 24.918L78.9804 26.92C78.3564 27.648 77.5678 28.2113 76.6144 28.61C75.6784 28.9913 74.6038 29.182 73.3904 29.182ZM87.3283 29.182C86.1669 29.182 85.0489 29.0347 83.9743 28.74C82.9169 28.428 82.0763 28.0553 81.4523 27.622L82.7003 25.152C83.3243 25.5507 84.0696 25.88 84.9363 26.14C85.8029 26.4 86.6696 26.53 87.5363 26.53C88.5589 26.53 89.2956 26.3913 89.7463 26.114C90.2143 25.8367 90.4483 25.464 90.4483 24.996C90.4483 24.6147 90.2923 24.3287 89.9803 24.138C89.6683 23.93 89.2609 23.774 88.7583 23.67C88.2556 23.566 87.6923 23.4707 87.0683 23.384C86.4616 23.2973 85.8463 23.1847 85.2223 23.046C84.6156 22.89 84.0609 22.6733 83.5583 22.396C83.0556 22.1013 82.6483 21.7113 82.3363 21.226C82.0243 20.7407 81.8683 20.0993 81.8683 19.302C81.8683 18.418 82.1196 17.6553 82.6222 17.014C83.1249 16.3553 83.8269 15.8527 84.7282 15.506C85.6469 15.142 86.7303 14.96 87.9783 14.96C88.9143 14.96 89.8589 15.064 90.8123 15.272C91.7656 15.48 92.5543 15.7747 93.1783 16.156L91.9303 18.626C91.2716 18.2273 90.6043 17.9587 89.9283 17.82C89.2696 17.664 88.6109 17.586 87.9523 17.586C86.9643 17.586 86.2276 17.7333 85.7423 18.028C85.2743 18.3227 85.0403 18.6953 85.0403 19.146C85.0403 19.562 85.1963 19.874 85.5083 20.082C85.8203 20.29 86.2276 20.4547 86.7303 20.576C87.2329 20.6973 87.7876 20.8013 88.3943 20.888C89.0183 20.9573 89.6336 21.07 90.2403 21.226C90.8469 21.382 91.4016 21.5987 91.9043 21.876C92.4243 22.136 92.8403 22.5087 93.1523 22.994C93.4643 23.4793 93.6203 24.112 93.6203 24.892C93.6203 25.7587 93.3603 26.5127 92.8403 27.154C92.3376 27.7953 91.6183 28.298 90.6823 28.662C89.7463 29.0087 88.6283 29.182 87.3283 29.182ZM101.645 29.182C100.12 29.182 98.9411 28.792 98.1091 28.012C97.2771 27.2147 96.8611 26.0447 96.8611 24.502V12.048H100.111V24.424C100.111 25.0827 100.276 25.594 100.605 25.958C100.952 26.322 101.428 26.504 102.035 26.504C102.763 26.504 103.37 26.3133 103.855 25.932L104.765 28.246C104.384 28.558 103.916 28.792 103.361 28.948C102.806 29.104 102.234 29.182 101.645 29.182ZM94.5731 17.82V15.22H103.829V17.82H94.5731Z" fill="url(#paint0_linear_73_6)"/>
<rect x="0.5" y="0.5" width="114" height="39" rx="11.5" stroke="url(#paint1_linear_73_6)"/>
<defs>
<linearGradient id="paint0_linear_73_6" x1="9" y1="20" x2="106" y2="20" gradientUnits="userSpaceOnUse">
<stop stop-color="#F04973"/>
<stop offset="1" stop-color="#FA6655"/>
</linearGradient>
<linearGradient id="paint1_linear_73_6" x1="0" y1="20" x2="115" y2="20" gradientUnits="userSpaceOnUse">
<stop stop-color="#F14A73"/>
<stop offset="1" stop-color="#FA6656"/>
</linearGradient>
</defs>
</svg>
