<svg>
	<defs>
		<symbol id="student"
				width="28px"
				height="20px"
				viewBox="0 0 28 20"
				xmlns="http://www.w3.org/2000/svg">
			<path
				  d="M27.377 5.74863L14.2623 0.0655738C14.0546 -0.0218579 13.8197 -0.0218579 13.612 0.0655738L0.491803 5.74863C0.185792 5.87978 0 6.1694 0 6.50273C0 6.83607 0.191257 7.12568 0.491803 7.25683L5.2459 9.31694V14.8087C5.2459 17.7213 9.06011 20 13.9344 20C18.8087 20 22.623 17.7213 22.623 14.8087V9.31694L23.6066 8.89071L25.2459 8.18033L27.377 7.25683C27.6831 7.12568 27.8689 6.83607 27.8689 6.50273C27.8689 6.1694 27.6776 5.87978 27.377 5.74863ZM21.0328 8.21858L13.9344 11.2951L2.87978 6.50273L13.9344 1.71038L24.9891 6.50273L23.9945 6.93443L21.0328 8.21858ZM6.88525 10.0273L13.6066 12.9399C13.8142 13.0273 14.0546 13.0273 14.2568 12.9399L20.9781 10.0273V14.8087C20.9781 15.6557 20.2896 16.5191 19.0929 17.1858C17.7268 17.9454 15.8907 18.3661 13.9235 18.3661C11.9617 18.3661 10.1257 17.9454 8.75956 17.1858C7.56284 16.5191 6.87432 15.6557 6.87432 14.8087V10.0273H6.88525Z" />
		</symbol>
		<symbol id="notify"
				width="17"
				height="20"
				viewBox="0 0 17 20"
				xmlns="http://www.w3.org/2000/svg">
			<path
				  d="M16.1533 14.6858C14.9617 13.6782 14.2759 12.2031 14.2759 10.6437V8.36398C14.2759 5.37548 12.0498 2.90038 9.16858 2.50575V0.804598C9.16858 0.360153 8.80843 0 8.36399 0C7.91954 0 7.55939 0.360153 7.55939 0.804598V2.50575C4.67816 2.90038 2.45211 5.37931 2.45211 8.36398V10.6437C2.45211 12.2031 1.76628 13.682 0.56705 14.6935C0.206897 15.0038 0 15.4521 0 15.9272C0 16.8199 0.727969 17.5479 1.62069 17.5479H5.21073C5.57088 18.954 6.84674 20 8.36782 20C9.88889 20 11.1648 18.954 11.5249 17.5479H15.1111C16.0038 17.5479 16.7318 16.8199 16.7318 15.9272C16.7318 15.4521 16.5211 15 16.1533 14.6858ZM8.36399 18.3908C7.74713 18.3908 7.21073 18.0498 6.9272 17.5479H9.80077C9.52107 18.0498 8.98084 18.3908 8.36399 18.3908ZM1.62069 15.9387C1.61686 15.9387 1.6092 15.931 1.6092 15.9272C1.6092 15.9234 1.6092 15.9195 1.61303 15.9157C3.16858 14.6015 4.0613 12.682 4.0613 10.6437V8.36398C4.0613 5.99234 5.99234 4.0613 8.36399 4.0613C10.7356 4.0613 12.6667 5.99234 12.6667 8.36398V10.6437C12.6667 12.6782 13.5594 14.6015 15.1149 15.9157C15.1188 15.9195 15.1188 15.9234 15.1188 15.9234C15.1188 15.9272 15.1111 15.9349 15.1073 15.9349H1.62069V15.9387Z" />
		</symbol>
		<symbol id="mess"
				width="20"
				height="20"
				viewBox="0 0 20 20"
				xmlns="http://www.w3.org/2000/svg">
			<path
				  d="M16.7906 2.87906C14.944 1.02655 12.4838 0 9.87021 0H9.75811L9.75221 0.00589971C4.37168 0.0530973 0 4.46018 0 9.84071C0 11.9882 0.725664 14.1062 2.0413 15.8112L0.707965 18.9027C0.625369 19.0973 0.619469 19.3097 0.702065 19.5103C0.778761 19.705 0.926254 19.8584 1.11504 19.9351C1.21534 19.9764 1.32153 20 1.43363 20C1.47493 20 1.52212 19.9941 1.56932 19.9882L6.60767 19.1032C7.62832 19.4631 8.69027 19.646 9.76991 19.646H9.81121C15.233 19.646 19.646 15.233 19.646 9.81121C19.6519 7.19764 18.6372 4.73156 16.7906 2.87906ZM3.67552 15.9941C3.79351 15.7168 3.74631 15.3923 3.55162 15.1681C2.94985 14.472 2.47788 13.6873 2.14749 12.8319C1.76991 11.8702 1.58112 10.8673 1.58112 9.83481C1.58112 5.28024 5.28614 1.56932 9.84661 1.56932H9.86431C14.3894 1.56932 18.0767 5.25074 18.0826 9.77581V9.80531C18.0826 14.3658 14.3776 18.0767 9.81711 18.0767C8.84366 18.0767 7.88201 17.8997 6.96755 17.5575C6.83776 17.5044 6.69617 17.4926 6.54867 17.5162L2.73156 18.1829L3.67552 15.9941Z" />
			<path
				  d="M6.58935 9.22704H13C13.4366 9.22704 13.7847 8.87305 13.7847 8.44238C13.7847 8.0117 13.4307 7.65771 13 7.65771H6.58935C6.15277 7.65771 5.80469 8.0117 5.80469 8.44238C5.80469 8.87305 6.15867 9.22704 6.58935 9.22704Z" />
			<path
				  d="M13.0613 11.8347C13.4979 11.8347 13.846 11.4807 13.846 11.05C13.846 10.6194 13.492 10.2654 13.0613 10.2654H6.58935C6.15277 10.2654 5.80469 10.6194 5.80469 11.05C5.80469 11.4807 6.15867 11.8347 6.58935 11.8347H13.0613Z" />
		</symbol>
		<symbol id="user"
				width="20px"
				height="20px"
				viewBox="0 0 20 20"
				xmlns="http://www.w3.org/2000/svg">
			<path d="M18.4135 12.6958C17.7507 12.1133 16.9469 11.6101 16.0242 11.2001C15.6297 11.0249 15.1682 11.2025 14.993 11.5968C14.8178 11.9911 14.9954 12.4527 15.3897 12.628C16.1678 12.9738 16.8382 13.3914 17.3822 13.8695C18.0528 14.4588 18.4375 15.312 18.4375 16.2109V17.6562C18.4375 18.087 18.087 18.4375 17.6562 18.4375H2.34375C1.91299 18.4375 1.5625 18.087 1.5625 17.6562V16.2109C1.5625 15.312 1.94717 14.4588 2.6178 13.8695C3.40714 13.1758 5.70694 11.5625 10 11.5625C13.1877 11.5625 15.7812 8.96896 15.7812 5.78125C15.7812 2.59354 13.1877 0 10 0C6.81229 0 4.21875 2.59354 4.21875 5.78125C4.21875 7.64481 5.10529 9.30496 6.47858 10.3629C3.96576 10.9152 2.40265 11.9785 1.58646 12.6958C0.578308 13.5815 0 14.8627 0 16.2109V17.6562C0 18.9487 1.05133 20 2.34375 20H17.6562C18.9487 20 20 18.9487 20 17.6562V16.2109C20 14.8627 19.4217 13.5815 18.4135 12.6958ZM5.78125 5.78125C5.78125 3.45505 7.6738 1.5625 10 1.5625C12.3262 1.5625 14.2188 3.45505 14.2188 5.78125C14.2188 8.10745 12.3262 10 10 10C7.6738 10 5.78125 8.10745 5.78125 5.78125Z"
				  fill="url(#paint0_linear_342_132)" />
			<defs>
				<linearGradient id="paint0_linear_342_132"
								x1="-1.49012e-07"
								y1="10"
								x2="20"
								y2="10"
								gradientUnits="userSpaceOnUse">
					<stop stop-color="#F04973" />
					<stop offset="1"
						  stop-color="#FA6655" />
				</linearGradient>
			</defs>
		</symbol>

		<symbol id="facebook"
				width="7px"
				height="17px"
				viewBox="0 0 7 17"
				xmlns="http://www.w3.org/2000/svg">

		<symbol id="facebook" width="7px" height="17px" viewBox="0 0 7 17" xmlns="http://www.w3.org/2000/svg">
			<path
				d="M1.44248 17H4.42359V8.5H6.44306L6.68347 5.49667H4.42359V3.74C4.42359 3.06 4.80825 2.94667 5.04867 2.94667H6.68347V0H4.47168C1.97138 0 1.44248 2.15333 1.44248 3.57V5.49667H0V8.5H1.44248V17Z" />
		</symbol>
		<symbol id="instagram" width="17px" height="17px" viewBox="0 0 17 17" xmlns="http://www.w3.org/2000/svg">
			<path
				d="M13.4783 0H3.23035C1.44809 0 0 1.47333 0 3.28667V6.74333V13.7133C0 15.5267 1.44809 17 3.23035 17H13.4783C15.2606 17 16.7087 15.5267 16.7087 13.7133V6.74333V3.28667C16.7087 1.47333 15.2606 0 13.4783 0ZM14.4252 1.98333H14.815V2.38V4.87333H11.9746V1.98333H14.4252ZM5.95943 6.74333C6.51639 6.00667 7.35182 5.49667 8.35434 5.49667C9.35686 5.49667 10.1923 6.00667 10.7493 6.74333C11.0834 7.25333 11.3062 7.82 11.3062 8.5C11.3062 10.1433 9.96952 11.5033 8.35434 11.5033C6.73917 11.5033 5.40247 10.1433 5.40247 8.5C5.40247 7.82 5.62526 7.25333 5.95943 6.74333ZM15.0935 13.7133C15.0935 14.62 14.3695 15.3567 13.4783 15.3567H3.23035C2.33922 15.3567 1.61517 14.62 1.61517 13.7133V6.74333H4.12148C3.89869 7.31 3.7873 7.87667 3.7873 8.5C3.7873 11.05 5.84804 13.1467 8.35434 13.1467C10.8606 13.1467 12.9214 11.05 12.9214 8.5C12.9214 7.87667 12.81 7.31 12.5872 6.74333H15.0935V13.7133Z" />
		</symbol>
		<symbol id="twitter" width="20px" height="17px" viewBox="0 0 20 17" xmlns="http://www.w3.org/2000/svg">
			<path fill-rule="evenodd" clip-rule="evenodd"
				d="M9.52439 4.52227L9.56691 5.25756L8.85825 5.16753C6.27873 4.82239 4.02519 3.65191 2.11181 1.68612L1.17638 0.710722L0.935431 1.43101C0.425196 3.03666 0.751179 4.73235 1.81417 5.87281C2.3811 6.50307 2.25354 6.59311 1.27559 6.21795C0.935431 6.0979 0.637794 6.00787 0.609447 6.05289C0.510235 6.15793 0.850392 7.52348 1.11968 8.0637C1.48819 8.814 2.23937 9.5493 3.06141 9.98448L3.7559 10.3296L2.93385 10.3446C2.14015 10.3446 2.11181 10.3596 2.19685 10.6748C2.48031 11.6502 3.59999 12.6856 4.84723 13.1358L5.72597 13.4509L4.96062 13.9311C3.82676 14.6214 2.49448 15.0115 1.1622 15.0415C0.524408 15.0565 0 15.1166 0 15.1616C0 15.3116 1.72913 16.152 2.73543 16.4821C5.75432 17.4575 9.34014 17.0373 12.033 15.3717C13.9464 14.1862 15.8598 11.8302 16.7527 9.5493C17.2346 8.33381 17.7165 6.11291 17.7165 5.04748C17.7165 4.3572 17.759 4.26716 18.5527 3.44183C19.0204 2.96163 19.4598 2.43642 19.5448 2.28636C19.6866 2.00124 19.6724 2.00124 18.9496 2.25635C17.7448 2.70653 17.5748 2.64651 18.17 1.97123C18.6094 1.49104 19.1338 0.620685 19.1338 0.365582C19.1338 0.320564 18.9212 0.395594 18.6803 0.530649C18.4252 0.68071 17.8582 0.905801 17.433 1.04086L16.6677 1.29596L15.9732 0.800758C15.5905 0.530649 15.0519 0.230527 14.7685 0.140491C14.0456 -0.0695944 12.9401 -0.0395823 12.2882 0.200515C10.5165 0.875789 9.39683 2.61649 9.52439 4.52227Z" />
		</symbol>
		<symbol id="whatsup" width="17px" height="17px" viewBox="0 0 17 17" xmlns="http://www.w3.org/2000/svg">
			<path
				d="M12.9625 1.275C11.6875 0.425 10.0938 0 8.5 0C3.825 0 0 3.825 0 8.5C0 10.0938 0.425 11.6875 1.38125 13.0688L0 16.4688C0 16.6812 0 16.8937 0.2125 17H0.31875H0.425L3.93125 15.725C7.8625 18.1688 13.175 17 15.6187 12.9625C18.1688 9.03125 17 3.71875 12.9625 1.275ZM12.75 10.9438C12.5375 12.0063 11.6875 12.75 10.625 12.75C9.5625 12.75 7.33125 11.3687 6.48125 10.5187C5.63125 9.66875 4.25 7.4375 4.25 6.375C4.25 5.3125 4.99375 4.4625 6.05625 4.25H6.8C6.90625 4.25 7.0125 4.35625 7.11875 4.4625C7.11875 4.4625 7.54375 5.3125 7.8625 5.84375C8.075 6.48125 7.4375 7.225 7.11875 7.54375C7.33125 8.075 7.65 8.60625 7.96875 8.925C8.5 9.35 8.925 9.66875 9.45625 9.88125C9.775 9.5625 10.5188 8.925 11.1562 9.24375C11.6875 9.5625 12.5375 9.9875 12.5375 9.9875C12.6438 9.9875 12.75 10.0938 12.75 10.3062V10.9438Z" />
		</symbol>
		<symbol id="telegram" width="17px" height="15px" viewBox="0 0 17 15" xmlns="http://www.w3.org/2000/svg">

			<path
				  d="M1.44248 17H4.42359V8.5H6.44306L6.68347 5.49667H4.42359V3.74C4.42359 3.06 4.80825 2.94667 5.04867 2.94667H6.68347V0H4.47168C1.97138 0 1.44248 2.15333 1.44248 3.57V5.49667H0V8.5H1.44248V17Z" />
		</symbol>
		<symbol id="instagram"
				width="17px"
				height="17px"
				viewBox="0 0 17 17"
				xmlns="http://www.w3.org/2000/svg">
			<path

				  d="M13.4783 0H3.23035C1.44809 0 0 1.47333 0 3.28667V6.74333V13.7133C0 15.5267 1.44809 17 3.23035 17H13.4783C15.2606 17 16.7087 15.5267 16.7087 13.7133V6.74333V3.28667C16.7087 1.47333 15.2606 0 13.4783 0ZM14.4252 1.98333H14.815V2.38V4.87333H11.9746V1.98333H14.4252ZM5.95943 6.74333C6.51639 6.00667 7.35182 5.49667 8.35434 5.49667C9.35686 5.49667 10.1923 6.00667 10.7493 6.74333C11.0834 7.25333 11.3062 7.82 11.3062 8.5C11.3062 10.1433 9.96952 11.5033 8.35434 11.5033C6.73917 11.5033 5.40247 10.1433 5.40247 8.5C5.40247 7.82 5.62526 7.25333 5.95943 6.74333ZM15.0935 13.7133C15.0935 14.62 14.3695 15.3567 13.4783 15.3567H3.23035C2.33922 15.3567 1.61517 14.62 1.61517 13.7133V6.74333H4.12148C3.89869 7.31 3.7873 7.87667 3.7873 8.5C3.7873 11.05 5.84804 13.1467 8.35434 13.1467C10.8606 13.1467 12.9214 11.05 12.9214 8.5C12.9214 7.87667 12.81 7.31 12.5872 6.74333H15.0935V13.7133Z" />
		</symbol>
		<symbol id="twitter"
				width="20px"
				height="17px"
				viewBox="0 0 20 17"
				xmlns="http://www.w3.org/2000/svg">
			<path fill-rule="evenodd"
				  clip-rule="evenodd"
				  d="M9.52439 4.52227L9.56691 5.25756L8.85825 5.16753C6.27873 4.82239 4.02519 3.65191 2.11181 1.68612L1.17638 0.710722L0.935431 1.43101C0.425196 3.03666 0.751179 4.73235 1.81417 5.87281C2.3811 6.50307 2.25354 6.59311 1.27559 6.21795C0.935431 6.0979 0.637794 6.00787 0.609447 6.05289C0.510235 6.15793 0.850392 7.52348 1.11968 8.0637C1.48819 8.814 2.23937 9.5493 3.06141 9.98448L3.7559 10.3296L2.93385 10.3446C2.14015 10.3446 2.11181 10.3596 2.19685 10.6748C2.48031 11.6502 3.59999 12.6856 4.84723 13.1358L5.72597 13.4509L4.96062 13.9311C3.82676 14.6214 2.49448 15.0115 1.1622 15.0415C0.524408 15.0565 0 15.1166 0 15.1616C0 15.3116 1.72913 16.152 2.73543 16.4821C5.75432 17.4575 9.34014 17.0373 12.033 15.3717C13.9464 14.1862 15.8598 11.8302 16.7527 9.5493C17.2346 8.33381 17.7165 6.11291 17.7165 5.04748C17.7165 4.3572 17.759 4.26716 18.5527 3.44183C19.0204 2.96163 19.4598 2.43642 19.5448 2.28636C19.6866 2.00124 19.6724 2.00124 18.9496 2.25635C17.7448 2.70653 17.5748 2.64651 18.17 1.97123C18.6094 1.49104 19.1338 0.620685 19.1338 0.365582C19.1338 0.320564 18.9212 0.395594 18.6803 0.530649C18.4252 0.68071 17.8582 0.905801 17.433 1.04086L16.6677 1.29596L15.9732 0.800758C15.5905 0.530649 15.0519 0.230527 14.7685 0.140491C14.0456 -0.0695944 12.9401 -0.0395823 12.2882 0.200515C10.5165 0.875789 9.39683 2.61649 9.52439 4.52227Z" />
		</symbol>
		<symbol id="whatsup"
				width="17px"
				height="17px"
				viewBox="0 0 17 17"
				xmlns="http://www.w3.org/2000/svg">
			<path
				  d="M12.9625 1.275C11.6875 0.425 10.0938 0 8.5 0C3.825 0 0 3.825 0 8.5C0 10.0938 0.425 11.6875 1.38125 13.0688L0 16.4688C0 16.6812 0 16.8937 0.2125 17H0.31875H0.425L3.93125 15.725C7.8625 18.1688 13.175 17 15.6187 12.9625C18.1688 9.03125 17 3.71875 12.9625 1.275ZM12.75 10.9438C12.5375 12.0063 11.6875 12.75 10.625 12.75C9.5625 12.75 7.33125 11.3687 6.48125 10.5187C5.63125 9.66875 4.25 7.4375 4.25 6.375C4.25 5.3125 4.99375 4.4625 6.05625 4.25H6.8C6.90625 4.25 7.0125 4.35625 7.11875 4.4625C7.11875 4.4625 7.54375 5.3125 7.8625 5.84375C8.075 6.48125 7.4375 7.225 7.11875 7.54375C7.33125 8.075 7.65 8.60625 7.96875 8.925C8.5 9.35 8.925 9.66875 9.45625 9.88125C9.775 9.5625 10.5188 8.925 11.1562 9.24375C11.6875 9.5625 12.5375 9.9875 12.5375 9.9875C12.6438 9.9875 12.75 10.0938 12.75 10.3062V10.9438Z" />
		</symbol>
		<symbol id="telegram"
				width="17px"
				height="15px"
				viewBox="0 0 17 15"
				xmlns="http://www.w3.org/2000/svg">
			<path
				  d="M6.6705 9.75309L6.38929 13.7084C6.79163 13.7084 6.96588 13.5356 7.17484 13.328L9.06113 11.5253L12.9697 14.3877C13.6865 14.7872 14.1916 14.5768 14.385 13.7283L16.9505 1.70642L16.9513 1.70571C17.1786 0.646047 16.568 0.231672 15.8696 0.49163L0.789209 6.26526C-0.239999 6.66476 -0.224416 7.23851 0.614251 7.49846L4.46971 8.69767L13.4252 3.09405C13.8466 2.81496 14.2298 2.96938 13.9146 3.24846L6.6705 9.75309Z" />
		</symbol>
		<symbol id="viber"
				width="16px"
				height="17px"
				viewBox="0 0 16 17"
				xmlns="http://www.w3.org/2000/svg">
			<path
				  d="M9.34566 0H5.94133C2.66709 0 0 2.66709 0 5.94133V8.5C0 10.7985 1.3227 12.8801 3.40434 13.8776V16.7181C3.40434 16.9566 3.70791 17.0867 3.88138 16.9133L6.35332 14.4413H9.34566C12.6199 14.4413 15.287 11.7742 15.287 8.5V5.94133C15.287 2.66709 12.6199 0 9.34566 0ZM11.926 10.6684C11.8393 11.037 11.6658 11.3622 11.4056 11.6224C11.037 11.9911 10.5599 12.1645 9.97449 12.1645C9.8227 12.1645 9.64923 12.1429 9.47577 12.1212C8.13138 11.9043 6.2449 11.2538 5.00893 10.0179L4.98724 9.99617C3.77296 8.7602 3.10077 6.87372 2.88393 5.52934C2.75383 4.72704 2.9273 4.05485 3.38265 3.59949C3.64286 3.33929 3.9898 3.14413 4.33673 3.07908C4.3801 3.07908 4.42347 3.07908 4.44515 3.07908L5.83291 3.33929C5.94133 3.36097 6.02806 3.4477 6.04974 3.55612L6.44005 5.55102C6.46173 5.63776 6.44005 5.74617 6.35332 5.81122L5.55102 6.61352C6.22321 8.04464 6.98214 8.80357 8.34821 9.41072L9.17219 8.58673C9.23724 8.52168 9.34566 8.5 9.4324 8.5L11.4273 8.89031C11.5357 8.91199 11.6224 8.99872 11.6441 9.10714L11.9043 10.4949C11.926 10.6033 11.926 10.625 11.926 10.6684ZM8.21811 4.25C8.13138 4.25 8.04464 4.25 7.95791 4.27168C7.80612 4.29337 7.65434 4.18495 7.65434 4.01148C7.63265 3.85969 7.74107 3.70791 7.91454 3.70791C8.02296 3.68622 8.13138 3.68622 8.21811 3.68622C9.77934 3.68622 11.0587 4.96556 11.0587 6.52679C11.0587 6.6352 11.0587 6.74362 11.037 6.83036C11.0153 6.98214 10.8852 7.09056 10.7334 7.09056C10.5816 7.06888 10.4732 6.93878 10.4732 6.78699C10.4732 6.70026 10.4949 6.61352 10.4949 6.52679C10.4732 5.26913 9.45408 4.25 8.21811 4.25ZM9.90944 6.5051C9.90944 6.65689 9.77934 6.78699 9.62755 6.78699C9.47577 6.78699 9.34566 6.65689 9.34566 6.5051C9.34566 5.87628 8.84694 5.37755 8.21811 5.37755C8.06633 5.37755 7.93622 5.24745 7.93622 5.09566C7.93622 4.94388 8.06633 4.81378 8.21811 4.81378C9.15051 4.81378 9.90944 5.5727 9.90944 6.5051ZM12.0778 7.4375C12.0344 7.58929 11.8827 7.6977 11.7309 7.65434C11.5791 7.61097 11.4923 7.45918 11.5357 7.3074C11.6008 7.04719 11.6224 6.78699 11.6224 6.52679C11.6224 4.66199 10.1046 3.12245 8.21811 3.12245C8.13138 3.12245 8.04464 3.12245 7.95791 3.12245C7.80612 3.14413 7.67602 3.01403 7.65434 2.86225C7.63265 2.71046 7.76275 2.58036 7.91454 2.55867C8.02296 2.55867 8.10969 2.53699 8.21811 2.53699C10.4082 2.55867 12.1862 4.33673 12.1862 6.5051C12.1862 6.83036 12.1429 7.13393 12.0778 7.4375Z" />
		</symbol>
		<symbol xmlns="http://www.w3.org/2000/svg"
				width="13"
				height="13"
				viewBox="0 0 13 13"
				id="star">
			<g clip-path="url(#clip0_280_4977)">
				<path
					  d="M6.06303 0.293785C6.13311 0.110169 6.30831 0 6.48352 0C6.65872 0 6.83392 0.110169 6.93904 0.293785L8.5509 3.74576C8.62098 3.89265 8.76114 4.00282 8.93635 4.03955L12.5455 4.59039C12.7207 4.62712 12.8959 4.77401 12.966 4.95763C13.0361 5.14124 12.966 5.36158 12.8258 5.50847L10.1978 8.18926C10.0927 8.29943 10.0226 8.48305 10.0576 8.66667L10.6884 12.4492C10.7234 12.6328 10.6533 12.8531 10.4781 12.9633C10.338 13.0734 10.1277 13.1102 9.95252 13L6.7288 11.2006C6.58864 11.1271 6.41343 11.1271 6.27327 11.2006L3.04955 13C2.87435 13.1102 2.66411 13.0734 2.52395 12.9633C2.38378 12.8531 2.27866 12.6328 2.3137 12.4492L2.94443 8.66667C2.97947 8.48305 2.90939 8.33616 2.80427 8.18926L0.176238 5.50847C0.0360759 5.36158 0.00103544 5.14124 0.0360759 4.95763C0.106157 4.77401 0.246318 4.62712 0.456561 4.59039L4.06573 4.03955C4.24093 4.00282 4.38109 3.89265 4.45117 3.74576L6.06303 0.293785Z" />
			</g>
			<defs>
				<clipPath id="clip0_280_4977">
					<rect width="13"
						  height="13"
						  fill="white" />
				</clipPath>
			</defs>
		</symbol>

			<symbol id="slider-arrow" width="8" height="50" viewBox="0 0 8 50" fill="none" xmlns="http://www.w3.org/2000/svg">
			
				<path d="M3.64644 49.4445C3.8417 49.6397 4.15828 49.6397 4.35355 49.4445L7.53553 46.2625C7.73079 46.0672 7.73079 45.7506 7.53553 45.5554C7.34027 45.3601 7.02368 45.3601 6.82842 45.5554L3.99999 48.3838L1.17157 45.5554C0.976305 45.3601 0.659722 45.3601 0.46446 45.5554C0.269198 45.7506 0.269198 46.0672 0.46446 46.2625L3.64644 49.4445ZM3.5 -6.55671e-08L3.49999 49.0909L4.49999 49.0909L4.5 6.55671e-08L3.5 -6.55671e-08Z" fill="#C7D3E4"/>
		</symbol>

	</defs>


</svg>

		</symbol>
		<symbol id="like" width="21" height="19" viewBox="0 0 21 19" xmlns="http://www.w3.org/2000/svg">
			<path
				d="M19.2802 1.81521C18.1737 0.65682 16.6245 0 15.0015 0C13.3909 0 11.8294 0.65682 10.7351 1.80327L10.5015 2.04211L10.2679 1.80327C9.17367 0.65682 7.61219 0 6.00154 0C4.52613 0 3.1122 0.537398 2.03023 1.51666C1.91957 1.61219 1.82121 1.70773 1.72285 1.81521C-0.576329 4.22753 -0.576329 8.00126 1.73515 10.4255L9.8376 18.7253C10.0097 18.9045 10.2556 19 10.5015 19C10.7351 19 10.9688 18.9164 11.1409 18.7492C11.1532 18.7373 11.1655 18.7253 11.1778 18.7134L19.2802 10.4136C21.5794 8.00126 21.5794 4.22753 19.2802 1.81521ZM8.94006 3.04525L9.8499 3.97674C10.0343 4.14393 10.2679 4.23947 10.5138 4.23947C10.7597 4.23947 11.0056 4.14393 11.1778 3.9648L12.0753 3.04525C12.8253 2.24513 13.895 1.79133 15.0138 1.79133C16.022 1.79133 16.981 2.16153 17.7188 2.81835C17.7925 2.89001 17.8786 2.96166 17.9401 3.04525C19.5876 4.76493 19.6122 7.42803 17.9892 9.14771L10.5138 16.8146L3.07531 9.18353C1.42777 7.46386 1.42777 4.75299 3.07531 3.03331C3.82531 2.24513 4.89498 1.79133 6.00154 1.79133C7.00974 1.79133 7.96875 2.16153 8.70646 2.81835C8.78023 2.89001 8.86629 2.96166 8.94006 3.04525Z"
				fill="#454B58" />
		</symbol>
		<symbol id="greyStar" width="13" height="13" viewBox="0 0 13 13" xmlns="http://www.w3.org/2000/svg">
			<path
				d="M6.06303 0.293785C6.13311 0.110169 6.30831 0 6.48352 0C6.65872 0 6.83392 0.110169 6.93904 0.293785L8.5509 3.74576C8.62098 3.89265 8.76114 4.00282 8.93635 4.03955L12.5455 4.59039C12.7207 4.62712 12.8959 4.77401 12.966 4.95763C13.0361 5.14124 12.966 5.36158 12.8258 5.50847L10.1978 8.18926C10.0927 8.29943 10.0226 8.48305 10.0576 8.66667L10.6884 12.4492C10.7234 12.6328 10.6533 12.8531 10.4781 12.9633C10.338 13.0734 10.1277 13.1102 9.95252 13L6.7288 11.2006C6.58864 11.1271 6.41343 11.1271 6.27327 11.2006L3.04955 13C2.87435 13.1102 2.66411 13.0734 2.52395 12.9633C2.38378 12.8531 2.27866 12.6328 2.3137 12.4492L2.94443 8.66667C2.97947 8.48305 2.90939 8.33616 2.80427 8.18926L0.176238 5.50847C0.0360759 5.36158 0.00103544 5.14124 0.0360759 4.95763C0.106157 4.77401 0.246318 4.62712 0.456561 4.59039L4.06573 4.03955C4.24093 4.00282 4.38109 3.89265 4.45117 3.74576L6.06303 0.293785Z" />
		</symbol>
		<symbol id="yellowStar" width="13" height="13" viewBox="0 0 13 13" xmlns="http://www.w3.org/2000/svg">
			<path
				d="M6.06303 0.293785C6.13311 0.110169 6.30831 0 6.48352 0C6.65872 0 6.83392 0.110169 6.93904 0.293785L8.5509 3.74576C8.62098 3.89265 8.76114 4.00282 8.93635 4.03955L12.5455 4.59039C12.7207 4.62712 12.8959 4.77401 12.966 4.95763C13.0361 5.14124 12.966 5.36158 12.8258 5.50847L10.1978 8.18926C10.0927 8.29943 10.0226 8.48305 10.0576 8.66667L10.6884 12.4492C10.7234 12.6328 10.6533 12.8531 10.4781 12.9633C10.338 13.0734 10.1277 13.1102 9.95252 13L6.7288 11.2006C6.58864 11.1271 6.41343 11.1271 6.27327 11.2006L3.04955 13C2.87435 13.1102 2.66411 13.0734 2.52395 12.9633C2.38378 12.8531 2.27866 12.6328 2.3137 12.4492L2.94443 8.66667C2.97947 8.48305 2.90939 8.33616 2.80427 8.18926L0.176238 5.50847C0.0360759 5.36158 0.00103544 5.14124 0.0360759 4.95763C0.106157 4.77401 0.246318 4.62712 0.456561 4.59039L4.06573 4.03955C4.24093 4.00282 4.38109 3.89265 4.45117 3.74576L6.06303 0.293785Z" />
		</symbol>
		<symbol id="play" viewBox="0 0 11 13" xmlns="http://www.w3.org/2000/svg">
			<path d="M9.96289 6.23912L1.37801 11.1956L1.37802 1.28264L9.96289 6.23912Z" stroke-width="2" />
		</symbol>

	
		<symbol id="like"
				width="21"
				height="19"
				viewBox="0 0 21 19"
				xmlns="http://www.w3.org/2000/svg">
			<path d="M19.2802 1.81521C18.1737 0.65682 16.6245 0 15.0015 0C13.3909 0 11.8294 0.65682 10.7351 1.80327L10.5015 2.04211L10.2679 1.80327C9.17367 0.65682 7.61219 0 6.00154 0C4.52613 0 3.1122 0.537398 2.03023 1.51666C1.91957 1.61219 1.82121 1.70773 1.72285 1.81521C-0.576329 4.22753 -0.576329 8.00126 1.73515 10.4255L9.8376 18.7253C10.0097 18.9045 10.2556 19 10.5015 19C10.7351 19 10.9688 18.9164 11.1409 18.7492C11.1532 18.7373 11.1655 18.7253 11.1778 18.7134L19.2802 10.4136C21.5794 8.00126 21.5794 4.22753 19.2802 1.81521ZM8.94006 3.04525L9.8499 3.97674C10.0343 4.14393 10.2679 4.23947 10.5138 4.23947C10.7597 4.23947 11.0056 4.14393 11.1778 3.9648L12.0753 3.04525C12.8253 2.24513 13.895 1.79133 15.0138 1.79133C16.022 1.79133 16.981 2.16153 17.7188 2.81835C17.7925 2.89001 17.8786 2.96166 17.9401 3.04525C19.5876 4.76493 19.6122 7.42803 17.9892 9.14771L10.5138 16.8146L3.07531 9.18353C1.42777 7.46386 1.42777 4.75299 3.07531 3.03331C3.82531 2.24513 4.89498 1.79133 6.00154 1.79133C7.00974 1.79133 7.96875 2.16153 8.70646 2.81835C8.78023 2.89001 8.86629 2.96166 8.94006 3.04525Z"
				  fill="#454B58" />
		</symbol>
		<symbol id="greyStar"
				width="13"
				height="13"
				viewBox="0 0 13 13"
				xmlns="http://www.w3.org/2000/svg">
			<path
				  d="M6.06303 0.293785C6.13311 0.110169 6.30831 0 6.48352 0C6.65872 0 6.83392 0.110169 6.93904 0.293785L8.5509 3.74576C8.62098 3.89265 8.76114 4.00282 8.93635 4.03955L12.5455 4.59039C12.7207 4.62712 12.8959 4.77401 12.966 4.95763C13.0361 5.14124 12.966 5.36158 12.8258 5.50847L10.1978 8.18926C10.0927 8.29943 10.0226 8.48305 10.0576 8.66667L10.6884 12.4492C10.7234 12.6328 10.6533 12.8531 10.4781 12.9633C10.338 13.0734 10.1277 13.1102 9.95252 13L6.7288 11.2006C6.58864 11.1271 6.41343 11.1271 6.27327 11.2006L3.04955 13C2.87435 13.1102 2.66411 13.0734 2.52395 12.9633C2.38378 12.8531 2.27866 12.6328 2.3137 12.4492L2.94443 8.66667C2.97947 8.48305 2.90939 8.33616 2.80427 8.18926L0.176238 5.50847C0.0360759 5.36158 0.00103544 5.14124 0.0360759 4.95763C0.106157 4.77401 0.246318 4.62712 0.456561 4.59039L4.06573 4.03955C4.24093 4.00282 4.38109 3.89265 4.45117 3.74576L6.06303 0.293785Z" />
		</symbol>
		<symbol id="yellowStar"
				width="13"
				height="13"
				viewBox="0 0 13 13"
				xmlns="http://www.w3.org/2000/svg">
			<path
				  d="M6.06303 0.293785C6.13311 0.110169 6.30831 0 6.48352 0C6.65872 0 6.83392 0.110169 6.93904 0.293785L8.5509 3.74576C8.62098 3.89265 8.76114 4.00282 8.93635 4.03955L12.5455 4.59039C12.7207 4.62712 12.8959 4.77401 12.966 4.95763C13.0361 5.14124 12.966 5.36158 12.8258 5.50847L10.1978 8.18926C10.0927 8.29943 10.0226 8.48305 10.0576 8.66667L10.6884 12.4492C10.7234 12.6328 10.6533 12.8531 10.4781 12.9633C10.338 13.0734 10.1277 13.1102 9.95252 13L6.7288 11.2006C6.58864 11.1271 6.41343 11.1271 6.27327 11.2006L3.04955 13C2.87435 13.1102 2.66411 13.0734 2.52395 12.9633C2.38378 12.8531 2.27866 12.6328 2.3137 12.4492L2.94443 8.66667C2.97947 8.48305 2.90939 8.33616 2.80427 8.18926L0.176238 5.50847C0.0360759 5.36158 0.00103544 5.14124 0.0360759 4.95763C0.106157 4.77401 0.246318 4.62712 0.456561 4.59039L4.06573 4.03955C4.24093 4.00282 4.38109 3.89265 4.45117 3.74576L6.06303 0.293785Z" />
		</symbol>
		<symbol width="20"
				height="20"
				viewBox="0 0 20 20"
				id="important">
			<g clip-path="url(#clip0_319_249)">
				<path
					  d="M10 0C4.48591 0 0 4.48591 0 10C0 15.5141 4.48591 20 10 20C15.5141 20 20 15.5141 20 10C20 4.48591 15.5141 0 10 0ZM10 17.8142C5.69113 17.8142 2.18579 14.3089 2.18579 10C2.18579 5.69135 5.69113 2.18579 10 2.18579C14.3089 2.18579 17.8142 5.69135 17.8142 10C17.8142 14.3089 14.3089 17.8142 10 17.8142Z" />
				<rect width="1.8"
					  height="7"
					  rx="0.9"
					  transform="matrix(1 0 0 -1 9.10156 15)" />
				<circle cx="1"
						cy="1"
						r="1"
						transform="matrix(1 0 0 -1 9 7)" />
			</g>
			<defs>
				<clipPath id="clip0_319_249">
					<rect width="20"
						  height="20"
						  fill="white" />
				</clipPath>
			</defs>
		</symbol>
		<symbol xmlns="http://www.w3.org/2000/svg"
				width="20"
				height="20"
				viewBox="0 0 20 20"
				id="chat">
			<g clip-path="url(#clip0_319_256)">
				<path
					  d="M19.9316 15.8099L18.327 11.8479C18.1749 11.4677 17.8175 11.2243 17.4068 11.2243C17.2776 11.2243 17.1559 11.2471 17.0342 11.3004C16.7909 11.3992 16.6008 11.5894 16.4943 11.8327C16.3878 12.076 16.3878 12.3498 16.4867 12.5932L17.1787 14.2966L15.019 13.346C14.7681 13.2395 14.4791 13.2319 14.2281 13.3384C13.346 13.7186 12.3954 13.9087 11.4144 13.9087C7.46008 13.9087 4.81369 10.8289 4.81369 7.94677C4.81369 4.6616 7.77947 1.98479 11.4144 1.98479C15.0494 1.98479 18.0152 4.6616 18.0152 7.94677C18.0152 8.20532 17.9924 8.50951 17.9468 8.79087C17.8631 9.3308 18.2433 9.8403 18.7833 9.91635C18.8289 9.92395 18.8821 9.92395 18.9278 9.92395C19.4144 9.92395 19.8327 9.55894 19.9087 9.07985C19.962 8.69962 19.9924 8.30418 19.9924 7.94677C19.9924 5.80989 19.0875 3.80228 17.4449 2.29658C15.8327 0.813688 13.6882 0 11.4144 0C9.14069 0 6.98859 0.813688 5.37643 2.29658C3.94677 3.59696 3.06464 5.32319 2.86692 7.15589C1.07224 8.38783 0 10.3498 0 12.4259C0 13.7034 0.395437 14.9354 1.14068 15.9924L0.0760456 18.6388C-0.0760456 19.0114 0.0152091 19.4373 0.304183 19.7186C0.486692 19.9011 0.737643 20 0.996198 20C1.13308 20 1.26996 19.9696 1.39924 19.9163L4.53232 18.5399C5.3384 18.8289 6.19772 18.9734 7.07224 18.9734C7.09506 18.9734 7.11787 18.9734 7.13308 18.9734C8.44867 18.9658 9.72624 18.616 10.8365 17.9696C11.7947 17.4068 12.6008 16.6388 13.1711 15.7262C13.6578 15.635 14.1445 15.4981 14.6084 15.3232L18.616 17.0951C18.7452 17.1483 18.8745 17.1787 19.019 17.1787C19.2776 17.1787 19.5209 17.0798 19.711 16.8973C19.9924 16.616 20.0837 16.1901 19.9316 15.8099ZM3.19392 16.2129C3.3308 15.8707 3.26996 15.4829 3.02662 15.2015C2.34221 14.403 1.98479 13.4449 1.98479 12.4335C1.98479 11.4297 2.35741 10.4487 3.03422 9.65779C3.38403 11.0722 4.1749 12.4259 5.26236 13.4753C6.63878 14.7985 8.46388 15.635 10.4183 15.8479C9.49049 16.5856 8.28137 16.9962 7.05703 16.9962C7.04183 16.9962 7.03422 16.9962 7.01901 16.9962C6.27377 16.9886 5.55133 16.8441 4.88213 16.5551C4.63118 16.4487 4.34221 16.4487 4.09126 16.5627L2.82129 17.1255L3.19392 16.2129Z" />
				<path
					  d="M10.3789 7.97736C10.3789 8.52489 10.82 8.96596 11.3675 8.96596C11.915 8.96596 12.3561 8.52489 12.3561 7.97736C12.3561 7.42983 11.915 6.98877 11.3675 6.98877C10.82 6.98877 10.3789 7.42983 10.3789 7.97736Z" />
				<path
					  d="M13.4375 7.9773C13.4375 8.52483 13.8786 8.96589 14.4261 8.96589C14.9736 8.96589 15.4147 8.52483 15.4147 7.9773C15.4147 7.42977 14.9736 6.98871 14.4261 6.98871C13.8786 6.98871 13.4375 7.42977 13.4375 7.9773Z" />
				<path
					  d="M7.33203 7.97736C7.33203 8.52489 7.7731 8.96596 8.32062 8.96596C8.86815 8.96596 9.30922 8.52489 9.30922 7.97736C9.30922 7.42983 8.86815 6.98877 8.32062 6.98877C7.7731 6.98877 7.33203 7.42983 7.33203 7.97736Z" />
			</g>
			<defs>
				<clipPath id="clip0_319_256">
					<rect width="20"
						  height="20"
						  fill="white" />
				</clipPath>
			</defs>
		</symbol>
		<svg xmlns="http://www.w3.org/2000/svg"
			 id="thumbUp">
			<path fill-rule="evenodd"
				  clip-rule="evenodd"
				  d="M15.5412 9.94961C16.3117 9.98476 16.9654 9.37779 16.9991 8.59376C17.0329 7.80973 16.4911 7.10488 15.7199 7.07099L10.6006 6.42819C10.6006 6.42819 11.6674 4.64368 11.6674 1.99969C11.6674 0.23716 10.4083 3.31732e-08 9.66774 3.31732e-08C9.08519 -0.000223421 8.92833 1.12852 8.92833 1.12852H8.92714C8.79522 1.85229 8.62346 2.48437 8.02662 3.64812C7.35849 4.9525 6.44858 4.83012 5.38628 5.99193C5.1988 6.19654 4.94689 6.53426 4.70139 6.94981C4.68135 6.97178 4.66266 7.00254 4.64456 7.04582C4.62266 7.09736 4.59644 7.13311 4.57335 7.18078C4.53268 7.25549 4.49268 7.3302 4.45336 7.40863C3.79588 8.06611 2.77156 7.99892 2.33538 7.99892C1.46048 7.99892 1.00225 8.50728 1.00225 9.33205L1.00195 15.427C1.00195 16.3523 1.38056 16.6644 2.33545 16.6644H3.66858C4.33977 16.6644 4.86533 17.0492 5.66835 17.331C6.76827 17.712 8.41096 17.9981 11.2406 17.9981C11.7355 17.9981 13.2704 17.9999 13.2704 17.9999C13.7403 17.9999 14.1178 17.7853 14.3902 17.5261C14.4939 17.4275 14.6021 17.2844 14.6483 17.005C14.6558 16.9618 14.6639 16.7803 14.6627 16.7558C14.6982 15.9567 14.2152 15.6674 13.9415 15.5763C13.949 15.5738 13.9441 15.567 13.959 15.5676L14.8277 15.6064C15.5988 15.6416 16.36 15.0861 16.36 14.1414C16.36 13.358 15.725 12.8056 14.9564 12.768L15.417 12.7893C16.1881 12.8232 16.8399 12.2163 16.8756 11.4322C16.9092 10.6483 16.3117 9.98484 15.5412 9.94961Z" />
		</svg>
	</defs>
</svg>
