<svg>
	<defs>
		<symbol id="student"
				width="28px"
				height="20px"
				viewBox="0 0 28 20"
				xmlns="http://www.w3.org/2000/svg">
			<path
				  d="M27.377 5.74863L14.2623 0.0655738C14.0546 -0.0218579 13.8197 -0.0218579 13.612 0.0655738L0.491803 5.74863C0.185792 5.87978 0 6.1694 0 6.50273C0 6.83607 0.191257 7.12568 0.491803 7.25683L5.2459 9.31694V14.8087C5.2459 17.7213 9.06011 20 13.9344 20C18.8087 20 22.623 17.7213 22.623 14.8087V9.31694L23.6066 8.89071L25.2459 8.18033L27.377 7.25683C27.6831 7.12568 27.8689 6.83607 27.8689 6.50273C27.8689 6.1694 27.6776 5.87978 27.377 5.74863ZM21.0328 8.21858L13.9344 11.2951L2.87978 6.50273L13.9344 1.71038L24.9891 6.50273L23.9945 6.93443L21.0328 8.21858ZM6.88525 10.0273L13.6066 12.9399C13.8142 13.0273 14.0546 13.0273 14.2568 12.9399L20.9781 10.0273V14.8087C20.9781 15.6557 20.2896 16.5191 19.0929 17.1858C17.7268 17.9454 15.8907 18.3661 13.9235 18.3661C11.9617 18.3661 10.1257 17.9454 8.75956 17.1858C7.56284 16.5191 6.87432 15.6557 6.87432 14.8087V10.0273H6.88525Z" />
		</symbol>
		<symbol id="notify"
				width="17"
				height="20"
				viewBox="0 0 17 20"
				xmlns="http://www.w3.org/2000/svg">
			<path
				  d="M16.1533 14.6858C14.9617 13.6782 14.2759 12.2031 14.2759 10.6437V8.36398C14.2759 5.37548 12.0498 2.90038 9.16858 2.50575V0.804598C9.16858 0.360153 8.80843 0 8.36399 0C7.91954 0 7.55939 0.360153 7.55939 0.804598V2.50575C4.67816 2.90038 2.45211 5.37931 2.45211 8.36398V10.6437C2.45211 12.2031 1.76628 13.682 0.56705 14.6935C0.206897 15.0038 0 15.4521 0 15.9272C0 16.8199 0.727969 17.5479 1.62069 17.5479H5.21073C5.57088 18.954 6.84674 20 8.36782 20C9.88889 20 11.1648 18.954 11.5249 17.5479H15.1111C16.0038 17.5479 16.7318 16.8199 16.7318 15.9272C16.7318 15.4521 16.5211 15 16.1533 14.6858ZM8.36399 18.3908C7.74713 18.3908 7.21073 18.0498 6.9272 17.5479H9.80077C9.52107 18.0498 8.98084 18.3908 8.36399 18.3908ZM1.62069 15.9387C1.61686 15.9387 1.6092 15.931 1.6092 15.9272C1.6092 15.9234 1.6092 15.9195 1.61303 15.9157C3.16858 14.6015 4.0613 12.682 4.0613 10.6437V8.36398C4.0613 5.99234 5.99234 4.0613 8.36399 4.0613C10.7356 4.0613 12.6667 5.99234 12.6667 8.36398V10.6437C12.6667 12.6782 13.5594 14.6015 15.1149 15.9157C15.1188 15.9195 15.1188 15.9234 15.1188 15.9234C15.1188 15.9272 15.1111 15.9349 15.1073 15.9349H1.62069V15.9387Z" />
		</symbol>
		<symbol id="mess"
				width="20"
				height="20"
				viewBox="0 0 20 20"
				xmlns="http://www.w3.org/2000/svg">
			<path
				  d="M16.7906 2.87906C14.944 1.02655 12.4838 0 9.87021 0H9.75811L9.75221 0.00589971C4.37168 0.0530973 0 4.46018 0 9.84071C0 11.9882 0.725664 14.1062 2.0413 15.8112L0.707965 18.9027C0.625369 19.0973 0.619469 19.3097 0.702065 19.5103C0.778761 19.705 0.926254 19.8584 1.11504 19.9351C1.21534 19.9764 1.32153 20 1.43363 20C1.47493 20 1.52212 19.9941 1.56932 19.9882L6.60767 19.1032C7.62832 19.4631 8.69027 19.646 9.76991 19.646H9.81121C15.233 19.646 19.646 15.233 19.646 9.81121C19.6519 7.19764 18.6372 4.73156 16.7906 2.87906ZM3.67552 15.9941C3.79351 15.7168 3.74631 15.3923 3.55162 15.1681C2.94985 14.472 2.47788 13.6873 2.14749 12.8319C1.76991 11.8702 1.58112 10.8673 1.58112 9.83481C1.58112 5.28024 5.28614 1.56932 9.84661 1.56932H9.86431C14.3894 1.56932 18.0767 5.25074 18.0826 9.77581V9.80531C18.0826 14.3658 14.3776 18.0767 9.81711 18.0767C8.84366 18.0767 7.88201 17.8997 6.96755 17.5575C6.83776 17.5044 6.69617 17.4926 6.54867 17.5162L2.73156 18.1829L3.67552 15.9941Z" />
			<path
				  d="M6.58935 9.22704H13C13.4366 9.22704 13.7847 8.87305 13.7847 8.44238C13.7847 8.0117 13.4307 7.65771 13 7.65771H6.58935C6.15277 7.65771 5.80469 8.0117 5.80469 8.44238C5.80469 8.87305 6.15867 9.22704 6.58935 9.22704Z" />
			<path
				  d="M13.0613 11.8347C13.4979 11.8347 13.846 11.4807 13.846 11.05C13.846 10.6194 13.492 10.2654 13.0613 10.2654H6.58935C6.15277 10.2654 5.80469 10.6194 5.80469 11.05C5.80469 11.4807 6.15867 11.8347 6.58935 11.8347H13.0613Z" />
		</symbol>
		<symbol id="user"
				width="20px"
				height="20px"
				viewBox="0 0 20 20"
				xmlns="http://www.w3.org/2000/svg">
			<path d="M18.4135 12.6958C17.7507 12.1133 16.9469 11.6101 16.0242 11.2001C15.6297 11.0249 15.1682 11.2025 14.993 11.5968C14.8178 11.9911 14.9954 12.4527 15.3897 12.628C16.1678 12.9738 16.8382 13.3914 17.3822 13.8695C18.0528 14.4588 18.4375 15.312 18.4375 16.2109V17.6562C18.4375 18.087 18.087 18.4375 17.6562 18.4375H2.34375C1.91299 18.4375 1.5625 18.087 1.5625 17.6562V16.2109C1.5625 15.312 1.94717 14.4588 2.6178 13.8695C3.40714 13.1758 5.70694 11.5625 10 11.5625C13.1877 11.5625 15.7812 8.96896 15.7812 5.78125C15.7812 2.59354 13.1877 0 10 0C6.81229 0 4.21875 2.59354 4.21875 5.78125C4.21875 7.64481 5.10529 9.30496 6.47858 10.3629C3.96576 10.9152 2.40265 11.9785 1.58646 12.6958C0.578308 13.5815 0 14.8627 0 16.2109V17.6562C0 18.9487 1.05133 20 2.34375 20H17.6562C18.9487 20 20 18.9487 20 17.6562V16.2109C20 14.8627 19.4217 13.5815 18.4135 12.6958ZM5.78125 5.78125C5.78125 3.45505 7.6738 1.5625 10 1.5625C12.3262 1.5625 14.2188 3.45505 14.2188 5.78125C14.2188 8.10745 12.3262 10 10 10C7.6738 10 5.78125 8.10745 5.78125 5.78125Z"
				  fill="url(#paint0_linear_342_132)" />
			<defs>
				<linearGradient id="paint0_linear_342_132"
								x1="-1.49012e-07"
								y1="10"
								x2="20"
								y2="10"
								gradientUnits="userSpaceOnUse">
					<stop stop-color="#F04973" />
					<stop offset="1"
						  stop-color="#FA6655" />
				</linearGradient>
			</defs>
		</symbol>

		<symbol id="facebook"
				width="7px"
				height="17px"
				viewBox="0 0 7 17"
				xmlns="http://www.w3.org/2000/svg">

		<symbol id="facebook" width="7px" height="17px" viewBox="0 0 7 17" xmlns="http://www.w3.org/2000/svg">
			<path
				d="M1.44248 17H4.42359V8.5H6.44306L6.68347 5.49667H4.42359V3.74C4.42359 3.06 4.80825 2.94667 5.04867 2.94667H6.68347V0H4.47168C1.97138 0 1.44248 2.15333 1.44248 3.57V5.49667H0V8.5H1.44248V17Z" />
		</symbol>
		<symbol id="instagram" width="17px" height="17px" viewBox="0 0 17 17" xmlns="http://www.w3.org/2000/svg">
			<path
				d="M13.4783 0H3.23035C1.44809 0 0 1.47333 0 3.28667V6.74333V13.7133C0 15.5267 1.44809 17 3.23035 17H13.4783C15.2606 17 16.7087 15.5267 16.7087 13.7133V6.74333V3.28667C16.7087 1.47333 15.2606 0 13.4783 0ZM14.4252 1.98333H14.815V2.38V4.87333H11.9746V1.98333H14.4252ZM5.95943 6.74333C6.51639 6.00667 7.35182 5.49667 8.35434 5.49667C9.35686 5.49667 10.1923 6.00667 10.7493 6.74333C11.0834 7.25333 11.3062 7.82 11.3062 8.5C11.3062 10.1433 9.96952 11.5033 8.35434 11.5033C6.73917 11.5033 5.40247 10.1433 5.40247 8.5C5.40247 7.82 5.62526 7.25333 5.95943 6.74333ZM15.0935 13.7133C15.0935 14.62 14.3695 15.3567 13.4783 15.3567H3.23035C2.33922 15.3567 1.61517 14.62 1.61517 13.7133V6.74333H4.12148C3.89869 7.31 3.7873 7.87667 3.7873 8.5C3.7873 11.05 5.84804 13.1467 8.35434 13.1467C10.8606 13.1467 12.9214 11.05 12.9214 8.5C12.9214 7.87667 12.81 7.31 12.5872 6.74333H15.0935V13.7133Z" />
		</symbol>
		<symbol id="twitter" width="20px" height="17px" viewBox="0 0 20 17" xmlns="http://www.w3.org/2000/svg">
			<path fill-rule="evenodd" clip-rule="evenodd"
				d="M9.52439 4.52227L9.56691 5.25756L8.85825 5.16753C6.27873 4.82239 4.02519 3.65191 2.11181 1.68612L1.17638 0.710722L0.935431 1.43101C0.425196 3.03666 0.751179 4.73235 1.81417 5.87281C2.3811 6.50307 2.25354 6.59311 1.27559 6.21795C0.935431 6.0979 0.637794 6.00787 0.609447 6.05289C0.510235 6.15793 0.850392 7.52348 1.11968 8.0637C1.48819 8.814 2.23937 9.5493 3.06141 9.98448L3.7559 10.3296L2.93385 10.3446C2.14015 10.3446 2.11181 10.3596 2.19685 10.6748C2.48031 11.6502 3.59999 12.6856 4.84723 13.1358L5.72597 13.4509L4.96062 13.9311C3.82676 14.6214 2.49448 15.0115 1.1622 15.0415C0.524408 15.0565 0 15.1166 0 15.1616C0 15.3116 1.72913 16.152 2.73543 16.4821C5.75432 17.4575 9.34014 17.0373 12.033 15.3717C13.9464 14.1862 15.8598 11.8302 16.7527 9.5493C17.2346 8.33381 17.7165 6.11291 17.7165 5.04748C17.7165 4.3572 17.759 4.26716 18.5527 3.44183C19.0204 2.96163 19.4598 2.43642 19.5448 2.28636C19.6866 2.00124 19.6724 2.00124 18.9496 2.25635C17.7448 2.70653 17.5748 2.64651 18.17 1.97123C18.6094 1.49104 19.1338 0.620685 19.1338 0.365582C19.1338 0.320564 18.9212 0.395594 18.6803 0.530649C18.4252 0.68071 17.8582 0.905801 17.433 1.04086L16.6677 1.29596L15.9732 0.800758C15.5905 0.530649 15.0519 0.230527 14.7685 0.140491C14.0456 -0.0695944 12.9401 -0.0395823 12.2882 0.200515C10.5165 0.875789 9.39683 2.61649 9.52439 4.52227Z" />
		</symbol>
		<symbol id="whatsup" width="17px" height="17px" viewBox="0 0 17 17" xmlns="http://www.w3.org/2000/svg">
			<path
				d="M12.9625 1.275C11.6875 0.425 10.0938 0 8.5 0C3.825 0 0 3.825 0 8.5C0 10.0938 0.425 11.6875 1.38125 13.0688L0 16.4688C0 16.6812 0 16.8937 0.2125 17H0.31875H0.425L3.93125 15.725C7.8625 18.1688 13.175 17 15.6187 12.9625C18.1688 9.03125 17 3.71875 12.9625 1.275ZM12.75 10.9438C12.5375 12.0063 11.6875 12.75 10.625 12.75C9.5625 12.75 7.33125 11.3687 6.48125 10.5187C5.63125 9.66875 4.25 7.4375 4.25 6.375C4.25 5.3125 4.99375 4.4625 6.05625 4.25H6.8C6.90625 4.25 7.0125 4.35625 7.11875 4.4625C7.11875 4.4625 7.54375 5.3125 7.8625 5.84375C8.075 6.48125 7.4375 7.225 7.11875 7.54375C7.33125 8.075 7.65 8.60625 7.96875 8.925C8.5 9.35 8.925 9.66875 9.45625 9.88125C9.775 9.5625 10.5188 8.925 11.1562 9.24375C11.6875 9.5625 12.5375 9.9875 12.5375 9.9875C12.6438 9.9875 12.75 10.0938 12.75 10.3062V10.9438Z" />
		</symbol>
		<symbol id="telegram" width="17px" height="15px" viewBox="0 0 17 15" xmlns="http://www.w3.org/2000/svg">

			<path
				  d="M1.44248 17H4.42359V8.5H6.44306L6.68347 5.49667H4.42359V3.74C4.42359 3.06 4.80825 2.94667 5.04867 2.94667H6.68347V0H4.47168C1.97138 0 1.44248 2.15333 1.44248 3.57V5.49667H0V8.5H1.44248V17Z" />
		</symbol>
		<symbol id="instagram"
				width="17px"
				height="17px"
				viewBox="0 0 17 17"
				xmlns="http://www.w3.org/2000/svg">
			<path

				  d="M13.4783 0H3.23035C1.44809 0 0 1.47333 0 3.28667V6.74333V13.7133C0 15.5267 1.44809 17 3.23035 17H13.4783C15.2606 17 16.7087 15.5267 16.7087 13.7133V6.74333V3.28667C16.7087 1.47333 15.2606 0 13.4783 0ZM14.4252 1.98333H14.815V2.38V4.87333H11.9746V1.98333H14.4252ZM5.95943 6.74333C6.51639 6.00667 7.35182 5.49667 8.35434 5.49667C9.35686 5.49667 10.1923 6.00667 10.7493 6.74333C11.0834 7.25333 11.3062 7.82 11.3062 8.5C11.3062 10.1433 9.96952 11.5033 8.35434 11.5033C6.73917 11.5033 5.40247 10.1433 5.40247 8.5C5.40247 7.82 5.62526 7.25333 5.95943 6.74333ZM15.0935 13.7133C15.0935 14.62 14.3695 15.3567 13.4783 15.3567H3.23035C2.33922 15.3567 1.61517 14.62 1.61517 13.7133V6.74333H4.12148C3.89869 7.31 3.7873 7.87667 3.7873 8.5C3.7873 11.05 5.84804 13.1467 8.35434 13.1467C10.8606 13.1467 12.9214 11.05 12.9214 8.5C12.9214 7.87667 12.81 7.31 12.5872 6.74333H15.0935V13.7133Z" />
		</symbol>
		<symbol id="twitter"
				width="20px"
				height="17px"
				viewBox="0 0 20 17"
				xmlns="http://www.w3.org/2000/svg">
			<path fill-rule="evenodd"
				  clip-rule="evenodd"
				  d="M9.52439 4.52227L9.56691 5.25756L8.85825 5.16753C6.27873 4.82239 4.02519 3.65191 2.11181 1.68612L1.17638 0.710722L0.935431 1.43101C0.425196 3.03666 0.751179 4.73235 1.81417 5.87281C2.3811 6.50307 2.25354 6.59311 1.27559 6.21795C0.935431 6.0979 0.637794 6.00787 0.609447 6.05289C0.510235 6.15793 0.850392 7.52348 1.11968 8.0637C1.48819 8.814 2.23937 9.5493 3.06141 9.98448L3.7559 10.3296L2.93385 10.3446C2.14015 10.3446 2.11181 10.3596 2.19685 10.6748C2.48031 11.6502 3.59999 12.6856 4.84723 13.1358L5.72597 13.4509L4.96062 13.9311C3.82676 14.6214 2.49448 15.0115 1.1622 15.0415C0.524408 15.0565 0 15.1166 0 15.1616C0 15.3116 1.72913 16.152 2.73543 16.4821C5.75432 17.4575 9.34014 17.0373 12.033 15.3717C13.9464 14.1862 15.8598 11.8302 16.7527 9.5493C17.2346 8.33381 17.7165 6.11291 17.7165 5.04748C17.7165 4.3572 17.759 4.26716 18.5527 3.44183C19.0204 2.96163 19.4598 2.43642 19.5448 2.28636C19.6866 2.00124 19.6724 2.00124 18.9496 2.25635C17.7448 2.70653 17.5748 2.64651 18.17 1.97123C18.6094 1.49104 19.1338 0.620685 19.1338 0.365582C19.1338 0.320564 18.9212 0.395594 18.6803 0.530649C18.4252 0.68071 17.8582 0.905801 17.433 1.04086L16.6677 1.29596L15.9732 0.800758C15.5905 0.530649 15.0519 0.230527 14.7685 0.140491C14.0456 -0.0695944 12.9401 -0.0395823 12.2882 0.200515C10.5165 0.875789 9.39683 2.61649 9.52439 4.52227Z" />
		</symbol>
		<symbol id="whatsup"
				width="17px"
				height="17px"
				viewBox="0 0 17 17"
				xmlns="http://www.w3.org/2000/svg">
			<path
				  d="M12.9625 1.275C11.6875 0.425 10.0938 0 8.5 0C3.825 0 0 3.825 0 8.5C0 10.0938 0.425 11.6875 1.38125 13.0688L0 16.4688C0 16.6812 0 16.8937 0.2125 17H0.31875H0.425L3.93125 15.725C7.8625 18.1688 13.175 17 15.6187 12.9625C18.1688 9.03125 17 3.71875 12.9625 1.275ZM12.75 10.9438C12.5375 12.0063 11.6875 12.75 10.625 12.75C9.5625 12.75 7.33125 11.3687 6.48125 10.5187C5.63125 9.66875 4.25 7.4375 4.25 6.375C4.25 5.3125 4.99375 4.4625 6.05625 4.25H6.8C6.90625 4.25 7.0125 4.35625 7.11875 4.4625C7.11875 4.4625 7.54375 5.3125 7.8625 5.84375C8.075 6.48125 7.4375 7.225 7.11875 7.54375C7.33125 8.075 7.65 8.60625 7.96875 8.925C8.5 9.35 8.925 9.66875 9.45625 9.88125C9.775 9.5625 10.5188 8.925 11.1562 9.24375C11.6875 9.5625 12.5375 9.9875 12.5375 9.9875C12.6438 9.9875 12.75 10.0938 12.75 10.3062V10.9438Z" />
		</symbol>
		<symbol id="telegram"
				width="17px"
				height="15px"
				viewBox="0 0 17 15"
				xmlns="http://www.w3.org/2000/svg">
			<path
				  d="M6.6705 9.75309L6.38929 13.7084C6.79163 13.7084 6.96588 13.5356 7.17484 13.328L9.06113 11.5253L12.9697 14.3877C13.6865 14.7872 14.1916 14.5768 14.385 13.7283L16.9505 1.70642L16.9513 1.70571C17.1786 0.646047 16.568 0.231672 15.8696 0.49163L0.789209 6.26526C-0.239999 6.66476 -0.224416 7.23851 0.614251 7.49846L4.46971 8.69767L13.4252 3.09405C13.8466 2.81496 14.2298 2.96938 13.9146 3.24846L6.6705 9.75309Z" />
		</symbol>
		<symbol id="viber"
				width="16px"
				height="17px"
				viewBox="0 0 16 17"
				xmlns="http://www.w3.org/2000/svg">
			<path
				  d="M9.34566 0H5.94133C2.66709 0 0 2.66709 0 5.94133V8.5C0 10.7985 1.3227 12.8801 3.40434 13.8776V16.7181C3.40434 16.9566 3.70791 17.0867 3.88138 16.9133L6.35332 14.4413H9.34566C12.6199 14.4413 15.287 11.7742 15.287 8.5V5.94133C15.287 2.66709 12.6199 0 9.34566 0ZM11.926 10.6684C11.8393 11.037 11.6658 11.3622 11.4056 11.6224C11.037 11.9911 10.5599 12.1645 9.97449 12.1645C9.8227 12.1645 9.64923 12.1429 9.47577 12.1212C8.13138 11.9043 6.2449 11.2538 5.00893 10.0179L4.98724 9.99617C3.77296 8.7602 3.10077 6.87372 2.88393 5.52934C2.75383 4.72704 2.9273 4.05485 3.38265 3.59949C3.64286 3.33929 3.9898 3.14413 4.33673 3.07908C4.3801 3.07908 4.42347 3.07908 4.44515 3.07908L5.83291 3.33929C5.94133 3.36097 6.02806 3.4477 6.04974 3.55612L6.44005 5.55102C6.46173 5.63776 6.44005 5.74617 6.35332 5.81122L5.55102 6.61352C6.22321 8.04464 6.98214 8.80357 8.34821 9.41072L9.17219 8.58673C9.23724 8.52168 9.34566 8.5 9.4324 8.5L11.4273 8.89031C11.5357 8.91199 11.6224 8.99872 11.6441 9.10714L11.9043 10.4949C11.926 10.6033 11.926 10.625 11.926 10.6684ZM8.21811 4.25C8.13138 4.25 8.04464 4.25 7.95791 4.27168C7.80612 4.29337 7.65434 4.18495 7.65434 4.01148C7.63265 3.85969 7.74107 3.70791 7.91454 3.70791C8.02296 3.68622 8.13138 3.68622 8.21811 3.68622C9.77934 3.68622 11.0587 4.96556 11.0587 6.52679C11.0587 6.6352 11.0587 6.74362 11.037 6.83036C11.0153 6.98214 10.8852 7.09056 10.7334 7.09056C10.5816 7.06888 10.4732 6.93878 10.4732 6.78699C10.4732 6.70026 10.4949 6.61352 10.4949 6.52679C10.4732 5.26913 9.45408 4.25 8.21811 4.25ZM9.90944 6.5051C9.90944 6.65689 9.77934 6.78699 9.62755 6.78699C9.47577 6.78699 9.34566 6.65689 9.34566 6.5051C9.34566 5.87628 8.84694 5.37755 8.21811 5.37755C8.06633 5.37755 7.93622 5.24745 7.93622 5.09566C7.93622 4.94388 8.06633 4.81378 8.21811 4.81378C9.15051 4.81378 9.90944 5.5727 9.90944 6.5051ZM12.0778 7.4375C12.0344 7.58929 11.8827 7.6977 11.7309 7.65434C11.5791 7.61097 11.4923 7.45918 11.5357 7.3074C11.6008 7.04719 11.6224 6.78699 11.6224 6.52679C11.6224 4.66199 10.1046 3.12245 8.21811 3.12245C8.13138 3.12245 8.04464 3.12245 7.95791 3.12245C7.80612 3.14413 7.67602 3.01403 7.65434 2.86225C7.63265 2.71046 7.76275 2.58036 7.91454 2.55867C8.02296 2.55867 8.10969 2.53699 8.21811 2.53699C10.4082 2.55867 12.1862 4.33673 12.1862 6.5051C12.1862 6.83036 12.1429 7.13393 12.0778 7.4375Z" />
		</symbol>
		<symbol xmlns="http://www.w3.org/2000/svg"
				width="13"
				height="13"
				viewBox="0 0 13 13"
				id="star">
			<g clip-path="url(#clip0_280_4977)">
				<path
					  d="M6.06303 0.293785C6.13311 0.110169 6.30831 0 6.48352 0C6.65872 0 6.83392 0.110169 6.93904 0.293785L8.5509 3.74576C8.62098 3.89265 8.76114 4.00282 8.93635 4.03955L12.5455 4.59039C12.7207 4.62712 12.8959 4.77401 12.966 4.95763C13.0361 5.14124 12.966 5.36158 12.8258 5.50847L10.1978 8.18926C10.0927 8.29943 10.0226 8.48305 10.0576 8.66667L10.6884 12.4492C10.7234 12.6328 10.6533 12.8531 10.4781 12.9633C10.338 13.0734 10.1277 13.1102 9.95252 13L6.7288 11.2006C6.58864 11.1271 6.41343 11.1271 6.27327 11.2006L3.04955 13C2.87435 13.1102 2.66411 13.0734 2.52395 12.9633C2.38378 12.8531 2.27866 12.6328 2.3137 12.4492L2.94443 8.66667C2.97947 8.48305 2.90939 8.33616 2.80427 8.18926L0.176238 5.50847C0.0360759 5.36158 0.00103544 5.14124 0.0360759 4.95763C0.106157 4.77401 0.246318 4.62712 0.456561 4.59039L4.06573 4.03955C4.24093 4.00282 4.38109 3.89265 4.45117 3.74576L6.06303 0.293785Z" />
			</g>
			<defs>
				<clipPath id="clip0_280_4977">
					<rect width="13"
						  height="13"
						  fill="white" />
				</clipPath>
			</defs>
		</symbol>

			<symbol id="slider-arrow" width="8" height="50" viewBox="0 0 8 50" fill="none" xmlns="http://www.w3.org/2000/svg">
			
				<path d="M3.64644 49.4445C3.8417 49.6397 4.15828 49.6397 4.35355 49.4445L7.53553 46.2625C7.73079 46.0672 7.73079 45.7506 7.53553 45.5554C7.34027 45.3601 7.02368 45.3601 6.82842 45.5554L3.99999 48.3838L1.17157 45.5554C0.976305 45.3601 0.659722 45.3601 0.46446 45.5554C0.269198 45.7506 0.269198 46.0672 0.46446 46.2625L3.64644 49.4445ZM3.5 -6.55671e-08L3.49999 49.0909L4.49999 49.0909L4.5 6.55671e-08L3.5 -6.55671e-08Z" fill="#C7D3E4"/>
		</symbol>

	</defs>


</svg>

		</symbol>
		<symbol id="like" width="21" height="19" viewBox="0 0 21 19" xmlns="http://www.w3.org/2000/svg">
			<path
				d="M19.2802 1.81521C18.1737 0.65682 16.6245 0 15.0015 0C13.3909 0 11.8294 0.65682 10.7351 1.80327L10.5015 2.04211L10.2679 1.80327C9.17367 0.65682 7.61219 0 6.00154 0C4.52613 0 3.1122 0.537398 2.03023 1.51666C1.91957 1.61219 1.82121 1.70773 1.72285 1.81521C-0.576329 4.22753 -0.576329 8.00126 1.73515 10.4255L9.8376 18.7253C10.0097 18.9045 10.2556 19 10.5015 19C10.7351 19 10.9688 18.9164 11.1409 18.7492C11.1532 18.7373 11.1655 18.7253 11.1778 18.7134L19.2802 10.4136C21.5794 8.00126 21.5794 4.22753 19.2802 1.81521ZM8.94006 3.04525L9.8499 3.97674C10.0343 4.14393 10.2679 4.23947 10.5138 4.23947C10.7597 4.23947 11.0056 4.14393 11.1778 3.9648L12.0753 3.04525C12.8253 2.24513 13.895 1.79133 15.0138 1.79133C16.022 1.79133 16.981 2.16153 17.7188 2.81835C17.7925 2.89001 17.8786 2.96166 17.9401 3.04525C19.5876 4.76493 19.6122 7.42803 17.9892 9.14771L10.5138 16.8146L3.07531 9.18353C1.42777 7.46386 1.42777 4.75299 3.07531 3.03331C3.82531 2.24513 4.89498 1.79133 6.00154 1.79133C7.00974 1.79133 7.96875 2.16153 8.70646 2.81835C8.78023 2.89001 8.86629 2.96166 8.94006 3.04525Z"
				fill="#454B58" />
		</symbol>
		<symbol id="greyStar" width="13" height="13" viewBox="0 0 13 13" xmlns="http://www.w3.org/2000/svg">
			<path
				d="M6.06303 0.293785C6.13311 0.110169 6.30831 0 6.48352 0C6.65872 0 6.83392 0.110169 6.93904 0.293785L8.5509 3.74576C8.62098 3.89265 8.76114 4.00282 8.93635 4.03955L12.5455 4.59039C12.7207 4.62712 12.8959 4.77401 12.966 4.95763C13.0361 5.14124 12.966 5.36158 12.8258 5.50847L10.1978 8.18926C10.0927 8.29943 10.0226 8.48305 10.0576 8.66667L10.6884 12.4492C10.7234 12.6328 10.6533 12.8531 10.4781 12.9633C10.338 13.0734 10.1277 13.1102 9.95252 13L6.7288 11.2006C6.58864 11.1271 6.41343 11.1271 6.27327 11.2006L3.04955 13C2.87435 13.1102 2.66411 13.0734 2.52395 12.9633C2.38378 12.8531 2.27866 12.6328 2.3137 12.4492L2.94443 8.66667C2.97947 8.48305 2.90939 8.33616 2.80427 8.18926L0.176238 5.50847C0.0360759 5.36158 0.00103544 5.14124 0.0360759 4.95763C0.106157 4.77401 0.246318 4.62712 0.456561 4.59039L4.06573 4.03955C4.24093 4.00282 4.38109 3.89265 4.45117 3.74576L6.06303 0.293785Z" />
		</symbol>
		<symbol id="yellowStar" width="13" height="13" viewBox="0 0 13 13" xmlns="http://www.w3.org/2000/svg">
			<path
				d="M6.06303 0.293785C6.13311 0.110169 6.30831 0 6.48352 0C6.65872 0 6.83392 0.110169 6.93904 0.293785L8.5509 3.74576C8.62098 3.89265 8.76114 4.00282 8.93635 4.03955L12.5455 4.59039C12.7207 4.62712 12.8959 4.77401 12.966 4.95763C13.0361 5.14124 12.966 5.36158 12.8258 5.50847L10.1978 8.18926C10.0927 8.29943 10.0226 8.48305 10.0576 8.66667L10.6884 12.4492C10.7234 12.6328 10.6533 12.8531 10.4781 12.9633C10.338 13.0734 10.1277 13.1102 9.95252 13L6.7288 11.2006C6.58864 11.1271 6.41343 11.1271 6.27327 11.2006L3.04955 13C2.87435 13.1102 2.66411 13.0734 2.52395 12.9633C2.38378 12.8531 2.27866 12.6328 2.3137 12.4492L2.94443 8.66667C2.97947 8.48305 2.90939 8.33616 2.80427 8.18926L0.176238 5.50847C0.0360759 5.36158 0.00103544 5.14124 0.0360759 4.95763C0.106157 4.77401 0.246318 4.62712 0.456561 4.59039L4.06573 4.03955C4.24093 4.00282 4.38109 3.89265 4.45117 3.74576L6.06303 0.293785Z" />
		</symbol>
		<symbol id="play" viewBox="0 0 11 13" xmlns="http://www.w3.org/2000/svg">
			<path d="M9.96289 6.23912L1.37801 11.1956L1.37802 1.28264L9.96289 6.23912Z" stroke-width="2" />
		</symbol>

	
		<symbol id="like"
				width="21"
				height="19"
				viewBox="0 0 21 19"
				xmlns="http://www.w3.org/2000/svg">
			<path d="M19.2802 1.81521C18.1737 0.65682 16.6245 0 15.0015 0C13.3909 0 11.8294 0.65682 10.7351 1.80327L10.5015 2.04211L10.2679 1.80327C9.17367 0.65682 7.61219 0 6.00154 0C4.52613 0 3.1122 0.537398 2.03023 1.51666C1.91957 1.61219 1.82121 1.70773 1.72285 1.81521C-0.576329 4.22753 -0.576329 8.00126 1.73515 10.4255L9.8376 18.7253C10.0097 18.9045 10.2556 19 10.5015 19C10.7351 19 10.9688 18.9164 11.1409 18.7492C11.1532 18.7373 11.1655 18.7253 11.1778 18.7134L19.2802 10.4136C21.5794 8.00126 21.5794 4.22753 19.2802 1.81521ZM8.94006 3.04525L9.8499 3.97674C10.0343 4.14393 10.2679 4.23947 10.5138 4.23947C10.7597 4.23947 11.0056 4.14393 11.1778 3.9648L12.0753 3.04525C12.8253 2.24513 13.895 1.79133 15.0138 1.79133C16.022 1.79133 16.981 2.16153 17.7188 2.81835C17.7925 2.89001 17.8786 2.96166 17.9401 3.04525C19.5876 4.76493 19.6122 7.42803 17.9892 9.14771L10.5138 16.8146L3.07531 9.18353C1.42777 7.46386 1.42777 4.75299 3.07531 3.03331C3.82531 2.24513 4.89498 1.79133 6.00154 1.79133C7.00974 1.79133 7.96875 2.16153 8.70646 2.81835C8.78023 2.89001 8.86629 2.96166 8.94006 3.04525Z"
				  fill="#454B58" />
		</symbol>
		<symbol id="greyStar"
				width="13"
				height="13"
				viewBox="0 0 13 13"
				xmlns="http://www.w3.org/2000/svg">
			<path
				  d="M6.06303 0.293785C6.13311 0.110169 6.30831 0 6.48352 0C6.65872 0 6.83392 0.110169 6.93904 0.293785L8.5509 3.74576C8.62098 3.89265 8.76114 4.00282 8.93635 4.03955L12.5455 4.59039C12.7207 4.62712 12.8959 4.77401 12.966 4.95763C13.0361 5.14124 12.966 5.36158 12.8258 5.50847L10.1978 8.18926C10.0927 8.29943 10.0226 8.48305 10.0576 8.66667L10.6884 12.4492C10.7234 12.6328 10.6533 12.8531 10.4781 12.9633C10.338 13.0734 10.1277 13.1102 9.95252 13L6.7288 11.2006C6.58864 11.1271 6.41343 11.1271 6.27327 11.2006L3.04955 13C2.87435 13.1102 2.66411 13.0734 2.52395 12.9633C2.38378 12.8531 2.27866 12.6328 2.3137 12.4492L2.94443 8.66667C2.97947 8.48305 2.90939 8.33616 2.80427 8.18926L0.176238 5.50847C0.0360759 5.36158 0.00103544 5.14124 0.0360759 4.95763C0.106157 4.77401 0.246318 4.62712 0.456561 4.59039L4.06573 4.03955C4.24093 4.00282 4.38109 3.89265 4.45117 3.74576L6.06303 0.293785Z" />
		</symbol>
		<symbol id="yellowStar"
				width="13"
				height="13"
				viewBox="0 0 13 13"
				xmlns="http://www.w3.org/2000/svg">
			<path
				  d="M6.06303 0.293785C6.13311 0.110169 6.30831 0 6.48352 0C6.65872 0 6.83392 0.110169 6.93904 0.293785L8.5509 3.74576C8.62098 3.89265 8.76114 4.00282 8.93635 4.03955L12.5455 4.59039C12.7207 4.62712 12.8959 4.77401 12.966 4.95763C13.0361 5.14124 12.966 5.36158 12.8258 5.50847L10.1978 8.18926C10.0927 8.29943 10.0226 8.48305 10.0576 8.66667L10.6884 12.4492C10.7234 12.6328 10.6533 12.8531 10.4781 12.9633C10.338 13.0734 10.1277 13.1102 9.95252 13L6.7288 11.2006C6.58864 11.1271 6.41343 11.1271 6.27327 11.2006L3.04955 13C2.87435 13.1102 2.66411 13.0734 2.52395 12.9633C2.38378 12.8531 2.27866 12.6328 2.3137 12.4492L2.94443 8.66667C2.97947 8.48305 2.90939 8.33616 2.80427 8.18926L0.176238 5.50847C0.0360759 5.36158 0.00103544 5.14124 0.0360759 4.95763C0.106157 4.77401 0.246318 4.62712 0.456561 4.59039L4.06573 4.03955C4.24093 4.00282 4.38109 3.89265 4.45117 3.74576L6.06303 0.293785Z" />
		</symbol>
		<symbol width="20"
				height="20"
				viewBox="0 0 20 20"
				id="important">
			<g clip-path="url(#clip0_319_249)">
				<path
					  d="M10 0C4.48591 0 0 4.48591 0 10C0 15.5141 4.48591 20 10 20C15.5141 20 20 15.5141 20 10C20 4.48591 15.5141 0 10 0ZM10 17.8142C5.69113 17.8142 2.18579 14.3089 2.18579 10C2.18579 5.69135 5.69113 2.18579 10 2.18579C14.3089 2.18579 17.8142 5.69135 17.8142 10C17.8142 14.3089 14.3089 17.8142 10 17.8142Z" />
				<rect width="1.8"
					  height="7"
					  rx="0.9"
					  transform="matrix(1 0 0 -1 9.10156 15)" />
				<circle cx="1"
						cy="1"
						r="1"
						transform="matrix(1 0 0 -1 9 7)" />
			</g>
			<defs>
				<clipPath id="clip0_319_249">
					<rect width="20"
						  height="20"
						  fill="white" />
				</clipPath>
			</defs>
		</symbol>
		<symbol xmlns="http://www.w3.org/2000/svg"
				width="20"
				height="20"
				viewBox="0 0 20 20"
				id="chat">
			<g clip-path="url(#clip0_319_256)">
				<path
					  d="M19.9316 15.8099L18.327 11.8479C18.1749 11.4677 17.8175 11.2243 17.4068 11.2243C17.2776 11.2243 17.1559 11.2471 17.0342 11.3004C16.7909 11.3992 16.6008 11.5894 16.4943 11.8327C16.3878 12.076 16.3878 12.3498 16.4867 12.5932L17.1787 14.2966L15.019 13.346C14.7681 13.2395 14.4791 13.2319 14.2281 13.3384C13.346 13.7186 12.3954 13.9087 11.4144 13.9087C7.46008 13.9087 4.81369 10.8289 4.81369 7.94677C4.81369 4.6616 7.77947 1.98479 11.4144 1.98479C15.0494 1.98479 18.0152 4.6616 18.0152 7.94677C18.0152 8.20532 17.9924 8.50951 17.9468 8.79087C17.8631 9.3308 18.2433 9.8403 18.7833 9.91635C18.8289 9.92395 18.8821 9.92395 18.9278 9.92395C19.4144 9.92395 19.8327 9.55894 19.9087 9.07985C19.962 8.69962 19.9924 8.30418 19.9924 7.94677C19.9924 5.80989 19.0875 3.80228 17.4449 2.29658C15.8327 0.813688 13.6882 0 11.4144 0C9.14069 0 6.98859 0.813688 5.37643 2.29658C3.94677 3.59696 3.06464 5.32319 2.86692 7.15589C1.07224 8.38783 0 10.3498 0 12.4259C0 13.7034 0.395437 14.9354 1.14068 15.9924L0.0760456 18.6388C-0.0760456 19.0114 0.0152091 19.4373 0.304183 19.7186C0.486692 19.9011 0.737643 20 0.996198 20C1.13308 20 1.26996 19.9696 1.39924 19.9163L4.53232 18.5399C5.3384 18.8289 6.19772 18.9734 7.07224 18.9734C7.09506 18.9734 7.11787 18.9734 7.13308 18.9734C8.44867 18.9658 9.72624 18.616 10.8365 17.9696C11.7947 17.4068 12.6008 16.6388 13.1711 15.7262C13.6578 15.635 14.1445 15.4981 14.6084 15.3232L18.616 17.0951C18.7452 17.1483 18.8745 17.1787 19.019 17.1787C19.2776 17.1787 19.5209 17.0798 19.711 16.8973C19.9924 16.616 20.0837 16.1901 19.9316 15.8099ZM3.19392 16.2129C3.3308 15.8707 3.26996 15.4829 3.02662 15.2015C2.34221 14.403 1.98479 13.4449 1.98479 12.4335C1.98479 11.4297 2.35741 10.4487 3.03422 9.65779C3.38403 11.0722 4.1749 12.4259 5.26236 13.4753C6.63878 14.7985 8.46388 15.635 10.4183 15.8479C9.49049 16.5856 8.28137 16.9962 7.05703 16.9962C7.04183 16.9962 7.03422 16.9962 7.01901 16.9962C6.27377 16.9886 5.55133 16.8441 4.88213 16.5551C4.63118 16.4487 4.34221 16.4487 4.09126 16.5627L2.82129 17.1255L3.19392 16.2129Z" />
				<path
					  d="M10.3789 7.97736C10.3789 8.52489 10.82 8.96596 11.3675 8.96596C11.915 8.96596 12.3561 8.52489 12.3561 7.97736C12.3561 7.42983 11.915 6.98877 11.3675 6.98877C10.82 6.98877 10.3789 7.42983 10.3789 7.97736Z" />
				<path
					  d="M13.4375 7.9773C13.4375 8.52483 13.8786 8.96589 14.4261 8.96589C14.9736 8.96589 15.4147 8.52483 15.4147 7.9773C15.4147 7.42977 14.9736 6.98871 14.4261 6.98871C13.8786 6.98871 13.4375 7.42977 13.4375 7.9773Z" />
				<path
					  d="M7.33203 7.97736C7.33203 8.52489 7.7731 8.96596 8.32062 8.96596C8.86815 8.96596 9.30922 8.52489 9.30922 7.97736C9.30922 7.42983 8.86815 6.98877 8.32062 6.98877C7.7731 6.98877 7.33203 7.42983 7.33203 7.97736Z" />
			</g>
			<defs>
				<clipPath id="clip0_319_256">
					<rect width="20"
						  height="20"
						  fill="white" />
				</clipPath>
			</defs>
		</symbol>
		<svg xmlns="http://www.w3.org/2000/svg"
			 id="thumbUp">
			<path fill-rule="evenodd"
				  clip-rule="evenodd"
				  d="M15.5412 9.94961C16.3117 9.98476 16.9654 9.37779 16.9991 8.59376C17.0329 7.80973 16.4911 7.10488 15.7199 7.07099L10.6006 6.42819C10.6006 6.42819 11.6674 4.64368 11.6674 1.99969C11.6674 0.23716 10.4083 3.31732e-08 9.66774 3.31732e-08C9.08519 -0.000223421 8.92833 1.12852 8.92833 1.12852H8.92714C8.79522 1.85229 8.62346 2.48437 8.02662 3.64812C7.35849 4.9525 6.44858 4.83012 5.38628 5.99193C5.1988 6.19654 4.94689 6.53426 4.70139 6.94981C4.68135 6.97178 4.66266 7.00254 4.64456 7.04582C4.62266 7.09736 4.59644 7.13311 4.57335 7.18078C4.53268 7.25549 4.49268 7.3302 4.45336 7.40863C3.79588 8.06611 2.77156 7.99892 2.33538 7.99892C1.46048 7.99892 1.00225 8.50728 1.00225 9.33205L1.00195 15.427C1.00195 16.3523 1.38056 16.6644 2.33545 16.6644H3.66858C4.33977 16.6644 4.86533 17.0492 5.66835 17.331C6.76827 17.712 8.41096 17.9981 11.2406 17.9981C11.7355 17.9981 13.2704 17.9999 13.2704 17.9999C13.7403 17.9999 14.1178 17.7853 14.3902 17.5261C14.4939 17.4275 14.6021 17.2844 14.6483 17.005C14.6558 16.9618 14.6639 16.7803 14.6627 16.7558C14.6982 15.9567 14.2152 15.6674 13.9415 15.5763C13.949 15.5738 13.9441 15.567 13.959 15.5676L14.8277 15.6064C15.5988 15.6416 16.36 15.0861 16.36 14.1414C16.36 13.358 15.725 12.8056 14.9564 12.768L15.417 12.7893C16.1881 12.8232 16.8399 12.2163 16.8756 11.4322C16.9092 10.6483 16.3117 9.98484 15.5412 9.94961Z" />
		</svg>

		<symbol xmlns="http://www.w3.org/2000/svg"
				width="20"
				height="20"
				viewBox="0 0 20 20"
				id="person">
			<g clip-path="url(#clip0_1373_15491)">
				<path
					  d="M18.4135 12.6958C17.7507 12.1133 16.9469 11.6101 16.0242 11.2001C15.6297 11.0249 15.1682 11.2025 14.993 11.5968C14.8178 11.9911 14.9954 12.4527 15.3897 12.628C16.1678 12.9738 16.8382 13.3914 17.3822 13.8695C18.0528 14.4588 18.4375 15.312 18.4375 16.2109V17.6562C18.4375 18.087 18.087 18.4375 17.6562 18.4375H2.34375C1.91299 18.4375 1.5625 18.087 1.5625 17.6562V16.2109C1.5625 15.312 1.94717 14.4588 2.6178 13.8695C3.40714 13.1758 5.70694 11.5625 10 11.5625C13.1877 11.5625 15.7812 8.96896 15.7812 5.78125C15.7812 2.59354 13.1877 0 10 0C6.81229 0 4.21875 2.59354 4.21875 5.78125C4.21875 7.64481 5.10529 9.30496 6.47858 10.3629C3.96576 10.9152 2.40265 11.9785 1.58646 12.6958C0.578308 13.5815 0 14.8627 0 16.2109V17.6562C0 18.9487 1.05133 20 2.34375 20H17.6562C18.9487 20 20 18.9487 20 17.6562V16.2109C20 14.8627 19.4217 13.5815 18.4135 12.6958ZM5.78125 5.78125C5.78125 3.45505 7.6738 1.5625 10 1.5625C12.3262 1.5625 14.2188 3.45505 14.2188 5.78125C14.2188 8.10745 12.3262 10 10 10C7.6738 10 5.78125 8.10745 5.78125 5.78125Z" />
			</g>
			<defs>
				<clipPath id="clip0_1373_15491">
					<rect width="20"
						  height="20"
						  fill="white" />
				</clipPath>
			</defs>
		</symbol>
		<symbol xmlns="http://www.w3.org/2000/svg"
				width="20"
				height="20"
				viewBox="0 0 20 20"
				id="key">
			<path
				  d="M16.0938 13.9062C15.6623 13.9062 15.3125 14.256 15.3125 14.6875C15.3125 15.119 15.6623 15.4688 16.0938 15.4688C16.5252 15.4688 16.875 15.119 16.875 14.6875C16.875 14.256 16.5252 13.9062 16.0938 13.9062ZM16.0938 10.7812H3.90625C1.75234 10.7812 0 12.5336 0 14.6875C0 16.8414 1.75234 18.5938 3.90625 18.5938H16.0938C18.2477 18.5938 20 16.8414 20 14.6875C20 12.5336 18.2477 10.7812 16.0938 10.7812ZM16.0938 17.0312H3.90625C2.61391 17.0312 1.5625 15.9798 1.5625 14.6875C1.5625 13.3952 2.61391 12.3438 3.90625 12.3438H16.0938C17.3861 12.3438 18.4375 13.3952 18.4375 14.6875C18.4375 15.9798 17.3861 17.0312 16.0938 17.0312ZM3.90625 13.9062C3.47477 13.9062 3.125 14.256 3.125 14.6875C3.125 15.119 3.47477 15.4688 3.90625 15.4688C4.33773 15.4688 4.6875 15.119 4.6875 14.6875C4.6875 14.256 4.33773 13.9062 3.90625 13.9062ZM6.09375 9.21875C7.81687 9.21875 9.21875 7.81687 9.21875 6.09375H16.25C16.6815 6.09375 17.0312 5.74398 17.0312 5.3125C17.0312 4.88102 16.6815 4.53125 16.25 4.53125H15.4688V3.75C15.4688 3.31852 15.119 2.96875 14.6875 2.96875C14.256 2.96875 13.9062 3.31852 13.9062 3.75V4.53125H9.21875C9.21875 2.80813 7.81687 1.40625 6.09375 1.40625C4.37063 1.40625 2.96875 2.80813 2.96875 4.53125V6.09375C2.96875 7.81687 4.37063 9.21875 6.09375 9.21875ZM4.53125 4.53125C4.53125 3.66969 5.23219 2.96875 6.09375 2.96875C6.95531 2.96875 7.65625 3.66969 7.65625 4.53125V6.09375C7.65625 6.95531 6.95531 7.65625 6.09375 7.65625C5.23219 7.65625 4.53125 6.95531 4.53125 6.09375V4.53125ZM6.875 13.9062C6.44352 13.9062 6.09375 14.256 6.09375 14.6875C6.09375 15.119 6.44352 15.4688 6.875 15.4688C7.30648 15.4688 7.65625 15.119 7.65625 14.6875C7.65625 14.256 7.30648 13.9062 6.875 13.9062ZM13.125 13.9062C12.6935 13.9062 12.3438 14.256 12.3438 14.6875C12.3438 15.119 12.6935 15.4688 13.125 15.4688C13.5565 15.4688 13.9062 15.119 13.9062 14.6875C13.9062 14.256 13.5565 13.9062 13.125 13.9062ZM10 13.9062C9.56852 13.9062 9.21875 14.256 9.21875 14.6875C9.21875 15.119 9.56852 15.4688 10 15.4688C10.4315 15.4688 10.7812 15.119 10.7812 14.6875C10.7812 14.256 10.4315 13.9062 10 13.9062Z" />
		</symbol>
		<symbol xmlns="http://www.w3.org/2000/svg"
				width="20"
				height="20"
				viewBox="0 0 20 20"
				id="book">
			<path
				  d="M20 3C20 2.44772 19.5523 2 19 2H11.5474C10.9632 2 10.4178 2.2205 10 2.62669C9.5822 2.2205 9.03675 2 8.45261 2H1C0.447716 2 0 2.44772 0 3V15.147C0 15.6993 0.447715 16.147 1 16.147H4.44487C5.38878 18.2785 7.52031 19.764 10 19.764C12.4797 19.764 14.6112 18.2785 15.5551 16.147H19C19.5523 16.147 20 15.6993 20 15.147V3ZM10 18.3752C7.41586 18.3752 5.31141 16.2708 5.31141 13.6867C5.31141 11.1025 7.41586 9.00193 10 9.00193C12.5841 9.00193 14.6886 11.1064 14.6886 13.6905C14.6886 16.2747 12.5841 18.3752 10 18.3752ZM1.35397 14.793V3.35397H8.45261C8.9323 3.35397 9.32302 3.74468 9.32302 4.22437V7.65184C6.28627 7.98839 3.9265 10.5609 3.9265 13.6867C3.9265 14.0619 3.96132 14.4333 4.02708 14.7892H1.35397V14.793ZM18.646 14.793H15.9729C16.0387 14.4371 16.0735 14.0658 16.0735 13.6905C16.0735 10.5648 13.7137 7.99226 10.677 7.65571V4.22437C10.677 3.74468 11.0677 3.35397 11.5474 3.35397H18.646V14.793Z" />
			<path
				  d="M8.26543 11.0326C7.96587 11.2051 7.78125 11.5245 7.78125 11.8702V15.5071C7.78125 15.8528 7.96587 16.1722 8.26543 16.3447C8.56433 16.5169 8.93232 16.5167 9.23108 16.3443L12.3803 14.527C12.6798 14.3541 12.8644 14.0345 12.8644 13.6886C12.8644 13.3427 12.6799 13.0231 12.3803 12.8502L9.23108 11.033C8.93232 10.8605 8.56433 10.8604 8.26543 11.0326ZM9.13522 12.5416L11.1236 13.6906L9.13522 14.8395V12.5416Z" />
		</symbol>
		<symbol xmlns="http://www.w3.org/2000/svg"
				width="20"
				height="20"
				viewBox="0 0 20 20"
				id="heart">
			<path
				  d="M18.3658 2.7035C17.3283 1.61892 15.8547 1 14.3339 1C12.8073 1 11.3395 1.61892 10.308 2.69172L9.99558 3.01002L9.68907 2.69761C8.65164 1.61892 7.18391 1 5.65724 1C4.26024 1 2.93398 1.50693 1.91424 2.42646C1.80814 2.51488 1.71972 2.6033 1.62541 2.7035C-0.543764 4.97288 -0.543764 8.52725 1.6372 10.7966L9.4415 18.7542C9.58297 18.9015 9.78338 18.9841 9.99558 18.9841C10.196 18.9841 10.3905 18.9074 10.532 18.7778L10.5673 18.7424L18.3717 10.7848C20.5408 8.51546 20.5408 4.96698 18.3658 2.7035ZM10.0074 17.1686L2.75715 9.76509C1.11848 8.06748 1.11848 5.40318 2.75715 3.70557C3.49986 2.92749 4.56086 2.47951 5.65724 2.47951C6.64751 2.47951 7.60242 2.83908 8.33923 3.49336C8.36281 3.51694 8.39228 3.54052 8.41586 3.5641C8.46891 3.61125 8.52196 3.6643 8.57501 3.72325L9.4474 4.61332C9.60065 4.75478 9.80106 4.83141 10.0015 4.83141C10.2137 4.83141 10.4141 4.74889 10.5556 4.60153L11.422 3.71735C12.1648 2.93339 13.2258 2.47951 14.3398 2.47951C15.3301 2.47951 16.285 2.83908 17.0218 3.49336C17.0395 3.51105 17.0572 3.52873 17.0749 3.54052L17.0808 3.54642C17.1397 3.59947 17.1986 3.65841 17.2517 3.72325C18.0357 4.54258 18.4778 5.60948 18.4836 6.72354C18.4954 7.84349 18.071 8.91039 17.293 9.72972L10.0074 17.1686Z" />
		</symbol>
		<symbol xmlns="http://www.w3.org/2000/svg"
				width="20"
				height="20"
				viewBox="0 0 20 20"
				id="payment">
			<path
				  d="M19.2777 12.1206C18.8715 12.1206 18.5481 12.4515 18.5481 12.8502V17.0622H1.45918V9.87164H8.14582C8.55199 9.87164 8.87541 9.54069 8.87541 9.14205C8.87541 8.74341 8.54446 8.41246 8.14582 8.41246H1.45918V6.16352H8.14582C8.55199 6.16352 8.87541 5.83258 8.87541 5.43393C8.87541 5.03529 8.54446 4.70435 8.14582 4.70435H1.34635C0.601723 4.70435 0 5.30607 0 6.0507V17.1751C0 17.9197 0.601723 18.5214 1.34635 18.5214H18.6534C19.398 18.5214 19.9998 17.9197 19.9998 17.1751V12.8502C20.0073 12.4515 19.6763 12.1206 19.2777 12.1206Z" />
			<path
				  d="M3.20615 12.1206C2.79999 12.1206 2.47656 12.4516 2.47656 12.8502C2.47656 13.2488 2.80751 13.5798 3.20615 13.5798H5.68074C6.0869 13.5798 6.41033 13.2488 6.41033 12.8502C6.41033 12.4516 6.07938 12.1206 5.68074 12.1206H3.20615Z" />
			<path
				  d="M19.5633 2.90671L15.2384 1.05641C15.0579 0.981196 14.8473 0.981196 14.6593 1.05641L10.3344 2.91423C10.0636 3.02705 9.89062 3.29031 9.89062 3.58365V6.05823C9.89062 9.5031 11.1618 11.5189 14.5841 13.4895C14.6969 13.5497 14.8172 13.5873 14.9451 13.5873C15.073 13.5873 15.2008 13.5572 15.3061 13.4895C18.7284 11.5264 19.9996 9.51062 19.9996 6.05823V3.58365C20.0071 3.29031 19.8341 3.02705 19.5633 2.90671ZM18.5479 4.06503V6.05823C18.5479 8.87881 17.6378 10.3831 14.9526 12.0078C12.2674 10.3831 11.3573 8.87881 11.3573 6.05823V4.06503L14.9526 2.52311L18.5479 4.06503Z" />
			<path
				  d="M13.7052 6.26883C13.5698 6.06574 13.3366 5.9454 13.096 5.9454C12.953 5.9454 12.8101 5.99053 12.6898 6.06574C12.5243 6.17105 12.419 6.33652 12.3814 6.53208C12.3438 6.72012 12.3814 6.91568 12.4867 7.08115L13.7202 8.93897C13.8481 9.13453 14.0662 9.25488 14.2994 9.2624H14.322C14.5476 9.2624 14.7507 9.16462 14.8936 8.9841L17.3757 5.89275C17.6239 5.57684 17.5788 5.11803 17.2629 4.8623C17.135 4.757 16.9695 4.70435 16.8041 4.70435C16.5784 4.70435 16.3753 4.80213 16.2324 4.97512L14.3821 7.28423L13.7052 6.26883Z" />
		</symbol>
		<symbol xmlns="http://www.w3.org/2000/svg"
				width="20"
				height="20"
				viewBox="0 0 20 20"
				id="statistic">
			<g clip-path="url(#clip0_179_9995)">
				<path
					  d="M4.91455 9.35107H0.73903C0.332563 9.35107 0 9.68364 0 10.0901V18.4411C0 18.8476 0.332563 19.1802 0.73903 19.1802H4.91455C5.32102 19.1802 5.65358 18.8476 5.65358 18.4411V10.0901C5.65358 9.6744 5.32102 9.35107 4.91455 9.35107ZM4.17552 10.8291V17.7021H1.47806V10.8291H4.17552Z" />
				<path
					  d="M12.0942 1H7.91872C7.51225 1 7.17969 1.33256 7.17969 1.73903V18.4319C7.17969 18.8383 7.51225 19.1709 7.91872 19.1709H12.0942C12.5007 19.1709 12.8333 18.8383 12.8333 18.4319V1.73903C12.8333 1.33256 12.5007 1 12.0942 1ZM8.65775 17.6928V2.47806H11.3552V17.6928H8.65775Z" />
				<path
					  d="M19.2622 5.17554H15.0867C14.6802 5.17554 14.3477 5.5081 14.3477 5.91457V18.4319C14.3477 18.8384 14.6802 19.1709 15.0867 19.1709H19.2622C19.6687 19.1709 20.0012 18.8384 20.0012 18.4319V5.91457C20.0012 5.5081 19.6779 5.17554 19.2622 5.17554ZM18.5324 6.6536V17.7021H15.835V6.6536H18.5324Z" />
			</g>
			<defs>
				<clipPath id="clip0_179_9995">
					<rect width="20"
						  height="20"
						  fill="white" />
				</clipPath>
			</defs>
		</symbol>
		<symbol xmlns="http://www.w3.org/2000/svg"
				width="20"
				height="20"
				viewBox="0 0 20 20"
				id="chats">
			<g clip-path="url(#clip0_210_733)">
				<path
					  d="M17.0931 2.87906C15.2132 1.02655 12.7087 0 10.048 0H9.93393L9.92793 0.0058997C4.45045 0.0530973 0 4.46018 0 9.84071C0 11.9882 0.738739 14.1062 2.07808 15.8112L0.720721 18.9027C0.636637 19.0973 0.630631 19.3097 0.714715 19.5103C0.792793 19.705 0.942943 19.8584 1.13514 19.9351C1.23724 19.9764 1.34535 20 1.45946 20C1.5015 20 1.54955 19.9941 1.5976 19.9882L6.72673 19.1032C7.76577 19.4631 8.84685 19.646 9.94595 19.646H9.98799C15.5075 19.646 20 15.233 20 9.81121C20.006 7.19764 18.973 4.73156 17.0931 2.87906ZM3.74174 15.9941C3.86186 15.7168 3.81381 15.3923 3.61562 15.1681C3.003 14.472 2.52252 13.6873 2.18619 12.8319C1.8018 11.8702 1.60961 10.8673 1.60961 9.83481C1.60961 5.28024 5.38138 1.56932 10.024 1.56932H10.042C14.6486 1.56932 18.4024 5.25074 18.4084 9.77581V9.80531C18.4084 14.3658 14.6366 18.0767 9.99399 18.0767C9.003 18.0767 8.02402 17.8997 7.09309 17.5575C6.96096 17.5044 6.81682 17.4926 6.66667 17.5162L2.78078 18.1829L3.74174 15.9941Z" />
				<path
					  d="M6.70896 9.22704H13.2351C13.6796 9.22704 14.0339 8.87305 14.0339 8.44238C14.0339 8.0117 13.6736 7.65771 13.2351 7.65771H6.70896C6.26451 7.65771 5.91016 8.0117 5.91016 8.44238C5.91016 8.87305 6.27052 9.22704 6.70896 9.22704Z" />
				<path
					  d="M13.2975 11.8348C13.742 11.8348 14.0963 11.4808 14.0963 11.0502C14.0963 10.6195 13.736 10.2655 13.2975 10.2655H6.70895C6.26451 10.2655 5.91016 10.6195 5.91016 11.0502C5.91016 11.4808 6.27052 11.8348 6.70895 11.8348H13.2975Z" />
			</g>
			<defs>
				<clipPath id="clip0_210_733">
					<rect width="20"
						  height="20"
						  fill="white" />
				</clipPath>
			</defs>
		</symbol>
		<symbol xmlns="http://www.w3.org/2000/svg"
				width="13"
				height="13"
				viewBox="0 0 13 13"
				id="clock">
			<g clip-path="url(#clip0_179_10140)">
				<path
					  d="M6.5 0C2.91584 0 0 2.91584 0 6.5C0 10.0842 2.91584 13 6.5 13C10.0842 13 13 10.0842 13 6.5C13 2.91584 10.0842 0 6.5 0ZM6.5 11.5792C3.69924 11.5792 1.42077 9.30076 1.42077 6.5C1.42077 3.69937 3.69924 1.42077 6.5 1.42077C9.30076 1.42077 11.5792 3.69937 11.5792 6.5C11.5792 9.30076 9.30076 11.5792 6.5 11.5792Z" />
				<path
					  d="M7.06219 6.5079V3.7836C7.06219 3.47941 6.81569 3.23291 6.51162 3.23291C6.20746 3.23291 5.96094 3.47941 5.96094 3.7836V6.68382C5.96094 6.69248 5.96307 6.70061 5.96349 6.70926C5.95625 6.859 6.00783 7.01104 6.12219 7.12542L8.17308 9.17615C8.38819 9.39127 8.73683 9.39127 8.95178 9.17615C9.16675 8.96104 9.16689 8.6124 8.95178 8.39743L7.06219 6.5079Z" />
			</g>
			<defs>
				<clipPath id="clip0_179_10140">
					<rect width="13"
						  height="13"
						  fill="white" />
				</clipPath>
			</defs>
		</symbol>
		<symbol xmlns="http://www.w3.org/2000/svg"
				width="16"
				height="15"
				viewBox="0 0 16 15"
				fill="none"
				id="calendar">
			<g clip-path="url(#clip0_179_10162)">
				<path d="M13.1746 1.25605H11.4423V0.937278C11.4423 0.7624 11.3831 0.60508 11.2687 0.491161C11.1544 0.377293 10.9968 0.318506 10.8217 0.318506C10.6466 0.318506 10.4889 0.377272 10.3746 0.491137C10.2603 0.605054 10.2011 0.762379 10.2011 0.937278V1.25605H5.79525V0.937278C5.79525 0.762399 5.73605 0.605079 5.6217 0.491161C5.50739 0.377293 5.34974 0.318506 5.17463 0.318506C4.99956 0.318506 4.84191 0.377275 4.7276 0.491132C4.61323 0.605043 4.55403 0.762367 4.55403 0.937278V1.25605H2.82169C1.42174 1.25605 0.31875 2.35389 0.31875 3.7498V12.1873C0.31875 13.5832 1.42174 14.6811 2.82169 14.6811H13.1746C14.5746 14.6811 15.6776 13.5832 15.6776 12.1873V3.7498C15.6776 2.35389 14.5746 1.25605 13.1746 1.25605ZM1.55992 3.7498C1.55992 3.08319 2.15104 2.49354 2.82169 2.49354H4.55403V2.81231C4.55403 2.98719 4.61322 3.14451 4.72757 3.25843C4.84188 3.3723 4.99953 3.43108 5.17463 3.43108C5.34971 3.43108 5.50736 3.37231 5.62167 3.25846C5.73604 3.14455 5.79525 2.98722 5.79525 2.81231V2.49354H10.2011V2.81231C10.2011 2.98719 10.2603 3.14451 10.3747 3.25843C10.489 3.3723 10.6466 3.43108 10.8217 3.43108C10.9968 3.43108 11.1545 3.37232 11.2688 3.25845C11.3832 3.14454 11.4424 2.98721 11.4424 2.81231V2.49354H13.1747C13.8453 2.49354 14.4365 3.08319 14.4365 3.7498V5.00606H1.55992V3.7498ZM14.4364 12.1873C14.4364 12.8539 13.8453 13.4436 13.1746 13.4436H2.82169C2.15104 13.4436 1.55992 12.8539 1.55992 12.1873V6.24355H14.4364V12.1873Z"
					  fill="#29BDA6"
					  stroke="#29BDA6"
					  stroke-width="0.3" />
				<path d="M3.76148 12.1875C4.04381 12.1875 4.23209 12.0937 4.42031 11.9063C4.60853 11.7188 4.70265 11.4375 4.70265 11.25C4.70265 11.0625 4.60853 10.7812 4.42031 10.5937C4.04387 10.2188 3.47915 10.2188 3.10265 10.5937C2.91442 10.7812 2.82031 10.9687 2.82031 11.25C2.82031 11.4375 2.91442 11.7188 3.10265 11.9063C3.29087 12.0937 3.47915 12.1875 3.76148 12.1875Z"
					  fill="#29BDA6" />
				<path d="M3.76148 9.37498C4.04381 9.37498 4.23209 9.28124 4.42031 9.09375C4.60853 8.90626 4.70265 8.62498 4.70265 8.43749C4.70265 8.25 4.60853 7.96872 4.42031 7.78123C4.04387 7.40626 3.47915 7.40626 3.10265 7.78123C2.91442 7.96872 2.82031 8.1562 2.82031 8.43749C2.82031 8.71877 2.91442 8.90626 3.10265 9.09375C3.29087 9.28124 3.47915 9.37498 3.76148 9.37498Z"
					  fill="#29BDA6" />
				<path d="M6.5857 12.1874C6.86803 12.1874 7.05631 12.0937 7.24453 11.9062C7.43275 11.7187 7.52686 11.4374 7.52686 11.2499C7.52686 11.0624 7.43275 10.7812 7.24453 10.5937C6.86809 10.2187 6.30336 10.2187 5.92687 10.5937C5.73864 10.7812 5.64453 11.0624 5.64453 11.2499C5.64453 11.4374 5.73864 11.7187 5.92687 11.9062C6.11509 12.0937 6.30336 12.1874 6.5857 12.1874Z"
					  fill="#29BDA6" />
				<path d="M6.5857 9.37498C6.86803 9.37498 7.05631 9.28124 7.24453 9.09375C7.43275 8.90626 7.52686 8.62498 7.52686 8.43749C7.52686 8.25 7.43275 7.96872 7.24453 7.78123C6.86809 7.40626 6.30336 7.40626 5.92687 7.78123C5.73864 7.96872 5.64453 8.25 5.64453 8.43749C5.64453 8.62498 5.73864 8.90626 5.92687 9.09375C6.11509 9.28124 6.30336 9.37498 6.5857 9.37498Z"
					  fill="#29BDA6" />
				<path d="M9.40992 12.1874C9.69225 12.1874 9.88053 12.0937 10.0687 11.9062C10.257 11.7187 10.3511 11.5312 10.3511 11.2499C10.3511 10.9686 10.257 10.7812 10.0687 10.5937C9.6923 10.2187 9.12758 10.2187 8.75108 10.5937C8.56286 10.7812 8.46875 11.0624 8.46875 11.2499C8.46875 11.4374 8.56286 11.7187 8.75108 11.9062C8.93931 12.0937 9.12758 12.1874 9.40992 12.1874Z"
					  fill="#29BDA6" />
				<path d="M9.40992 9.37498C9.69225 9.37498 9.88053 9.28124 10.0687 9.09375C10.257 8.90626 10.3511 8.71877 10.3511 8.43749C10.3511 8.25 10.257 7.96872 10.0687 7.78123C9.6923 7.40626 9.12758 7.40626 8.75108 7.78123C8.56286 7.96872 8.46875 8.25 8.46875 8.43749C8.46875 8.62498 8.56286 8.90626 8.75108 9.09375C8.93931 9.28124 9.12758 9.37498 9.40992 9.37498Z"
					  fill="#29BDA6" />
				<path d="M12.2341 12.1874C12.5165 12.1874 12.7047 12.0937 12.893 11.9062C13.0812 11.7187 13.1753 11.4374 13.1753 11.2499C13.1753 11.0624 13.0812 10.7812 12.893 10.5937C12.5165 10.2187 11.9518 10.2187 11.5753 10.5937C11.3871 10.7812 11.293 10.9686 11.293 11.2499C11.293 11.4374 11.3871 11.7187 11.5753 11.9062C11.7635 12.0937 11.9518 12.1874 12.2341 12.1874Z"
					  fill="#29BDA6" />
				<path d="M12.2341 9.37498C12.5165 9.37498 12.7047 9.28124 12.893 9.09375C13.0812 8.90626 13.1753 8.71877 13.1753 8.43749C13.1753 8.25 13.0812 7.96872 12.893 7.78123C12.5165 7.40626 11.9518 7.40626 11.5753 7.78123C11.3871 7.96872 11.293 8.25 11.293 8.43749C11.293 8.62498 11.3871 8.90626 11.5753 9.09375C11.7635 9.28124 11.9518 9.37498 12.2341 9.37498Z"
					  fill="#29BDA6" />
			</g>
			<defs>
				<clipPath id="clip0_179_10162">
					<rect width="16"
						  height="15"
						  fill="white" />
				</clipPath>
			</defs>
		</symbol>
		<symbol xmlns="http://www.w3.org/2000/svg"
				width="13"
				height="16"
				viewBox="0 0 13 16"
				fill="none"
				id="trashCan">
			<g opacity="0.6">
				<path d="M11.5561 1.88398H9.41977V0.495768C9.41977 0.216339 9.19438 0 8.91497 0C8.88786 0 8.86978 0.00905115 8.86095 0.0180816C8.8519 0.00905115 8.83382 0 8.82479 0H3.80394H3.76799H3.73182C3.45241 0 3.23608 0.216339 3.23608 0.495768V1.884H1.09075C0.477686 1.884 0 2.36169 0 2.97475V3.76801V4.75952H0.946506V14.9183C0.946506 15.5314 1.41516 16 2.02822 16H10.6186C11.2317 16 11.7093 15.5314 11.7093 14.9183V4.75952H12.6468V3.76801V2.97475C12.6468 2.36169 12.1689 1.88398 11.5561 1.88398ZM4.22759 0.991515H8.41922V1.88398H4.22759V0.991515ZM10.7088 14.9183C10.7088 14.9816 10.6817 15.0085 10.6186 15.0085H2.02822C1.96515 15.0085 1.93804 14.9816 1.93804 14.9183V4.7595H10.7088V14.9183ZM11.6463 3.76799H1.00054V2.97473C1.00054 2.91164 1.02766 2.8755 1.09073 2.8755H11.5561C11.6192 2.8755 11.6463 2.91164 11.6463 2.97473V3.76799Z"
					  fill="#8B919E" />
				<path d="M9.14117 5.92236H8.14062V14.1251H9.14117V5.92236Z"
					  fill="#8B919E" />
				<path d="M6.83258 5.92236H5.83203V14.1251H6.83258V5.92236Z"
					  fill="#8B919E" />
				<path d="M4.52399 5.92236H3.52344V14.1251H4.52399V5.92236Z"
					  fill="#8B919E" />
			</g>
		</symbol>
	</defs>
</svg>
