<svg width="469" height="317" viewBox="0 0 469 317" fill="none" xmlns="http://www.w3.org/2000/svg">
<path d="M325.535 35.3404C326.211 24.8669 326.774 14.506 327.449 4.03242C327.562 2.79361 327.675 1.32957 328.801 0.653856C329.814 0.0907622 331.053 0.428615 332.066 0.87909C350.533 8.31193 364.158 28.9212 365.735 48.8547" fill="#FF6B6B"/>
<path opacity="0.3" d="M331.729 11.4653C340.4 17.0963 346.143 26.8941 346.818 37.255C346.931 38.4938 346.818 39.8453 346.03 40.8588C345.354 41.6472 344.341 41.985 343.328 42.0976C342.314 42.0976 341.301 41.8724 340.287 41.6472C337.81 40.9714 335.22 40.2957 333.306 38.4938C331.504 36.8045 330.716 34.3269 330.603 31.8493C330.491 29.3717 330.941 27.0067 331.392 24.6417C332.405 26.4436 333.531 28.2455 334.545 30.0474C333.419 24.1912 332.292 18.4477 331.166 12.5915C331.054 12.2537 331.054 11.9158 331.279 11.6906C331.504 11.4653 331.955 11.578 331.955 11.8032" fill="white"/>
<path d="M218.335 57.5263C208.764 46.1518 203.021 31.624 202.57 16.7583C205.948 18.335 209.439 20.0242 212.817 21.6009C211.916 20.5873 211.128 19.4612 210.227 18.4476C225.091 19.5738 239.392 26.7814 249.188 38.1559" fill="#FF6B6B"/>
<path opacity="0.3" d="M223.965 53.0217C215.857 47.1655 210.34 37.9308 209.214 28.0203C209.101 27.3446 209.214 26.4437 209.889 26.2184C210.34 26.1058 210.79 26.3311 211.241 26.5563C217.434 30.6106 223.627 34.6648 229.82 38.7191C229.032 37.5929 228.469 36.2415 228.356 34.7775C230.946 36.692 233.536 38.6065 236.239 40.521C236.802 40.9715 237.365 41.422 237.477 42.0977C237.59 42.886 237.027 43.4491 236.464 44.0122C233.874 46.3772 229.933 47.2781 226.667 46.1519C227.793 47.1655 228.919 48.0665 230.045 49.08C228.019 50.4315 225.541 50.8819 223.177 50.2062C222.951 51.3324 223.402 52.5712 224.415 53.1343" fill="white"/>
<path d="M428.342 155.843C428.342 155.843 442.755 170.708 449.286 169.469C449.286 169.469 426.54 145.256 416.969 122.845C413.365 114.399 407.961 103.813 400.641 92.4382C404.92 85.0053 408.749 76.5589 410.55 68.1125C410.55 68.1125 403.344 76.7842 394.11 82.9782C393.66 82.3025 393.097 81.6268 392.646 80.9511C397.038 76.7842 401.092 71.0406 402.33 63.3825L379.584 62.369C380.147 61.5806 380.823 60.5671 381.499 59.2156C381.499 59.2156 367.085 45.9266 344.34 35.6783C318.216 20.8126 259.887 15.8574 231.511 40.0705C206.062 54.9361 199.306 73.8561 179.263 78.5861L167.439 77.2346C167.439 77.2346 162.823 102.011 178.024 113.047L166.764 110.457C166.764 110.457 168.791 120.368 179.938 131.179L173.07 130.391C173.07 130.391 176.11 145.932 185.681 149.648C185.681 149.648 170.705 151.563 166.539 145.932C166.539 145.932 161.584 169.132 184.217 177.916C184.217 177.916 116.317 185.912 135.46 268.912C139.964 288.282 166.651 301.243 197.505 308H419.333C432.846 303.608 448.948 258.889 449.624 240.87C450.187 222.851 441.291 188.051 441.291 188.051L449.736 199.201L428.342 155.843Z" fill="#FF6B6B"/>
<path d="M174.76 190.529C162.036 189.741 149.537 199.651 147.285 212.264C155.505 206.746 165.077 203.255 174.873 202.129C166.991 209.111 164.176 221.274 168.342 230.959C171.608 222.175 178.589 214.855 187.147 211.251C181.179 218.233 179.377 228.481 182.417 237.153" fill="#FF6B6B"/>
<path d="M182.529 237.153C182.529 237.153 182.416 237.04 182.303 236.702C182.191 236.364 182.078 235.914 181.853 235.351C181.515 234.112 181.065 232.31 180.952 229.945C180.84 227.58 180.952 224.652 181.853 221.273C182.754 218.007 184.33 214.404 187.033 211.138L187.258 211.476C183.655 213.052 179.939 215.417 176.561 218.683C173.295 221.949 170.368 226.116 168.566 231.071L168.341 231.747L168.115 231.071C165.413 224.652 165.526 216.656 168.904 209.674C170.368 206.746 172.394 204.043 174.759 201.903L174.984 202.466C164.287 203.705 154.828 207.646 147.509 212.489L147.059 212.827L147.171 212.264C147.734 209.448 148.748 206.858 149.986 204.493C151.225 202.241 152.801 200.214 154.49 198.637C157.756 195.258 161.472 193.344 164.512 192.105C167.665 190.979 170.255 190.641 172.057 190.528C172.957 190.528 173.633 190.528 174.083 190.528C174.309 190.528 174.421 190.528 174.646 190.528C174.759 190.528 174.872 190.528 174.872 190.528C174.872 190.528 174.759 190.528 174.646 190.528C174.534 190.528 174.309 190.528 174.083 190.528C173.633 190.528 172.957 190.528 172.057 190.528C170.255 190.641 167.665 191.092 164.625 192.218C161.584 193.457 157.981 195.371 154.716 198.75C153.139 200.326 151.563 202.353 150.324 204.606C149.085 206.858 148.072 209.448 147.622 212.151L147.284 211.926C154.603 206.971 164.174 203.029 174.984 201.79L175.885 201.678L175.209 202.241C172.845 204.268 170.931 206.858 169.579 209.786C166.201 216.656 166.201 224.539 168.791 230.733H168.228C170.03 225.778 173.07 221.499 176.336 218.233C179.714 214.854 183.542 212.489 187.145 210.912L188.046 210.575L187.483 211.25C184.781 214.516 183.092 218.007 182.303 221.161C181.403 224.427 181.29 227.355 181.403 229.72C181.515 232.085 181.853 233.887 182.191 235.125C182.304 235.689 182.529 236.139 182.529 236.477C182.529 236.927 182.529 237.153 182.529 237.153Z" fill="#263238"/>
<path d="M407.285 225.441C414.041 223.977 421.361 224.99 427.554 228.144C433.747 231.297 438.814 236.703 441.629 243.009" fill="#FF6B6B"/>
<path d="M441.629 243.009C441.517 243.009 440.616 240.87 438.476 237.829C436.337 234.788 432.621 230.959 427.441 228.369C422.374 225.779 417.082 224.99 413.366 224.99C409.65 224.99 407.285 225.553 407.285 225.441C407.285 225.441 407.848 225.216 408.862 224.99C409.875 224.765 411.451 224.54 413.366 224.54C417.194 224.427 422.487 225.216 427.779 227.806C432.959 230.509 436.675 234.45 438.814 237.604C439.94 239.18 440.616 240.532 441.066 241.545C441.404 242.446 441.629 243.009 441.629 243.009Z" fill="#263238"/>
<g opacity="0.3">
<path opacity="0.3" d="M329.027 244.136C320.807 245.375 310.447 251.569 306.619 259.001C305.831 260.578 306.506 260.803 306.619 262.493C306.732 264.294 307.632 266.096 309.321 266.772C311.01 267.448 313.15 266.547 313.488 264.745C312.474 270.714 313.826 276.908 317.204 281.976C319.456 280.737 321.37 278.71 322.496 276.345C322.046 285.129 325.311 294.026 331.504 300.332C330.153 295.152 328.802 289.972 327.563 284.791C326.099 279.16 324.748 274.43 325.086 268.574C325.536 262.38 329.14 257.2 331.955 252.132C328.014 253.821 323.509 261.592 319.681 266.209C319.118 257.988 322.609 249.992 328.802 244.361" fill="black"/>
</g>
<path d="M327.561 284.904C327.561 284.904 327.448 284.678 327.223 284.228C326.998 283.777 326.773 283.102 326.435 282.201C325.872 280.399 325.196 277.809 324.971 274.43C324.746 271.051 324.971 266.885 326.322 262.38C327.674 257.988 330.151 253.258 333.979 249.203L334.317 249.654C331.277 252.469 328.011 255.51 324.971 259.001C323.057 261.254 321.368 263.619 320.017 265.984L319.566 266.772L319.453 265.871C318.89 260.916 320.016 256.186 321.931 252.357C323.845 248.528 326.547 245.487 329.363 243.46L329.588 243.798C327.111 244.699 325.084 246.05 323.507 247.514C321.931 248.978 320.917 250.442 320.129 251.681C319.341 252.92 318.89 254.046 318.665 254.722C318.44 255.51 318.215 255.848 318.215 255.848C318.215 255.848 318.215 255.735 318.327 255.51C318.327 255.285 318.44 255.06 318.553 254.609C318.778 253.821 319.228 252.807 320.017 251.456C320.805 250.104 321.818 248.64 323.395 247.176C324.971 245.712 326.998 244.248 329.475 243.347L330.939 242.784L329.588 243.798C326.885 245.825 324.183 248.753 322.269 252.582C320.467 256.411 319.453 261.028 319.904 265.758L319.341 265.646C320.692 263.168 322.494 260.803 324.408 258.551C327.448 255.06 330.714 252.019 333.867 249.091L334.317 249.541C330.489 253.483 328.011 258.1 326.66 262.38C325.309 266.772 324.971 270.826 325.196 274.205C325.421 277.583 325.984 280.174 326.547 281.975C326.773 282.876 327.111 283.552 327.223 284.003C327.448 284.678 327.561 284.904 327.561 284.904Z" fill="#263238"/>
<path d="M193.902 283.665C198.294 288.507 204.149 291.998 210.568 293.463C211.356 293.688 212.144 293.688 212.707 293.125C213.383 292.449 212.82 291.323 212.257 290.422C209.892 286.931 207.527 283.327 205.163 279.836C210.23 283.89 216.31 286.48 222.729 287.494C223.742 287.606 225.094 287.719 225.657 286.705C226.107 285.917 225.769 285.016 225.431 284.228C224.305 281.863 223.179 279.385 221.828 277.133" fill="#FF6B6B"/>
<path d="M221.828 277.358C221.828 277.358 221.941 277.583 222.166 277.921C222.391 278.372 222.729 278.935 223.067 279.611C223.517 280.399 223.967 281.3 224.418 282.313C224.643 282.876 224.981 283.44 225.319 284.003C225.657 284.566 225.994 285.241 225.994 286.03C225.994 286.48 225.882 286.931 225.657 287.269C225.431 287.606 224.981 287.832 224.531 287.944C223.63 288.17 222.729 287.944 221.941 287.832C220.252 287.494 218.337 287.043 216.423 286.48C212.595 285.241 208.653 283.214 204.937 280.286L205.388 279.948C205.838 280.511 206.176 281.187 206.627 281.75C207.978 283.777 209.329 285.692 210.568 287.606C211.243 288.507 211.806 289.521 212.482 290.422C212.82 290.872 213.045 291.435 213.27 291.999C213.383 292.562 213.27 293.35 212.595 293.688C212.032 294.026 211.356 293.913 210.905 293.913C210.342 293.8 209.892 293.688 209.442 293.575C208.428 293.35 207.527 293.012 206.627 292.674C204.825 291.999 203.248 291.21 201.897 290.422C199.082 288.845 197.168 287.043 195.817 285.805C195.141 285.129 194.691 284.678 194.353 284.341C194.015 284.003 193.902 283.777 193.902 283.777C193.902 283.777 194.128 283.89 194.465 284.228C194.803 284.566 195.254 285.016 195.929 285.692C197.28 286.931 199.307 288.507 202.01 290.084C203.361 290.872 204.938 291.661 206.739 292.224C207.64 292.562 208.541 292.787 209.442 293.125C210.342 293.35 211.469 293.8 212.257 293.35C212.595 293.125 212.707 292.674 212.595 292.224C212.482 291.773 212.257 291.323 211.919 290.872C211.243 289.971 210.68 289.07 210.005 288.057C208.766 286.142 207.415 284.228 205.951 282.201C205.501 281.525 205.05 280.962 204.712 280.399L203.699 278.822L205.163 279.948C208.766 282.764 212.707 284.791 216.423 286.142C218.337 286.818 220.139 287.269 221.828 287.606C222.729 287.719 223.517 287.944 224.305 287.719C225.094 287.606 225.544 286.931 225.544 286.255C225.544 285.579 225.206 284.904 224.868 284.341C224.531 283.777 224.305 283.214 224.08 282.651C223.63 281.638 223.179 280.737 222.729 279.948C222.391 279.273 222.166 278.71 221.941 278.259C221.828 277.583 221.715 277.358 221.828 277.358Z" fill="#263238"/>
<g opacity="0.3">
<path opacity="0.3" d="M221.713 213.616C224.19 217.783 227.906 221.274 232.185 223.414C231.96 221.161 230.946 218.909 229.482 217.22C234.212 221.724 239.842 225.216 246.035 227.468C240.855 229.833 234.437 229.495 229.595 226.567C224.64 223.639 221.262 218.346 220.699 212.715" fill="black"/>
</g>
<g opacity="0.3">
<g opacity="0.3">
<path d="M191.535 140.301C200.431 157.532 229.37 165.978 252.116 166.316C259.097 166.429 269.006 171.609 275.988 170.933C291.527 169.469 304.251 161.023 319.791 159.671C329.474 158.883 339.271 158.545 348.842 156.969C358.414 155.279 357.963 154.153 365.62 148.072C373.277 141.99 381.497 136.021 381.385 126.224C367.084 143.792 352.896 149.198 330.826 154.378C308.755 159.446 285.784 159.446 263.151 158.32C238.266 157.194 212.029 154.491 191.535 140.301Z" fill="black"/>
</g>
</g>
<path d="M268.558 8.42456C268.671 8.42456 268.783 9.66338 269.121 11.6905C269.459 13.7176 270.134 16.4205 271.26 19.3486C272.386 22.2767 273.85 24.6417 274.976 26.4436C276.102 28.1328 276.891 29.1464 276.891 29.1464C276.891 29.1464 276.665 28.9212 276.215 28.5833C275.765 28.1328 275.314 27.5697 274.639 26.6688C273.4 24.9795 271.936 22.5019 270.697 19.5738C269.571 16.6457 268.896 13.8303 268.671 11.6905C268.558 10.6769 268.445 9.77598 268.445 9.21289C268.445 8.64979 268.445 8.42456 268.558 8.42456Z" fill="#FF6B6B"/>
<path d="M275.875 5.49658C275.988 5.49658 275.537 6.62277 275.087 8.53728C274.637 10.4518 274.299 13.042 274.524 15.9701C274.749 18.8982 275.537 21.3758 276.213 23.1777C276.889 24.9796 277.564 25.9932 277.452 25.9932C277.452 25.9932 277.226 25.7679 276.889 25.3175C276.551 24.867 276.213 24.1913 275.763 23.2903C274.974 21.4884 274.073 18.8982 273.848 15.9701C273.623 13.042 274.073 10.2266 274.637 8.42466C274.862 7.52371 275.2 6.73538 275.425 6.28491C275.65 5.72182 275.875 5.49658 275.875 5.49658Z" fill="#FF6B6B"/>
<path d="M138.051 192.781C138.051 192.781 138.163 192.669 138.501 192.331C138.839 192.106 139.289 191.655 139.852 191.205C141.091 190.191 142.893 188.84 145.37 187.488C150.212 184.56 157.419 181.745 165.864 180.055C174.309 178.479 181.966 178.141 187.596 177.916C190.411 177.803 192.664 177.803 194.24 177.803C194.916 177.803 195.591 177.803 196.042 177.803C196.492 177.803 196.717 177.803 196.717 177.803C196.717 177.803 196.492 177.803 196.042 177.916C195.591 177.916 195.028 177.916 194.24 178.028C192.551 178.141 190.411 178.141 187.596 178.254C182.079 178.479 174.309 178.929 165.976 180.506C157.644 182.083 150.437 184.898 145.595 187.714C143.231 189.065 141.316 190.304 140.078 191.317C138.726 192.218 138.051 192.781 138.051 192.781Z" fill="#FF6B6B"/>
<path d="M299.412 10.4516C299.412 10.5642 297.498 9.88847 294.345 9.10014C292.768 8.76228 290.854 8.42442 288.827 8.42442C286.688 8.42442 284.436 8.98752 282.409 10.2263C281.396 10.902 280.495 11.6904 279.819 12.5913C279.143 13.4923 278.806 14.5058 278.58 15.5194C278.13 17.5465 278.468 19.4611 278.806 21.0377C279.594 24.191 280.382 25.993 280.269 25.993C280.269 25.993 280.044 25.5425 279.594 24.7541C279.256 23.9658 278.693 22.727 278.355 21.1503C277.905 19.5737 277.567 17.5465 278.017 15.4068C278.243 14.2806 278.693 13.267 279.369 12.2535C280.044 11.2399 280.945 10.4516 282.071 9.77584C284.211 8.42442 286.688 7.86133 288.827 7.86133C290.967 7.86133 292.881 8.19918 294.458 8.64966C296.034 9.10013 297.273 9.55061 298.061 9.77584C298.962 10.2263 299.525 10.4516 299.412 10.4516Z" fill="#FF6B6B"/>
<path d="M468.43 292.674C467.191 284.565 463.25 276.569 456.494 272.065C449.738 267.447 439.941 266.884 433.523 271.952L406.836 308H463.701C466.854 305.072 469.106 296.953 468.43 292.674Z" fill="#FF6B6B"/>
<g opacity="0.3">
<path opacity="0.3" d="M430.482 307.54C435.324 305.513 438.815 301.233 441.067 296.503C443.207 291.773 444.22 286.593 445.121 281.525C445.909 277.246 446.697 272.741 444.783 268.799C443.882 268.686 442.981 269.137 442.531 269.925C441.968 270.601 441.743 271.502 441.405 272.403C437.013 286.255 430.257 298.193 419.109 307.765" fill="black"/>
</g>
<g opacity="0.3">
<g opacity="0.3">
<path opacity="0.3" d="M310.557 125.21C314.949 122.62 321.142 123.408 324.633 127.125C328.124 122.395 334.655 120.03 340.397 121.381C336.907 122.958 333.416 124.534 330.714 127.125C327.898 129.715 325.872 133.319 326.322 137.148C322.831 133.431 318.778 130.165 314.386 127.575C312.584 126.449 310.107 125.548 308.418 126.787" fill="black"/>
</g>
</g>
<path d="M349.298 252.019C342.88 256.636 337.925 263.506 335.561 271.164C333.196 278.822 333.421 287.156 336.236 294.702" fill="#FF6B6B"/>
<path d="M336.235 294.702C336.235 294.702 336.123 294.589 336.01 294.251C335.897 293.913 335.672 293.575 335.56 292.9C335.109 291.773 334.659 290.084 334.321 287.944C333.533 283.665 333.42 277.471 335.334 271.052C337.249 264.632 340.852 259.565 343.892 256.524C345.356 254.947 346.707 253.821 347.721 253.145C348.171 252.807 348.622 252.47 348.847 252.357C349.072 252.132 349.297 252.132 349.297 252.132C349.297 252.132 348.847 252.582 347.833 253.371C346.932 254.159 345.581 255.285 344.117 256.862C341.19 260.015 337.699 264.97 335.785 271.277C333.87 277.584 333.87 283.665 334.546 287.832C334.884 289.972 335.334 291.661 335.56 292.787C336.123 294.026 336.348 294.702 336.235 294.702Z" fill="#263238"/>
<path d="M449.286 240.982C449.286 240.982 449.286 241.208 449.174 241.771C449.061 242.334 448.949 243.01 448.836 243.91C448.611 245.825 448.16 248.528 447.485 251.794C446.246 258.438 444.219 267.673 440.503 277.358C438.589 282.201 436.45 286.706 434.198 290.535C433.635 291.548 432.959 292.449 432.396 293.35C432.058 293.801 431.833 294.251 431.495 294.702C431.157 295.152 430.932 295.49 430.594 295.94C430.031 296.729 429.468 297.517 428.905 298.305C428.342 298.981 427.667 299.657 427.104 300.333C426.541 301.008 426.09 301.571 425.527 302.134C424.964 302.698 424.401 303.148 423.951 303.598C423.5 304.049 423.05 304.499 422.599 304.95C422.149 305.288 421.699 305.626 421.361 305.963C420.685 306.527 420.122 306.977 419.672 307.315C419.221 307.653 419.109 307.765 418.996 307.765C418.996 307.765 419.221 307.54 419.559 307.202C420.01 306.864 420.573 306.414 421.248 305.738C421.586 305.4 422.036 305.062 422.487 304.725C422.937 304.274 423.388 303.824 423.838 303.373C424.288 302.923 424.851 302.36 425.302 301.909C425.865 301.346 426.315 300.783 426.878 300.107C427.441 299.432 428.004 298.756 428.567 298.08C429.13 297.292 429.693 296.616 430.256 295.715C430.594 295.265 430.819 294.927 431.157 294.476C431.382 294.026 431.72 293.575 431.946 293.125C432.509 292.224 433.072 291.323 433.635 290.309C435.887 286.48 438.026 281.976 439.828 277.246C443.544 267.56 445.571 258.438 446.922 251.794C447.597 248.528 448.048 245.825 448.386 243.91C448.498 243.01 448.723 242.334 448.836 241.771C449.174 241.208 449.286 240.982 449.286 240.982Z" fill="#263238"/>
<path d="M190.188 172.623C190.188 172.623 190.3 172.397 190.751 172.059C191.201 171.722 191.651 171.158 192.327 170.595C193.003 169.92 193.903 169.131 194.917 168.343C195.93 167.442 197.056 166.429 198.408 165.415C200.997 163.275 204.15 160.91 207.754 158.32C211.357 155.842 215.411 153.139 219.915 150.549C224.306 147.959 228.698 145.819 232.639 143.905C236.693 141.99 240.296 140.526 243.449 139.287C245.025 138.612 246.489 138.161 247.728 137.711C248.967 137.26 250.093 136.922 250.993 136.585C251.894 136.359 252.57 136.134 253.02 135.909C253.471 135.796 253.696 135.684 253.696 135.684C253.696 135.684 253.471 135.796 253.02 136.021C252.457 136.247 251.782 136.472 250.993 136.81C250.093 137.148 249.079 137.485 247.841 137.936C246.602 138.386 245.138 138.95 243.674 139.513C240.521 140.751 236.918 142.328 232.977 144.243C229.036 146.157 224.757 148.41 220.253 150.887C215.861 153.477 211.807 156.068 208.204 158.545C204.601 161.023 201.448 163.388 198.745 165.528C197.394 166.541 196.268 167.555 195.255 168.343C194.241 169.131 193.34 169.92 192.665 170.483C191.989 171.046 191.426 171.496 190.976 171.834C190.413 172.51 190.188 172.623 190.188 172.623Z" fill="#263238"/>
<path d="M158.547 153.815C158.547 153.815 158.659 153.703 158.772 153.703C158.997 153.59 159.11 153.478 159.448 153.252C160.011 152.914 160.912 152.351 161.925 151.676C163.051 151 164.29 150.212 165.866 149.311C167.443 148.41 169.244 147.396 171.271 146.27C172.285 145.707 173.298 145.144 174.424 144.581C175.55 144.018 176.676 143.455 177.915 142.891C180.279 141.653 182.982 140.526 185.684 139.288C191.202 136.923 197.395 134.558 204.039 132.53C210.682 130.503 217.101 128.927 223.069 127.801C225.996 127.237 228.811 126.674 231.514 126.336C232.865 126.111 234.104 125.886 235.342 125.773C236.581 125.661 237.707 125.548 238.946 125.436C241.198 125.21 243.225 125.098 245.026 124.872C246.828 124.76 248.404 124.647 249.643 124.647C250.882 124.647 251.895 124.535 252.571 124.535C252.909 124.535 253.134 124.535 253.359 124.535C253.584 124.535 253.584 124.535 253.584 124.535C253.584 124.535 253.472 124.535 253.359 124.535C253.134 124.535 252.909 124.535 252.571 124.647C251.895 124.647 250.882 124.76 249.643 124.872C248.404 124.985 246.828 124.985 245.026 125.21C243.225 125.436 241.198 125.548 238.946 125.773C237.82 125.886 236.581 125.999 235.455 126.224C234.216 126.336 232.978 126.562 231.627 126.787C228.924 127.125 226.222 127.688 223.181 128.251C217.326 129.49 210.908 130.954 204.264 132.981C197.62 135.008 191.427 137.373 185.91 139.625C183.207 140.864 180.505 141.99 178.14 143.117C176.901 143.68 175.775 144.243 174.649 144.806C173.523 145.369 172.51 145.932 171.496 146.495C169.469 147.509 167.668 148.522 166.091 149.423C164.515 150.324 163.164 151.113 162.038 151.788C161.024 152.464 160.123 152.914 159.56 153.252C159.335 153.365 159.11 153.478 158.885 153.59C158.547 153.815 158.547 153.815 158.547 153.815Z" fill="#263238"/>
<path d="M292.656 116.651C292.769 116.764 289.841 118.002 286.576 120.142C283.31 122.282 281.058 124.534 280.946 124.309C280.833 124.196 282.973 121.831 286.238 119.579C289.616 117.552 292.656 116.538 292.656 116.651Z" fill="#263238"/>
<path d="M311.687 122.845C311.687 122.958 309.998 122.17 307.296 121.494C304.593 120.818 300.652 120.142 296.26 120.48C291.981 120.818 288.04 121.832 285.676 123.296C283.198 124.76 282.41 126.449 282.41 126.449C282.41 126.449 282.523 125.999 282.973 125.323C283.424 124.647 284.212 123.746 285.45 122.958C287.928 121.381 291.869 120.255 296.26 119.917C300.652 119.579 304.706 120.255 307.408 121.156C308.759 121.606 309.885 121.944 310.561 122.282C311.349 122.62 311.8 122.733 311.687 122.845Z" fill="#263238"/>
<path d="M274.753 132.193C274.753 132.193 275.654 134.332 276.104 135.346C276.442 136.134 276.78 137.035 276.893 137.936C277.005 138.837 276.78 139.851 276.104 140.414C275.204 141.315 273.515 141.315 272.388 140.639C271.262 139.963 270.587 138.725 270.136 137.486C269.686 136.247 269.348 134.896 268.785 133.769C268.785 133.769 271.15 131.855 270.587 128.364C270.587 128.364 271.825 131.967 274.753 132.193Z" fill="#F5F5F5"/>
<path d="M256.398 120.706C256.398 120.706 259.214 114.286 266.42 112.372C273.627 110.457 281.059 118.003 281.059 118.003C281.059 118.003 272.388 115.412 272.501 119.805C272.613 124.084 275.203 123.971 272.276 126.9C269.348 129.715 264.506 126.787 263.267 123.408L260.903 120.142L256.398 120.706Z" fill="#263238"/>
<path d="M286.126 124.985C286.126 124.985 286.126 125.098 286.239 125.436C286.239 125.661 286.239 126.111 286.239 126.562C286.126 127.575 285.676 129.039 284.55 130.503C283.424 131.967 281.509 133.432 279.032 133.657C276.555 133.882 273.74 132.868 271.938 130.729C271.037 129.715 270.474 128.476 270.136 127.237L270.7 127.125C271.488 129.377 270.925 131.855 269.799 133.432C268.673 135.121 266.871 135.909 265.52 136.247C264.056 136.585 262.817 136.36 262.142 136.022C261.804 135.909 261.466 135.797 261.241 135.684C261.016 135.571 261.016 135.571 261.016 135.459C261.016 135.459 261.466 135.571 262.142 135.796C262.93 136.022 264.056 136.134 265.407 135.796C266.758 135.459 268.335 134.67 269.348 133.094C270.362 131.517 270.812 129.265 270.136 127.237L270.7 127.125C270.925 128.251 271.488 129.377 272.389 130.278C274.078 132.305 276.78 133.319 279.032 133.094C281.397 132.868 283.199 131.517 284.212 130.166C285.338 128.814 285.788 127.35 286.014 126.449C286.126 125.548 286.014 124.985 286.126 124.985Z" fill="#263238"/>
<path d="M272.163 113.498C272.163 113.611 271.263 113.611 269.911 113.611C268.56 113.611 266.533 113.723 264.506 114.286C262.48 114.849 260.903 115.976 259.89 116.989C258.989 118.003 258.651 118.791 258.538 118.791C258.426 118.791 258.651 117.89 259.552 116.764C260.453 115.638 262.142 114.399 264.281 113.723C266.421 113.047 268.448 113.047 269.799 113.16C271.375 113.16 272.163 113.385 272.163 113.498Z" fill="white"/>
<path d="M274.303 141.427C274.19 141.54 272.839 138.95 271.826 135.571C270.812 132.193 270.474 129.377 270.587 129.377C270.7 129.377 271.375 132.08 272.389 135.459C273.515 138.725 274.528 141.315 274.303 141.427Z" fill="#263238"/>
<path d="M194.129 154.041C194.129 154.041 194.242 153.928 194.579 153.59C194.917 153.252 195.368 152.915 195.931 152.577C197.169 151.676 198.858 150.437 201.11 148.973C203.362 147.509 206.065 145.82 209.218 144.13C212.371 142.441 215.861 140.752 219.577 139.175C223.406 137.598 227.009 136.36 230.387 135.346C233.765 134.332 236.918 133.544 239.508 133.094C242.098 132.53 244.237 132.193 245.701 131.967C246.377 131.855 246.94 131.855 247.39 131.742C247.728 131.742 247.953 131.742 247.953 131.742C247.953 131.742 247.728 131.855 247.39 131.855C246.94 131.967 246.377 132.08 245.701 132.193C244.237 132.418 242.098 132.868 239.508 133.431C236.918 133.995 233.878 134.783 230.5 135.796C227.122 136.81 223.518 138.161 219.69 139.625C215.974 141.202 212.483 142.891 209.33 144.468C206.177 146.157 203.475 147.734 201.223 149.085C198.971 150.55 197.169 151.676 195.931 152.577C195.368 152.915 194.917 153.252 194.467 153.59C194.354 153.928 194.242 154.041 194.129 154.041Z" fill="#263238"/>
<path opacity="0.2" d="M261.463 25.2045C267.094 41.4216 267.769 58.9901 267.206 76.1081C266.868 84.6671 266.305 93.2261 263.603 101.447C260.9 109.556 256.058 117.214 248.739 121.719C241.87 125.998 233.425 127.124 225.318 125.998C217.323 124.985 209.666 121.831 202.459 118.228C194.239 114.061 186.244 109.105 179.826 102.461C173.407 95.8164 168.228 86.469 167.102 77.3469L178.925 78.6983C178.925 78.6983 188.046 77.6848 202.234 63.9453C217.773 48.967 220.588 47.0525 232.186 39.2818C246.825 29.5966 261.463 25.2045 261.463 25.2045Z" fill="white"/>
<path d="M225.883 123.971C239.875 123.971 251.218 112.627 251.218 98.6322C251.218 84.6377 239.875 73.293 225.883 73.293C211.89 73.293 200.547 84.6377 200.547 98.6322C200.547 112.627 211.89 123.971 225.883 123.971Z" fill="#F5F5F5"/>
<path d="M251.331 98.6322C251.331 110.908 243.111 120.818 236.017 120.818C229.036 120.818 223.293 110.908 223.293 98.6322C223.293 86.3567 228.923 76.4463 236.017 76.4463C242.999 76.3336 251.331 86.3567 251.331 98.6322Z" fill="#263238"/>
<path d="M241.645 90.4111C244.071 90.4111 246.037 88.4447 246.037 86.019C246.037 83.5933 244.071 81.6268 241.645 81.6268C239.22 81.6268 237.254 83.5933 237.254 86.019C237.254 88.4447 239.22 90.4111 241.645 90.4111Z" fill="white"/>
<path d="M230.386 114.737C230.386 114.737 230.161 114.399 229.71 113.723C229.372 113.047 228.809 111.921 228.359 110.57C227.796 109.218 227.345 107.642 227.008 105.727C226.67 103.813 226.445 101.785 226.332 99.6457C226.332 97.506 226.557 95.3662 226.782 93.4517C227.12 91.5372 227.571 89.9605 228.021 88.6091C228.472 87.2577 228.922 86.2441 229.372 85.4558C229.71 84.7801 229.935 84.3296 229.935 84.3296C230.048 84.3296 229.26 85.9062 228.471 88.6091C228.021 89.9605 227.683 91.6498 227.345 93.4517C227.12 95.2536 226.895 97.3934 226.895 99.5331C226.895 101.673 227.12 103.7 227.458 105.615C227.796 107.416 228.246 109.106 228.697 110.457C229.71 113.16 230.498 114.624 230.386 114.737Z" fill="white"/>
<path d="M219.464 66.1979C219.351 66.9863 218.45 67.662 217.212 68.2251C215.973 68.7882 214.284 69.3513 212.595 70.1396C210.906 70.8153 209.442 71.6036 208.203 72.1667C206.965 72.7298 205.951 73.0677 205.163 72.6172C204.487 72.1667 204.375 70.9279 205.163 69.3513C205.951 67.7746 207.753 65.8601 210.23 64.8465C212.707 63.7203 215.185 63.8329 216.874 64.2834C218.675 64.6213 219.576 65.4096 219.464 66.1979Z" fill="#263238"/>
<path d="M1.8125 282.651L9.83091 273.754C47.7218 303.598 173.186 339.186 285.444 258.889C333.712 224.427 329.781 166.091 329.781 166.091L320.191 144.468H329.781C329.781 144.468 357.61 181.182 328.524 229.27C328.524 229.27 298.651 286.255 207.147 306.977C62.8153 339.636 1.8125 282.651 1.8125 282.651Z" fill="#FF6B6B"/>
<g opacity="0.7">
<path opacity="0.7" d="M0 283.5L9.83464 273.754C47.7256 303.598 173.19 339.186 285.448 258.889C333.716 224.427 329.785 166.091 329.785 166.091L320.194 144.468H329.785C329.785 144.468 357.614 181.182 328.527 229.27C328.527 229.27 298.655 286.255 207.15 306.977C60.0392 356.5 0 283.5 0 283.5Z" fill="white"/>
</g>
<path d="M11.4118 273.079C11.569 273.079 11.2545 276.119 8.73896 279.385C6.22338 282.651 2.76446 284.453 2.60723 284.34C2.45001 284.228 5.59448 282.201 7.95284 279.047C10.4684 275.894 11.2545 272.966 11.4118 273.079Z" fill="#FF6B6B"/>
<path d="M24.6067 283.44C24.7639 283.44 23.9778 285.917 21.305 288.282C18.6322 290.647 15.4877 291.773 15.3305 291.661C15.1733 291.548 18.0033 290.197 20.6761 287.944C23.1917 285.579 24.4495 283.327 24.6067 283.44Z" fill="#FF6B6B"/>
<path d="M45.8529 292.674C46.0101 292.674 46.0101 295.377 43.8089 298.193C41.6078 301.008 38.4633 302.585 38.4633 302.36C38.3061 302.247 41.1361 300.558 43.18 297.855C45.224 295.265 45.6956 292.674 45.8529 292.674Z" fill="#FF6B6B"/>
<path d="M70.3604 301.121C70.5177 301.121 71.1466 303.711 69.5743 306.527C68.0021 309.455 65.0148 311.031 65.0148 310.919C64.8576 310.806 67.3732 309.117 68.7882 306.301C70.3604 303.598 70.046 301.121 70.3604 301.121Z" fill="#FF6B6B"/>
<path d="M92.8496 315.536C92.6924 315.536 93.6358 313.284 93.793 310.581C94.1074 307.765 93.4785 305.626 93.6358 305.513C93.793 305.513 94.7363 307.765 94.5791 310.581C94.4219 313.509 93.1641 315.649 92.8496 315.536Z" fill="#FF6B6B"/>
<path d="M111.41 316.549C111.253 316.437 112.353 314.522 112.668 311.932C112.982 309.342 112.353 307.315 112.668 307.315C112.825 307.315 113.925 309.342 113.611 312.045C113.139 314.635 111.567 316.549 111.41 316.549Z" fill="#FF6B6B"/>
<path d="M137.191 316.324C136.877 316.324 137.348 314.41 136.877 312.045C136.405 309.68 135.462 307.99 135.619 307.878C135.776 307.765 137.191 309.567 137.663 311.932C138.135 314.41 137.506 316.437 137.191 316.324Z" fill="#FF6B6B"/>
<path d="M155.118 315.31C154.804 315.31 154.804 313.509 154.017 311.369C153.231 309.229 151.816 307.652 152.131 307.652C152.288 307.54 154.017 309.004 154.804 311.256C155.59 313.396 155.275 315.31 155.118 315.31Z" fill="#FF6B6B"/>
<path d="M176.021 311.932C175.706 311.932 175.864 310.13 174.92 308.103C173.977 306.076 172.562 304.724 172.719 304.612C172.876 304.499 174.763 305.738 175.706 307.99C176.807 310.13 176.178 312.045 176.021 311.932Z" fill="#FF6B6B"/>
<path d="M201.797 308.216C201.483 308.216 201.483 306.188 200.382 304.049C199.281 301.796 197.552 300.332 197.709 300.22C197.866 300.107 199.91 301.571 201.168 303.936C202.426 306.188 202.111 308.216 201.797 308.216Z" fill="#FF6B6B"/>
<path d="M223.66 302.134C223.345 302.134 222.559 300.107 220.673 297.967C218.786 295.715 216.742 294.251 216.899 294.026C217.056 293.913 219.415 295.265 221.301 297.63C223.345 299.882 223.817 302.134 223.66 302.134Z" fill="#FF6B6B"/>
<path d="M247.864 293.012C247.549 293.012 246.92 290.872 244.877 288.62C242.99 286.368 240.631 284.904 240.789 284.791C240.946 284.678 243.619 285.917 245.663 288.395C247.707 290.647 248.178 293.012 247.864 293.012Z" fill="#FF6B6B"/>
<path d="M271.616 280.849C271.459 280.962 270.515 278.935 268.157 277.02C265.956 275.106 263.283 274.205 263.44 273.979C263.44 273.867 266.427 274.542 268.786 276.57C271.301 278.597 271.93 280.737 271.616 280.849Z" fill="#FF6B6B"/>
<path d="M292.05 268.349C291.893 268.461 290.006 266.659 287.176 264.745C284.346 262.83 281.674 261.704 281.831 261.591C281.988 261.479 284.818 262.492 287.805 264.407C290.635 266.209 292.208 268.236 292.05 268.349Z" fill="#FF6B6B"/>
<path d="M310.293 252.132C310.136 252.244 308.563 250.442 305.733 248.753C303.06 247.064 300.23 246.275 300.23 246.05C300.23 245.938 303.375 246.501 306.205 248.303C309.192 249.992 310.45 252.019 310.293 252.132Z" fill="#FF6B6B"/>
<path d="M326.483 232.761C326.326 232.874 324.125 231.184 320.823 229.833C317.364 228.482 314.22 228.144 314.377 227.919C314.377 227.806 317.678 227.918 321.295 229.27C324.753 230.734 326.64 232.761 326.483 232.761Z" fill="#FF6B6B"/>
<path d="M336.389 211.926C336.232 212.039 333.559 210.688 329.628 210.012C325.697 209.336 322.396 209.787 322.396 209.561C322.239 209.449 325.697 208.773 329.785 209.449C333.873 210.125 336.546 211.814 336.389 211.926Z" fill="#FF6B6B"/>
<path d="M340.797 189.516C340.639 189.628 338.124 189.065 334.822 188.84C331.52 188.615 328.848 188.84 328.848 188.615C328.848 188.502 331.52 187.939 334.979 188.277C338.281 188.502 340.797 189.403 340.797 189.516Z" fill="#FF6B6B"/>
<path d="M339.058 167.104C339.058 167.217 337.015 167.104 334.656 167.217C332.298 167.33 330.254 167.555 330.254 167.33C330.254 167.217 332.141 166.654 334.656 166.541C337.172 166.541 339.216 166.992 339.058 167.104Z" fill="#FF6B6B"/>
<path d="M332.783 151.676C332.626 151.788 330.739 151.113 328.066 151.338C325.551 151.563 323.821 152.464 323.664 152.351C323.664 152.351 323.979 152.013 324.765 151.563C325.551 151.225 326.651 150.887 328.066 150.775C329.481 150.662 330.739 150.887 331.525 151.113C332.311 151.338 332.783 151.563 332.783 151.676Z" fill="#FF6B6B"/>
<g opacity="0.3">
<path opacity="0.3" d="M258.876 227.468C264.393 237.829 277.117 243.122 288.715 241.77C300.314 240.306 310.673 233.099 317.992 223.864C323.285 216.994 327.338 208.21 325.086 199.876C319.344 211.701 309.097 221.274 296.823 226.116C284.549 230.959 270.474 230.959 258.312 226.116" fill="black"/>
</g>
<path d="M327.111 138.161C324.521 134.22 323.508 129.152 324.408 124.534C325.309 119.917 328.012 115.638 331.953 112.822C335.106 110.57 338.822 109.331 341.749 106.966C345.465 103.925 347.492 99.1953 347.83 94.4653C348.168 89.7353 346.929 84.8927 344.79 80.6132L347.943 79.0365C347.943 79.0365 348.055 79.1491 348.168 79.3744C357.063 90.9741 353.01 107.867 339.948 114.286C337.358 115.525 334.993 116.989 333.417 118.34C329.476 121.719 331.165 125.548 331.165 125.548" fill="#FF6B6B"/>
<g opacity="0.7">
<g opacity="0.7">
<path opacity="0.7" d="M327.111 138.161C324.521 134.22 323.508 129.152 324.408 124.534C325.309 119.917 328.012 115.638 331.953 112.822C335.106 110.57 338.822 109.331 341.749 106.966C345.465 103.925 347.492 99.1953 347.83 94.4653C348.168 89.7353 346.929 84.8927 344.79 80.6132L347.943 79.0365C347.943 79.0365 348.055 79.1491 348.168 79.3744C357.063 90.9741 353.01 107.867 339.948 114.286C337.358 115.525 334.993 116.989 333.417 118.34C329.476 121.719 331.165 125.548 331.165 125.548" fill="white"/>
</g>
</g>
<path d="M331.504 125.773C331.391 125.886 329.815 125.21 327.675 125.435C325.536 125.661 323.959 126.674 323.959 126.449C323.847 126.336 325.31 124.985 327.675 124.872C329.927 124.647 331.616 125.661 331.504 125.773Z" fill="#FF6B6B"/>
<path d="M334.43 117.214C334.317 117.327 333.754 116.313 332.853 115.412C331.952 114.511 330.939 113.948 331.052 113.835C331.052 113.723 332.29 113.948 333.304 115.074C334.317 115.975 334.542 117.101 334.43 117.214Z" fill="#FF6B6B"/>
<path d="M345.465 110.682C345.352 110.682 344.902 109.669 344.001 108.543C343.1 107.417 342.199 106.853 342.199 106.741C342.199 106.628 343.438 107.079 344.451 108.205C345.465 109.331 345.577 110.682 345.465 110.682Z" fill="#FF6B6B"/>
<path d="M352.899 96.6049C352.786 96.7176 351.773 96.3797 350.309 96.1545C348.957 95.9292 347.719 96.0419 347.719 95.9292C347.719 95.8166 348.845 95.4788 350.421 95.5914C351.885 95.8166 353.011 96.4923 352.899 96.6049Z" fill="#FF6B6B"/>
<path d="M350.309 83.0907C350.309 83.2033 349.408 83.2033 348.282 83.5412C347.268 83.879 346.48 84.3295 346.368 84.2169C346.255 84.1043 346.931 83.3159 348.169 82.9781C349.408 82.6402 350.421 82.9781 350.309 83.0907Z" fill="#FF6B6B"/>
<path d="M246.152 166.541C250.093 163.951 255.386 164.852 259.89 166.316C264.394 167.78 269.011 169.92 273.74 169.469C278.92 169.019 283.312 165.528 286.69 161.586C290.856 156.743 294.009 151.112 295.923 145.031C297.837 138.837 298.738 131.404 304.143 127.8C309.436 124.197 316.98 125.999 321.597 130.391C326.213 134.783 328.466 141.089 329.929 147.283C333.307 161.586 333.42 176.902 328.691 190.867C324.074 204.832 314.503 217.332 301.553 224.427C288.604 231.41 272.276 232.423 259.102 225.891" fill="#FF6B6B"/>
<path d="M259.101 225.553C259.101 225.553 259.326 225.666 259.664 225.779C260.115 226.004 260.678 226.229 261.466 226.567C262.254 226.905 263.267 227.243 264.393 227.581C265.519 227.918 266.871 228.369 268.447 228.707C271.6 229.382 275.429 229.833 280.045 229.72C282.297 229.608 284.775 229.382 287.252 228.932C289.729 228.482 292.432 227.806 295.134 226.792C300.539 224.878 305.944 221.612 311.011 217.22C316.078 212.828 320.583 207.084 324.186 200.439C327.789 193.795 330.154 186.137 331.28 178.028C332.406 169.92 332.181 161.248 330.717 152.689C329.929 148.41 329.028 144.13 327.564 140.188C326.1 136.247 323.961 132.53 320.92 129.828C317.88 127.237 313.826 125.661 309.998 125.886C308.084 125.998 306.169 126.562 304.593 127.575C303.016 128.589 301.778 130.053 300.764 131.629C298.85 134.783 297.949 138.499 297.048 141.878C296.148 145.369 295.022 148.747 293.445 151.676C291.981 154.716 290.18 157.419 288.153 159.897C286.239 162.374 284.099 164.514 281.622 166.203C279.257 167.893 276.667 169.019 274.077 169.244C271.487 169.582 269.01 169.131 266.758 168.456C262.367 167.217 258.763 165.528 255.61 164.965C252.457 164.401 249.98 164.627 248.404 165.19C247.616 165.415 247.052 165.753 246.602 165.978C246.264 166.203 246.039 166.316 246.039 166.316C246.039 166.316 246.264 166.203 246.602 165.978C246.94 165.753 247.503 165.415 248.404 165.19C249.98 164.627 252.57 164.289 255.723 164.852C258.876 165.302 262.592 166.992 266.871 168.231C269.01 168.794 271.487 169.244 273.965 168.906C276.442 168.568 279.032 167.555 281.397 165.866C283.761 164.176 285.788 162.036 287.815 159.671C289.729 157.194 291.531 154.491 292.995 151.45C294.459 148.41 295.585 145.144 296.485 141.652C297.386 138.161 298.287 134.558 300.201 131.179C301.215 129.49 302.453 128.026 304.142 126.899C305.832 125.886 307.746 125.21 309.773 125.098C311.8 124.985 313.826 125.323 315.741 125.998C317.655 126.674 319.457 127.688 321.033 129.152C324.186 131.855 326.325 135.684 327.902 139.738C329.366 143.792 330.379 147.959 331.055 152.351C332.519 161.023 332.744 169.695 331.618 177.803C330.492 186.024 328.014 193.682 324.411 200.439C320.808 207.197 316.191 212.828 311.124 217.332C306.057 221.724 300.427 224.99 295.022 226.905C292.319 227.918 289.617 228.594 287.139 229.045C284.549 229.495 282.185 229.72 279.933 229.833C275.316 229.946 271.487 229.382 268.335 228.707C266.758 228.369 265.407 227.918 264.281 227.581C263.155 227.13 262.141 226.792 261.353 226.454C260.565 226.117 260.002 225.779 259.664 225.666C259.326 225.666 259.101 225.553 259.101 225.553Z" fill="#263238"/>
<path d="M307.52 140.864C307.52 140.864 306.844 140.301 306.168 139.062C305.493 137.824 304.93 136.022 304.93 133.882C304.93 131.742 305.605 129.828 306.281 128.701C306.957 127.463 307.632 126.9 307.632 127.012C307.745 127.125 307.182 127.688 306.619 128.927C306.056 130.165 305.493 131.855 305.493 133.882C305.493 135.909 305.943 137.711 306.506 138.95C307.182 140.189 307.632 140.864 307.52 140.864Z" fill="#263238"/>
<path d="M314.389 139.851C314.389 139.851 313.826 139.175 313.15 138.049C312.587 136.81 312.024 135.008 311.799 132.868C311.687 130.729 312.024 128.814 312.475 127.575C312.925 126.224 313.376 125.548 313.488 125.548C313.713 125.548 312.137 128.701 312.475 132.756C312.7 136.923 314.614 139.851 314.389 139.851Z" fill="#263238"/>
<path d="M319.909 141.878C319.796 141.878 319.008 139.513 319.008 136.472C319.12 133.431 320.021 131.066 320.134 131.066C320.359 131.066 319.683 133.431 319.571 136.472C319.458 139.4 320.021 141.765 319.909 141.878Z" fill="#263238"/>
<path d="M413.929 155.955C403.682 162.262 389.944 161.023 379.247 155.392C368.55 149.761 360.442 140.301 353.799 130.391C351.885 127.575 349.97 124.647 346.93 122.845C341.075 119.467 332.967 122.733 329.702 128.476C326.323 134.22 326.999 141.54 329.589 147.734C329.589 147.734 336.458 181.069 372.266 201.679" fill="#FF6B6B"/>
<path d="M372.153 201.791C372.153 201.791 372.041 201.791 371.816 201.679C371.59 201.566 371.365 201.341 370.915 201.115C370.127 200.665 369.001 199.989 367.537 199.088C366.861 198.638 365.96 198.187 365.172 197.512C364.271 196.836 363.37 196.16 362.357 195.484C361.343 194.696 360.217 194.02 359.204 193.12C358.078 192.219 356.952 191.205 355.826 190.191C351.209 186.025 345.917 180.506 341.075 173.411C338.598 169.92 336.346 165.978 334.319 161.699C332.292 157.419 330.378 152.802 329.139 147.847C327.562 144.018 326.662 139.738 327.112 135.346C327.337 133.206 327.9 130.954 329.026 128.927C330.04 126.9 331.616 125.098 333.53 123.859C336.346 121.944 339.724 120.818 342.989 121.269C344.678 121.494 346.255 122.057 347.606 122.958C348.957 123.859 350.083 124.985 351.097 126.224C352.11 127.463 353.011 128.814 353.799 130.053C354.7 131.292 355.488 132.531 356.389 133.769C358.191 136.247 359.992 138.499 361.907 140.752C365.622 145.144 369.676 148.86 373.842 151.788C378.009 154.717 382.288 156.856 386.454 158.095C394.787 160.685 402.106 160.01 406.723 158.771C407.286 158.658 407.849 158.433 408.412 158.32C408.975 158.095 409.425 157.982 409.876 157.757C410.776 157.419 411.452 157.082 412.015 156.744C412.578 156.406 413.029 156.181 413.254 156.068C413.592 155.955 413.704 155.843 413.704 155.843C413.704 155.843 413.592 155.955 413.254 156.068C412.916 156.293 412.578 156.518 412.015 156.856C411.452 157.194 410.664 157.532 409.876 157.87C409.425 158.095 408.975 158.208 408.412 158.433C407.961 158.658 407.398 158.771 406.723 158.996C402.106 160.347 394.674 161.136 386.229 158.546C382.063 157.307 377.671 155.167 373.392 152.239C369.113 149.311 365.059 145.482 361.343 141.09C359.429 138.95 357.628 136.585 355.826 134.107C354.925 132.868 354.024 131.63 353.236 130.391C352.335 129.152 351.547 127.801 350.534 126.674C349.52 125.436 348.507 124.309 347.155 123.521C345.804 122.733 344.34 122.17 342.764 121.944C339.611 121.607 336.346 122.62 333.643 124.422C329.927 126.9 327.9 131.292 327.562 135.459C327.112 139.738 328.013 143.905 329.589 147.622C330.828 152.577 332.63 157.082 334.656 161.361C336.683 165.641 338.935 169.47 341.413 172.961C346.142 180.056 351.434 185.574 356.051 189.741C357.177 190.755 358.303 191.768 359.429 192.669C360.443 193.57 361.569 194.358 362.582 195.034C363.596 195.822 364.496 196.498 365.285 197.061C366.073 197.737 366.974 198.187 367.649 198.638C369.113 199.539 370.127 200.327 370.915 200.778C371.253 201.003 371.59 201.228 371.816 201.341C372.041 201.679 372.153 201.791 372.153 201.791Z" fill="#263238"/>
<path d="M339.161 141.652C338.935 141.765 338.26 137.823 335.557 133.882C332.967 129.94 329.589 127.913 329.702 127.688C329.702 127.575 330.603 128.026 331.841 129.039C333.08 130.053 334.657 131.517 336.008 133.544C337.359 135.571 338.26 137.598 338.598 139.062C339.161 140.751 339.161 141.652 339.161 141.652Z" fill="#263238"/>
<path d="M346.142 137.148C345.917 137.148 345.805 133.206 343.665 128.814C341.638 124.422 338.485 121.944 338.711 121.719C338.711 121.719 339.611 122.282 340.738 123.408C341.864 124.535 343.215 126.336 344.228 128.589C345.242 130.841 345.805 132.981 346.03 134.558C346.255 136.247 346.142 137.148 346.142 137.148Z" fill="#263238"/>
<g opacity="0.3">
<path opacity="0.3" d="M341.752 184.11C347.495 193.006 356.391 199.876 366.413 203.255C367.539 203.593 368.665 203.93 369.791 203.705C370.917 203.48 371.93 202.466 371.93 201.34C359.994 194.808 349.522 185.461 341.865 174.199C341.302 177.578 341.752 181.294 343.329 184.447" fill="black"/>
</g>
<path opacity="0.2" d="M322.833 203.255C325.648 198.976 314.05 197.962 308.983 198.525C301.663 199.426 294.569 203.03 289.727 208.661C284.885 214.179 282.07 221.612 282.183 229.045C282.183 229.045 304.366 231.522 322.833 203.255Z" fill="white"/>
<path d="M308.308 115.525C322.301 115.525 333.644 104.18 333.644 90.1858C333.644 76.1913 322.301 64.8466 308.308 64.8466C294.316 64.8466 282.973 76.1913 282.973 90.1858C282.973 104.18 294.316 115.525 308.308 115.525Z" fill="#F5F5F5"/>
<path d="M333.758 91.1991C333.758 103.475 327.34 113.723 320.133 113.723C312.926 113.723 307.184 103.812 307.184 91.537C307.184 79.2615 313.039 69.3511 320.133 69.3511C327.34 69.3511 333.758 79.0363 333.758 91.1991Z" fill="#263238"/>
<path d="M313.827 101.785C313.827 101.785 313.602 101.56 313.264 100.997C312.926 100.434 312.588 99.6457 312.25 98.5195C311.462 96.3798 310.786 93.2265 310.899 89.8479C311.012 86.3567 311.8 83.316 312.701 81.1763C313.151 80.1627 313.601 79.2618 313.939 78.8113C314.277 78.2482 314.502 78.0229 314.502 78.0229C314.615 78.0229 313.939 79.2618 313.151 81.4015C312.363 83.5413 311.687 86.4694 311.575 89.9605C311.462 93.3391 312.025 96.3798 312.701 98.5195C313.264 100.434 313.939 101.785 313.827 101.785Z" fill="white"/>
<path d="M323.395 81.7393C325.821 81.7393 327.787 79.7729 327.787 77.3472C327.787 74.9215 325.821 72.9551 323.395 72.9551C320.97 72.9551 319.004 74.9215 319.004 77.3472C319.004 79.7729 320.97 81.7393 323.395 81.7393Z" fill="white"/>
<path d="M324.75 58.8777C324.299 59.5534 323.061 59.5534 321.484 59.3282C319.908 59.103 317.994 58.6525 315.967 58.3146C313.827 57.9768 312.026 57.7515 310.449 57.5263C308.985 57.3011 307.747 56.9632 307.409 56.2875C307.071 55.6118 307.859 54.373 309.548 53.472C310.449 53.0216 311.463 52.6837 312.701 52.4585C313.94 52.2332 315.404 52.2332 316.867 52.4585C319.795 52.909 322.16 54.2604 323.399 55.6118C324.862 56.9632 325.313 58.202 324.75 58.8777Z" fill="#263238"/>
<path d="M313.264 121.944C309.323 113.948 312.251 103.362 319.683 98.4066C327.114 93.4514 338.037 94.9154 343.78 101.673" fill="#FF6B6B"/>
<path d="M343.779 101.673C343.779 101.673 343.215 101.11 342.202 100.321C341.189 99.4204 339.612 98.2942 337.473 97.3932C335.333 96.4923 332.518 95.8166 329.365 95.8166C326.212 95.8166 322.834 96.7175 319.794 98.6321C316.866 100.659 314.727 103.475 313.488 106.403C312.25 109.218 311.799 112.146 311.799 114.511C311.799 116.876 312.25 118.791 312.587 120.03C313.038 121.268 313.263 121.944 313.263 121.944C313.263 121.944 313.15 121.832 313.038 121.494C312.925 121.156 312.587 120.705 312.362 120.03C311.912 118.791 311.349 116.876 311.349 114.399C311.236 112.034 311.687 109.106 312.925 106.065C314.164 103.137 316.416 100.209 319.456 98.069C322.609 96.0418 326.1 95.1409 329.365 95.1409C332.631 95.1409 335.446 95.8166 337.585 96.8301C339.837 97.8437 341.414 98.9699 342.315 99.9835C342.878 100.434 343.103 100.884 343.328 101.11C343.779 101.448 343.891 101.56 343.779 101.673Z" fill="#263238"/>
</svg>
