<svg width="98" height="99" viewBox="0 0 98 99" fill="none" xmlns="http://www.w3.org/2000/svg">
<path d="M48.7573 97.5278C75.6853 97.5278 97.5147 75.6955 97.5147 48.7639C97.5147 21.8324 75.6853 0 48.7573 0C21.8294 0 0 21.8324 0 48.7639C0 75.6955 21.8294 97.5278 48.7573 97.5278Z" fill="#FF6B6B"/>
<g opacity="0.7">
<path opacity="0.7" d="M48.7573 97.5278C75.6853 97.5278 97.5147 75.6955 97.5147 48.7639C97.5147 21.8324 75.6853 0 48.7573 0C21.8294 0 0 21.8324 0 48.7639C0 75.6955 21.8294 97.5278 48.7573 97.5278Z" fill="white"/>
</g>
<path d="M60.3535 1.35156C60.3535 1.35156 60.3535 1.6894 60.2409 2.2525C60.1283 2.92821 59.9031 3.82918 59.6779 4.84275C59.5653 5.40584 59.4527 6.08153 59.2275 6.75725C59.0023 7.43296 58.7771 8.22129 58.5518 9.00962C58.1014 10.5863 57.651 12.5008 56.8628 14.4153C56.525 15.4289 56.1872 16.4425 55.7368 17.5687C55.3989 18.6948 54.8359 19.7084 54.3855 20.8346C53.4847 23.1996 52.3587 25.5646 51.12 28.0422C48.6427 32.9974 45.6024 38.2905 41.8865 43.5836C38.1706 48.764 34.1169 53.494 30.2884 57.4357C28.2615 59.3502 26.4598 61.2647 24.5456 62.8414C23.6448 63.6297 22.7439 64.5306 21.8431 65.2064C20.9423 65.8821 20.0414 66.5578 19.2532 67.2335C17.6768 68.5849 16.1003 69.5985 14.7491 70.6121C14.0735 71.0626 13.3978 71.513 12.8348 71.9635C12.2718 72.3013 11.7088 72.6392 11.1458 72.9771C10.1323 73.5402 9.45671 74.1032 8.89369 74.4411C8.33067 74.779 8.10547 74.8916 8.10547 74.8916C8.10547 74.8916 8.33067 74.6663 8.89369 74.3285C9.45671 73.9906 10.2449 73.4275 11.1458 72.8645C11.5962 72.5266 12.1592 72.1887 12.7222 71.7383C13.2852 71.2878 13.9609 70.8373 14.6365 70.3868C15.9877 69.3733 17.5642 68.3597 19.1406 66.8956C19.9288 66.2199 20.8297 65.5442 21.7305 64.8685C22.6313 64.1928 23.4195 63.2918 24.433 62.5035C26.3472 60.9269 28.1489 59.0123 30.0632 57.0978C33.8917 53.0436 37.8328 48.4262 41.5487 43.2457C45.2646 38.0652 48.3049 32.7722 50.7822 27.817C52.0208 25.3393 53.1469 22.9743 54.0477 20.722C54.4981 19.5958 55.0611 18.4696 55.3989 17.456C55.7368 16.3298 56.1872 15.3163 56.525 14.4153C57.3132 12.5008 57.7636 10.5863 58.3266 9.00962C58.5518 8.22129 58.7771 7.43296 59.0023 6.75725C59.2275 6.08153 59.3401 5.40584 59.4527 4.84275C59.7905 3.71656 60.0157 2.92821 60.1283 2.2525C60.2409 1.57679 60.3535 1.35156 60.3535 1.35156Z" fill="#FF6B6B"/>
<path d="M71.9552 6.30664C71.9552 6.30664 71.9551 6.64449 71.7299 7.3202C71.6173 7.99591 71.3921 8.89686 71.0543 10.1357C70.9417 10.6988 70.7165 11.3745 70.6039 12.1628C70.3787 12.9512 70.1535 13.6268 69.9283 14.5278C69.3653 16.2171 68.9149 18.1316 68.014 20.2714C67.6762 21.2849 67.2258 22.4111 66.7754 23.5373C66.325 24.6635 65.762 25.7897 65.3115 27.0285C64.2981 29.5061 63.0595 31.9837 61.7082 34.5739C58.8931 39.7544 55.515 45.2727 51.4613 50.6784C47.295 56.0841 42.9034 60.8141 38.7371 64.8684C36.5976 66.8955 34.5708 68.81 32.4313 70.3867C31.4179 71.175 30.517 72.076 29.5036 72.7517C28.4902 73.4274 27.5894 74.2157 26.6885 74.8914C24.8869 76.2429 23.1978 77.2564 21.734 78.27C20.2701 79.2836 18.9189 80.0719 17.9055 80.635C16.892 81.1981 15.9912 81.7612 15.4282 82.099C14.8652 82.4369 14.5273 82.5495 14.5273 82.5495C14.5273 82.5495 14.7526 82.3243 15.3156 81.9864C15.8786 81.6486 16.6668 81.0855 17.6802 80.4097C18.6937 79.734 20.0449 78.9457 21.5088 77.9322C22.9726 76.9186 24.6617 75.7924 26.3507 74.441C27.2515 73.7653 28.1524 73.0895 29.1658 72.3012C30.1792 71.6255 31.0801 70.7245 32.0935 69.9362C34.1204 68.2469 36.1472 66.445 38.2867 64.4179C42.453 60.3636 46.8446 55.6336 51.0109 50.2279C55.0646 44.8222 58.4427 39.3039 61.2578 34.2361C62.6091 31.6458 63.8477 29.1683 64.8611 26.8033C65.4241 25.5645 65.9872 24.4383 66.325 23.3121C66.7754 22.1859 67.1132 21.0597 67.5636 20.0461C68.3518 18.019 68.9149 16.1045 69.4779 14.4152C69.7031 13.6269 70.0409 12.8385 70.2661 12.0502C70.4913 11.3745 70.6039 10.6988 70.8291 10.023C71.1669 8.89686 71.3921 7.99591 71.6173 7.3202C71.8425 6.64449 71.9552 6.30664 71.9552 6.30664Z" fill="#FF6B6B"/>
<path d="M82.6493 15.0908C82.6493 15.0908 82.5367 15.4287 82.4241 16.1044C82.1989 16.7801 81.9737 17.6811 81.6359 18.9199C81.4107 19.483 81.2981 20.1587 81.0729 20.947C80.8476 21.6227 80.5098 22.4111 80.2846 23.312C79.609 25.0013 79.046 26.9158 78.1452 28.9429C77.6947 29.9565 77.2443 31.0827 76.7939 32.2089C76.3435 33.3351 75.6679 34.4613 75.1049 35.7001C73.9788 38.0651 72.6276 40.5427 71.1637 43.1329C68.236 48.2007 64.6327 53.719 60.3538 59.1247C56.0749 64.5304 51.5707 69.2604 47.2918 73.3147C45.0397 75.3418 43.0129 77.2563 40.986 78.833C39.9726 79.6213 38.9591 80.5223 38.0583 81.198C37.0449 81.8737 36.144 82.662 35.2432 83.3378C33.4416 84.6892 31.7525 85.8154 30.2887 86.7163C29.5004 87.1668 28.8248 87.6173 28.2618 88.0678C27.5862 88.4056 27.0232 88.8561 26.4601 89.0813C25.4467 89.6444 24.5459 90.2075 23.9829 90.5453C23.4198 90.8832 23.082 90.9958 23.082 90.9958C23.082 90.9958 23.3072 90.7706 23.8703 90.4328C24.4333 90.0949 25.3341 89.5318 26.3475 88.8561C26.9106 88.5182 27.4736 88.1804 28.1492 87.7299C28.8248 87.2794 29.5004 86.829 30.1761 86.3785C31.6399 85.3649 33.329 84.2387 35.1306 82.8873C36.0314 82.2116 36.9323 81.5359 37.9457 80.7475C38.9591 79.9592 39.86 79.1709 40.8734 78.3825C42.9003 76.6933 44.9271 74.7788 47.1792 72.8642C51.4581 68.81 55.8497 64.08 60.1286 58.6743C64.2949 53.2686 67.8982 47.8629 70.9385 42.795C72.4024 40.2048 73.7536 37.8398 74.8797 35.3622C75.4427 34.236 76.0057 33.1098 76.5687 31.9836C77.0191 30.8574 77.5821 29.8439 78.0326 28.8303C78.9334 26.8032 79.609 24.8887 80.2846 23.1994C80.6224 22.411 80.9602 21.6227 81.1855 20.8344C81.4107 20.1587 81.6359 19.483 81.8611 18.8073C82.1989 17.6811 82.5367 16.7801 82.7619 16.1044C82.5367 15.4287 82.6493 15.0908 82.6493 15.0908Z" fill="#FF6B6B"/>
<path d="M95.3742 61.377C95.3742 61.377 94.9238 61.2644 94.2481 60.9265C93.5725 60.5887 92.5591 60.1382 91.4331 59.4625C89.0684 58.2237 85.8029 56.4218 82.3122 54.282C78.8215 52.1423 75.6686 50.1151 73.4165 48.5385C72.2905 47.7501 71.3896 47.187 70.8266 46.7366C70.2636 46.2861 69.9258 46.0609 69.9258 45.9482C69.9258 45.9482 70.2636 46.0609 70.9392 46.5113C71.7274 46.9618 72.6283 47.5249 73.6417 48.2006C75.8938 49.6647 79.0467 51.5792 82.5374 53.7189C86.0281 55.8587 89.2936 57.6606 91.6583 59.012C92.7843 59.6877 93.6851 60.1382 94.4734 60.5887C95.0364 61.1518 95.4868 61.377 95.3742 61.377Z" fill="#FF6B6B"/>
<path d="M97.5154 50.7911C97.5154 50.9038 96.2768 50.0028 94.2499 48.6514C92.2231 47.3 89.5206 45.3854 86.3677 43.5835C83.2148 41.669 80.2871 40.0923 78.1476 38.8535C76.0082 37.7274 74.7695 36.939 74.7695 36.8264C74.7695 36.8264 75.1073 36.939 75.783 37.1643C76.346 37.3895 77.2468 37.84 78.3728 38.4031C80.5123 39.5293 83.44 40.9933 86.7055 42.9078C89.8584 44.8223 92.5609 46.7369 94.5878 48.2009C95.6012 48.8766 96.2768 49.5523 96.8398 50.0028C97.1776 50.5659 97.5154 50.7911 97.5154 50.7911Z" fill="#FF6B6B"/>
<path d="M66.506 72.9242C66.8154 83.9909 67.2173 92.9581 67.4038 92.9529C67.5903 92.9477 67.4907 83.9721 67.1813 72.9053C66.8719 61.8386 66.4699 52.8714 66.2834 52.8766C66.0969 52.8818 66.1966 61.8574 66.506 72.9242Z" fill="#FF6B6B"/>
<path d="M43.3534 98.4289C43.54 98.4289 43.6912 93.4372 43.6912 87.2796C43.6912 81.1221 43.54 76.1304 43.3534 76.1304C43.1669 76.1304 43.0156 81.1221 43.0156 87.2796C43.0156 93.4372 43.1669 98.4289 43.3534 98.4289Z" fill="#FF6B6B"/>
<path d="M54.8895 80.8403C54.8283 89.8589 54.93 97.171 55.1166 97.1723C55.3031 97.1736 55.5039 89.8635 55.5651 80.8449C55.6262 71.8262 55.5245 64.5141 55.338 64.5128C55.1514 64.5116 54.9506 71.8216 54.8895 80.8403Z" fill="#FF6B6B"/>
<path d="M15.9012 48.3613C23.6484 53.5589 30.013 57.6467 30.117 57.4917C30.2209 57.3368 24.0248 52.9977 16.2776 47.8001C8.53036 42.6026 2.16573 38.5148 2.06179 38.6698C1.95786 38.8247 8.15397 43.1638 15.9012 48.3613Z" fill="#FF6B6B"/>
<path d="M21.7325 64.5305C21.7325 64.5305 21.3947 64.4179 20.7191 64.1927C20.156 63.9674 19.2552 63.6296 18.2418 63.0665C16.1023 62.0529 13.2872 60.5889 10.3595 58.6744C7.31923 56.7598 4.72935 54.9579 2.92769 53.4939C1.12604 52.1425 0 51.1289 0 51.1289C0 51.0163 1.23864 51.9172 3.1529 53.156C5.06716 54.5075 7.65704 56.3094 10.6973 58.1113C13.625 60.0258 16.4401 61.6024 18.467 62.616C20.4938 63.7422 21.7325 64.4179 21.7325 64.5305Z" fill="#FF6B6B"/>
<path d="M51.0093 28.042C51.0093 28.042 50.4463 28.2672 49.3203 28.7177C48.7573 28.9429 48.0816 29.1682 47.2934 29.3934C46.5052 29.6187 45.6044 29.8439 44.4783 30.0691C42.4515 30.5196 39.8616 30.9701 37.1591 31.1953C34.344 31.4206 31.3037 31.5332 28.0382 31.5332C24.7727 31.4206 21.7324 31.0827 18.9173 30.6322C16.1022 30.1818 13.625 29.6187 11.5981 29.0556C10.5847 28.8303 9.68383 28.4925 8.8956 28.2672C8.10738 28.042 7.43176 27.8167 6.86874 27.5915C5.74271 27.141 5.17969 26.9158 5.17969 26.9158C5.17969 26.9158 5.85531 27.0284 6.98134 27.3663C7.54436 27.5915 8.21998 27.8168 9.00821 27.9294C9.79643 28.1546 10.6973 28.3798 11.7107 28.6051C13.7376 29.1682 16.2148 29.6187 18.9173 30.0691C21.7324 30.407 24.7727 30.7448 27.9256 30.8574C31.1911 30.9701 34.2314 30.8575 36.9339 30.6322C39.749 30.407 42.2262 30.0691 44.2531 29.6187C45.2665 29.3934 46.1674 29.1682 47.0682 29.0556C47.8564 28.8303 48.532 28.7177 49.0951 28.4925C50.3337 28.1546 51.0093 27.9293 51.0093 28.042Z" fill="#FF6B6B"/>
<path d="M56.413 15.3159C56.413 15.3159 55.85 15.6538 54.724 16.1043C54.161 16.3295 53.4853 16.5547 52.6971 16.8926C51.9089 17.2304 51.0081 17.4557 49.9946 17.7935C47.9678 18.4693 45.4905 19.0323 42.788 19.5954C40.0855 20.0459 37.0452 20.4964 33.7797 20.7216C30.5142 20.9468 27.4739 20.9468 24.6588 20.7216C21.8437 20.4964 19.3665 20.1585 17.3396 19.708C16.3262 19.4828 15.4253 19.2576 14.5245 19.0323C13.7363 18.8071 13.0607 18.5818 12.4976 18.4692C11.3716 18.1314 10.8086 17.9062 10.8086 17.7935C10.8086 17.7935 11.4842 17.9062 12.6103 18.244C13.1733 18.4693 13.8489 18.5819 14.6371 18.8071C15.4253 19.0323 16.3262 19.2576 17.4522 19.3702C19.4791 19.8207 21.9563 20.0459 24.7714 20.1585C27.5865 20.2711 30.6268 20.2712 33.7797 20.0459C36.9326 19.8207 39.9729 19.3702 42.6754 18.9197C45.3779 18.3566 47.8552 17.9062 49.882 17.2305C50.8954 17.0052 51.7963 16.6673 52.5845 16.4421C53.3727 16.2169 54.0484 15.9916 54.6114 15.7664C55.7374 15.5411 56.413 15.3159 56.413 15.3159Z" fill="#FF6B6B"/>
<path d="M59.7925 4.27947C59.7925 4.27947 59.2295 4.50469 58.3287 4.95517C57.3152 5.29302 55.964 5.85614 54.1623 6.30662C50.559 7.43281 45.6045 8.67162 39.9743 9.45995C34.3441 10.2483 29.1644 10.4735 25.4485 10.2483C23.6468 10.1357 22.0704 10.0231 21.0569 9.91046C20.0435 9.79784 19.4805 9.68521 19.4805 9.68521C19.4805 9.68521 20.0435 9.68521 21.0569 9.68521C22.0704 9.79783 23.5342 9.79783 25.4485 9.79783C29.1644 9.79783 34.2315 9.5726 39.8617 8.78426C45.4919 7.99592 50.4464 6.75709 53.9371 5.74352C55.7388 5.29304 57.2026 4.84255 58.1035 4.50469C59.1169 4.39207 59.6799 4.16686 59.7925 4.27947Z" fill="#FF6B6B"/>
<path d="M73.2338 59.6036C76.8003 55.7015 79.5799 52.4361 79.4422 52.3102C79.3045 52.1843 76.3016 55.2456 72.7351 59.1477C69.1686 63.0499 66.389 66.3153 66.5267 66.4412C66.6644 66.5671 69.6673 63.5058 73.2338 59.6036Z" fill="#FF6B6B"/>
<path d="M88.8429 57.7734C88.8429 57.7734 88.7303 58.1113 88.2798 58.6744C87.942 59.2375 87.379 60.1384 86.5908 61.0394C85.1269 63.0665 82.8749 65.6567 80.0598 68.1343C77.2447 70.6119 74.317 72.5265 72.1775 73.6526C71.0515 74.2157 70.1507 74.6662 69.5877 75.0041C68.912 75.3419 68.5742 75.4545 68.5742 75.3419C68.5742 75.2293 69.9255 74.5536 71.9523 73.3148C74.0918 72.076 76.7943 70.1615 79.6094 67.6839C82.4244 65.2063 84.6765 62.616 86.1404 60.8141C87.8294 59.0122 88.7303 57.7734 88.8429 57.7734Z" fill="#FF6B6B"/>
</svg>
