<svg width="387" height="298" viewBox="0 0 387 298" fill="none" xmlns="http://www.w3.org/2000/svg">
<path d="M149.911 189.743C148.175 190.07 146.54 189.987 145.006 189.495C143.469 188.987 142.173 188.137 141.118 186.944C140.079 185.749 139.404 184.324 139.094 182.67C138.783 181.015 138.894 179.443 139.428 177.952C139.978 176.458 140.879 175.203 142.129 174.188C143.377 173.157 144.869 172.478 146.605 172.151C148.325 171.828 149.953 171.921 151.49 172.429C153.024 172.921 154.31 173.764 155.349 174.96C156.385 176.139 157.06 177.564 157.374 179.234C157.688 180.905 157.578 182.486 157.044 183.977C156.507 185.451 155.615 186.704 154.367 187.736C153.116 188.751 151.631 189.42 149.911 189.743ZM149.5 187.557C150.761 187.32 151.838 186.821 152.729 186.06C153.637 185.295 154.284 184.36 154.669 183.253C155.068 182.127 155.15 180.941 154.917 179.696C154.683 178.451 154.177 177.385 153.399 176.496C152.635 175.588 151.692 174.943 150.568 174.561C149.461 174.175 148.277 174.101 147.016 174.338C145.755 174.575 144.662 175.077 143.738 175.845C142.83 176.609 142.177 177.554 141.778 178.68C141.392 179.787 141.317 180.963 141.551 182.208C141.784 183.453 142.284 184.529 143.048 185.437C143.825 186.325 144.776 186.961 145.899 187.343C147.038 187.723 148.239 187.794 149.5 187.557Z" fill="#8B919E" fill-opacity="0.8"/>
<path d="M182.506 165.608L185.738 182.807L164.19 186.857L160.958 169.658L163.39 169.2L166.221 184.262L173.371 182.918L170.54 167.857L172.948 167.404L175.778 182.466L182.928 181.122L180.098 166.061L182.506 165.608Z" fill="#8B919E" fill-opacity="0.8"/>
<path d="M189.084 164.372L191.516 163.915L194.009 177.182L201.688 162.003L203.948 161.578L207.181 178.777L204.773 179.23L202.284 165.986L194.576 181.146L192.316 181.571L189.084 164.372Z" fill="#8B919E" fill-opacity="0.8"/>
<path d="M210.539 160.34L223.512 157.902L223.904 159.99L213.364 161.971L214.287 166.885L219.644 165.878C221.691 165.493 223.327 165.627 224.552 166.279C225.777 166.93 226.54 168.059 226.842 169.664C227.159 171.351 226.82 172.754 225.827 173.874C224.849 174.99 223.288 175.75 221.142 176.153L213.771 177.539L210.539 160.34ZM220.679 174.231C222.088 173.966 223.11 173.494 223.745 172.815C224.381 172.136 224.6 171.272 224.403 170.224C224.012 168.144 222.375 167.374 219.492 167.916L214.652 168.826L215.839 175.14L220.679 174.231Z" fill="#8B919E" fill-opacity="0.8"/>
<path d="M237.544 165.236L233.957 165.91L235.379 173.478L232.971 173.93L229.739 156.731L232.147 156.279L233.551 163.748L237.187 163.065L241.189 154.579L243.818 154.085L239.24 163.569L247.345 171.229L244.544 171.755L237.544 165.236Z" fill="#8B919E" fill-opacity="0.8"/>
<path d="M261.223 164.169L252.083 165.887L250.999 170.542L248.468 171.018L253.025 152.355L255.457 151.898L266.503 167.628L263.923 168.113L261.223 164.169ZM259.993 162.365L254.7 154.635L252.573 163.76L259.993 162.365Z" fill="#8B919E" fill-opacity="0.8"/>
<path d="M36.5432 115.148C36.5432 115.148 36.318 114.698 36.0928 113.797C35.9802 113.346 35.7549 112.783 35.6423 112.22C35.5297 111.544 35.3045 110.869 35.1919 110.08C34.8541 108.504 34.7415 106.589 34.6289 104.449C34.6289 102.31 34.7415 99.9445 35.0793 97.4669C35.4171 94.9893 36.0928 92.7369 36.7684 90.7098C37.444 88.6827 38.2322 86.8808 39.0204 85.5293C39.3583 84.8536 39.8087 84.1779 40.0339 83.6148C40.3717 83.0517 40.5969 82.6013 40.9347 82.2634C41.4977 81.4751 41.7229 81.1372 41.7229 81.1372C41.8355 81.2498 40.7095 82.8265 39.3583 85.7546C38.6826 87.2186 37.8944 88.9079 37.3314 90.935C36.6558 92.9622 36.0928 95.2145 35.7549 97.5795C35.4171 99.9445 35.3045 102.31 35.1919 104.449C35.1919 106.589 35.3045 108.504 35.5297 110.08C36.0928 113.234 36.6558 115.148 36.5432 115.148Z" fill="#263238"/>
<g filter="url(#filter0_bd_113_20)">
<path d="M292.781 48.135L68.2372 89.9156C62.8077 90.9259 59.225 96.1464 60.235 101.576L82.1361 219.312C83.1461 224.741 88.3664 228.324 93.7958 227.314L318.339 185.533C323.769 184.523 327.351 179.302 326.341 173.873L304.44 56.1368C303.43 50.7073 298.21 47.1247 292.781 48.135Z" fill="white" fill-opacity="0.75"/>
</g>
<path fill-rule="evenodd" clip-rule="evenodd" d="M255.668 127.086L263.1 125.734L260.96 114.585L253.528 115.937L251.952 107.378L238.439 109.855L240.016 118.414L229.769 120.329L244.97 87.1062L230.219 89.8091L213.441 125.509L215.13 134.744L241.818 129.676L243.619 139.361L257.469 136.771L255.668 127.086ZM163.336 128.212C160.295 111.544 167.84 100.283 180.677 97.9176C193.513 95.5526 204.661 103.323 207.701 119.991C210.742 136.658 203.197 147.92 190.36 150.285C177.636 152.763 166.489 144.88 163.336 128.212ZM193.513 122.694C191.599 112.108 187.545 108.729 182.929 109.63C178.312 110.531 175.722 115.036 177.749 125.622C179.663 136.208 183.717 139.587 188.334 138.686C192.838 137.785 195.428 133.28 193.513 122.694ZM163.334 144.316L155.902 145.668L157.704 155.353L143.854 157.943L142.052 148.258L115.365 153.213L113.676 143.978L130.454 108.278L145.205 105.575L130.116 138.798L140.363 136.883L138.786 128.324L152.299 125.847L153.875 134.406L161.307 133.054L163.334 144.316Z" fill="url(#paint0_linear_113_20)"/>
<path d="M292.266 66.3842C295.065 66.3842 297.334 64.1153 297.334 61.3164C297.334 58.5175 295.065 56.2485 292.266 56.2485C289.468 56.2485 287.199 58.5175 287.199 61.3164C287.199 64.1153 289.468 66.3842 292.266 66.3842Z" fill="#E0E0E0"/>
<path d="M297.334 61.0912C297.334 61.0912 297.221 60.6407 296.996 59.8524C296.771 59.0641 296.208 58.0505 295.082 57.2622C293.956 56.4739 292.154 56.136 290.465 56.8117C288.776 57.4874 287.425 59.2893 287.537 61.4291C287.65 63.5688 289.114 65.2581 290.916 65.8212C292.605 66.3843 294.406 65.8212 295.532 65.0329C296.658 64.1319 297.109 63.0057 297.334 62.33C297.334 61.5417 297.334 61.0912 297.334 61.0912C297.334 61.0912 297.334 61.2038 297.334 61.4291C297.334 61.6543 297.334 61.9922 297.334 62.33C297.221 63.1184 296.771 64.3572 295.645 65.3707C294.519 66.3843 292.605 67.06 290.69 66.3843C288.776 65.8212 286.974 63.9067 286.974 61.5417C286.862 59.1767 288.438 57.0369 290.353 56.3612C292.267 55.5729 294.181 56.136 295.42 57.0369C296.658 57.9379 297.221 59.0641 297.334 59.8524C297.447 60.3029 297.447 60.5281 297.447 60.7534C297.447 60.9786 297.447 61.0912 297.334 61.0912Z" fill="#263238"/>
<path d="M294.518 57.6001C294.63 57.6001 294.855 59.5146 293.842 61.5418C292.828 63.5689 291.139 64.5825 291.139 64.4698C291.027 64.3572 292.378 63.231 293.391 61.3165C294.292 59.402 294.405 57.6001 294.518 57.6001Z" fill="#263238"/>
<path d="M295.534 63.0056C295.421 63.1182 294.746 61.7667 293.169 60.9784C291.593 60.1901 290.129 60.4153 290.129 60.1901C290.129 60.0775 290.467 59.9648 291.03 59.9648C291.593 59.9648 292.494 60.0775 293.394 60.4153C294.295 60.8658 294.858 61.5415 295.196 61.992C295.534 62.5551 295.646 63.0056 295.534 63.0056Z" fill="#263238"/>
<path d="M69.161 128.321L56.3945 138.5L61.0275 144.312L73.794 134.132L69.161 128.321Z" fill="#E0E0E0"/>
<path d="M73.8155 134.068C73.8155 134.068 73.2524 133.505 72.4642 132.491C71.5634 131.478 70.4374 130.014 69.0861 128.325H69.4239C66.1584 131.027 61.6543 134.631 56.6997 138.573C56.6997 138.911 56.6997 138.122 56.6997 138.122L56.8123 138.235L56.9249 138.46L57.2628 138.798L57.8258 139.586C58.2762 140.037 58.614 140.6 58.9518 141.051C59.74 142.064 60.4157 142.965 61.2039 143.866H60.8661C64.582 140.938 67.7349 138.46 70.0995 136.658C71.2256 135.87 72.1264 135.082 72.802 134.631C73.365 134.406 73.7029 134.068 73.8155 134.068C73.8155 134.068 73.5903 134.293 72.9146 134.856C72.239 135.42 71.3382 136.095 70.3248 136.996C68.0727 138.798 64.9198 141.501 61.0913 144.542L60.8661 144.767L60.6409 144.542C59.9652 143.641 59.177 142.74 58.3888 141.726C58.051 141.276 57.6006 140.713 57.2628 140.262L56.6997 139.474L56.3619 139.136L56.2493 138.911L56.1367 138.798C56.1367 138.911 56.2493 138.01 56.1367 138.348C61.0913 134.406 65.5954 130.802 68.9735 128.212L69.1987 128.099L69.3113 128.212C70.7752 130.014 71.9012 131.591 72.6894 132.604C73.4776 133.505 73.8155 134.068 73.8155 134.068Z" fill="#263238"/>
<path d="M53.433 145.893C55.7977 148.821 60.0766 149.385 63.0043 147.02L54.4464 136.321C51.6313 138.573 51.1809 142.965 53.433 145.893Z" fill="#E0E0E0"/>
<path d="M53.4349 145.893C53.4349 145.893 53.2097 145.668 52.8718 145.33C52.534 144.88 52.1962 144.204 51.971 143.303C51.7458 142.402 51.6332 141.163 51.971 139.812C52.3088 138.46 53.097 137.109 54.3357 136.095L54.5609 135.87L54.7861 136.095C56.1373 137.785 57.6012 139.587 59.065 141.388C60.5289 143.303 61.9927 145.105 63.344 146.794L63.5692 147.019L63.344 147.132C61.9927 148.146 60.5289 148.596 59.1776 148.596C57.8264 148.596 56.7004 148.258 55.7995 147.808C54.8987 147.357 54.3357 146.794 53.9979 146.456C53.6601 146.118 53.4349 145.893 53.4349 145.893C53.5475 145.781 54.1105 146.794 55.7995 147.582C56.5878 147.92 57.7138 148.258 58.9524 148.258C60.1911 148.258 61.6549 147.695 62.781 146.794V147.132C61.4297 145.443 59.9659 143.641 58.502 141.839C57.0382 139.924 55.5743 138.122 54.2231 136.433H54.5609C53.3223 137.334 52.6466 138.686 52.3088 139.812C51.971 141.051 51.971 142.177 52.1962 143.078C52.7592 144.992 53.5475 145.781 53.4349 145.893Z" fill="#263238"/>
<path d="M55.0127 142.289C53.8867 143.528 53.6614 145.33 54.3371 146.794L55.0127 142.289Z" fill="#E0E0E0"/>
<path d="M54.3352 146.794C54.2226 146.907 53.547 145.78 53.7722 144.429C53.9974 142.965 55.0108 142.177 55.1234 142.289C55.236 142.402 54.5604 143.303 54.4478 144.542C54.11 145.78 54.5604 146.794 54.3352 146.794Z" fill="#263238"/>
<path d="M63.1179 143.078C63.0053 143.19 61.9919 141.726 60.6407 140.15C59.2894 138.46 58.0508 137.334 58.1634 137.109C58.276 136.996 59.7398 138.01 61.0911 139.699C62.4423 141.388 63.2305 142.965 63.1179 143.078Z" fill="#263238"/>
<path d="M64.5828 141.839C64.4702 141.951 63.4567 140.487 62.1055 138.911C60.7543 137.221 59.5156 136.095 59.6282 135.87C59.7408 135.757 61.2047 136.771 62.5559 138.46C64.0198 140.15 64.6954 141.726 64.5828 141.839Z" fill="#263238"/>
<path d="M66.1609 140.6C66.0483 140.713 65.0349 139.249 63.6836 137.672C62.3324 135.983 61.0937 134.857 61.2063 134.631C61.319 134.519 62.7828 135.532 64.134 137.222C65.4853 138.911 66.2735 140.6 66.1609 140.6Z" fill="#263238"/>
<path d="M67.6218 139.474C67.5092 139.586 66.4958 138.122 65.1446 136.546C63.7933 134.856 62.5547 133.73 62.6673 133.505C62.7799 133.392 64.2437 134.406 65.595 136.095C66.9462 137.784 67.7344 139.361 67.6218 139.474Z" fill="#263238"/>
<path d="M69.0867 138.235C68.9741 138.348 67.9606 136.884 66.6094 135.307C65.2582 133.618 64.0195 132.492 64.1321 132.266C64.2447 132.154 65.7086 133.167 67.0598 134.857C68.5237 136.546 69.3119 138.122 69.0867 138.235Z" fill="#263238"/>
<path d="M70.6648 136.996C70.5522 137.109 69.5388 135.645 68.1875 134.068C66.8363 132.379 65.5977 131.253 65.7103 131.027C65.8229 130.915 67.2867 131.928 68.6379 133.618C69.9892 135.307 70.7774 136.996 70.6648 136.996Z" fill="#263238"/>
<path d="M72.1257 135.87C72.0131 135.983 70.9997 134.519 69.6485 132.942C68.2972 131.253 67.0586 130.127 67.1712 129.901C67.2838 129.789 68.7476 130.802 70.0989 132.492C71.4501 134.181 72.2383 135.758 72.1257 135.87Z" fill="#263238"/>
<path d="M81.0201 103.098C80.9075 103.098 80.9075 102.648 80.6823 101.859C80.4571 101.071 79.8941 100.057 78.6554 99.2691C77.5294 98.4808 75.7277 98.0303 73.9261 98.8186C72.237 99.4943 70.7732 101.409 70.8858 103.549C70.9984 105.688 72.4622 107.49 74.2639 108.053C76.0655 108.616 77.8672 108.053 78.8806 107.265C80.0067 106.364 80.4571 105.238 80.6823 104.45C80.9075 103.549 80.9075 103.098 81.0201 103.098C81.0201 103.098 81.0201 103.211 81.0201 103.436C81.0201 103.661 81.0201 103.999 81.0201 104.337C80.9075 105.125 80.4571 106.364 79.331 107.378C78.205 108.391 76.2908 109.067 74.2639 108.391C72.3496 107.828 70.548 105.801 70.4354 103.436C70.3228 101.071 71.8992 98.9312 73.8135 98.2555C75.7277 97.4672 77.7546 98.0303 78.8806 98.9312C80.1193 99.8322 80.6823 101.071 80.9075 101.859C81.0201 102.31 81.0201 102.535 81.0201 102.76C81.0201 102.986 81.0201 103.098 81.0201 103.098Z" fill="#263238"/>
<path d="M47.5783 115.486C47.5783 115.486 47.3531 115.035 47.1279 114.135C47.0153 113.684 46.7901 113.121 46.6775 112.558C46.5649 111.882 46.3397 111.206 46.2271 110.418C45.8893 108.841 45.7767 106.927 45.6641 104.787C45.6641 102.647 45.7767 100.282 46.1145 97.8048C46.4523 95.3272 47.1279 93.0748 47.8035 91.0477C48.4792 89.0206 49.2674 87.2187 50.0556 85.8672C50.3934 85.1915 50.8438 84.5158 51.069 83.9527C51.4069 83.3896 51.6321 82.9391 51.9699 82.6013C52.5329 81.813 52.7581 81.4751 52.7581 81.4751C52.8707 81.5877 51.7447 83.1644 50.3934 86.0925C49.7178 87.5565 48.9296 89.2458 48.3666 91.2729C47.6909 93.3001 47.1279 95.5524 46.7901 97.9174C46.4523 100.282 46.3397 102.647 46.2271 104.787C46.2271 106.927 46.3397 108.841 46.5649 110.418C47.1279 113.571 47.6909 115.486 47.5783 115.486Z" fill="#263238"/>
<path d="M344.516 165.038C344.516 165.038 344.741 165.489 344.966 166.39C345.079 166.84 345.304 167.403 345.417 167.966C345.529 168.642 345.754 169.318 345.867 170.106C346.205 171.683 346.317 173.597 346.43 175.737C346.43 177.877 346.317 180.242 345.98 182.719C345.642 185.197 344.966 187.449 344.29 189.477C343.615 191.504 342.827 193.306 342.038 194.657C341.701 195.333 341.25 196.008 341.025 196.572C340.687 197.135 340.462 197.585 340.124 197.923C339.561 198.711 339.336 199.049 339.336 199.049C339.223 198.937 340.349 197.36 341.701 194.432C342.376 192.968 343.164 191.278 343.727 189.251C344.403 187.224 344.966 184.972 345.304 182.607C345.642 180.242 345.754 177.877 345.867 175.737C345.867 173.597 345.754 171.683 345.529 170.106C344.966 166.953 344.403 165.038 344.516 165.038Z" fill="#263238"/>
<path d="M351.832 166.953C351.832 166.953 352.057 167.403 352.282 168.304C352.395 168.755 352.62 169.318 352.733 169.881C352.846 170.556 353.071 171.232 353.183 172.02C353.521 173.597 353.634 175.512 353.746 177.651C353.746 179.791 353.634 182.156 353.296 184.634C352.958 187.111 352.283 189.364 351.607 191.391C350.931 193.418 350.143 195.22 349.355 196.571C349.017 197.247 348.567 197.923 348.341 198.486C348.004 199.049 347.778 199.499 347.441 199.837C346.878 200.626 346.652 200.963 346.652 200.963C346.54 200.851 347.666 199.274 349.017 196.346C349.693 194.882 350.481 193.193 351.044 191.166C351.72 189.139 352.283 186.886 352.62 184.521C352.958 182.156 353.071 179.791 353.183 177.651C353.183 175.512 353.071 173.597 352.846 172.02C352.282 168.867 351.719 166.953 351.832 166.953Z" fill="#263238"/>
<path d="M149.911 189.743C148.175 190.07 146.54 189.987 145.006 189.495C143.469 188.987 142.173 188.137 141.118 186.944C140.079 185.749 139.404 184.324 139.094 182.67C138.783 181.015 138.894 179.443 139.428 177.952C139.978 176.458 140.879 175.203 142.129 174.188C143.377 173.157 144.869 172.478 146.605 172.151C148.325 171.828 149.953 171.921 151.49 172.429C153.024 172.921 154.31 173.764 155.349 174.96C156.385 176.139 157.06 177.564 157.374 179.234C157.688 180.905 157.578 182.486 157.044 183.977C156.507 185.451 155.615 186.704 154.367 187.736C153.116 188.751 151.631 189.42 149.911 189.743ZM149.5 187.557C150.761 187.32 151.838 186.821 152.729 186.06C153.637 185.295 154.284 184.36 154.669 183.253C155.068 182.127 155.15 180.941 154.917 179.696C154.683 178.451 154.177 177.385 153.399 176.496C152.635 175.588 151.692 174.943 150.568 174.561C149.461 174.175 148.277 174.101 147.016 174.338C145.755 174.575 144.662 175.077 143.738 175.845C142.83 176.609 142.177 177.554 141.778 178.68C141.392 179.787 141.317 180.963 141.551 182.208C141.784 183.453 142.284 184.529 143.048 185.437C143.825 186.325 144.776 186.961 145.899 187.343C147.038 187.723 148.239 187.794 149.5 187.557Z" fill="#8B919E" fill-opacity="0.8"/>
<path d="M182.506 165.608L185.738 182.807L164.19 186.857L160.958 169.658L163.39 169.2L166.221 184.262L173.371 182.918L170.54 167.857L172.948 167.404L175.778 182.466L182.928 181.122L180.098 166.061L182.506 165.608Z" fill="#8B919E" fill-opacity="0.8"/>
<path d="M189.084 164.372L191.516 163.915L194.009 177.182L201.688 162.003L203.948 161.578L207.181 178.777L204.773 179.23L202.284 165.986L194.576 181.146L192.316 181.571L189.084 164.372Z" fill="#8B919E" fill-opacity="0.8"/>
<path d="M210.539 160.34L223.512 157.902L223.904 159.99L213.364 161.971L214.287 166.885L219.644 165.878C221.691 165.493 223.327 165.627 224.552 166.279C225.777 166.93 226.54 168.059 226.842 169.664C227.159 171.351 226.82 172.754 225.827 173.874C224.849 174.99 223.288 175.75 221.142 176.153L213.771 177.539L210.539 160.34ZM220.679 174.231C222.088 173.966 223.11 173.494 223.745 172.815C224.381 172.136 224.6 171.272 224.403 170.224C224.012 168.144 222.375 167.374 219.492 167.916L214.652 168.826L215.839 175.14L220.679 174.231Z" fill="#8B919E" fill-opacity="0.8"/>
<path d="M237.544 165.236L233.957 165.91L235.379 173.478L232.971 173.93L229.739 156.731L232.147 156.279L233.551 163.748L237.187 163.065L241.189 154.579L243.818 154.085L239.24 163.569L247.345 171.229L244.544 171.755L237.544 165.236Z" fill="#8B919E" fill-opacity="0.8"/>
<path d="M261.223 164.169L252.083 165.887L250.999 170.542L248.468 171.018L253.025 152.355L255.457 151.898L266.503 167.628L263.923 168.113L261.223 164.169ZM259.993 162.365L254.7 154.635L252.573 163.76L259.993 162.365Z" fill="#8B919E" fill-opacity="0.8"/>
<defs>
<filter id="filter0_bd_113_20" x="0.0664062" y="-2.0354" width="386.445" height="299.52" filterUnits="userSpaceOnUse" color-interpolation-filters="sRGB">
<feFlood flood-opacity="0" result="BackgroundImageFix"/>
<feGaussianBlur in="BackgroundImageFix" stdDeviation="5"/>
<feComposite in2="SourceAlpha" operator="in" result="effect1_backgroundBlur_113_20"/>
<feColorMatrix in="SourceAlpha" type="matrix" values="0 0 0 0 0 0 0 0 0 0 0 0 0 0 0 0 0 0 127 0" result="hardAlpha"/>
<feOffset dy="10"/>
<feGaussianBlur stdDeviation="30"/>
<feColorMatrix type="matrix" values="0 0 0 0 0.164706 0 0 0 0 0.4 0 0 0 0 0.756863 0 0 0 0.2 0"/>
<feBlend mode="normal" in2="effect1_backgroundBlur_113_20" result="effect2_dropShadow_113_20"/>
<feBlend mode="normal" in="SourceGraphic" in2="effect2_dropShadow_113_20" result="shape"/>
</filter>
<linearGradient id="paint0_linear_113_20" x1="114" y1="144" x2="263.1" y2="113.234" gradientUnits="userSpaceOnUse">
<stop stop-color="#F04973"/>
<stop offset="1" stop-color="#FA6655"/>
</linearGradient>
</defs>
</svg>
