<svg width="216" height="216" viewBox="0 0 216 216" fill="none" xmlns="http://www.w3.org/2000/svg">
<g filter="url(#filter0_d_325_10704)">
<path d="M145.918 126.358C151.773 118.475 155.264 108.564 155.264 97.9782C155.264 71.7381 133.982 50.4531 107.745 50.4531C81.5086 50.4531 60.2266 71.7381 60.2266 97.9782C60.2266 124.218 81.5086 145.503 107.745 145.503C117.429 145.503 126.325 142.575 133.869 137.62L150.197 144.828L145.918 126.358Z" fill="white"/>
</g>
<path d="M88.0193 93.7062C88.1744 91.2373 89.2602 88.9228 90.6563 87.0711C92.2074 85.2195 94.2239 83.6765 96.5507 83.0592C99.0325 82.442 101.825 82.7506 103.996 83.9851C105.237 84.7566 106.323 85.8367 107.254 87.2254C107.874 85.991 108.805 84.9109 109.891 83.9851C111.907 82.442 114.544 81.6705 117.181 82.1334C119.508 82.442 121.679 83.8307 123.386 85.5281C125.092 87.2254 126.488 89.3857 126.798 91.8545C127.264 94.9406 126.953 98.1809 125.557 100.958C124.006 103.89 121.524 106.205 118.732 108.056C114.234 111.142 108.339 115 108.339 115C108.339 115 102.91 111.451 98.1018 108.828C95.1546 107.285 92.3625 105.279 90.5012 102.501C88.6398 100.033 87.8642 96.7922 88.0193 93.7062Z" fill="#E8505B"/>
<defs>
<filter id="filter0_d_325_10704" x="0.226562" y="0.453125" width="215.039" height="215.05" filterUnits="userSpaceOnUse" color-interpolation-filters="sRGB">
<feFlood flood-opacity="0" result="BackgroundImageFix"/>
<feColorMatrix in="SourceAlpha" type="matrix" values="0 0 0 0 0 0 0 0 0 0 0 0 0 0 0 0 0 0 127 0" result="hardAlpha"/>
<feOffset dy="10"/>
<feGaussianBlur stdDeviation="30"/>
<feColorMatrix type="matrix" values="0 0 0 0 0.164706 0 0 0 0 0.4 0 0 0 0 0.756863 0 0 0 0.1 0"/>
<feBlend mode="normal" in2="BackgroundImageFix" result="effect1_dropShadow_325_10704"/>
<feBlend mode="normal" in="SourceGraphic" in2="effect1_dropShadow_325_10704" result="shape"/>
</filter>
</defs>
</svg>
