<svg width="53" height="80" viewBox="0 0 53 80" fill="none" xmlns="http://www.w3.org/2000/svg">
<path d="M30.7045 6.05286C35.3212 2.56168 41.2892 -1.15472 46.469 1.32289C49.3967 2.78694 51.3109 5.94025 51.8739 9.09358C52.437 12.3595 51.8739 15.6254 51.3109 18.8914C47.595 37.4735 39.2624 55.042 27.3264 69.6824C22.9348 75.0881 16.8542 80.4938 10.098 79.0298C3.79222 77.6784 0.188918 70.4707 0.639332 64.0515C0.977143 57.6322 4.24264 51.776 7.28293 46.0325C14.377 32.5182 21.3584 17.7652 30.7045 6.05286Z" fill="#FF6B6B"/>
<path d="M30.7041 6.05281C30.7041 6.05281 30.5914 6.16542 30.3662 6.50327C30.141 6.84113 29.8032 7.17899 29.4654 7.74209C28.6772 8.75565 27.5511 10.3323 26.0873 12.4721C23.2722 16.639 19.4437 22.9456 15.2774 30.9415C13.2505 34.9958 10.8858 39.3879 8.52115 44.0053C6.15647 48.7353 3.1162 53.5779 1.53975 59.3215C0.751525 62.1369 0.413687 65.2902 1.08931 68.2183C1.65233 71.259 3.1162 74.1871 5.48087 76.3268C6.60691 77.3404 8.07073 78.2414 9.64718 78.5792C11.2236 79.0297 12.8001 79.0297 14.4892 78.6918C17.7547 78.0161 20.5697 76.1016 23.047 73.7366C25.5243 71.4843 27.6638 68.6688 29.6906 66.0786C31.7175 63.3757 33.5191 60.6729 35.3208 57.97C38.6989 52.4517 41.6266 46.9334 43.9913 41.4151C46.3559 35.8967 48.1576 30.6037 49.5088 25.4232C50.1844 22.833 50.7475 20.3554 51.1979 17.9904C51.6483 15.6254 51.9861 13.2604 51.8735 11.008C51.7609 6.61589 49.3962 2.56164 46.1307 1.21022C44.5543 0.534504 42.8652 0.421886 41.2888 0.647123C39.8249 0.87236 38.4737 1.32284 37.3477 1.88594C35.0956 2.8995 33.4065 4.02566 32.3931 4.81399C31.8301 5.15185 31.4923 5.48973 31.1545 5.71496C30.9293 6.05282 30.7041 6.05281 30.7041 6.05281C30.7041 6.05281 30.8166 5.9402 31.0418 5.71496C31.2671 5.48973 31.7175 5.15185 32.2805 4.81399C33.4065 4.02566 34.983 2.8995 37.235 1.77331C38.3611 1.21022 39.7123 0.759735 41.2888 0.534498C42.8652 0.30926 44.5543 0.421879 46.2433 1.09759C47.9324 1.7733 49.5088 3.12472 50.5223 4.92662C51.5357 6.72852 52.2113 8.86827 52.3239 11.1206C52.4365 13.373 52.0987 15.738 51.6483 18.2156C51.1979 20.6933 50.6349 23.1708 49.9593 25.7611C48.608 30.9415 46.8063 36.3472 44.4417 41.8656C42.1896 47.3839 39.2619 53.0148 35.7712 58.5331C33.9696 61.236 32.1679 64.0514 30.141 66.7543C28.1142 69.4571 25.9747 72.16 23.4974 74.525C20.9076 76.89 17.9798 78.9171 14.6017 79.5928C12.9127 79.9307 11.2236 79.9307 9.53457 79.4802C7.84552 79.0297 6.38168 78.1288 5.14304 77.1152C2.66576 74.8628 1.20192 71.8221 0.638901 68.6688C-0.0367197 65.5155 0.413687 62.3621 1.08931 59.4341C2.66576 53.5779 5.70607 48.7353 8.18335 44.0053C10.6606 39.2753 12.9127 34.8832 15.0522 30.9415C19.3311 22.9456 23.047 16.7516 25.9747 12.5847C27.4385 10.5576 28.5646 8.9809 29.4654 7.85471C29.9158 7.40424 30.141 6.95376 30.3662 6.72852C30.5914 6.16543 30.7041 6.05281 30.7041 6.05281Z" fill="#263238"/>
<g opacity="0.3">
<path opacity="0.3" d="M31.2679 22.1571C32.394 19.0038 34.7586 18.1028 37.3485 17.2018C39.9384 16.3009 43.0913 16.4135 45.1182 18.2154C47.4828 20.2426 47.8207 23.9589 47.145 26.9996C46.9198 28.1258 46.582 29.1394 45.7938 29.9277C45.0056 30.7161 43.7669 31.1665 42.8661 30.6034C41.74 30.0404 41.4022 28.3511 40.1636 27.9006C38.8124 27.3375 37.3485 28.4637 35.9973 28.9142C34.083 29.3646 31.9435 28.1258 31.1553 26.3239C30.5923 24.9725 30.7049 23.5085 31.2679 22.1571Z" fill="black"/>
</g>
<g opacity="0.3">
<path opacity="0.3" d="M36.2213 6.27809C37.3474 6.61594 38.023 7.96734 38.023 9.31877C38.023 10.7828 37.5725 12.1342 37.1221 13.373C36.6717 14.4992 36.1087 15.738 34.8701 15.738C34.1944 15.738 33.6314 15.2876 33.181 14.7245C32.8432 14.1614 32.7306 13.4857 32.618 12.8099C32.5054 11.2333 32.7306 9.76925 33.2936 8.30521C33.6314 7.6295 33.9693 6.84119 34.6449 6.39071C35.3205 5.94024 36.2213 5.94024 36.7843 6.39071" fill="black"/>
</g>
<g opacity="0.3">
<path opacity="0.3" d="M49.733 9.09327C50.8591 9.43113 51.5347 10.7825 51.5347 12.134C51.5347 13.598 51.0843 14.9494 50.6339 16.1882C50.1834 17.3144 49.6204 18.5533 48.3818 18.5533C47.7062 18.5533 47.1431 18.1028 46.6927 17.5397C46.3549 16.9766 46.2423 16.3009 46.1297 15.6252C46.0171 14.0485 46.2423 12.5844 46.8053 11.1204C47.1432 10.4447 47.481 9.65637 48.1566 9.2059C48.8322 8.75542 49.733 8.75542 50.2961 9.2059" fill="black"/>
</g>
<g opacity="0.3">
<path opacity="0.3" d="M43.9908 3.9131C45.1169 4.25095 45.7925 5.60239 45.7925 6.95381C45.7925 8.41785 45.3421 9.76925 44.8917 11.0081C44.4413 12.1342 43.8783 13.373 42.6396 13.373C41.964 13.373 41.401 12.9226 40.9505 12.3595C40.6127 11.7964 40.5001 11.1207 40.3875 10.445C40.2749 8.8683 40.5001 7.40426 41.0631 5.94022C41.4009 5.26451 41.7388 4.4762 42.4144 4.02572C43.09 3.57525 43.9908 3.57525 44.5539 4.02572" fill="black"/>
</g>
</svg>
