<svg width="87" height="106" viewBox="0 0 87 106" fill="none" xmlns="http://www.w3.org/2000/svg">
<path d="M0.152344 41.5413C4.09347 38.951 9.38583 39.852 13.89 41.316C18.3941 42.78 23.0109 44.9198 27.7402 44.4693C32.92 44.0189 37.3115 40.5277 40.6896 36.586C44.8559 31.7434 48.0088 26.1125 49.9231 20.0311C51.8373 13.837 52.7382 6.40422 58.1432 2.80042C63.4355 -0.80338 70.98 0.998505 75.5967 5.39064C80.2135 9.78277 82.4655 16.0894 83.9294 22.2834C87.3075 36.586 87.4201 51.9022 82.6907 65.8669C78.074 79.8316 68.5027 92.3323 55.5533 99.4273C42.6039 106.41 26.2764 107.423 13.1018 100.891" fill="#FF6B6B"/>
<path d="M13.1011 100.553C13.1011 100.553 13.3263 100.666 13.6641 100.779C14.1145 101.004 14.6775 101.229 15.4657 101.567C16.254 101.905 17.2674 102.243 18.3934 102.581C19.5195 102.918 20.8707 103.369 22.4472 103.707C25.6 104.382 29.4286 104.833 34.0453 104.72C36.2974 104.608 38.7747 104.382 41.2519 103.932C43.7292 103.482 46.4317 102.806 49.1342 101.792C54.5392 99.8777 59.9441 96.6118 65.0113 92.2197C70.0785 87.8275 74.5826 82.084 78.1859 75.4395C81.7892 68.795 84.1539 61.1369 85.2799 53.0283C86.406 44.9198 86.1808 36.2481 84.7169 27.6891C83.9287 23.4096 83.0278 19.1301 81.564 15.1885C80.1001 11.2468 77.9607 7.53036 74.9204 4.82751C71.8801 2.23728 67.8264 0.66062 63.9978 0.885857C62.0836 0.998476 60.1693 1.56157 58.5929 2.57514C57.0164 3.58871 55.7778 5.05276 54.7644 6.62942C52.8501 9.78274 51.9493 13.4992 51.0484 16.8777C50.1476 20.3689 49.0216 23.7475 47.4451 26.6755C45.9813 29.7162 44.1796 32.4191 42.1528 34.8967C40.2385 37.3743 38.0991 39.5141 35.6218 41.2033C33.2571 42.8926 30.6672 44.0188 28.0773 44.2441C25.4874 44.5819 23.0102 44.1314 20.7581 43.4557C16.3666 42.2169 12.7633 40.5277 9.61036 39.9646C6.45746 39.4015 3.98019 39.6267 2.40374 40.1898C1.61552 40.415 1.05249 40.7529 0.60208 40.9781C0.264269 41.2034 0.0390625 41.316 0.0390625 41.316C0.0390625 41.316 0.264269 41.2034 0.60208 40.9781C0.93989 40.7529 1.50291 40.415 2.40374 40.1898C3.98019 39.6267 6.57007 39.2888 9.72297 39.8519C12.8759 40.3024 16.5918 41.9917 20.8707 43.2305C23.0102 43.7936 25.4875 44.2441 27.9647 43.9062C30.442 43.5684 33.0319 42.5548 35.3966 40.8655C37.7612 39.1762 39.7881 37.0365 41.815 34.6715C43.7292 32.1939 45.5309 29.491 46.9947 26.4503C48.4586 23.4096 49.5846 20.1437 50.4854 16.6525C51.3862 13.1613 52.2871 9.55751 54.2014 6.17895C55.2148 4.48967 56.4534 3.02561 58.1425 1.89942C59.8315 0.88585 61.7458 0.210131 63.7726 0.0975123C65.7995 -0.0151065 67.8264 0.32277 69.7406 0.998483C71.6549 1.6742 73.4565 2.68775 75.033 4.15179C78.1859 6.85464 80.3254 10.6837 81.9018 14.7379C83.3657 18.7922 84.3791 22.9591 85.0547 27.3513C86.5185 36.0229 86.7438 44.6945 85.6177 52.8031C84.4917 61.0243 82.0144 68.6824 78.4111 75.4395C74.8078 82.1966 70.191 87.8275 65.1239 92.3323C60.0567 96.7244 54.4266 99.9904 49.0216 101.905C46.3191 102.918 43.6166 103.594 41.1393 104.045C38.5495 104.495 36.1848 104.72 33.9327 104.833C29.316 104.946 25.4875 104.382 22.3346 103.707C20.7581 103.369 19.4069 102.918 18.2808 102.581C17.1548 102.13 16.1414 101.792 15.3531 101.454C14.5649 101.117 14.0019 100.779 13.6641 100.666C13.3263 100.666 13.1011 100.553 13.1011 100.553Z" fill="#263238"/>
<path d="M61.5196 15.8642C61.5196 15.8642 60.844 15.3011 60.1683 14.0623C59.4927 12.8235 58.9297 11.0216 58.9297 8.88186C58.9297 6.74211 59.6053 4.82759 60.2809 3.7014C60.9566 2.4626 61.6322 1.89951 61.6322 2.01212C61.7448 2.12474 61.1818 2.68785 60.6187 3.92665C60.0557 5.16546 59.4927 6.85473 59.4927 8.88186C59.4927 10.909 59.9431 12.7109 60.5062 13.9497C61.1818 15.1885 61.6322 15.8642 61.5196 15.8642Z" fill="#263238"/>
<path d="M68.3891 14.8506C68.3891 14.8506 67.8261 14.1749 67.1504 13.0487C66.5874 11.8099 66.0244 10.008 65.7992 7.86829C65.6866 5.72854 66.0244 3.81402 66.4748 2.57521C66.9252 1.22379 67.3756 0.548096 67.4882 0.548096C67.7134 0.548096 66.137 3.70141 66.4748 7.75567C66.7 11.9226 68.6143 14.8506 68.3891 14.8506Z" fill="#263238"/>
<path d="M73.9087 16.8778C73.796 16.8778 73.0078 14.5128 73.0078 11.4721C73.1204 8.43139 74.0212 6.06641 74.1338 6.06641C74.359 6.06641 73.6834 8.43139 73.5708 11.4721C73.4582 14.4002 74.0213 16.7652 73.9087 16.8778Z" fill="#263238"/>
</svg>
