<svg width="77" height="79" viewBox="0 0 77 79" fill="none" xmlns="http://www.w3.org/2000/svg">
<path d="M19.8098 4.79445C14.2181 3.36993 7.28731 2.23475 3.43668 6.59002C1.29982 9.05961 0.796644 12.6915 1.62708 15.9215C2.34504 19.1569 4.17166 22.0013 5.98755 24.6206C16.7651 40.2294 31.3558 53.0631 48.0083 61.8524C54.1359 65.0553 61.9237 67.6153 67.4829 63.6295C72.7154 59.8848 73.1219 51.8604 70.256 46.1343C67.3901 40.4081 62.1194 36.2624 57.0791 32.2184C45.2416 22.7485 32.9969 11.8323 19.8098 4.79445Z" fill="#FF6B6B"/>
<path d="M19.8088 4.79446C19.8088 4.79446 19.9266 4.90157 20.2694 4.99797C20.6176 5.20686 21.0782 5.4104 21.6567 5.72105C22.8136 6.34235 24.5491 7.2743 26.6434 8.64012C30.9391 11.2539 36.8899 15.48 43.9282 21.2326C47.4473 24.109 51.3146 27.1942 55.4175 30.4937C59.5259 33.9057 64.1912 37.1783 68.0211 41.8438C69.8263 44.2381 71.4226 46.9807 72.1352 50.1036C72.7353 53.2319 72.6713 56.6173 71.2361 59.6172C70.5185 61.1171 69.4581 62.5206 68.1567 63.5974C66.8553 64.6742 65.2003 65.4296 63.5239 65.7351C60.1765 66.4585 56.6468 65.7248 53.326 64.643C49.9998 63.4487 47.1021 61.7829 44.0919 60.1225C41.1942 58.4567 38.4036 56.6732 35.7201 54.7717C30.3584 51.0813 25.543 47.0265 21.1776 42.9503C16.9192 38.7563 13.1108 34.5408 9.75758 30.4163C8.08099 28.3541 6.62935 26.2811 5.17771 24.2082C3.83855 22.1299 2.61186 20.0462 1.83507 17.941C1.05828 15.8359 0.726035 13.5968 0.966895 11.5559C1.20776 9.51494 2.02173 7.67217 3.31242 6.3704C4.60312 5.06863 6.14022 4.2061 7.70415 3.90602C9.26272 3.49345 10.6124 3.4291 11.855 3.48259C14.3402 3.58956 16.2791 4.06082 17.6449 4.33393C18.3305 4.52672 18.7858 4.61775 19.1286 4.71415C19.5838 4.80518 19.8088 4.79446 19.8088 4.79446C19.8088 4.79446 19.5838 4.80518 19.3535 4.70342C19.0107 4.60702 18.5555 4.51597 17.8752 4.43566C16.6219 4.15719 14.6884 3.79843 12.0907 3.69682C10.8481 3.64333 9.38592 3.71308 7.93983 4.12029C6.49374 4.52749 4.95128 5.27754 3.77306 6.57394C1.29878 9.05963 0.7314 13.7093 2.39208 17.8017C3.16887 19.9069 4.3902 21.8781 5.72936 23.9564C7.181 26.0294 8.62727 27.9898 10.3092 30.1645C13.5499 34.2943 17.3584 38.5098 21.7292 42.6985C25.9822 46.7801 30.9047 50.7169 36.1592 54.5252C38.8374 56.3142 41.628 58.0978 44.5257 59.7636C47.4234 61.4293 50.4337 63.0897 53.642 64.1769C56.8503 65.2641 60.2675 66.0031 63.5025 65.2851C65.0664 64.985 66.6089 64.235 67.9157 63.2707C69.2225 62.3064 70.1757 61.0207 70.7808 59.5261C72.1089 56.6441 72.1783 53.3712 71.5835 50.3554C70.9888 47.3396 69.3925 44.597 67.5927 42.3152C63.8752 37.6444 59.2099 34.3717 55.1016 30.9597C50.9932 27.5478 47.2384 24.4572 43.7193 21.5809C36.6864 15.9407 30.8427 11.5968 26.5416 8.87048C24.4473 7.50466 22.7065 6.46022 21.5496 5.83891C20.9711 5.52826 20.5105 5.32472 20.2748 5.11047C19.9266 4.90158 19.8088 4.79446 19.8088 4.79446Z" fill="#263238"/>
<path opacity="0.3" d="M25.599 19.8518C23.3386 17.3665 20.7517 17.4899 18.0576 17.7311C15.3582 17.8598 12.4928 19.2367 11.2558 21.6633C9.92774 24.5454 10.9939 27.9897 12.8097 30.609C13.415 31.4821 14.1328 32.3498 15.1719 32.864C16.2057 33.2657 17.5554 33.2013 18.1873 32.2692C19.0388 31.2139 18.6263 29.6551 19.5956 28.7069C20.5596 27.6462 22.3861 28.1228 23.8429 27.9406C25.8567 27.6191 27.3402 25.6317 27.2436 23.6068C27.2864 22.1391 26.6596 20.816 25.599 19.8518Z" fill="black"/>
<path opacity="0.3" d="M14.8491 7.17317C13.9815 7.89103 13.9387 9.35878 14.453 10.6872C14.9673 12.0156 15.9207 13.0976 16.8688 14.0671C17.6991 14.9295 18.7543 15.7812 19.8629 15.39C20.5271 15.1329 20.8377 14.5543 21.0304 13.8686C21.1107 13.1883 20.966 12.5188 20.7089 11.8546C20.1893 10.4136 19.3376 9.10129 18.2716 8.02466C17.6824 7.48903 17.0932 6.95339 16.3005 6.87844C15.5025 6.69101 14.6188 7.07141 14.3135 7.76245" fill="black"/>
<path opacity="0.3" d="M3.50143 15.043C2.63381 15.7609 2.59108 17.2287 3.10536 18.5571C3.61964 19.8855 4.57309 20.9675 5.52118 21.937C6.35143 22.7994 7.40664 23.651 8.5153 23.2599C9.17943 23.0028 9.49003 22.4242 9.68279 21.7385C9.76308 21.0582 9.61841 20.3886 9.36127 19.7244C8.84162 18.2835 7.98991 16.9712 6.92398 15.8945C6.33478 15.3589 5.74558 14.8233 4.95289 14.7483C4.15483 14.5609 3.27111 14.9413 2.96587 15.6323" fill="black"/>
<path opacity="0.3" d="M6.77486 8.00936C5.90725 8.72721 5.86452 10.195 6.3788 11.5234C6.89308 12.8518 7.84653 13.9338 8.79462 14.9034C9.62487 15.7657 10.6801 16.6174 11.7887 16.2263C12.4529 15.9691 12.7635 15.3906 12.9562 14.7049C13.149 14.0192 12.8918 13.355 12.6347 12.6907C12.1151 11.2498 11.2633 9.93748 10.1974 8.86084C9.60821 8.32521 9.01901 7.78957 8.22631 7.71463C7.42825 7.52719 6.54455 7.90759 6.23931 8.59863" fill="black"/>
<g opacity="0.3">
<path opacity="0.3" d="M28.8906 48.6707C32.5492 54.4717 36.647 60.0264 41.7142 64.6329C46.7813 69.2393 52.8178 72.8975 59.4433 74.7237C62.5231 75.4788 65.8117 75.8857 68.6878 74.7338C72.7796 73.073 75.2698 68.5571 75.5105 64.1485C75.7512 59.7399 74.1869 55.3047 72.1941 51.3408C71.6053 55.5405 70.9147 59.9706 67.8995 62.933C65.3181 65.5366 61.4137 66.3993 57.9001 66.0031C54.2741 65.6123 50.9372 64.193 47.702 62.5433C40.996 59.0298 34.697 54.5948 29.2602 49.3295" fill="black"/>
</g>
<path opacity="0.2" d="M24.4356 42.6822C24.1197 43.1482 23.8037 43.6143 23.4877 44.0804C26.9205 38.0538 33.8348 34.1162 40.8297 34.2336C47.8247 34.351 54.5629 38.5395 57.7876 44.6995C61.0124 50.8595 60.6006 58.7714 56.8198 64.589C43.9757 60.0152 32.0205 52.8059 22.1112 43.5823" fill="white"/>
</svg>
