<svg width="38" height="32" viewBox="0 0 38 32" fill="none" xmlns="http://www.w3.org/2000/svg">
<path d="M0.99488 11.7424C1.10748 9.48998 2.12092 7.2376 3.47216 5.54832C4.82341 3.74642 6.73766 2.39497 8.87713 1.71925C11.1292 1.04354 13.7191 1.38142 15.7459 2.62023C16.9846 3.29594 17.998 4.42213 18.6736 5.54832C19.2367 4.42213 20.0249 3.40856 21.0383 2.62023C22.9526 1.15618 25.4298 0.480468 27.7945 0.930944C30.0466 1.2688 32.0735 2.50759 33.6499 4.08426C35.2264 5.66092 36.465 7.68807 36.9154 9.94045C37.3658 12.7559 37.028 15.9092 35.6768 18.3869C34.3255 21.0897 31.8483 23.3421 29.371 25.0314C25.2046 27.8468 19.6871 31.5632 19.6871 31.5632C19.6871 31.5632 14.6199 28.1847 10.1158 25.9323C7.41328 24.5809 4.8234 22.5537 3.13435 20.0761C1.5579 17.7111 0.769673 14.6704 0.99488 11.7424Z" fill="white"/>
</svg>
