<svg width="11" height="6" viewBox="0 0 11 6" fill="none" xmlns="http://www.w3.org/2000/svg">
<path fill-rule="evenodd" clip-rule="evenodd" d="M1.33769 0.229512C1.03168 -0.076504 0.535528 -0.0765038 0.229512 0.229512C-0.0765035 0.535527 -0.0765043 1.03168 0.229511 1.33769L4.63596 5.74414C4.64415 5.75312 4.65258 5.76195 4.66126 5.77063C4.85803 5.9674 5.1334 6.03764 5.38629 5.98137C5.52707 5.95024 5.66091 5.87992 5.77042 5.77042C5.77733 5.76351 5.78408 5.7565 5.79068 5.7494L10.2022 1.33791C10.5082 1.03189 10.5082 0.535745 10.2022 0.229729C9.89615 -0.0762863 9.4 -0.0762872 9.09399 0.229728L5.21595 4.10777L1.33769 0.229512Z" fill="#454B58"/>
</svg>
