<svg width="17" height="17" viewBox="0 0 17 17" fill="none" xmlns="http://www.w3.org/2000/svg">
<g clip-path="url(#clip0_224_5054)">
<path fill-rule="evenodd" clip-rule="evenodd" d="M3.34686 4.52536H4.39726C4.71609 4.52536 4.97459 4.26724 4.97459 3.94841V0.577158C4.97459 0.258299 4.71609 0 4.39726 0H3.34686C3.028 0 2.76953 0.258299 2.76953 0.577158V3.94841C2.76953 4.26724 3.028 4.52536 3.34686 4.52536ZM15.331 3.94933V1.89291C16.1432 1.91739 16.8106 2.58948 16.8106 3.41557V15.4672C16.8106 16.3074 16.1272 17 15.2868 17H1.71128C0.869656 17 0.1875 16.3088 0.1875 15.4672V3.41557C0.1875 2.58948 0.854925 1.91739 1.66715 1.89291V3.94933C1.66715 4.87882 2.42115 5.62784 3.35047 5.62784H4.4126C5.34188 5.62784 6.10587 4.87882 6.10587 3.94933V1.88552H10.8923V3.94933C10.8923 4.87882 11.6563 5.62784 12.5857 5.62784H13.6476C14.577 5.62784 15.331 4.87882 15.331 3.94933ZM14.179 15.3755C14.5429 15.3755 14.8378 15.0804 14.8378 14.7167L14.8377 8.49162C14.8377 8.12777 14.5428 7.83269 14.179 7.83269H2.79009C2.4262 7.83269 2.13134 8.12777 2.13134 8.49162V14.7167C2.13134 15.0804 2.42624 15.3755 2.79009 15.3755H14.179ZM6.19225 9.37864C6.19225 9.16569 6.01952 8.99316 5.80639 8.99316H4.45987C4.24699 8.99316 4.07422 9.16569 4.07422 9.37864V10.725C4.07422 10.9382 4.24699 11.1108 4.45987 11.1108H5.80639C6.01952 11.1108 6.19225 10.9382 6.19225 10.725V9.37864ZM9.55924 9.37864C9.55924 9.16569 9.38647 8.99316 9.17376 8.99316H7.82706C7.61417 8.99316 7.44141 9.16569 7.44141 9.37864V10.725C7.44141 10.9382 7.61417 11.1108 7.82706 11.1108H9.17376C9.38647 11.1108 9.55924 10.9382 9.55924 10.725V9.37864ZM12.5371 8.99316C12.75 8.99316 12.9227 9.16569 12.9227 9.37864V10.725C12.9227 10.9382 12.75 11.1108 12.5371 11.1108H11.1906C10.9774 11.1108 10.8047 10.9382 10.8047 10.725V9.37864C10.8047 9.16569 10.9774 8.99316 11.1906 8.99316H12.5371ZM6.19225 12.7441C6.19225 12.5308 6.01952 12.3584 5.80639 12.3584H4.45987C4.24699 12.3584 4.07422 12.5308 4.07422 12.7441V14.0902C4.07422 14.3033 4.24699 14.4758 4.45987 14.4758H5.80639C6.01952 14.4758 6.19225 14.3032 6.19225 14.0902V12.7441ZM9.17376 12.3586C9.38647 12.3586 9.55924 12.531 9.55924 12.7443V14.0904C9.55924 14.3035 9.38647 14.4761 9.17376 14.4761H7.82706C7.61417 14.4761 7.44141 14.3035 7.44141 14.0904V12.7443C7.44141 12.531 7.61417 12.3586 7.82706 12.3586H9.17376ZM12.9227 12.7441C12.9227 12.5308 12.75 12.3584 12.5372 12.3584H11.1906C10.9774 12.3584 10.8047 12.5308 10.8047 12.7441V14.0902C10.8047 14.3033 10.9774 14.4758 11.1906 14.4758H12.5372C12.75 14.4758 12.9227 14.3032 12.9227 14.0902V12.7441ZM13.6238 4.52536H12.5734C12.2546 4.52536 11.9961 4.26724 11.9961 3.94841V0.577158C11.9961 0.258299 12.2546 0 12.5734 0H13.6238C13.9424 0 14.2009 0.258299 14.2009 0.577158V3.94841C14.2009 4.26724 13.9424 4.52536 13.6238 4.52536Z" fill="#F04973"/>
</g>
<defs>
<clipPath id="clip0_224_5054">
<rect width="17" height="17" fill="white"/>
</clipPath>
</defs>
</svg>
