<svg width="15" height="15" viewBox="0 0 15 15" fill="none" xmlns="http://www.w3.org/2000/svg">
<path d="M7.5 0C3.36316 0 0 3.36316 0 7.5C0 11.6368 3.36316 15 7.5 15C11.6368 15 15 11.6368 15 7.5C15 3.36316 11.6368 0 7.5 0ZM7.5 13.6895C4.08947 13.6895 1.31053 10.9105 1.31053 7.5C1.31053 4.08947 4.08947 1.31053 7.5 1.31053C10.9105 1.31053 13.6895 4.08947 13.6895 7.5C13.6895 10.9105 10.9105 13.6895 7.5 13.6895Z" fill="#F04973"/>
<path d="M9.06995 4.94945L7.4957 6.52369L5.93262 4.96062C5.67583 4.70383 5.26273 4.71499 5.01711 4.96062C4.77148 5.20624 4.77148 5.63051 5.01711 5.87613L6.58018 7.43921L5.00594 9.01346C4.74915 9.27025 4.76031 9.68335 5.00594 9.92897C5.25157 10.1746 5.67583 10.1746 5.92146 9.92897L7.4957 8.35473L9.06994 9.92897C9.32674 10.1858 9.73983 10.1746 9.98546 9.92897C10.2311 9.68335 10.2311 9.25908 9.98546 9.01346L8.42238 7.45038L9.99663 5.87613C10.2534 5.61934 10.2423 5.20624 9.99663 4.96062C9.751 4.71499 9.32674 4.69266 9.06995 4.94945Z" fill="#F04973"/>
</svg>
