<svg width="8" height="13" viewBox="0 0 8 13" fill="none" xmlns="http://www.w3.org/2000/svg">
<path opacity="0.6" d="M3.692 12.56V0.339999H4.524V12.56H3.692ZM4.017 11.104C3.32367 11.104 2.66067 11 2.028 10.792C1.39533 10.5753 0.897 10.298 0.533 9.96L1.014 8.946C1.36067 9.24933 1.80267 9.50067 2.34 9.7C2.87733 9.89933 3.43633 9.999 4.017 9.999C4.54567 9.999 4.97467 9.93833 5.304 9.817C5.63333 9.69567 5.876 9.531 6.032 9.323C6.188 9.10633 6.266 8.86367 6.266 8.595C6.266 8.283 6.162 8.03167 5.954 7.841C5.75467 7.65033 5.49033 7.49867 5.161 7.386C4.84033 7.26467 4.485 7.16067 4.095 7.074C3.705 6.98733 3.31067 6.88767 2.912 6.775C2.522 6.65367 2.16233 6.502 1.833 6.32C1.51233 6.138 1.25233 5.89533 1.053 5.592C0.853667 5.28 0.754 4.88133 0.754 4.396C0.754 3.928 0.875333 3.499 1.118 3.109C1.36933 2.71033 1.75067 2.394 2.262 2.16C2.782 1.91733 3.44067 1.796 4.238 1.796C4.76667 1.796 5.291 1.86533 5.811 2.004C6.331 2.14267 6.78167 2.342 7.163 2.602L6.734 3.642C6.344 3.382 5.93233 3.19567 5.499 3.083C5.06567 2.96167 4.64533 2.901 4.238 2.901C3.72667 2.901 3.30633 2.966 2.977 3.096C2.64767 3.226 2.405 3.39933 2.249 3.616C2.10167 3.83267 2.028 4.07533 2.028 4.344C2.028 4.66467 2.12767 4.92033 2.327 5.111C2.535 5.30167 2.79933 5.45333 3.12 5.566C3.44933 5.67867 3.809 5.78267 4.199 5.878C4.589 5.96467 4.979 6.06433 5.369 6.177C5.76767 6.28967 6.12733 6.437 6.448 6.619C6.77733 6.801 7.04167 7.04367 7.241 7.347C7.44033 7.65033 7.54 8.04033 7.54 8.517C7.54 8.97633 7.41433 9.40533 7.163 9.804C6.91167 10.194 6.52167 10.5103 5.993 10.753C5.473 10.987 4.81433 11.104 4.017 11.104Z" fill="#454B58"/>
</svg>
