<svg width="15" height="15" viewBox="0 0 15 15" fill="none" xmlns="http://www.w3.org/2000/svg">
<g clip-path="url(#clip0_210_894)">
<path d="M14.9878 14.1459C14.8272 12.4057 14.0724 10.7883 12.8198 9.53915C12.0756 8.79715 11.2084 8.23132 10.2448 7.85231C11.2994 7.01957 11.9204 5.74911 11.9204 4.40391C11.9204 1.97509 9.93967 0 7.50391 0C5.06815 0 3.08206 1.97509 3.08206 4.40391C3.08206 5.74911 3.70305 7.01957 4.75765 7.85231C3.79406 8.22598 2.92682 8.79181 2.18271 9.53915C0.924677 10.7936 0.164506 12.4217 0.00925957 14.1673C0.00390625 14.1939 0.00390625 14.2206 0.00390625 14.2473C0.00390625 14.258 0.00390625 14.2633 0.00390625 14.274C0.00925957 14.6744 0.335812 15 0.742664 15C1.13881 15 1.46001 14.6904 1.47607 14.3061C1.74909 11.2313 4.34545 8.80783 7.50391 8.80783C10.6731 8.80783 13.2748 11.2473 13.5317 14.3381C13.5692 14.7064 13.8797 15 14.2651 15C14.672 15 15.0039 14.6744 15.0039 14.2687C14.9986 14.226 14.9932 14.1833 14.9878 14.1459ZM7.49855 7.33986C5.8765 7.33986 4.55423 6.02135 4.55423 4.40391C4.55423 2.78648 5.8765 1.46797 7.49855 1.46797C9.12061 1.46797 10.4429 2.78648 10.4429 4.40391C10.4429 6.02135 9.12061 7.33986 7.49855 7.33986Z" fill="#34A3D2"/>
</g>
<defs>
<clipPath id="clip0_210_894">
<rect width="15" height="15" fill="white"/>
</clipPath>
</defs>
</svg>
