<svg width="38" height="32" viewBox="0 0 38 32" fill="none" xmlns="http://www.w3.org/2000/svg"><path d="M.995 11.742C1.107 9.49 2.12 7.238 3.472 5.548A10.897 10.897 0 0 1 8.877 1.72c2.252-.675 4.842-.338 6.869.901 1.239.676 2.252 1.802 2.928 2.928.563-1.126 1.35-2.14 2.364-2.928C22.953 1.156 25.43.48 27.794.93c2.253.339 4.28 1.578 5.856 3.154 1.576 1.577 2.815 3.604 3.265 5.856.45 2.816.113 5.97-1.238 8.447-1.352 2.703-3.829 4.955-6.306 6.644-4.166 2.816-9.684 6.532-9.684 6.532s-5.067-3.378-9.571-5.63c-2.703-1.352-5.293-3.38-6.982-5.857C1.558 17.711.77 14.67.994 11.742Z" fill="#fff"/></svg>