<svg width="34" height="34" viewBox="0 0 34 34" fill="none" xmlns="http://www.w3.org/2000/svg"><path fill="#E5E5E5" d="M0 0h34v34H0z"/><g clip-path="url(#a)"><path fill="#fff" d="M-150-2674h1600v4476H-150z"/><g filter="url(#b)"><rect x="-40" y="-391" width="883" height="712" rx="10" fill="#fff"/></g><circle cx="17" cy="17" r="17" fill="#F9F3DB"/><g clip-path="url(#c)"><path d="M26.797 9.238a.674.674 0 0 0-.487-.204H7.69a.674.674 0 0 0-.487.204.674.674 0 0 0-.203.486v14.483a.674.674 0 0 0 .203.486.674.674 0 0 0 .487.203h18.275c.572 0 1.035-.463 1.035-1.034V9.724a.674.674 0 0 0-.203-.486Z" fill="#F3D55B"/><path d="M27 9.724v14.138c0 .274-.11.537-.304.73l-1.42-1.42V10.758l1.52-1.52a.674.674 0 0 1 .204.486ZM8.724 10.758v12.414l-1.52 1.52A.674.674 0 0 1 7 24.207V9.724a.674.674 0 0 1 .203-.487l1.521 1.521Z" fill="#F0C419"/><path d="M26.696 24.593a1.032 1.032 0 0 1-.73.303H7.688a.674.674 0 0 1-.486-.203l1.52-1.521h16.553l1.42 1.42Z" fill="#F29C1F"/><path d="M8.725 10.758h16.551v12.414H8.725V10.758Z" fill="#ECF0F1"/><path d="M25.276 10.758s-16.551 0-16.551 12.414V10.758h16.551Z" fill="#fff"/><path d="M19.415 13.172h-4.828a.345.345 0 0 1 0-.69h4.828a.345.345 0 0 1 0 .69Z" fill="#BDC3C7"/><path d="M15.965 20.758h-4.827a.345.345 0 0 1 0-.69h4.827a.345.345 0 0 1 0 .69Z" fill="#95A5A5"/><path d="M20.448 14.896h-6.896a.345.345 0 1 1 0-.69h6.896a.345.345 0 0 1 0 .69Z" fill="#BDC3C7"/><path d="M19.07 21.93v4.477a.345.345 0 0 0 .5.31l.897-.452a.351.351 0 0 1 .31 0l.897.452a.345.345 0 0 0 .5-.31V21.93H19.07Z" fill="#FF5364"/><path d="M15.965 19.379a4.907 4.907 0 0 1-2.41-.633 4.85 4.85 0 0 1-2.417.633.345.345 0 1 1 0-.69 4.18 4.18 0 0 0 1.789-.393 1.638 1.638 0 0 1-.633-1.133c0-.207.09-.887 1.258-.887 1.167 0 1.257.679 1.257.887-.045.45-.274.86-.632 1.135.56.26 1.17.394 1.788.391a.345.345 0 0 1 0 .69Zm-2.413-2.414c-.262 0-.568.052-.568.198 0 .146.155.44.565.757.367-.281.57-.575.57-.757 0-.146-.305-.198-.567-.198Z" fill="#95A5A5"/><path d="M23.895 19.551c0 .398-.742.645-.885.99-.149.359.196 1.057-.074 1.327s-.968-.075-1.326.073c-.346.144-.593.886-.99.886-.398 0-.645-.742-.99-.886-.359-.148-1.057.197-1.327-.073s.075-.969-.073-1.327c-.144-.346-.886-.592-.886-.99 0-.397.742-.644.886-.99.148-.358-.197-1.056.073-1.326s.969.075 1.327-.074c.344-.143.592-.886.99-.886.397 0 .644.743.99.886.358.149 1.056-.196 1.326.074s-.075.968.074 1.326c.143.346.885.593.885.99Z" fill="#FB7B76"/><path d="M20.621 20.759a1.207 1.207 0 1 0 0-2.414 1.207 1.207 0 0 0 0 2.414Z" fill="#DF4D60"/></g></g><defs><clipPath id="a"><path fill="#fff" transform="translate(-150 -2674)" d="M0 0h1600v4476H0z"/></clipPath><clipPath id="c"><path fill="#fff" transform="translate(7 7)" d="M0 0h20v20H0z"/></clipPath><filter id="b" x="-100" y="-441" width="1003" height="832" filterUnits="userSpaceOnUse" color-interpolation-filters="sRGB"><feFlood flood-opacity="0" result="BackgroundImageFix"/><feColorMatrix in="SourceAlpha" values="0 0 0 0 0 0 0 0 0 0 0 0 0 0 0 0 0 0 127 0" result="hardAlpha"/><feOffset dy="10"/><feGaussianBlur stdDeviation="30"/><feColorMatrix values="0 0 0 0 0.164706 0 0 0 0 0.401569 0 0 0 0 0.756863 0 0 0 0.15 0"/><feBlend in2="BackgroundImageFix" result="effect1_dropShadow_0_1"/><feBlend in="SourceGraphic" in2="effect1_dropShadow_0_1" result="shape"/></filter></defs></svg>