<svg width="8" height="13" viewBox="0 0 8 13" fill="none" xmlns="http://www.w3.org/2000/svg"><path opacity=".6" d="M3.692 12.56V.34h.832v12.22h-.832Zm.325-1.456a6.327 6.327 0 0 1-1.989-.312c-.633-.217-1.131-.494-1.495-.832l.481-1.014c.347.303.789.555 1.326.754.537.2 1.096.299 1.677.299.529 0 .958-.06 1.287-.182.33-.121.572-.286.728-.494.156-.217.234-.46.234-.728 0-.312-.104-.563-.312-.754-.2-.19-.464-.342-.793-.455a7.796 7.796 0 0 0-1.066-.312c-.39-.087-.784-.186-1.183-.299a5.764 5.764 0 0 1-1.079-.455 2.245 2.245 0 0 1-.78-.728c-.2-.312-.299-.71-.299-1.196 0-.468.121-.897.364-1.287.251-.399.633-.715 1.144-.949.52-.243 1.179-.364 1.976-.364.529 0 1.053.07 1.573.208a4.4 4.4 0 0 1 1.352.598l-.429 1.04a4.056 4.056 0 0 0-1.235-.559 4.668 4.668 0 0 0-1.261-.182c-.511 0-.932.065-1.261.195-.33.13-.572.303-.728.52a1.27 1.27 0 0 0-.221.728c0 .32.1.576.299.767.208.19.472.342.793.455.33.113.689.217 1.079.312.39.087.78.186 1.17.299.399.113.758.26 1.079.442.33.182.594.425.793.728.2.303.299.693.299 1.17 0 .46-.126.888-.377 1.287-.251.39-.641.706-1.17.949-.52.234-1.179.351-1.976.351Z" fill="#454B58"/></svg>