<svg width="17" height="17" viewBox="0 0 17 17" fill="none" xmlns="http://www.w3.org/2000/svg"><g clip-path="url(#a)"><path fill-rule="evenodd" clip-rule="evenodd" d="M3.347 4.525h1.05a.577.577 0 0 0 .578-.577V.578A.577.577 0 0 0 4.397 0h-1.05a.577.577 0 0 0-.577.577v3.371c0 .32.258.577.577.577ZM15.33 3.95V1.893a1.53 1.53 0 0 1 1.48 1.523v12.051c0 .84-.684 1.533-1.524 1.533H1.71a1.531 1.531 0 0 1-1.524-1.533V3.416a1.53 1.53 0 0 1 1.48-1.523v2.056c0 .93.754 1.679 1.683 1.679h1.063c.929 0 1.693-.75 1.693-1.679V1.886h4.786v2.063c0 .93.764 1.679 1.694 1.679h1.062a1.68 1.68 0 0 0 1.683-1.679Zm-1.152 11.427a.659.659 0 0 0 .659-.66V8.493a.659.659 0 0 0-.659-.66H2.79a.659.659 0 0 0-.659.66v6.225a.66.66 0 0 0 .66.659h11.388ZM6.192 9.379a.386.386 0 0 0-.386-.386H4.46a.386.386 0 0 0-.386.386v1.346c0 .213.173.386.386.386h1.346a.386.386 0 0 0 .386-.386V9.379Zm3.367 0a.386.386 0 0 0-.385-.386H7.827a.386.386 0 0 0-.386.386v1.346c0 .213.173.386.386.386h1.347a.386.386 0 0 0 .385-.386V9.379Zm2.978-.386c.213 0 .386.173.386.386v1.346a.386.386 0 0 1-.386.386h-1.346a.386.386 0 0 1-.386-.386V9.379c0-.213.172-.386.386-.386h1.346Zm-6.345 3.751a.386.386 0 0 0-.386-.386H4.46a.386.386 0 0 0-.386.386v1.346c0 .213.173.386.386.386h1.346a.386.386 0 0 0 .386-.386v-1.346Zm2.982-.385c.212 0 .385.172.385.385v1.346a.386.386 0 0 1-.385.386H7.827a.386.386 0 0 1-.386-.386v-1.346c0-.213.173-.385.386-.385h1.347Zm3.749.385a.385.385 0 0 0-.386-.386h-1.346a.386.386 0 0 0-.386.386v1.346c0 .213.172.386.386.386h1.346a.386.386 0 0 0 .386-.386v-1.346Zm.7-8.219h-1.05a.577.577 0 0 1-.577-.577V.578c0-.32.259-.578.577-.578h1.05c.32 0 .578.258.578.577v3.371a.577.577 0 0 1-.577.577Z" fill="#F04973"/></g><defs><clipPath id="a"><path fill="#fff" d="M0 0h17v17H0z"/></clipPath></defs></svg>