<svg width="469" height="317" viewBox="0 0 469 317" fill="none" xmlns="http://www.w3.org/2000/svg"><path d="M325.535 35.34c.676-10.473 1.239-20.834 1.914-31.308.113-1.238.226-2.702 1.352-3.378 1.013-.563 2.252-.225 3.265.225 18.467 7.433 32.092 28.042 33.669 47.976" fill="#FF6B6B"/><path opacity=".3" d="M331.729 11.465c8.671 5.631 14.414 15.43 15.089 25.79.113 1.239 0 2.59-.788 3.604-.676.788-1.689 1.126-2.702 1.239-1.014 0-2.027-.226-3.041-.45-2.477-.677-5.067-1.352-6.981-3.154-1.802-1.69-2.59-4.167-2.703-6.645-.112-2.477.338-4.842.789-7.207 1.013 1.802 2.139 3.604 3.153 5.405-1.126-5.856-2.253-11.6-3.379-17.456-.112-.337-.112-.675.113-.9.225-.226.676-.113.676.112" fill="#fff"/><path d="M218.335 57.526c-9.571-11.374-15.314-25.902-15.765-40.768 3.378 1.577 6.869 3.266 10.247 4.843-.901-1.014-1.689-2.14-2.59-3.153 14.864 1.126 29.165 8.333 38.961 19.708" fill="#FF6B6B"/><path opacity=".3" d="M223.965 53.022c-8.108-5.856-13.625-15.091-14.751-25.002-.113-.675 0-1.576.675-1.802.451-.112.901.113 1.352.338L229.82 38.72c-.788-1.126-1.351-2.477-1.464-3.941 2.59 1.914 5.18 3.828 7.883 5.743.563.45 1.126.901 1.238 1.577.113.788-.45 1.351-1.013 1.914-2.59 2.365-6.531 3.266-9.797 2.14 1.126 1.014 2.252 1.914 3.378 2.928-2.026 1.352-4.504 1.802-6.868 1.126-.226 1.126.225 2.365 1.238 2.928" fill="#fff"/><path d="M428.342 155.843s14.413 14.865 20.944 13.626c0 0-22.746-24.213-32.317-46.624-3.604-8.446-9.008-19.032-16.328-30.407 4.279-7.433 8.108-15.88 9.909-24.326 0 0-7.206 8.672-16.44 14.866-.45-.675-1.013-1.351-1.464-2.027 4.392-4.167 8.446-9.91 9.684-17.568l-22.746-1.014a22.942 22.942 0 0 0 1.915-3.153s-14.414-13.29-37.159-23.538c-26.124-14.865-84.453-19.82-112.829 4.393-25.449 14.865-32.205 33.785-52.248 38.515l-11.824-1.351s-4.616 24.776 10.585 35.812l-11.26-2.59s2.027 9.911 13.174 20.722l-6.868-.788s3.04 15.541 12.611 19.257c0 0-14.976 1.915-19.142-3.716 0 0-4.955 23.2 17.678 31.984 0 0-67.9 7.996-48.757 90.996 4.504 19.37 31.191 32.331 62.045 39.088h221.828c13.513-4.392 29.615-49.111 30.291-67.13.563-18.019-8.333-52.819-8.333-52.819l8.445 11.15-21.394-43.358Z" fill="#FF6B6B"/><path d="M174.76 190.529c-12.724-.788-25.223 9.122-27.475 21.735 8.22-5.518 17.792-9.009 27.588-10.135-7.882 6.982-10.697 19.145-6.531 28.83 3.266-8.784 10.247-16.104 18.805-19.708-5.968 6.982-7.77 17.23-4.73 25.902" fill="#FF6B6B"/><path d="M182.529 237.153s-.113-.113-.226-.451c-.112-.338-.225-.788-.45-1.351-.338-1.239-.788-3.041-.901-5.406-.112-2.365 0-5.293.901-8.672.901-3.266 2.477-6.869 5.18-10.135l.225.338c-3.603 1.576-7.319 3.941-10.697 7.207-3.266 3.266-6.193 7.433-7.995 12.388l-.225.676-.226-.676c-2.702-6.419-2.589-14.415.789-21.397 1.464-2.928 3.49-5.631 5.855-7.771l.225.563c-10.697 1.239-20.156 5.18-27.475 10.023l-.45.338.112-.563c.563-2.816 1.577-5.406 2.815-7.771 1.239-2.252 2.815-4.279 4.504-5.856 3.266-3.379 6.982-5.293 10.022-6.532 3.153-1.126 5.743-1.464 7.545-1.577h2.815-2.815c-1.802.113-4.392.564-7.432 1.69-3.041 1.239-6.644 3.153-9.909 6.532a26.493 26.493 0 0 0-4.392 5.856c-1.239 2.252-2.252 4.842-2.702 7.545l-.338-.225c7.319-4.955 16.89-8.897 27.7-10.136l.901-.112-.676.563c-2.364 2.027-4.278 4.617-5.63 7.545-3.378 6.87-3.378 14.753-.788 20.947h-.563c1.802-4.955 4.842-9.234 8.108-12.5 3.378-3.379 7.206-5.744 10.809-7.321l.901-.337-.563.675c-2.702 3.266-4.391 6.757-5.18 9.911-.9 3.266-1.013 6.194-.9 8.559.112 2.365.45 4.167.788 5.405.113.564.338 1.014.338 1.352v.676Z" fill="#263238"/><path d="M407.285 225.441c6.756-1.464 14.076-.451 20.269 2.703 6.193 3.153 11.26 8.559 14.075 14.865" fill="#FF6B6B"/><path d="M441.629 243.009c-.112 0-1.013-2.139-3.153-5.18-2.139-3.041-5.855-6.87-11.035-9.46-5.067-2.59-10.359-3.379-14.075-3.379-3.716 0-6.081.563-6.081.451 0 0 .563-.225 1.577-.451 1.013-.225 2.589-.45 4.504-.45 3.828-.113 9.121.676 14.413 3.266 5.18 2.703 8.896 6.644 11.035 9.798a21.972 21.972 0 0 1 2.252 3.941c.338.901.563 1.464.563 1.464Z" fill="#263238"/><path opacity=".3" d="M329.027 244.136c-8.22 1.239-18.58 7.433-22.408 14.865-.788 1.577-.113 1.802 0 3.492.113 1.801 1.013 3.603 2.702 4.279 1.689.676 3.829-.225 4.167-2.027-1.014 5.969.338 12.163 3.716 17.231 2.252-1.239 4.166-3.266 5.292-5.631-.45 8.784 2.815 17.681 9.008 23.987-1.351-5.18-2.702-10.36-3.941-15.541-1.464-5.631-2.815-10.361-2.477-16.217.45-6.194 4.054-11.374 6.869-16.442-3.941 1.689-8.446 9.46-12.274 14.077-.563-8.221 2.928-16.217 9.121-21.848" fill="#000"/><path d="m327.561 284.904-.338-.676c-.225-.451-.45-1.126-.788-2.027a32.855 32.855 0 0 1-1.464-7.771c-.225-3.379 0-7.545 1.351-12.05 1.352-4.392 3.829-9.122 7.657-13.177l.338.451c-3.04 2.815-6.306 5.856-9.346 9.347-1.914 2.253-3.603 4.618-4.954 6.983l-.451.788-.113-.901c-.563-4.955.563-9.685 2.478-13.514 1.914-3.829 4.616-6.87 7.432-8.897l.225.338a17.96 17.96 0 0 0-6.081 3.716c-1.576 1.464-2.59 2.928-3.378 4.167a14.083 14.083 0 0 0-1.464 3.041c-.225.788-.45 1.126-.45 1.126s0-.113.112-.338c0-.225.113-.45.226-.901.225-.788.675-1.802 1.464-3.153.788-1.352 1.801-2.816 3.378-4.28 1.576-1.464 3.603-2.928 6.08-3.829l1.464-.563-1.351 1.014a25.013 25.013 0 0 0-7.319 8.784c-1.802 3.829-2.816 8.446-2.365 13.176l-.563-.112c1.351-2.478 3.153-4.843 5.067-7.095 3.04-3.491 6.306-6.532 9.459-9.46l.45.45c-3.828 3.942-6.306 8.559-7.657 12.839-1.351 4.392-1.689 8.446-1.464 11.825.225 3.378.788 5.969 1.351 7.77.226.901.564 1.577.676 2.028.225.675.338.901.338.901Z" fill="#263238"/><path d="M193.902 283.665c4.392 4.842 10.247 8.333 16.666 9.798.788.225 1.576.225 2.139-.338.676-.676.113-1.802-.45-2.703-2.365-3.491-4.73-7.095-7.094-10.586 5.067 4.054 11.147 6.644 17.566 7.658 1.013.112 2.365.225 2.928-.789.45-.788.112-1.689-.226-2.477-1.126-2.365-2.252-4.843-3.603-7.095" fill="#FF6B6B"/><path d="M221.828 277.358s.113.225.338.563c.225.451.563 1.014.901 1.69.45.788.9 1.689 1.351 2.702.225.563.563 1.127.901 1.69.338.563.675 1.238.675 2.027 0 .45-.112.901-.337 1.239-.226.337-.676.563-1.126.675-.901.226-1.802 0-2.59-.112a65.155 65.155 0 0 1-5.518-1.352c-3.828-1.239-7.77-3.266-11.486-6.194l.451-.338c.45.563.788 1.239 1.239 1.802 1.351 2.027 2.702 3.942 3.941 5.856.675.901 1.238 1.915 1.914 2.816.338.45.563 1.013.788 1.577.113.563 0 1.351-.675 1.689-.563.338-1.239.225-1.69.225a29.461 29.461 0 0 1-1.463-.338c-1.014-.225-1.915-.563-2.815-.901a30.89 30.89 0 0 1-4.73-2.252c-2.815-1.577-4.729-3.379-6.08-4.617l-1.464-1.464c-.338-.338-.451-.564-.451-.564s.226.113.563.451l1.464 1.464c1.351 1.239 3.378 2.815 6.081 4.392 1.351.788 2.928 1.577 4.729 2.14.901.338 1.802.563 2.703.901.9.225 2.027.675 2.815.225.338-.225.45-.676.338-1.126-.113-.451-.338-.901-.676-1.352-.676-.901-1.239-1.802-1.914-2.815-1.239-1.915-2.59-3.829-4.054-5.856-.45-.676-.901-1.239-1.239-1.802l-1.013-1.577 1.464 1.126c3.603 2.816 7.544 4.843 11.26 6.194a38.93 38.93 0 0 0 5.405 1.464c.901.113 1.689.338 2.477.113.789-.113 1.239-.788 1.239-1.464 0-.676-.338-1.351-.676-1.914-.337-.564-.563-1.127-.788-1.69a30.337 30.337 0 0 0-1.351-2.703c-.338-.675-.563-1.238-.788-1.689-.113-.676-.226-.901-.113-.901Z" fill="#263238"/><path opacity=".3" d="M221.713 213.616c2.477 4.167 6.193 7.658 10.472 9.798-.225-2.253-1.239-4.505-2.703-6.194a47.56 47.56 0 0 0 16.553 10.248c-5.18 2.365-11.598 2.027-16.44-.901-4.955-2.928-8.333-8.221-8.896-13.852m-29.164-72.414c8.896 17.231 37.835 25.677 60.581 26.015 6.981.113 16.89 5.293 23.872 4.617 15.539-1.464 28.263-9.91 43.803-11.262 9.683-.788 19.48-1.126 29.051-2.702 9.572-1.69 9.121-2.816 16.778-8.897 7.657-6.082 15.877-12.051 15.765-21.848-14.301 17.568-28.489 22.974-50.559 28.154-22.071 5.068-45.042 5.068-67.675 3.942-24.885-1.126-51.122-3.829-71.616-18.019Z" fill="#000"/><path d="M268.558 8.425c.113 0 .225 1.238.563 3.265.338 2.028 1.013 4.73 2.139 7.659 1.126 2.928 2.59 5.293 3.716 7.095 1.126 1.689 1.915 2.702 1.915 2.702s-.226-.225-.676-.563c-.45-.45-.901-1.013-1.576-1.914-1.239-1.69-2.703-4.167-3.942-7.095-1.126-2.928-1.801-5.744-2.026-7.884-.113-1.013-.226-1.914-.226-2.477s0-.788.113-.788Zm7.317-2.928c.113 0-.338 1.126-.788 3.04a24.62 24.62 0 0 0-.563 7.433c.225 2.928 1.013 5.406 1.689 7.208.676 1.802 1.351 2.815 1.239 2.815 0 0-.226-.225-.563-.675-.338-.451-.676-1.127-1.126-2.028-.789-1.802-1.69-4.392-1.915-7.32-.225-2.928.225-5.743.789-7.545.225-.901.563-1.69.788-2.14.225-.563.45-.788.45-.788ZM138.051 192.781l.45-.45c.338-.225.788-.676 1.351-1.126a35.278 35.278 0 0 1 5.518-3.717c4.842-2.928 12.049-5.743 20.494-7.433 8.445-1.576 16.102-1.914 21.732-2.139 2.815-.113 5.068-.113 6.644-.113h2.477s-.225 0-.675.113c-.451 0-1.014 0-1.802.112-1.689.113-3.829.113-6.644.226-5.517.225-13.287.675-21.62 2.252-8.332 1.577-15.539 4.392-20.381 7.208-2.364 1.351-4.279 2.59-5.517 3.603-1.352.901-2.027 1.464-2.027 1.464ZM299.412 10.452c0 .112-1.914-.564-5.067-1.352-1.577-.338-3.491-.676-5.518-.676-2.139 0-4.391.564-6.418 1.802-1.013.676-1.914 1.464-2.59 2.365-.676.901-1.013 1.915-1.239 2.928-.45 2.028-.112 3.942.226 5.519.788 3.153 1.576 4.955 1.463 4.955 0 0-.225-.45-.675-1.239-.338-.788-.901-2.027-1.239-3.604-.45-1.576-.788-3.603-.338-5.743.226-1.126.676-2.14 1.352-3.153.675-1.014 1.576-1.802 2.702-2.478 2.14-1.352 4.617-1.915 6.756-1.915 2.14 0 4.054.338 5.631.789 1.576.45 2.815.9 3.603 1.126.901.45 1.464.676 1.351.676ZM468.43 292.674c-1.239-8.109-5.18-16.105-11.936-20.609-6.756-4.618-16.553-5.181-22.971-.113L406.836 308h56.865c3.153-2.928 5.405-11.047 4.729-15.326Z" fill="#FF6B6B"/><path opacity=".3" d="M430.482 307.54c4.842-2.027 8.333-6.307 10.585-11.037 2.14-4.73 3.153-9.91 4.054-14.978.788-4.279 1.576-8.784-.338-12.726a2.286 2.286 0 0 0-2.252 1.126c-.563.676-.788 1.577-1.126 2.478-4.392 13.852-11.148 25.79-22.296 35.362M310.557 125.21c4.392-2.59 10.585-1.802 14.076 1.915 3.491-4.73 10.022-7.095 15.764-5.744-3.49 1.577-6.981 3.153-9.683 5.744-2.816 2.59-4.842 6.194-4.392 10.023a54.354 54.354 0 0 0-11.936-9.573c-1.802-1.126-4.279-2.027-5.968-.788" fill="#000"/><path d="M349.298 252.019c-6.418 4.617-11.373 11.487-13.737 19.145a36.646 36.646 0 0 0 .675 23.538" fill="#FF6B6B"/><path d="M336.235 294.702s-.112-.113-.225-.451-.338-.676-.45-1.351c-.451-1.127-.901-2.816-1.239-4.956-.788-4.279-.901-10.473 1.013-16.892 1.915-6.42 5.518-11.487 8.558-14.528 1.464-1.577 2.815-2.703 3.829-3.379.45-.338.901-.675 1.126-.788.225-.225.45-.225.45-.225s-.45.45-1.464 1.239c-.901.788-2.252 1.914-3.716 3.491-2.927 3.153-6.418 8.108-8.332 14.415-1.915 6.307-1.915 12.388-1.239 16.555.338 2.14.788 3.829 1.014 4.955.563 1.239.788 1.915.675 1.915Zm113.051-53.72s0 .226-.112.789a29.334 29.334 0 0 0-.338 2.139c-.225 1.915-.676 4.618-1.351 7.884-1.239 6.644-3.266 15.879-6.982 25.564-1.914 4.843-4.053 9.348-6.305 13.177-.563 1.013-1.239 1.914-1.802 2.815-.338.451-.563.901-.901 1.352-.338.45-.563.788-.901 1.238l-1.689 2.365c-.563.676-1.238 1.352-1.801 2.028-.563.675-1.014 1.238-1.577 1.801-.563.564-1.126 1.014-1.576 1.464l-1.352 1.352c-.45.338-.9.676-1.238 1.013a43.789 43.789 0 0 1-1.689 1.352c-.451.338-.563.45-.676.45l.563-.563a15.08 15.08 0 0 0 1.689-1.464c.338-.338.788-.676 1.239-1.013l1.351-1.352 1.464-1.464c.563-.563 1.013-1.126 1.576-1.802l1.689-2.027c.563-.788 1.126-1.464 1.689-2.365.338-.45.563-.788.901-1.239.225-.45.563-.901.789-1.351a61.818 61.818 0 0 0 1.689-2.816c2.252-3.829 4.391-8.333 6.193-13.063 3.716-9.686 5.743-18.808 7.094-25.452.675-3.266 1.126-5.969 1.464-7.884.112-.9.337-1.576.45-2.139.338-.563.45-.789.45-.789Zm-259.098-68.359s.112-.226.563-.564c.45-.337.9-.901 1.576-1.464a28.642 28.642 0 0 1 2.59-2.252c1.013-.901 2.139-1.914 3.491-2.928 2.589-2.14 5.742-4.505 9.346-7.095 3.603-2.478 7.657-5.181 12.161-7.771 4.391-2.59 8.783-4.73 12.724-6.644 4.054-1.915 7.657-3.379 10.81-4.618 1.576-.675 3.04-1.126 4.279-1.576 1.239-.451 2.365-.789 3.265-1.126.901-.226 1.577-.451 2.027-.676.451-.113.676-.225.676-.225l-.676.337c-.563.226-1.238.451-2.027.789-.9.338-1.914.675-3.152 1.126-1.239.45-2.703 1.014-4.167 1.577-3.153 1.238-6.756 2.815-10.697 4.73-3.941 1.914-8.22 4.167-12.724 6.644a206.991 206.991 0 0 0-12.049 7.658 174.904 174.904 0 0 0-9.459 6.983c-1.351 1.013-2.477 2.027-3.49 2.815-1.014.788-1.915 1.577-2.59 2.14a44.61 44.61 0 0 1-1.689 1.351c-.563.676-.788.789-.788.789Zm-31.641-18.808s.112-.112.225-.112c.225-.113.338-.225.676-.451a65.816 65.816 0 0 0 2.477-1.576c1.126-.676 2.365-1.464 3.941-2.365a520.053 520.053 0 0 1 5.405-3.041c1.014-.563 2.027-1.126 3.153-1.689 1.126-.563 2.252-1.126 3.491-1.69 2.364-1.238 5.067-2.365 7.769-3.603 5.518-2.365 11.711-4.73 18.355-6.758 6.643-2.027 13.062-3.603 19.03-4.729 2.927-.564 5.742-1.127 8.445-1.465 1.351-.225 2.59-.45 3.828-.563 1.239-.112 2.365-.225 3.604-.337 2.252-.226 4.279-.338 6.08-.564 1.802-.112 3.378-.225 4.617-.225 1.239 0 2.252-.112 2.928-.112h1.013-.225c-.225 0-.45 0-.788.112-.676 0-1.689.113-2.928.225-1.239.113-2.815.113-4.617.338-1.801.226-3.828.338-6.08.563-1.126.113-2.365.226-3.491.451-1.239.112-2.477.338-3.828.563-2.703.338-5.405.901-8.446 1.464-5.855 1.239-12.273 2.703-18.917 4.73-6.644 2.027-12.837 4.392-18.354 6.644-2.703 1.239-5.405 2.365-7.77 3.492a101.837 101.837 0 0 0-3.491 1.689c-1.126.563-2.139 1.126-3.153 1.689-2.027 1.014-3.828 2.027-5.405 2.928-1.576.901-2.927 1.69-4.053 2.365-1.014.676-1.915 1.126-2.478 1.464l-.675.338-.338.225Zm134.109-37.164c.113.113-2.815 1.351-6.08 3.491-3.266 2.14-5.518 4.392-5.63 4.167-.113-.113 2.027-2.478 5.292-4.73 3.378-2.027 6.418-3.041 6.418-2.928Zm19.031 6.194c0 .113-1.689-.675-4.391-1.351-2.703-.676-6.644-1.352-11.036-1.014-4.279.338-8.22 1.352-10.584 2.816-2.478 1.464-3.266 3.153-3.266 3.153s.113-.45.563-1.126c.451-.676 1.239-1.577 2.477-2.365 2.478-1.577 6.419-2.703 10.81-3.041 4.392-.338 8.446.338 11.148 1.239 1.351.45 2.477.788 3.153 1.126.788.338 1.239.451 1.126.563Z" fill="#263238"/><path d="M274.753 132.193s.901 2.139 1.351 3.153c.338.788.676 1.689.789 2.59.112.901-.113 1.915-.789 2.478-.9.901-2.589.901-3.716.225-1.126-.676-1.801-1.914-2.252-3.153-.45-1.239-.788-2.59-1.351-3.717 0 0 2.365-1.914 1.802-5.405 0 0 1.238 3.603 4.166 3.829Z" fill="#F5F5F5"/><path d="M256.398 120.706s2.816-6.42 10.022-8.334c7.207-1.915 14.639 5.631 14.639 5.631s-8.671-2.591-8.558 1.802c.112 4.279 2.702 4.166-.225 7.095-2.928 2.815-7.77-.113-9.009-3.492l-2.364-3.266-4.505.564Z" fill="#263238"/><path d="M286.126 124.985s0 .113.113.451v1.126c-.113 1.013-.563 2.477-1.689 3.941-1.126 1.464-3.041 2.929-5.518 3.154-2.477.225-5.292-.789-7.094-2.928-.901-1.014-1.464-2.253-1.802-3.492l.564-.112c.788 2.252.225 4.73-.901 6.307-1.126 1.689-2.928 2.477-4.279 2.815-1.464.338-2.703.113-3.378-.225-.338-.113-.676-.225-.901-.338-.225-.113-.225-.113-.225-.225 0 0 .45.112 1.126.337.788.226 1.914.338 3.265 0 1.351-.337 2.928-1.126 3.941-2.702 1.014-1.577 1.464-3.829.788-5.857l.564-.112a6.202 6.202 0 0 0 1.689 3.153c1.689 2.027 4.391 3.041 6.643 2.816 2.365-.226 4.167-1.577 5.18-2.928 1.126-1.352 1.576-2.816 1.802-3.717.112-.901 0-1.464.112-1.464Z" fill="#263238"/><path d="M272.163 113.498c0 .113-.9.113-2.252.113-1.351 0-3.378.112-5.405.675a10.68 10.68 0 0 0-4.616 2.703c-.901 1.014-1.239 1.802-1.352 1.802-.112 0 .113-.901 1.014-2.027.901-1.126 2.59-2.365 4.729-3.041 2.14-.676 4.167-.676 5.518-.563 1.576 0 2.364.225 2.364.338Z" fill="#fff"/><path d="M274.303 141.427c-.113.113-1.464-2.477-2.477-5.856-1.014-3.378-1.352-6.194-1.239-6.194.113 0 .788 2.703 1.802 6.082 1.126 3.266 2.139 5.856 1.914 5.968Zm-80.174 12.614.45-.451c.338-.338.789-.675 1.352-1.013 1.238-.901 2.927-2.14 5.179-3.604 2.252-1.464 4.955-3.153 8.108-4.843a127.731 127.731 0 0 1 10.359-4.955 115.218 115.218 0 0 1 10.81-3.829c3.378-1.014 6.531-1.802 9.121-2.252a98.94 98.94 0 0 1 6.193-1.127c.676-.112 1.239-.112 1.689-.225h.563s-.225.113-.563.113a22.6 22.6 0 0 1-1.689.338c-1.464.225-3.603.675-6.193 1.238-2.59.564-5.63 1.352-9.008 2.365-3.378 1.014-6.982 2.365-10.81 3.829-3.716 1.577-7.207 3.266-10.36 4.843a189.57 189.57 0 0 0-8.107 4.617c-2.252 1.465-4.054 2.591-5.292 3.492-.563.338-1.014.675-1.464 1.013-.113.338-.225.451-.338.451Z" fill="#263238"/><path opacity=".2" d="M261.463 25.204c5.631 16.218 6.306 33.786 5.743 50.904-.338 8.56-.901 17.118-3.603 25.339-2.703 8.109-7.545 15.767-14.864 20.272-6.869 4.279-15.314 5.405-23.421 4.279-7.995-1.013-15.652-4.167-22.859-7.77-8.22-4.167-16.215-9.123-22.633-15.767-6.419-6.645-11.598-15.992-12.724-25.114l11.823 1.351s9.121-1.013 23.309-14.753c15.539-14.978 18.354-16.892 29.952-24.663 14.639-9.685 29.277-14.077 29.277-14.077Z" fill="#fff"/><path d="M225.883 123.971c13.992 0 25.335-11.344 25.335-25.339 0-13.994-11.343-25.339-25.335-25.339-13.993 0-25.336 11.345-25.336 25.34 0 13.994 11.343 25.338 25.336 25.338Z" fill="#F5F5F5"/><path d="M251.331 98.632c0 12.276-8.22 22.186-15.314 22.186-6.981 0-12.724-9.91-12.724-22.186 0-12.275 5.63-22.186 12.724-22.186 6.982-.112 15.314 9.91 15.314 22.186Z" fill="#263238"/><path d="M241.645 90.411a4.392 4.392 0 1 0 0-8.784 4.392 4.392 0 0 0 0 8.784Zm-11.259 24.326-.676-1.014c-.338-.676-.901-1.802-1.351-3.153-.563-1.352-1.014-2.928-1.351-4.843a50.234 50.234 0 0 1-.676-6.081c0-2.14.225-4.28.45-6.194a33.417 33.417 0 0 1 1.239-4.843c.451-1.351.901-2.365 1.351-3.153l.563-1.126c.113 0-.675 1.576-1.464 4.28-.45 1.35-.788 3.04-1.126 4.842-.225 1.802-.45 3.941-.45 6.081 0 2.14.225 4.167.563 6.082a37.573 37.573 0 0 0 1.239 4.842c1.013 2.703 1.801 4.167 1.689 4.28Z" fill="#fff"/><path d="M219.464 66.198c-.113.788-1.014 1.464-2.252 2.027-1.239.563-2.928 1.126-4.617 1.915-1.689.675-3.153 1.464-4.392 2.027-1.238.563-2.252.9-3.04.45-.676-.45-.788-1.69 0-3.266s2.59-3.49 5.067-4.504a10.033 10.033 0 0 1 6.644-.564c1.801.338 2.702 1.127 2.59 1.915Z" fill="#263238"/><path d="m1.813 282.651 8.018-8.897c37.89 29.844 163.355 65.432 275.613-14.865 48.268-34.462 44.337-92.798 44.337-92.798l-9.59-21.623h9.59s27.829 36.714-1.257 84.802c0 0-29.873 56.985-121.377 77.707C62.815 339.636 1.813 282.651 1.813 282.651Z" fill="#FF6B6B"/><path opacity=".7" d="m0 283.5 9.835-9.746c37.89 29.844 163.355 65.432 275.613-14.865 48.268-34.462 44.337-92.798 44.337-92.798l-9.591-21.623h9.591s27.829 36.714-1.258 84.802c0 0-29.872 56.985-121.377 77.707C60.04 356.5 0 283.5 0 283.5Z" fill="#fff"/><path d="M11.412 273.079c.157 0-.158 3.04-2.673 6.306-2.516 3.266-5.975 5.068-6.132 4.955-.157-.112 2.987-2.139 5.346-5.293 2.515-3.153 3.301-6.081 3.459-5.968Zm13.195 10.361c.157 0-.63 2.477-3.302 4.842-2.673 2.365-5.817 3.491-5.974 3.379-.158-.113 2.672-1.464 5.345-3.717 2.516-2.365 3.774-4.617 3.93-4.504Zm21.246 9.234c.157 0 .157 2.703-2.044 5.519-2.201 2.815-5.346 4.392-5.346 4.167-.157-.113 2.673-1.802 4.717-4.505 2.044-2.59 2.516-5.181 2.673-5.181Zm24.507 8.447c.158 0 .787 2.59-.786 5.406-1.572 2.928-4.56 4.504-4.56 4.392-.156-.113 2.36-1.802 3.774-4.618 1.572-2.703 1.258-5.18 1.572-5.18Zm22.49 14.415c-.158 0 .786-2.252.943-4.955.314-2.816-.315-4.955-.157-5.068.157 0 1.1 2.252.943 5.068-.157 2.928-1.415 5.068-1.73 4.955Zm18.56 1.013c-.157-.112.943-2.027 1.258-4.617.314-2.59-.315-4.617 0-4.617.157 0 1.257 2.027.943 4.73-.472 2.59-2.044 4.504-2.201 4.504Zm25.781-.225c-.314 0 .157-1.914-.314-4.279-.472-2.365-1.415-4.055-1.258-4.167.157-.113 1.572 1.689 2.044 4.054.472 2.478-.157 4.505-.472 4.392Zm17.927-1.014c-.314 0-.314-1.801-1.101-3.941-.786-2.14-2.201-3.717-1.886-3.717.157-.112 1.886 1.352 2.673 3.604.786 2.14.471 4.054.314 4.054Zm20.903-3.378c-.315 0-.157-1.802-1.101-3.829-.943-2.027-2.358-3.379-2.201-3.491.157-.113 2.044 1.126 2.987 3.378 1.101 2.14.472 4.055.315 3.942Zm25.776-3.716c-.314 0-.314-2.028-1.415-4.167-1.101-2.253-2.83-3.717-2.673-3.829.157-.113 2.201 1.351 3.459 3.716 1.258 2.252.943 4.28.629 4.28Zm21.863-6.082c-.315 0-1.101-2.027-2.987-4.167-1.887-2.252-3.931-3.716-3.774-3.941.157-.113 2.516 1.239 4.402 3.604 2.044 2.252 2.516 4.504 2.359 4.504Zm24.204-9.122c-.315 0-.944-2.14-2.987-4.392-1.887-2.252-4.246-3.716-4.088-3.829.157-.113 2.83 1.126 4.874 3.604 2.044 2.252 2.515 4.617 2.201 4.617Zm23.752-12.163c-.157.113-1.101-1.914-3.459-3.829-2.201-1.914-4.874-2.815-4.717-3.041 0-.112 2.987.563 5.346 2.591 2.515 2.027 3.144 4.167 2.83 4.279Zm20.434-12.5c-.157.112-2.044-1.69-4.874-3.604-2.83-1.915-5.502-3.041-5.345-3.154.157-.112 2.987.901 5.974 2.816 2.83 1.802 4.403 3.829 4.245 3.942Zm18.243-16.217c-.157.112-1.73-1.69-4.56-3.379-2.673-1.689-5.503-2.478-5.503-2.703 0-.112 3.145.451 5.975 2.253 2.987 1.689 4.245 3.716 4.088 3.829Zm16.19-19.371c-.157.113-2.358-1.577-5.66-2.928-3.459-1.351-6.603-1.689-6.446-1.914 0-.113 3.301-.001 6.918 1.351 3.458 1.464 5.345 3.491 5.188 3.491Zm9.906-20.835c-.157.113-2.83-1.238-6.761-1.914-3.931-.676-7.232-.225-7.232-.451-.157-.112 3.301-.788 7.389-.112s6.761 2.365 6.604 2.477Zm4.408-22.41c-.158.112-2.673-.451-5.975-.676-3.302-.225-5.974 0-5.974-.225 0-.113 2.672-.676 6.131-.338 3.302.225 5.818 1.126 5.818 1.239Zm-1.739-22.412c0 .113-2.043 0-4.402.113-2.358.113-4.402.338-4.402.113 0-.113 1.887-.676 4.402-.789 2.516 0 4.56.451 4.402.563Zm-6.275-15.428c-.157.112-2.044-.563-4.717-.338-2.515.225-4.245 1.126-4.402 1.013 0 0 .315-.338 1.101-.788.786-.338 1.886-.676 3.301-.788a10.014 10.014 0 0 1 3.459.338c.786.225 1.258.45 1.258.563Z" fill="#FF6B6B"/><path opacity=".3" d="M258.876 227.468c5.517 10.361 18.241 15.654 29.839 14.302 11.599-1.464 21.958-8.671 29.277-17.906 5.293-6.87 9.346-15.654 7.094-23.988-5.742 11.825-15.989 21.398-28.263 26.24-12.274 4.843-26.349 4.843-38.511 0" fill="#000"/><path d="M327.111 138.161c-2.59-3.941-3.603-9.009-2.703-13.627.901-4.617 3.604-8.896 7.545-11.712 3.153-2.252 6.869-3.491 9.796-5.856 3.716-3.041 5.743-7.77 6.081-12.5.338-4.73-.901-9.573-3.04-13.853l3.153-1.576s.112.112.225.337c8.895 11.6 4.842 28.493-8.22 34.912-2.59 1.239-4.955 2.703-6.531 4.054-3.941 3.379-2.252 7.208-2.252 7.208" fill="#FF6B6B"/><path opacity=".7" d="M327.111 138.161c-2.59-3.941-3.603-9.009-2.703-13.627.901-4.617 3.604-8.896 7.545-11.712 3.153-2.252 6.869-3.491 9.796-5.856 3.716-3.041 5.743-7.77 6.081-12.5.338-4.73-.901-9.573-3.04-13.853l3.153-1.576s.112.112.225.337c8.895 11.6 4.842 28.493-8.22 34.912-2.59 1.239-4.955 2.703-6.531 4.054-3.941 3.379-2.252 7.208-2.252 7.208" fill="#fff"/><path d="M331.504 125.773c-.113.113-1.689-.563-3.829-.338-2.139.226-3.716 1.239-3.716 1.014-.112-.113 1.351-1.464 3.716-1.577 2.252-.225 3.941.789 3.829.901Zm2.926-8.559c-.113.113-.676-.901-1.577-1.802-.901-.901-1.914-1.464-1.801-1.577 0-.112 1.238.113 2.252 1.239 1.013.901 1.238 2.027 1.126 2.14Zm11.035-6.532c-.113 0-.563-1.013-1.464-2.139s-1.802-1.69-1.802-1.802c0-.113 1.239.338 2.252 1.464 1.014 1.126 1.126 2.477 1.014 2.477Zm7.434-14.077c-.113.113-1.126-.225-2.59-.45-1.352-.226-2.59-.113-2.59-.226 0-.112 1.126-.45 2.702-.338 1.464.226 2.59.901 2.478 1.014Zm-2.59-13.515c0 .113-.901.113-2.027.451-1.014.338-1.802.788-1.914.676-.113-.113.563-.901 1.801-1.239 1.239-.338 2.252 0 2.14.113Zm-104.157 83.451c3.941-2.59 9.234-1.689 13.738-.225s9.121 3.604 13.85 3.153c5.18-.45 9.572-3.941 12.95-7.883a47.09 47.09 0 0 0 9.233-16.555c1.914-6.194 2.815-13.627 8.22-17.231 5.293-3.603 12.837-1.801 17.454 2.591 4.616 4.392 6.869 10.698 8.332 16.892 3.378 14.303 3.491 29.619-1.238 43.584-4.617 13.965-14.188 26.465-27.138 33.56-12.949 6.983-29.277 7.996-42.451 1.464" fill="#FF6B6B"/><path d="M259.101 225.553s.225.113.563.226c.451.225 1.014.45 1.802.788s1.801.676 2.927 1.014c1.126.337 2.478.788 4.054 1.126 3.153.675 6.982 1.126 11.598 1.013 2.252-.112 4.73-.338 7.207-.788 2.477-.45 5.18-1.126 7.882-2.14 5.405-1.914 10.81-5.18 15.877-9.572 5.067-4.392 9.572-10.136 13.175-16.781 3.603-6.644 5.968-14.302 7.094-22.411 1.126-8.108.901-16.78-.563-25.339-.788-4.279-1.689-8.559-3.153-12.501-1.464-3.941-3.603-7.658-6.644-10.36-3.04-2.591-7.094-4.167-10.922-3.942-1.914.112-3.829.676-5.405 1.689-1.577 1.014-2.815 2.478-3.829 4.054-1.914 3.154-2.815 6.87-3.716 10.249-.9 3.491-2.026 6.869-3.603 9.798-1.464 3.04-3.265 5.743-5.292 8.221-1.914 2.477-4.054 4.617-6.531 6.306-2.365 1.69-4.955 2.816-7.545 3.041-2.59.338-5.067-.113-7.319-.788-4.391-1.239-7.995-2.928-11.148-3.491-3.153-.564-5.63-.338-7.206.225-.788.225-1.352.563-1.802.788-.338.225-.563.338-.563.338s.225-.113.563-.338a5.54 5.54 0 0 1 1.802-.788c1.576-.563 4.166-.901 7.319-.338 3.153.45 6.869 2.14 11.148 3.379 2.139.563 4.616 1.013 7.094.675 2.477-.338 5.067-1.351 7.432-3.04 2.364-1.69 4.391-3.83 6.418-6.195 1.914-2.477 3.716-5.18 5.18-8.221 1.464-3.04 2.59-6.306 3.49-9.798.901-3.491 1.802-7.094 3.716-10.473 1.014-1.689 2.252-3.153 3.941-4.28 1.69-1.013 3.604-1.689 5.631-1.801 2.027-.113 4.053.225 5.968.9 1.914.676 3.716 1.69 5.292 3.154 3.153 2.703 5.292 6.532 6.869 10.586 1.464 4.054 2.477 8.221 3.153 12.613 1.464 8.672 1.689 17.344.563 25.452-1.126 8.221-3.604 15.879-7.207 22.636a60.942 60.942 0 0 1-13.287 16.893c-5.067 4.392-10.697 7.658-16.102 9.573-2.703 1.013-5.405 1.689-7.883 2.14-2.59.45-4.954.675-7.206.788-4.617.113-8.446-.451-11.598-1.126-1.577-.338-2.928-.789-4.054-1.126-1.126-.451-2.14-.789-2.928-1.127-.788-.337-1.351-.675-1.689-.788-.338 0-.563-.113-.563-.113Z" fill="#263238"/><path d="M307.52 140.864s-.676-.563-1.352-1.802c-.675-1.238-1.238-3.04-1.238-5.18 0-2.14.675-4.054 1.351-5.181.676-1.238 1.351-1.801 1.351-1.689.113.113-.45.676-1.013 1.915-.563 1.238-1.126 2.928-1.126 4.955s.45 3.829 1.013 5.068c.676 1.239 1.126 1.914 1.014 1.914Zm6.869-1.013s-.563-.676-1.239-1.802c-.563-1.239-1.126-3.041-1.351-5.181-.112-2.139.225-4.054.676-5.293.45-1.351.901-2.027 1.013-2.027.225 0-1.351 3.153-1.013 7.208.225 4.167 2.139 7.095 1.914 7.095Zm5.52 2.027c-.113 0-.901-2.365-.901-5.406.112-3.041 1.013-5.406 1.126-5.406.225 0-.451 2.365-.563 5.406-.113 2.928.45 5.293.338 5.406Z" fill="#263238"/><path d="M413.929 155.955c-10.247 6.307-23.985 5.068-34.682-.563-10.697-5.631-18.805-15.091-25.448-25.001-1.914-2.816-3.829-5.744-6.869-7.546-5.855-3.378-13.963-.112-17.228 5.631-3.379 5.744-2.703 13.064-.113 19.258 0 0 6.869 33.335 42.677 53.945" fill="#FF6B6B"/><path d="M372.153 201.791s-.112 0-.337-.112c-.226-.113-.451-.338-.901-.564-.788-.45-1.914-1.126-3.378-2.027-.676-.45-1.577-.901-2.365-1.576-.901-.676-1.802-1.352-2.815-2.028-1.014-.788-2.14-1.464-3.153-2.364-1.126-.901-2.252-1.915-3.378-2.929-4.617-4.166-9.909-9.685-14.751-16.78-2.477-3.491-4.729-7.433-6.756-11.712-2.027-4.28-3.941-8.897-5.18-13.852-1.577-3.829-2.477-8.109-2.027-12.501.225-2.14.788-4.392 1.914-6.419 1.014-2.027 2.59-3.829 4.504-5.068 2.816-1.915 6.194-3.041 9.459-2.59 1.689.225 3.266.788 4.617 1.689s2.477 2.027 3.491 3.266c1.013 1.239 1.914 2.59 2.702 3.829.901 1.239 1.689 2.478 2.59 3.716a115.757 115.757 0 0 0 5.518 6.983c3.715 4.392 7.769 8.108 11.935 11.036 4.167 2.929 8.446 5.068 12.612 6.307 8.333 2.59 15.652 1.915 20.269.676.563-.113 1.126-.338 1.689-.451.563-.225 1.013-.338 1.464-.563.9-.338 1.576-.675 2.139-1.013.563-.338 1.014-.563 1.239-.676.338-.113.45-.225.45-.225s-.112.112-.45.225c-.338.225-.676.45-1.239.788-.563.338-1.351.676-2.139 1.014-.451.225-.901.338-1.464.563-.451.225-1.014.338-1.689.563-4.617 1.351-12.049 2.14-20.494-.45-4.166-1.239-8.558-3.379-12.837-6.307-4.279-2.928-8.333-6.757-12.049-11.149-1.914-2.14-3.715-4.505-5.517-6.983-.901-1.239-1.802-2.477-2.59-3.716-.901-1.239-1.689-2.59-2.702-3.717-1.014-1.238-2.027-2.365-3.379-3.153-1.351-.788-2.815-1.351-4.391-1.577-3.153-.337-6.418.676-9.121 2.478-3.716 2.478-5.743 6.87-6.081 11.037-.45 4.279.451 8.446 2.027 12.163 1.239 4.955 3.041 9.46 5.067 13.739 2.027 4.28 4.279 8.109 6.757 11.6 4.729 7.095 10.021 12.613 14.638 16.78 1.126 1.014 2.252 2.027 3.378 2.928 1.014.901 2.14 1.689 3.153 2.365a84.115 84.115 0 0 0 2.703 2.027c.788.676 1.689 1.126 2.364 1.577 1.464.901 2.478 1.689 3.266 2.14.338.225.675.45.901.563.225.338.337.45.337.45Z" fill="#263238"/><path d="M339.161 141.652c-.226.113-.901-3.829-3.604-7.77-2.59-3.942-5.968-5.969-5.855-6.194 0-.113.901.338 2.139 1.351 1.239 1.014 2.816 2.478 4.167 4.505 1.351 2.027 2.252 4.054 2.59 5.518.563 1.689.563 2.59.563 2.59Zm6.981-4.504c-.225 0-.337-3.942-2.477-8.334-2.027-4.392-5.18-6.87-4.954-7.095 0 0 .9.563 2.027 1.689 1.126 1.127 2.477 2.928 3.49 5.181 1.014 2.252 1.577 4.392 1.802 5.969.225 1.689.112 2.59.112 2.59Z" fill="#263238"/><path opacity=".3" d="M341.752 184.11c5.743 8.896 14.639 15.766 24.661 19.145 1.126.338 2.252.675 3.378.45 1.126-.225 2.139-1.239 2.139-2.365-11.936-6.532-22.408-15.879-30.065-27.141-.563 3.379-.113 7.095 1.464 10.248" fill="#000"/><path opacity=".2" d="M322.833 203.255c2.815-4.279-8.783-5.293-13.85-4.73-7.32.901-14.414 4.505-19.256 10.136-4.842 5.518-7.657 12.951-7.544 20.384 0 0 22.183 2.477 40.65-25.79Z" fill="#fff"/><path d="M308.308 115.525c13.993 0 25.336-11.345 25.336-25.34 0-13.994-11.343-25.338-25.336-25.338-13.992 0-25.335 11.344-25.335 25.339 0 13.994 11.343 25.339 25.335 25.339Z" fill="#F5F5F5"/><path d="M333.758 91.2c0 12.275-6.418 22.523-13.625 22.523s-12.949-9.911-12.949-22.186c0-12.276 5.855-22.186 12.949-22.186 7.207 0 13.625 9.685 13.625 21.848Z" fill="#263238"/><path d="M313.827 101.785s-.225-.225-.563-.788c-.338-.563-.676-1.351-1.014-2.478-.788-2.14-1.464-5.293-1.351-8.671.113-3.491.901-6.532 1.802-8.672.45-1.013.9-1.914 1.238-2.365.338-.563.563-.788.563-.788.113 0-.563 1.239-1.351 3.379-.788 2.14-1.464 5.067-1.576 8.558-.113 3.38.45 6.42 1.126 8.56.563 1.914 1.238 3.265 1.126 3.265Zm9.568-20.045a4.392 4.392 0 1 0 0-8.784 4.392 4.392 0 0 0 0 8.783Z" fill="#fff"/><path d="M324.75 58.878c-.451.675-1.689.675-3.266.45-1.576-.225-3.49-.675-5.517-1.013-2.14-.338-3.941-.563-5.518-.789-1.464-.225-2.702-.563-3.04-1.239-.338-.675.45-1.914 2.139-2.815.901-.45 1.915-.788 3.153-1.014 1.239-.225 2.703-.225 4.166 0 2.928.451 5.293 1.802 6.532 3.154 1.463 1.351 1.914 2.59 1.351 3.266Z" fill="#263238"/><path d="M313.264 121.944c-3.941-7.996-1.013-18.582 6.419-23.537 7.431-4.956 18.354-3.492 24.097 3.266" fill="#FF6B6B"/><path d="M343.779 101.673s-.564-.563-1.577-1.352c-1.013-.9-2.59-2.027-4.729-2.928-2.14-.9-4.955-1.576-8.108-1.576-3.153 0-6.531.9-9.571 2.815-2.928 2.027-5.067 4.843-6.306 7.771-1.238 2.815-1.689 5.743-1.689 8.108s.451 4.28.788 5.519c.451 1.238.676 1.914.676 1.914s-.113-.112-.225-.45c-.113-.338-.451-.789-.676-1.464a16.243 16.243 0 0 1-1.013-5.631c-.113-2.365.338-5.293 1.576-8.334 1.239-2.928 3.491-5.856 6.531-7.996a18.362 18.362 0 0 1 9.909-2.928c3.266 0 6.081.676 8.22 1.69 2.252 1.013 3.829 2.139 4.73 3.153.563.45.788.9 1.013 1.126.451.338.563.45.451.563Z" fill="#263238"/></svg>