<svg width="34" height="34" viewBox="0 0 34 34" fill="none" xmlns="http://www.w3.org/2000/svg"><path fill="#E5E5E5" d="M0 0h34v34H0z"/><g clip-path="url(#a)"><path fill="#fff" d="M-150-2355h1600v4476H-150z"/><g filter="url(#b)"><rect x="-40" y="-72" width="883" height="712" rx="10" fill="#fff"/></g><circle cx="17" cy="17" r="17" fill="#FFE7E7"/><g clip-path="url(#c)"><path d="M9.966 16.459h-.959a.345.345 0 0 0-.338.279L7.16 24.49a.69.69 0 0 0 .68.82h7.437c0 .38.773.69 1.724.69.952 0 1.725-.31 1.725-.69h7.438a.69.69 0 0 0 .679-.82l-1.51-7.752a.345.345 0 0 0-.338-.28H9.966Z" fill="#E64C3C"/><path d="M17 17.462v6.469a7.98 7.98 0 0 0-1.57-.497 11.796 11.796 0 0 0-6.168.314.348.348 0 0 1-.445-.386l1.148-6.903.097-.583a.348.348 0 0 1 .29-.286c.234-.035.475-.07.716-.097a2.46 2.46 0 0 0 3.038 1.183 1.813 1.813 0 0 0 2.893.786Z" fill="#F5EFCA"/><path d="M24.738 23.748a11.797 11.797 0 0 0-6.169-.314 7.983 7.983 0 0 0-1.569.497v-6.469c.073-.06.14-.125.2-.197.345.137.712.208 1.083.207h.02c.018.247.112.482.27.673.334.33.753.564 1.21.676.332.106.628.301.855.565a.73.73 0 0 0 .845.217.72.72 0 0 0 .4-.879 3.508 3.508 0 0 0-.117-.317 2.69 2.69 0 0 0-.338-.6 2.577 2.577 0 0 0 1.306-1.793c.01-.014.025-.028.035-.042.118-.138.215-.294.286-.462.2.024.397.049.593.08a.347.347 0 0 1 .29.286l.097.583 1.148 6.903a.348.348 0 0 1-.445.386Z" fill="#F9EAB0"/><path d="M18.724 25.31c0 .38-.773.69-1.724.69-.952 0-1.725-.31-1.725-.69l.156-1.875A7.976 7.976 0 0 1 17 23.93a7.977 7.977 0 0 1 1.569-.497l.155 1.876Z" fill="#C03A2B"/><path d="M23.209 14.79c0 .248-.052.493-.152.72a1.818 1.818 0 0 1-.286.463l-.035.041a2.576 2.576 0 0 1-1.307 1.793c.138.185.252.387.338.6.045.104.083.21.118.317a.72.72 0 0 1-.4.88.73.73 0 0 1-.845-.218 1.887 1.887 0 0 0-.855-.565 2.595 2.595 0 0 1-1.21-.676 1.194 1.194 0 0 1-.27-.672h-.02c-.371 0-.739-.07-1.083-.207-.06.071-.128.137-.2.196a1.813 1.813 0 0 1-2.893-.786 2.568 2.568 0 0 1-.852.152 2.464 2.464 0 0 1-1.972-3.938 1.069 1.069 0 0 1 .8-1.407 1.358 1.358 0 0 1 .11-.683 1.39 1.39 0 0 1 1.88-.7 2.036 2.036 0 0 1 1.751-.996 2 2 0 0 1 1.338.507 1.069 1.069 0 0 1 1.896.155 2.572 2.572 0 0 1 2.855 2.341h.011a1.07 1.07 0 0 1 1.069 1.073c0 .185-.048.368-.138.53.229.314.352.692.352 1.08Z" fill="#FB7B76"/><path d="M17.001 7.034a.345.345 0 0 1-.345-.344v-.345a.345.345 0 0 1 .69 0v.345c0 .19-.154.344-.345.344Zm5.557 2.374a.345.345 0 0 1-.244-.588l.345-.345a.345.345 0 1 1 .487.487l-.345.345a.345.345 0 0 1-.243.101Zm-11.114 0a.345.345 0 0 1-.244-.1l-.345-.346a.345.345 0 1 1 .488-.487l.345.345a.345.345 0 0 1-.244.588Zm2.653-1.451a.345.345 0 0 1-.318-.213l-.396-.956a.345.345 0 1 1 .637-.264l.396.956a.345.345 0 0 1-.319.477Zm5.807 0a.345.345 0 0 1-.319-.477l.396-.956a.345.345 0 1 1 .637.264l-.396.956a.345.345 0 0 1-.319.213Zm4.106 4.106a.345.345 0 0 1-.132-.664l.956-.396a.345.345 0 0 1 .264.637l-.956.396a.344.344 0 0 1-.132.027Zm-14.018 0a.344.344 0 0 1-.132-.027l-.956-.396a.345.345 0 1 1 .264-.637l.956.396a.345.345 0 0 1-.132.664Z" fill="#F0C419"/><path d="M22.769 15.972c-.01.014-.024.028-.035.042-.06.332-.187.649-.372.93-.18.052-.367.078-.555.077a2.175 2.175 0 0 1-.983-.238 2.256 2.256 0 0 1-.403-.276 1.195 1.195 0 0 1-1.507-.58.345.345 0 1 1 .617-.31.517.517 0 0 0 .748.19.506.506 0 0 0 .221-.417.526.526 0 0 0-.052-.231.345.345 0 0 1 .614-.31c.084.167.128.353.128.54a1.191 1.191 0 0 1-.218.673c.056.038.11.076.166.107a1.462 1.462 0 0 0 1.63-.197Zm-4.218-1.353a2.06 2.06 0 0 0 .855-1.313.345.345 0 1 0-.677-.13c-.068.356-.273.67-.571.876a1.408 1.408 0 0 1-1.815-.207.345.345 0 0 0-.51.465 2.08 2.08 0 0 0 1.104.638 1.027 1.027 0 0 1-.839.431.345.345 0 1 0 0 .69 1.71 1.71 0 0 0 1.607-1.106 2.07 2.07 0 0 0 .846-.344Zm3.216 3.788a2.7 2.7 0 0 1-.807.262.345.345 0 1 1-.107-.683c.2-.03.394-.09.576-.18.138.185.251.387.338.6ZM14.083 16a1.756 1.756 0 0 0-.027.293c-.001.13.016.258.051.383a2.572 2.572 0 0 1-.672.144 2.13 2.13 0 0 1-.07-.517 1.199 1.199 0 0 1-1.068-1.19.35.35 0 0 1 .345-.351.343.343 0 0 1 .345.341v.01c.005.273.22.495.493.507.047-.155.113-.304.196-.444a.34.34 0 0 1 .473-.118.35.35 0 0 1 .117.476c-.088.143-.15.301-.183.466Zm5.129 2.017a2.91 2.91 0 0 1-.638.128 1.194 1.194 0 0 1-.27-.673c.034 0 .067 0 .1-.003.206-.013.408-.05.604-.11a.345.345 0 1 1 .204.658Zm-2.97-6.155a.345.345 0 0 0-.345-.345 1.588 1.588 0 0 0-1.587 1.586.345.345 0 1 0 .69 0 .897.897 0 0 1 .897-.896c.19 0 .345-.155.345-.345ZM11.741 13.8a.34.34 0 0 1-.177-.049 1.419 1.419 0 0 1 .727-2.634 1.4 1.4 0 0 1 1.134.572.345.345 0 0 1-.554.412.715.715 0 0 0-.579-.293.729.729 0 0 0-.372 1.353.345.345 0 0 1-.179.64Zm7.4-3.28a.345.345 0 0 1-.344-.344.725.725 0 1 0-1.451 0 .345.345 0 0 1-.69 0 1.415 1.415 0 0 1 2.83 0 .345.345 0 0 1-.345.345Zm3.235 3.977a.345.345 0 0 1-.147-.655.736.736 0 0 0 .326-.302.724.724 0 0 0-1.066-.94.345.345 0 1 1-.413-.552c.24-.183.535-.283.837-.285a1.418 1.418 0 0 1 .61 2.702.342.342 0 0 1-.147.032Z" fill="#FF5364"/></g></g><defs><clipPath id="a"><path fill="#fff" transform="translate(-150 -2355)" d="M0 0h1600v4476H0z"/></clipPath><clipPath id="c"><path fill="#fff" transform="translate(7 6)" d="M0 0h20v20H0z"/></clipPath><filter id="b" x="-100" y="-122" width="1003" height="832" filterUnits="userSpaceOnUse" color-interpolation-filters="sRGB"><feFlood flood-opacity="0" result="BackgroundImageFix"/><feColorMatrix in="SourceAlpha" values="0 0 0 0 0 0 0 0 0 0 0 0 0 0 0 0 0 0 127 0" result="hardAlpha"/><feOffset dy="10"/><feGaussianBlur stdDeviation="30"/><feColorMatrix values="0 0 0 0 0.164706 0 0 0 0 0.401569 0 0 0 0 0.756863 0 0 0 0.15 0"/><feBlend in2="BackgroundImageFix" result="effect1_dropShadow_0_1"/><feBlend in="SourceGraphic" in2="effect1_dropShadow_0_1" result="shape"/></filter></defs></svg>