<svg width="20" height="20" viewBox="0 0 20 20" fill="none" xmlns="http://www.w3.org/2000/svg"><g clip-path="url(#a)"><path d="M0 10c0 1.223.22 2.395.622 3.478l9.378.87 9.378-.87A9.978 9.978 0 0 0 20 10c0-1.223-.22-2.395-.622-3.478L10 5.652l-9.378.87A9.979 9.979 0 0 0 0 10Z" fill="#FFDA44"/><path d="M19.38 6.522a10.004 10.004 0 0 0-18.756 0h18.755ZM.623 13.478a10.004 10.004 0 0 0 18.756 0H.623Z" fill="#D80027"/></g><defs><clipPath id="a"><path fill="#fff" d="M0 0h20v20H0z"/></clipPath></defs></svg>