<svg><defs><symbol id="student" viewBox="0 0 28 20" xmlns="http://www.w3.org/2000/svg"><path d="M27.377 5.749 14.262.066a.839.839 0 0 0-.65 0L.492 5.749A.805.805 0 0 0 0 6.503c0 .333.191.623.492.754l4.754 2.06v5.492C5.246 17.72 9.06 20 13.934 20c4.875 0 8.689-2.279 8.689-5.191V9.317l.984-.426 1.639-.71 2.131-.924a.805.805 0 0 0 .492-.754.814.814 0 0 0-.492-.754Zm-6.344 2.47-7.099 3.076L2.88 6.503 13.934 1.71 24.99 6.503l-.995.431-2.961 1.285ZM6.885 10.027l6.722 2.913a.839.839 0 0 0 .65 0l6.721-2.913v4.782c0 .847-.688 1.71-1.885 2.377-1.366.76-3.202 1.18-5.17 1.18-1.961 0-3.797-.42-5.163-1.18-1.197-.667-1.886-1.53-1.886-2.377v-4.782h.011Z"/></symbol><symbol id="notify" viewBox="0 0 17 20" xmlns="http://www.w3.org/2000/svg"><path d="M16.153 14.686a5.288 5.288 0 0 1-1.877-4.042v-2.28a5.92 5.92 0 0 0-5.107-5.858V.805a.804.804 0 1 0-1.61 0v1.7a5.924 5.924 0 0 0-5.107 5.859v2.28c0 1.56-.686 3.038-1.885 4.05a1.624 1.624 0 0 0 1.054 2.854h3.59A3.264 3.264 0 0 0 8.368 20a3.264 3.264 0 0 0 3.157-2.452h3.586c.893 0 1.62-.728 1.62-1.62 0-.476-.21-.928-.578-1.242ZM8.364 18.39a1.65 1.65 0 0 1-1.437-.843h2.874c-.28.502-.82.843-1.437.843Zm-6.743-2.452c-.004 0-.012-.008-.012-.012s0-.008.004-.011a6.886 6.886 0 0 0 2.448-5.272v-2.28A4.309 4.309 0 0 1 8.364 4.06a4.309 4.309 0 0 1 4.303 4.303v2.28c0 2.034.892 3.957 2.448 5.272a.012.012 0 0 1 .004.007c0 .004-.008.012-.012.012H1.621v.004Z"/></symbol><symbol id="mess" viewBox="0 0 20 20" xmlns="http://www.w3.org/2000/svg"><path d="M16.79 2.88A9.716 9.716 0 0 0 9.87 0h-.112l-.006.006C4.372.053 0 4.46 0 9.84c0 2.147.726 4.265 2.041 5.97L.708 18.903a.776.776 0 0 0-.006.607.75.75 0 0 0 .413.425.83.83 0 0 0 .319.065c.04 0 .088-.006.135-.012l5.039-.885a9.47 9.47 0 0 0 3.162.543h.041c5.422 0 9.835-4.413 9.835-9.835a9.73 9.73 0 0 0-2.855-6.932ZM3.677 15.993a.793.793 0 0 0-.124-.826 7.93 7.93 0 0 1-1.405-2.336 8.145 8.145 0 0 1-.566-2.997c0-4.555 3.705-8.266 8.266-8.266h.017c4.525 0 8.213 3.682 8.219 8.207v.03c0 4.56-3.705 8.27-8.266 8.27a8.119 8.119 0 0 1-2.85-.518.77.77 0 0 0-.418-.042l-3.817.667.944-2.189Z"/><path d="M6.59 9.227H13a.784.784 0 1 0 0-1.57H6.59a.784.784 0 1 0 0 1.57Zm6.471 2.608a.784.784 0 1 0 0-1.57H6.59a.784.784 0 1 0 0 1.57h6.472Z"/></symbol><symbol id="user" viewBox="0 0 20 20" xmlns="http://www.w3.org/2000/svg"><path d="M18.413 12.696c-.662-.583-1.466-1.086-2.389-1.496a.781.781 0 1 0-.634 1.428c.778.346 1.448.763 1.992 1.242a3.115 3.115 0 0 1 1.055 2.34v1.446c0 .431-.35.782-.78.782H2.343a.782.782 0 0 1-.781-.782v-1.445c0-.899.384-1.752 1.055-2.341.79-.694 3.089-2.307 7.382-2.307a5.788 5.788 0 0 0 5.781-5.782A5.788 5.788 0 0 0 10 0a5.788 5.788 0 0 0-5.781 5.781c0 1.864.886 3.524 2.26 4.582-2.513.552-4.076 1.616-4.893 2.333A4.678 4.678 0 0 0 0 16.21v1.445A2.346 2.346 0 0 0 2.344 20h15.312A2.346 2.346 0 0 0 20 17.656v-1.445c0-1.348-.578-2.63-1.587-3.515ZM5.781 5.78A4.224 4.224 0 0 1 10 1.563a4.224 4.224 0 0 1 4.219 4.218A4.224 4.224 0 0 1 10 10a4.224 4.224 0 0 1-4.219-4.219Z" fill="url(#paint0_linear_342_132)"/><defs><linearGradient id="paint0_linear_342_132" x1="0" y1="10" x2="20" y2="10" gradientUnits="userSpaceOnUse"><stop stop-color="#F04973"/><stop offset="1" stop-color="#FA6655"/></linearGradient></defs></symbol><symbol id="facebook" viewBox="0 0 7 17" xmlns="http://www.w3.org/2000/svg"><symbol id="facebook" viewBox="0 0 7 17" xmlns="http://www.w3.org/2000/svg"><path d="M1.442 17h2.982V8.5h2.02l.24-3.003h-2.26V3.74c0-.68.384-.793.625-.793h1.634V0H4.472c-2.5 0-3.03 2.153-3.03 3.57v1.927H0V8.5h1.442V17Z"/></symbol><symbol id="instagram" viewBox="0 0 17 17" xmlns="http://www.w3.org/2000/svg"><path d="M13.478 0H3.23C1.448 0 0 1.473 0 3.287v10.426C0 15.527 1.448 17 3.23 17h10.248c1.783 0 3.23-1.473 3.23-3.287V3.287c0-1.814-1.447-3.287-3.23-3.287Zm.947 1.983h.39v2.89h-2.84v-2.89h2.45ZM5.96 6.743c.557-.736 1.393-1.246 2.395-1.246 1.003 0 1.838.51 2.395 1.246.334.51.557 1.077.557 1.757 0 1.643-1.336 3.003-2.952 3.003-1.615 0-2.952-1.36-2.952-3.003 0-.68.223-1.247.557-1.757Zm9.135 6.97c0 .907-.724 1.644-1.616 1.644H3.23c-.89 0-1.615-.737-1.615-1.644v-6.97h2.506A4.688 4.688 0 0 0 3.787 8.5c0 2.55 2.061 4.647 4.567 4.647 2.507 0 4.567-2.097 4.567-4.647 0-.623-.111-1.19-.334-1.757h2.507v6.97Z"/></symbol><symbol id="twitter" viewBox="0 0 20 17" xmlns="http://www.w3.org/2000/svg"><path fill-rule="evenodd" clip-rule="evenodd" d="m9.524 4.522.043.736-.709-.09c-2.58-.346-4.833-1.516-6.746-3.482L1.176.711l-.24.72c-.51 1.606-.185 3.301.878 4.442.567.63.44.72-.538.345-.34-.12-.638-.21-.667-.165-.099.105.241 1.47.51 2.01.37.751 1.12 1.486 1.942 1.921l.695.346-.822.015c-.794 0-.822.015-.737.33.283.975 1.403 2.01 2.65 2.46l.879.316-.765.48a7.701 7.701 0 0 1-3.799 1.11c-.638.015-1.162.076-1.162.12 0 .15 1.73.991 2.735 1.321 3.02.976 6.605.555 9.298-1.11 1.913-1.186 3.827-3.542 4.72-5.823.482-1.215.963-3.436.963-4.502 0-.69.043-.78.837-1.605.467-.48.907-1.006.992-1.156.142-.285.127-.285-.595-.03-1.205.45-1.375.39-.78-.285.44-.48.964-1.35.964-1.605 0-.045-.213.03-.454.165-.255.15-.822.375-1.247.51l-.765.255-.695-.495c-.383-.27-.921-.57-1.205-.66-.722-.21-1.828-.18-2.48.06a4.3 4.3 0 0 0-2.764 4.321Z"/></symbol><symbol id="whatsup" viewBox="0 0 17 17" xmlns="http://www.w3.org/2000/svg"><path d="M12.963 1.275C11.688.425 10.093 0 8.5 0 3.825 0 0 3.825 0 8.5c0 1.594.425 3.188 1.381 4.569L0 16.469c0 .212 0 .425.212.531h.213l3.506-1.275C7.862 18.169 13.175 17 15.62 12.963 18.169 9.03 17 3.719 12.963 1.274Zm-.213 9.669c-.213 1.062-1.063 1.806-2.125 1.806-1.063 0-3.294-1.381-4.144-2.231-.85-.85-2.231-3.082-2.231-4.144 0-1.063.744-1.912 1.806-2.125H6.8c.106 0 .213.106.319.213 0 0 .425.85.744 1.38.212.638-.426 1.382-.744 1.7.212.532.531 1.063.85 1.382.531.425.956.744 1.487.956.319-.319 1.063-.956 1.7-.637.531.319 1.381.744 1.381.744.107 0 .213.106.213.318v.638Z"/></symbol><symbol id="telegram" viewBox="0 0 17 15" xmlns="http://www.w3.org/2000/svg"><path d="M1.442 17h2.982V8.5h2.02l.24-3.003h-2.26V3.74c0-.68.384-.793.625-.793h1.634V0H4.472c-2.5 0-3.03 2.153-3.03 3.57v1.927H0V8.5h1.442V17Z"/></symbol><symbol id="instagram" viewBox="0 0 17 17" xmlns="http://www.w3.org/2000/svg"><path d="M13.478 0H3.23C1.448 0 0 1.473 0 3.287v10.426C0 15.527 1.448 17 3.23 17h10.248c1.783 0 3.23-1.473 3.23-3.287V3.287c0-1.814-1.447-3.287-3.23-3.287Zm.947 1.983h.39v2.89h-2.84v-2.89h2.45ZM5.96 6.743c.557-.736 1.393-1.246 2.395-1.246 1.003 0 1.838.51 2.395 1.246.334.51.557 1.077.557 1.757 0 1.643-1.336 3.003-2.952 3.003-1.615 0-2.952-1.36-2.952-3.003 0-.68.223-1.247.557-1.757Zm9.135 6.97c0 .907-.724 1.644-1.616 1.644H3.23c-.89 0-1.615-.737-1.615-1.644v-6.97h2.506A4.688 4.688 0 0 0 3.787 8.5c0 2.55 2.061 4.647 4.567 4.647 2.507 0 4.567-2.097 4.567-4.647 0-.623-.111-1.19-.334-1.757h2.507v6.97Z"/></symbol><symbol id="twitter" viewBox="0 0 20 17" xmlns="http://www.w3.org/2000/svg"><path fill-rule="evenodd" clip-rule="evenodd" d="m9.524 4.522.043.736-.709-.09c-2.58-.346-4.833-1.516-6.746-3.482L1.176.711l-.24.72c-.51 1.606-.185 3.301.878 4.442.567.63.44.72-.538.345-.34-.12-.638-.21-.667-.165-.099.105.241 1.47.51 2.01.37.751 1.12 1.486 1.942 1.921l.695.346-.822.015c-.794 0-.822.015-.737.33.283.975 1.403 2.01 2.65 2.46l.879.316-.765.48a7.701 7.701 0 0 1-3.799 1.11c-.638.015-1.162.076-1.162.12 0 .15 1.73.991 2.735 1.321 3.02.976 6.605.555 9.298-1.11 1.913-1.186 3.827-3.542 4.72-5.823.482-1.215.963-3.436.963-4.502 0-.69.043-.78.837-1.605.467-.48.907-1.006.992-1.156.142-.285.127-.285-.595-.03-1.205.45-1.375.39-.78-.285.44-.48.964-1.35.964-1.605 0-.045-.213.03-.454.165-.255.15-.822.375-1.247.51l-.765.255-.695-.495c-.383-.27-.921-.57-1.205-.66-.722-.21-1.828-.18-2.48.06a4.3 4.3 0 0 0-2.764 4.321Z"/></symbol><symbol id="whatsup" viewBox="0 0 17 17" xmlns="http://www.w3.org/2000/svg"><path d="M12.963 1.275C11.688.425 10.093 0 8.5 0 3.825 0 0 3.825 0 8.5c0 1.594.425 3.188 1.381 4.569L0 16.469c0 .212 0 .425.212.531h.213l3.506-1.275C7.862 18.169 13.175 17 15.62 12.963 18.169 9.03 17 3.719 12.963 1.274Zm-.213 9.669c-.213 1.062-1.063 1.806-2.125 1.806-1.063 0-3.294-1.381-4.144-2.231-.85-.85-2.231-3.082-2.231-4.144 0-1.063.744-1.912 1.806-2.125H6.8c.106 0 .213.106.319.213 0 0 .425.85.744 1.38.212.638-.426 1.382-.744 1.7.212.532.531 1.063.85 1.382.531.425.956.744 1.487.956.319-.319 1.063-.956 1.7-.637.531.319 1.381.744 1.381.744.107 0 .213.106.213.318v.638Z"/></symbol><symbol id="telegram" viewBox="0 0 17 15" xmlns="http://www.w3.org/2000/svg"><path d="m6.67 9.753-.28 3.955c.402 0 .576-.172.785-.38l1.886-1.803 3.909 2.863c.716.4 1.222.189 1.415-.66l2.566-12.022C17.18.646 16.568.232 15.87.492L.79 6.265c-1.03.4-1.014.974-.176 1.233l3.856 1.2 8.955-5.604c.422-.279.805-.125.49.154L6.67 9.753Z"/></symbol><symbol id="viber" viewBox="0 0 16 17" xmlns="http://www.w3.org/2000/svg"><path d="M9.346 0H5.94A5.95 5.95 0 0 0 0 5.941V8.5a5.961 5.961 0 0 0 3.404 5.378v2.84c0 .239.304.369.477.195l2.472-2.472h2.993A5.95 5.95 0 0 0 15.287 8.5V5.941A5.95 5.95 0 0 0 9.346 0Zm2.58 10.668c-.087.369-.26.694-.52.954-.369.37-.846.543-1.432.543a4.23 4.23 0 0 1-.498-.044c-1.345-.217-3.231-.867-4.467-2.103l-.022-.022C3.773 8.76 3.101 6.874 2.884 5.53c-.13-.802.043-1.474.499-1.93.26-.26.607-.455.954-.52h.108l1.388.26a.279.279 0 0 1 .217.217l.39 1.995a.249.249 0 0 1-.087.26l-.802.803c.672 1.43 1.431 2.19 2.797 2.797l.824-.824c.065-.065.174-.087.26-.087l1.995.39a.279.279 0 0 1 .217.217l.26 1.388c.022.108.022.13.022.173ZM8.218 4.25c-.087 0-.173 0-.26.022a.262.262 0 0 1-.304-.26.262.262 0 0 1 .26-.304c.109-.022.217-.022.304-.022a2.85 2.85 0 0 1 2.84 2.84c0 .11 0 .218-.021.304a.304.304 0 0 1-.304.26.304.304 0 0 1-.26-.303c0-.087.022-.173.022-.26-.022-1.258-1.04-2.277-2.277-2.277ZM9.91 6.505c0 .152-.13.282-.281.282a.287.287 0 0 1-.282-.282 1.12 1.12 0 0 0-1.128-1.127.287.287 0 0 1-.282-.282c0-.152.13-.282.282-.282.933 0 1.691.759 1.691 1.691Zm2.169.933c-.044.151-.195.26-.347.216a.278.278 0 0 1-.195-.347c.065-.26.086-.52.086-.78a3.41 3.41 0 0 0-3.404-3.405h-.26c-.152.022-.282-.108-.304-.26-.021-.152.109-.282.26-.303.109 0 .196-.022.304-.022 2.19.022 3.968 1.8 3.968 3.968 0 .325-.043.629-.108.933Z"/></symbol><symbol xmlns="http://www.w3.org/2000/svg" viewBox="0 0 13 13" id="star"><g clip-path="url(#clip0_280_4977)"><path d="M6.063.294A.455.455 0 0 1 6.483 0c.176 0 .35.11.456.294l1.612 3.452c.07.147.21.257.385.294l3.61.55c.175.037.35.184.42.368.07.183 0 .404-.14.55L10.198 8.19a.56.56 0 0 0-.14.478l.63 3.782a.504.504 0 0 1-.21.514.458.458 0 0 1-.525.037l-3.224-1.8a.498.498 0 0 0-.456 0L3.05 13a.458.458 0 0 1-.526-.037c-.14-.11-.245-.33-.21-.514l.63-3.782c.035-.184-.035-.33-.14-.478L.176 5.51c-.14-.147-.175-.368-.14-.551a.55.55 0 0 1 .42-.368l3.61-.55a.545.545 0 0 0 .385-.294L6.063.294Z"/></g><defs><clipPath id="clip0_280_4977"><path fill="#fff" d="M0 0h13v13H0z"/></clipPath></defs></symbol><symbol id="slider-arrow" viewBox="0 0 8 50" fill="none" xmlns="http://www.w3.org/2000/svg"><path d="M3.646 49.444a.5.5 0 0 0 .708 0l3.182-3.181a.5.5 0 1 0-.708-.708L4 48.384l-2.828-2.829a.5.5 0 1 0-.708.708l3.182 3.181ZM3.5 0v49.09h1V0h-1Z" fill="#C7D3E4"/></symbol></symbol><symbol id="like" viewBox="0 0 21 19" xmlns="http://www.w3.org/2000/svg"><path d="M19.28 1.815A5.916 5.916 0 0 0 15.001 0c-1.61 0-3.172.657-4.266 1.803l-.233.24-.234-.24C9.174.657 7.612 0 6.002 0a5.907 5.907 0 0 0-4.28 1.815 6.224 6.224 0 0 0 .013 8.61l8.103 8.3c.172.18.418.275.664.275a.916.916 0 0 0 .639-.25l.037-.037 8.102-8.3a6.221 6.221 0 0 0 0-8.598ZM8.94 3.045l.91.932a.988.988 0 0 0 .664.262.925.925 0 0 0 .664-.274l.897-.92a4.03 4.03 0 0 1 2.939-1.254c1.008 0 1.967.37 2.705 1.027.073.072.16.144.221.227 1.648 1.72 1.672 4.383.05 6.103l-7.476 7.667-7.439-7.631a4.444 4.444 0 0 1 0-6.15A4.057 4.057 0 0 1 6.002 1.79c1.008 0 1.967.37 2.704 1.027.074.072.16.144.234.227Z" fill="#454B58"/></symbol><symbol id="greyStar" viewBox="0 0 13 13" xmlns="http://www.w3.org/2000/svg"><path d="M6.063.294A.455.455 0 0 1 6.483 0c.176 0 .35.11.456.294l1.612 3.452c.07.147.21.257.385.294l3.61.55c.175.037.35.184.42.368.07.183 0 .404-.14.55L10.198 8.19a.56.56 0 0 0-.14.478l.63 3.782a.504.504 0 0 1-.21.514.458.458 0 0 1-.525.037l-3.224-1.8a.498.498 0 0 0-.456 0L3.05 13a.458.458 0 0 1-.526-.037c-.14-.11-.245-.33-.21-.514l.63-3.782c.035-.184-.035-.33-.14-.478L.176 5.51c-.14-.147-.175-.368-.14-.551a.55.55 0 0 1 .42-.368l3.61-.55a.545.545 0 0 0 .385-.294L6.063.294Z"/></symbol><symbol id="yellowStar" viewBox="0 0 13 13" xmlns="http://www.w3.org/2000/svg"><path d="M6.063.294A.455.455 0 0 1 6.483 0c.176 0 .35.11.456.294l1.612 3.452c.07.147.21.257.385.294l3.61.55c.175.037.35.184.42.368.07.183 0 .404-.14.55L10.198 8.19a.56.56 0 0 0-.14.478l.63 3.782a.504.504 0 0 1-.21.514.458.458 0 0 1-.525.037l-3.224-1.8a.498.498 0 0 0-.456 0L3.05 13a.458.458 0 0 1-.526-.037c-.14-.11-.245-.33-.21-.514l.63-3.782c.035-.184-.035-.33-.14-.478L.176 5.51c-.14-.147-.175-.368-.14-.551a.55.55 0 0 1 .42-.368l3.61-.55a.545.545 0 0 0 .385-.294L6.063.294Z"/></symbol><symbol id="play" viewBox="0 0 11 13" xmlns="http://www.w3.org/2000/svg"><path d="m9.963 6.24-8.585 4.956V1.283l8.585 4.956Z" stroke-width="2"/></symbol><symbol id="like" viewBox="0 0 21 19" xmlns="http://www.w3.org/2000/svg"><path d="M19.28 1.815A5.916 5.916 0 0 0 15.001 0c-1.61 0-3.172.657-4.266 1.803l-.233.24-.234-.24C9.174.657 7.612 0 6.002 0a5.907 5.907 0 0 0-4.28 1.815 6.224 6.224 0 0 0 .013 8.61l8.103 8.3c.172.18.418.275.664.275a.916.916 0 0 0 .639-.25l.037-.037 8.102-8.3a6.221 6.221 0 0 0 0-8.598ZM8.94 3.045l.91.932a.988.988 0 0 0 .664.262.925.925 0 0 0 .664-.274l.897-.92a4.03 4.03 0 0 1 2.939-1.254c1.008 0 1.967.37 2.705 1.027.073.072.16.144.221.227 1.648 1.72 1.672 4.383.05 6.103l-7.476 7.667-7.439-7.631a4.444 4.444 0 0 1 0-6.15A4.057 4.057 0 0 1 6.002 1.79c1.008 0 1.967.37 2.704 1.027.074.072.16.144.234.227Z" fill="#454B58"/></symbol><symbol id="greyStar" viewBox="0 0 13 13" xmlns="http://www.w3.org/2000/svg"><path d="M6.063.294A.455.455 0 0 1 6.483 0c.176 0 .35.11.456.294l1.612 3.452c.07.147.21.257.385.294l3.61.55c.175.037.35.184.42.368.07.183 0 .404-.14.55L10.198 8.19a.56.56 0 0 0-.14.478l.63 3.782a.504.504 0 0 1-.21.514.458.458 0 0 1-.525.037l-3.224-1.8a.498.498 0 0 0-.456 0L3.05 13a.458.458 0 0 1-.526-.037c-.14-.11-.245-.33-.21-.514l.63-3.782c.035-.184-.035-.33-.14-.478L.176 5.51c-.14-.147-.175-.368-.14-.551a.55.55 0 0 1 .42-.368l3.61-.55a.545.545 0 0 0 .385-.294L6.063.294Z"/></symbol><symbol id="yellowStar" viewBox="0 0 13 13" xmlns="http://www.w3.org/2000/svg"><path d="M6.063.294A.455.455 0 0 1 6.483 0c.176 0 .35.11.456.294l1.612 3.452c.07.147.21.257.385.294l3.61.55c.175.037.35.184.42.368.07.183 0 .404-.14.55L10.198 8.19a.56.56 0 0 0-.14.478l.63 3.782a.504.504 0 0 1-.21.514.458.458 0 0 1-.525.037l-3.224-1.8a.498.498 0 0 0-.456 0L3.05 13a.458.458 0 0 1-.526-.037c-.14-.11-.245-.33-.21-.514l.63-3.782c.035-.184-.035-.33-.14-.478L.176 5.51c-.14-.147-.175-.368-.14-.551a.55.55 0 0 1 .42-.368l3.61-.55a.545.545 0 0 0 .385-.294L6.063.294Z"/></symbol><symbol viewBox="0 0 20 20" id="important"><g clip-path="url(#clip0_319_249)"><path d="M10 0C4.486 0 0 4.486 0 10s4.486 10 10 10 10-4.486 10-10S15.514 0 10 0Zm0 17.814c-4.309 0-7.814-3.505-7.814-7.814S5.69 2.186 10 2.186 17.814 5.69 17.814 10 14.31 17.814 10 17.814Z"/><rect width="1.8" height="7" rx=".9" transform="matrix(1 0 0 -1 9.102 15)"/><circle cx="1" cy="1" r="1" transform="matrix(1 0 0 -1 9 7)"/></g><defs><clipPath id="clip0_319_249"><path fill="#fff" d="M0 0h20v20H0z"/></clipPath></defs></symbol><symbol xmlns="http://www.w3.org/2000/svg" viewBox="0 0 20 20" id="chat"><g clip-path="url(#clip0_319_256)"><path d="m19.932 15.81-1.605-3.962a.982.982 0 0 0-1.293-.548 1 1 0 0 0-.54.533.977.977 0 0 0-.007.76l.692 1.704-2.16-.951a1.019 1.019 0 0 0-.79-.008 7.09 7.09 0 0 1-2.815.57c-3.954 0-6.6-3.08-6.6-5.961 0-3.285 2.965-5.962 6.6-5.962s6.601 2.677 6.601 5.962c0 .258-.023.563-.068.844a.989.989 0 0 0 .836 1.125 1.003 1.003 0 0 0 1.125-.836c.054-.38.084-.776.084-1.133 0-2.137-.905-4.145-2.547-5.65C15.833.814 13.688 0 11.415 0 9.14 0 6.988.814 5.375 2.297c-1.43 1.3-2.311 3.026-2.51 4.859C1.073 8.388 0 10.35 0 12.426a6.16 6.16 0 0 0 1.14 3.566L.077 18.64a.986.986 0 0 0 .228 1.08.978.978 0 0 0 .692.281c.137 0 .274-.03.403-.084l3.133-1.376a7.522 7.522 0 0 0 2.54.433h.061a7.447 7.447 0 0 0 3.703-1.003 6.804 6.804 0 0 0 2.335-2.244 8.578 8.578 0 0 0 1.437-.403l4.008 1.772a.991.991 0 0 0 1.095-.198c.281-.281.373-.707.22-1.087Zm-16.738.403a.982.982 0 0 0-.167-1.012 4.209 4.209 0 0 1-1.042-2.768 4.27 4.27 0 0 1 1.05-2.775c.349 1.414 1.14 2.768 2.227 3.817 1.377 1.324 3.202 2.16 5.156 2.373-.928.738-2.137 1.148-3.361 1.148h-.038a5.508 5.508 0 0 1-2.137-.44.987.987 0 0 0-.79.007l-1.27.563.372-.913Z"/><path d="M10.379 7.977c0 .548.441.989.989.989a.987.987 0 0 0 .988-.989.987.987 0 0 0-.989-.988.987.987 0 0 0-.988.988Zm3.059 0c0 .548.44.989.988.989a.987.987 0 0 0 .989-.989.987.987 0 0 0-.989-.988.987.987 0 0 0-.989.988Zm-6.106 0c0 .548.441.989.989.989a.987.987 0 0 0 .988-.989.987.987 0 0 0-.988-.988.987.987 0 0 0-.989.988Z"/></g><defs><clipPath id="clip0_319_256"><path fill="#fff" d="M0 0h20v20H0z"/></clipPath></defs></symbol><symbol xmlns="http://www.w3.org/2000/svg" id="thumbUp"><path fill-rule="evenodd" clip-rule="evenodd" d="M15.541 9.95A1.406 1.406 0 0 0 17 8.594c.034-.784-.508-1.49-1.28-1.523l-5.118-.643S11.667 4.644 11.667 2c0-1.763-1.259-2-2-2-.582 0-.739 1.129-.739 1.129-.133.723-.305 1.355-.901 2.52-.669 1.303-1.578 1.181-2.64 2.343-.188.205-.44.542-.686.958a.33.33 0 0 0-.056.096c-.022.051-.049.087-.072.135l-.12.228c-.657.657-1.681.59-2.118.59-.875 0-1.333.508-1.333 1.333v6.095c0 .925.379 1.237 1.333 1.237H3.67c.67 0 1.196.385 2 .667 1.1.381 2.742.667 5.572.667l2.03.002c.47 0 .847-.215 1.12-.474.103-.099.211-.242.257-.521.008-.043.016-.225.015-.25.035-.798-.448-1.088-.722-1.179.008-.002.003-.009.018-.008l.869.038c.77.036 1.532-.52 1.532-1.465 0-.783-.635-1.335-1.404-1.373l.461.021a1.41 1.41 0 0 0 1.459-1.357A1.413 1.413 0 0 0 15.54 9.95Z"/></symbol><symbol xmlns="http://www.w3.org/2000/svg" viewBox="0 0 20 20" id="person"><g clip-path="url(#clip0_1373_15491)"><path d="M18.413 12.696c-.662-.583-1.466-1.086-2.389-1.496a.781.781 0 1 0-.634 1.428c.778.346 1.448.763 1.992 1.242a3.115 3.115 0 0 1 1.055 2.34v1.446c0 .431-.35.782-.78.782H2.343a.782.782 0 0 1-.781-.782v-1.445c0-.899.384-1.752 1.055-2.341.79-.694 3.089-2.307 7.382-2.307a5.788 5.788 0 0 0 5.781-5.782A5.788 5.788 0 0 0 10 0a5.788 5.788 0 0 0-5.781 5.781c0 1.864.886 3.524 2.26 4.582-2.513.552-4.076 1.616-4.893 2.333A4.678 4.678 0 0 0 0 16.21v1.445A2.346 2.346 0 0 0 2.344 20h15.312A2.346 2.346 0 0 0 20 17.656v-1.445c0-1.348-.578-2.63-1.587-3.515ZM5.781 5.78A4.224 4.224 0 0 1 10 1.563a4.224 4.224 0 0 1 4.219 4.218A4.224 4.224 0 0 1 10 10a4.224 4.224 0 0 1-4.219-4.219Z"/></g><defs><clipPath id="clip0_1373_15491"><path fill="#fff" d="M0 0h20v20H0z"/></clipPath></defs></symbol><symbol xmlns="http://www.w3.org/2000/svg" viewBox="0 0 20 20" id="key"><path d="M16.094 13.906a.781.781 0 1 0 0 1.563.781.781 0 0 0 0-1.563Zm0-3.125H3.906A3.91 3.91 0 0 0 0 14.687a3.91 3.91 0 0 0 3.906 3.907h12.188A3.91 3.91 0 0 0 20 14.687a3.91 3.91 0 0 0-3.906-3.906Zm0 6.25H3.906a2.346 2.346 0 0 1-2.344-2.343 2.346 2.346 0 0 1 2.344-2.344h12.188a2.346 2.346 0 0 1 2.343 2.344 2.346 2.346 0 0 1-2.343 2.343ZM3.906 13.906a.781.781 0 1 0 0 1.563.781.781 0 0 0 0-1.563ZM6.094 9.22a3.129 3.129 0 0 0 3.125-3.125h7.031a.781.781 0 1 0 0-1.563h-.781V3.75a.781.781 0 0 0-1.563 0v.781H9.22a3.129 3.129 0 0 0-3.125-3.125A3.129 3.129 0 0 0 2.97 4.531v1.563a3.129 3.129 0 0 0 3.125 3.125ZM4.53 4.53a1.563 1.563 0 0 1 3.125 0v1.563a1.563 1.563 0 0 1-3.125 0V4.53Zm2.344 9.375a.781.781 0 1 0 0 1.563.781.781 0 0 0 0-1.563Zm6.25 0a.781.781 0 1 0 0 1.563.781.781 0 0 0 0-1.563Zm-3.125 0a.781.781 0 1 0 0 1.563.781.781 0 0 0 0-1.563Z"/></symbol><symbol xmlns="http://www.w3.org/2000/svg" viewBox="0 0 20 20" id="book"><path d="M20 3a1 1 0 0 0-1-1h-7.453c-.584 0-1.13.22-1.547.627A2.199 2.199 0 0 0 8.453 2H1a1 1 0 0 0-1 1v12.147a1 1 0 0 0 1 1h3.445a6.073 6.073 0 0 0 11.11 0H19a1 1 0 0 0 1-1V3ZM10 18.375a4.695 4.695 0 0 1-4.689-4.688A4.692 4.692 0 0 1 10 9.002a4.695 4.695 0 0 1 4.689 4.688A4.692 4.692 0 0 1 10 18.375Zm-8.646-3.582V3.354h7.099c.48 0 .87.39.87.87v3.428a6.072 6.072 0 0 0-5.296 7.137H1.354v.004Zm17.292 0h-2.673a6.072 6.072 0 0 0-5.296-7.137V4.224c0-.48.39-.87.87-.87h7.099v11.439Z"/><path d="M8.265 11.033a.967.967 0 0 0-.484.837v3.637a.967.967 0 0 0 1.45.837l3.15-1.817a.968.968 0 0 0 0-1.677l-3.15-1.817a.966.966 0 0 0-.966 0Zm.87 1.509 1.989 1.149-1.989 1.148v-2.297Z"/></symbol><symbol xmlns="http://www.w3.org/2000/svg" viewBox="0 0 20 20" id="heart"><path d="M18.366 2.704A5.602 5.602 0 0 0 14.334 1c-1.527 0-2.995.619-4.026 1.692l-.312.318-.307-.312A5.61 5.61 0 0 0 5.657 1a5.569 5.569 0 0 0-3.743 1.426 3.207 3.207 0 0 0-.289.277 5.835 5.835 0 0 0 .012 8.094l7.804 7.957c.142.147.342.23.555.23.2 0 .394-.077.536-.206l.035-.036 7.805-7.957a5.826 5.826 0 0 0-.006-8.082Zm-8.359 14.465-7.25-7.404a4.349 4.349 0 0 1 0-6.06 4.028 4.028 0 0 1 2.9-1.225c.99 0 1.945.36 2.682 1.013.024.024.053.048.077.071.053.047.106.1.159.16l.872.89a.822.822 0 0 0 .555.217.766.766 0 0 0 .554-.23l.866-.884A4.026 4.026 0 0 1 14.34 2.48a4.037 4.037 0 0 1 2.735 1.06l.006.006c.059.053.118.112.17.177a4.371 4.371 0 0 1 1.233 3 4.283 4.283 0 0 1-1.191 3.007l-7.286 7.439Z"/></symbol><symbol xmlns="http://www.w3.org/2000/svg" viewBox="0 0 21 17" id="team"><path d="M16.997 8.673h-1.94c-.235 0-.478.029-.706.086a3.003 3.003 0 0 0-2.64-1.57H8.289c-1.105 0-2.111.6-2.639 1.57a2.944 2.944 0 0 0-.706-.086h-1.94A3.008 3.008 0 0 0 0 11.676v3.096c0 1.02.827 1.847 1.847 1.847H18.16c1.02 0 1.847-.827 1.847-1.847v-3.096a3.018 3.018 0 0 0-3.01-3.003Zm-2.282 1.413c.114-.022.228-.036.342-.036h1.94c.899 0 1.634.735 1.634 1.633v3.096a.47.47 0 0 1-.471.47h-3.438v-5.056c0-.036 0-.072-.007-.107Zm-8.06.107c0-.9.734-1.634 1.633-1.634h3.424c.899 0 1.633.735 1.633 1.634v5.057h-6.69v-5.057Zm-5.278 1.483c0-.899.734-1.633 1.633-1.633h1.94c.114 0 .228.014.342.035v5.164H1.847a.47.47 0 0 1-.47-.47v-3.096Z"/><path d="M3.971 8.566a2.688 2.688 0 0 0 2.682-2.682A2.683 2.683 0 0 0 3.97 3.203a2.679 2.679 0 0 0-2.682 2.681c0 .714.278 1.391.785 1.898a2.671 2.671 0 0 0 1.897.784Zm0-3.994a1.314 1.314 0 1 1-.002 2.627 1.314 1.314 0 0 1 .002-2.627Zm6.027 2.525a3.55 3.55 0 0 0 3.545-3.545A3.555 3.555 0 0 0 9.998 0a3.55 3.55 0 0 0-3.545 3.545 3.555 3.555 0 0 0 3.545 3.552Zm0-5.72a2.18 2.18 0 0 1 2.176 2.175A2.173 2.173 0 0 1 9.998 5.72a2.18 2.18 0 0 1-2.175-2.175c0-1.198.977-2.168 2.175-2.168Zm6.028 7.189a2.688 2.688 0 0 0 2.681-2.682 2.688 2.688 0 0 0-2.681-2.681 2.688 2.688 0 0 0-2.682 2.681 2.688 2.688 0 0 0 2.682 2.682Zm0-1.376a1.313 1.313 0 0 1 0-2.625 1.313 1.313 0 0 1 0 2.625Z"/></symbol><symbol xmlns="http://www.w3.org/2000/svg" viewBox="0 0 20 20" id="services"><path d="M2.4 8.637H1.25a.747.747 0 0 0-.749.749c0 .414.334.748.749.748H2.4a.747.747 0 0 0 .749-.748.747.747 0 0 0-.749-.749Zm7.485-5.988a.747.747 0 0 0 .749-.749V.75A.747.747 0 0 0 9.885 0a.747.747 0 0 0-.748.749V1.9c0 .415.334.749.748.749ZM3.778 4.994l-.998-.576a.745.745 0 0 0-1.021.276.746.746 0 0 0 .273 1.022l.998.576a.745.745 0 0 0 1.021-.276.747.747 0 0 0-.273-1.022Zm9.479-1.444a.75.75 0 0 0 1.021-.276l.576-.998a.736.736 0 0 0 .073-.568.752.752 0 0 0-.722-.553.745.745 0 0 0-.648.377l-.576.998a.736.736 0 0 0-.073.568c.05.192.173.353.35.453Zm-7.762-.272c.134.23.38.377.649.377a.747.747 0 0 0 .645-1.12l-.576-1a.753.753 0 0 0-.649-.376.747.747 0 0 0-.645 1.12l.576 1Zm13.028 5.359h-1.151a.747.747 0 0 0-.749.749c0 .414.334.748.749.748h1.151a.747.747 0 0 0 .749-.748.747.747 0 0 0-.749-.749Zm-.783-2.921a.753.753 0 0 0 .35-.453.753.753 0 0 0-.073-.568.753.753 0 0 0-.649-.376.741.741 0 0 0-.372.1l-.998.575a.753.753 0 0 0-.277 1.021.746.746 0 0 0 1.022.277l.998-.576ZM9.886 3.455c-3.27 0-5.93 2.66-5.93 5.93 0 2.162 1.02 3.29 1.918 4.285.822.91 1.536 1.697 1.536 3.278v.576a2.477 2.477 0 0 0 4.952 0v-.576c0-1.582.71-2.368 1.536-3.278.902-.994 1.919-2.123 1.919-4.284 0-3.27-2.66-5.931-5.931-5.931Zm0 1.497a4.438 4.438 0 0 1 4.434 4.434c0 1.581-.71 2.368-1.536 3.278-.783.868-1.67 1.847-1.877 3.536H8.861c-.207-1.69-1.094-2.668-1.877-3.536-.822-.91-1.536-1.697-1.536-3.278a4.444 4.444 0 0 1 4.438-4.434Zm.964 12.745a.98.98 0 0 1-.964.806.98.98 0 0 1-.964-.806h1.928Z"/></symbol><symbol xmlns="http://www.w3.org/2000/svg" viewBox="0 0 20 20" id="payment"><path d="M19.278 12.12a.73.73 0 0 0-.73.73v4.212H1.46v-7.19h6.687a.73.73 0 0 0 .73-.73.736.736 0 0 0-.73-.73H1.459V6.164h6.687a.73.73 0 0 0 .73-.73.736.736 0 0 0-.73-.73h-6.8C.602 4.704 0 5.306 0 6.051v11.124c0 .745.602 1.346 1.346 1.346h17.307c.745 0 1.347-.601 1.347-1.346V12.85a.724.724 0 0 0-.722-.73Z"/><path d="M3.206 12.12a.73.73 0 0 0-.73.73c0 .399.332.73.73.73h2.475a.73.73 0 0 0 .73-.73.735.735 0 0 0-.73-.73H3.206Zm16.357-9.213-4.325-1.85a.771.771 0 0 0-.579 0l-4.325 1.857a.722.722 0 0 0-.443.67v2.474c0 3.445 1.27 5.46 4.693 7.431.113.06.233.098.361.098.128 0 .256-.03.361-.098C18.728 11.526 20 9.511 20 6.06V3.583a.721.721 0 0 0-.437-.677Zm-1.015 1.158v1.993c0 2.82-.91 4.325-3.595 5.95-2.686-1.625-3.596-3.13-3.596-5.95V4.065l3.596-1.542 3.595 1.542Z"/><path d="M13.705 6.269a.736.736 0 0 0-1.015-.203.695.695 0 0 0-.309.466.748.748 0 0 0 .106.55l1.233 1.857a.721.721 0 0 0 .58.323h.022a.716.716 0 0 0 .572-.278l2.482-3.091a.738.738 0 0 0-.113-1.03.723.723 0 0 0-.459-.159.731.731 0 0 0-.572.271l-1.85 2.31-.677-1.016Z"/></symbol><symbol xmlns="http://www.w3.org/2000/svg" viewBox="0 0 20 20" id="statistic"><g clip-path="url(#clip0_179_9995)"><path d="M4.915 9.351H.739a.741.741 0 0 0-.739.74v8.35c0 .407.333.74.739.74h4.176a.741.741 0 0 0 .739-.74v-8.35a.735.735 0 0 0-.74-.74Zm-.74 1.478v6.873H1.479V10.83h2.698ZM12.094 1H7.92a.741.741 0 0 0-.74.739v16.693c0 .406.333.739.74.739h4.175c.407 0 .74-.333.74-.74V1.74a.741.741 0 0 0-.74-.739ZM8.658 17.693V2.478h2.697v15.215H8.658ZM19.262 5.176h-4.175a.741.741 0 0 0-.74.739v12.517c0 .406.333.739.74.739h4.175a.741.741 0 0 0 .74-.74V5.916a.735.735 0 0 0-.74-.74Zm-.73 1.478v11.048h-2.697V6.654h2.697Z"/></g><defs><clipPath id="clip0_179_9995"><path fill="#fff" d="M0 0h20v20H0z"/></clipPath></defs></symbol><symbol xmlns="http://www.w3.org/2000/svg" viewBox="0 0 20 20" id="chats"><g clip-path="url(#clip0_210_733)"><path d="M17.093 2.88A9.982 9.982 0 0 0 10.048 0h-.114l-.006.006C4.45.053 0 4.46 0 9.84a9.71 9.71 0 0 0 2.078 5.97L.721 18.903a.763.763 0 0 0-.006.607.756.756 0 0 0 .42.425.859.859 0 0 0 .463.053l5.129-.885c1.039.36 2.12.543 3.219.543h.042c5.52 0 10.012-4.413 10.012-9.835a9.644 9.644 0 0 0-2.907-6.932ZM3.742 15.993a.782.782 0 0 0-.126-.826 7.902 7.902 0 0 1-1.43-2.336 8.018 8.018 0 0 1-.576-2.997c0-4.555 3.771-8.266 8.414-8.266h.018c4.607 0 8.36 3.682 8.366 8.207v.03c0 4.56-3.771 8.27-8.414 8.27-.991 0-1.97-.176-2.9-.518a.798.798 0 0 0-.427-.042l-3.886.667.96-2.189Z"/><path d="M6.709 9.227h6.526a.791.791 0 0 0 .799-.785c0-.43-.36-.784-.799-.784H6.71a.791.791 0 0 0-.799.784c0 .431.36.785.799.785Zm6.588 2.608a.791.791 0 0 0 .8-.785.797.797 0 0 0-.8-.785H6.71a.791.791 0 0 0-.799.785c0 .43.36.785.799.785h6.588Z"/></g><defs><clipPath id="clip0_210_733"><path fill="#fff" d="M0 0h20v20H0z"/></clipPath></defs></symbol><symbol xmlns="http://www.w3.org/2000/svg" viewBox="0 0 13 13" id="clock"><g clip-path="url(#clip0_179_10140)"><path d="M6.5 0A6.507 6.507 0 0 0 0 6.5C0 10.084 2.916 13 6.5 13S13 10.084 13 6.5 10.084 0 6.5 0Zm0 11.58c-2.8 0-5.08-2.28-5.08-5.08 0-2.8 2.28-5.08 5.08-5.08 2.8 0 5.08 2.28 5.08 5.08 0 2.8-2.28 5.08-5.08 5.08Z"/><path d="M7.062 6.508V3.784a.55.55 0 1 0-1.101 0v2.9l.002.025a.547.547 0 0 0 .16.416l2.05 2.051a.55.55 0 1 0 .779-.779l-1.89-1.89Z"/></g><defs><clipPath id="clip0_179_10140"><path fill="#fff" d="M0 0h13v13H0z"/></clipPath></defs></symbol><symbol xmlns="http://www.w3.org/2000/svg" viewBox="0 0 16 15" fill="none" id="calendar"><g clip-path="url(#clip0_179_10162)" fill="#29BDA6"><path d="M13.175 1.256h-1.733V.937a.617.617 0 0 0-.173-.446.621.621 0 0 0-.447-.172.621.621 0 0 0-.447.172.618.618 0 0 0-.174.446v.32H5.795v-.32a.617.617 0 0 0-.173-.446.621.621 0 0 0-.447-.172.621.621 0 0 0-.447.172.617.617 0 0 0-.174.446v.32H2.822A2.476 2.476 0 0 0 .319 3.749v8.437a2.476 2.476 0 0 0 2.503 2.494h10.353c1.4 0 2.503-1.098 2.503-2.494V3.75a2.476 2.476 0 0 0-2.503-2.494ZM1.56 3.75c0-.667.591-1.256 1.262-1.256h1.732v.318c0 .175.06.333.174.446a.621.621 0 0 0 .447.173.621.621 0 0 0 .447-.173.617.617 0 0 0 .173-.446v-.318h4.406v.318c0 .175.06.333.174.446a.621.621 0 0 0 .447.173.621.621 0 0 0 .447-.173.617.617 0 0 0 .173-.446v-.318h1.733c.67 0 1.261.59 1.261 1.256v1.256H1.56V3.75Zm12.876 8.437c0 .667-.59 1.257-1.261 1.257H2.822c-.671 0-1.262-.59-1.262-1.257V6.244h12.876v5.943Z" stroke="#29BDA6" stroke-width=".3"/><path d="M3.761 12.188c.283 0 .471-.094.66-.282a1.01 1.01 0 0 0 .282-.656 1.01 1.01 0 0 0-.283-.656.912.912 0 0 0-1.317 0 .847.847 0 0 0-.283.656c0 .188.094.469.283.656a.856.856 0 0 0 .658.281Zm0-2.813c.283 0 .471-.094.66-.281a1.01 1.01 0 0 0 .282-.657 1.01 1.01 0 0 0-.283-.656.912.912 0 0 0-1.317 0c-.189.188-.283.375-.283.656 0 .282.094.47.283.657a.856.856 0 0 0 .658.281Zm2.825 2.812c.282 0 .47-.093.659-.28a1.01 1.01 0 0 0 .282-.657 1.01 1.01 0 0 0-.282-.656.912.912 0 0 0-1.318 0 1.01 1.01 0 0 0-.282.656c0 .187.094.469.282.656a.856.856 0 0 0 .659.281Zm0-2.812c.282 0 .47-.094.659-.281a1.01 1.01 0 0 0 .282-.657 1.01 1.01 0 0 0-.282-.656.912.912 0 0 0-1.318 0 1.01 1.01 0 0 0-.282.656c0 .188.094.47.282.657a.856.856 0 0 0 .659.281Zm2.824 2.812c.282 0 .47-.093.659-.28.188-.188.282-.376.282-.657s-.094-.469-.282-.656a.912.912 0 0 0-1.318 0 1.01 1.01 0 0 0-.282.656c0 .187.094.469.282.656a.856.856 0 0 0 .659.281Zm0-2.812c.282 0 .47-.094.659-.281.188-.188.282-.375.282-.657a1.01 1.01 0 0 0-.282-.656.912.912 0 0 0-1.318 0 1.01 1.01 0 0 0-.282.656c0 .188.094.47.282.657a.856.856 0 0 0 .659.281Zm2.824 2.812c.283 0 .47-.093.659-.28a1.01 1.01 0 0 0 .282-.657 1.01 1.01 0 0 0-.282-.656.912.912 0 0 0-1.318 0 .85.85 0 0 0-.282.656c0 .187.094.469.282.656a.856.856 0 0 0 .66.281Zm0-2.812c.283 0 .47-.094.659-.281.188-.188.282-.375.282-.657a1.01 1.01 0 0 0-.282-.656.912.912 0 0 0-1.318 0 1.01 1.01 0 0 0-.282.656c0 .188.094.47.282.657a.856.856 0 0 0 .66.281Z"/></g><defs><clipPath id="clip0_179_10162"><path fill="#fff" d="M0 0h16v15H0z"/></clipPath></defs></symbol><symbol xmlns="http://www.w3.org/2000/svg" viewBox="0 0 13 16" fill="none" id="trashCan"><g opacity=".6" fill="#8B919E"><path d="M11.556 1.884H9.42V.496A.496.496 0 0 0 8.915 0a.081.081 0 0 0-.054.018A.069.069 0 0 0 8.825 0H3.732a.489.489 0 0 0-.496.496v1.388H1.091C.478 1.884 0 2.362 0 2.974V4.76h.947v10.158c0 .613.468 1.082 1.081 1.082h8.59a1.07 1.07 0 0 0 1.091-1.082V4.76h.938V2.975c0-.613-.478-1.091-1.09-1.091ZM4.228.992h4.191v.892H4.228V.992Zm6.48 13.926c0 .064-.026.09-.09.09h-8.59c-.063 0-.09-.026-.09-.09V4.76h8.77v10.158Zm.938-11.15H1.001v-.793c0-.063.027-.1.09-.1h10.465c.063 0 .09.037.09.1v.793Z"/><path d="M9.141 5.922h-1v8.203h1V5.922Zm-2.308 0H5.832v8.203h1V5.922Zm-2.309 0h-1v8.203h1V5.922Z"/></g></symbol><symbol xmlns="http://www.w3.org/2000/svg" viewBox="0 0 18 16" id="send" fill="none"><path d="M17.906.063a.277.277 0 0 0-.29-.038L.156 7.815A.256.256 0 0 0 0 8.047c0 .097.06.194.148.233l4.944 2.332a.278.278 0 0 0 .282-.026l4.803-3.45-3.773 3.728a.243.243 0 0 0-.074.2l.376 4.696a.26.26 0 0 0 .182.226c.027.006.054.013.087.013a.267.267 0 0 0 .202-.09l2.623-2.92 3.243 1.485a.294.294 0 0 0 .222.007.255.255 0 0 0 .148-.162L17.986.335a.247.247 0 0 0-.08-.272Z" fill="#fff"/></symbol></defs></svg>