<svg width="20" height="13" viewBox="0 0 20 13" fill="none" xmlns="http://www.w3.org/2000/svg"><path fill-rule="evenodd" clip-rule="evenodd" d="M10 0c5.437 0 9.694 5.74 9.873 5.985a.66.66 0 0 1 0 .778c-.179.244-4.436 5.984-9.873 5.984-5.437 0-9.695-5.74-9.873-5.984a.66.66 0 0 1 0-.779C.305 5.74 4.563 0 10 0ZM1.5 6.373C2.525 7.62 5.994 11.43 10 11.43c4.014 0 7.475-3.808 8.5-5.055C17.474 5.128 14.006 1.32 10 1.32c-4.014 0-7.475 3.808-8.5 5.054Zm4.544 0A3.96 3.96 0 0 1 10 2.418a3.96 3.96 0 0 1 3.956 3.957A3.96 3.96 0 0 1 10 10.33a3.96 3.96 0 0 1-3.956-3.956Zm1.319 0A2.64 2.64 0 0 0 10 9.012a2.64 2.64 0 0 0 2.637-2.637A2.64 2.64 0 0 0 10 3.736a2.64 2.64 0 0 0-2.637 2.638Z" fill="#BEC3CC"/></svg>