<svg width="53" height="80" viewBox="0 0 53 80" fill="none" xmlns="http://www.w3.org/2000/svg"><path d="M30.704 6.053c4.617-3.491 10.585-7.208 15.765-4.73 2.928 1.464 4.842 4.617 5.405 7.77.563 3.267 0 6.532-.563 9.798-3.716 18.583-12.049 36.151-23.985 50.791-4.391 5.406-10.472 10.812-17.228 9.348C3.792 77.678.188 70.47.639 64.052c.338-6.42 3.604-12.276 6.644-18.02 7.094-13.514 14.075-28.267 23.421-39.98Z" fill="#FF6B6B"/><path d="M30.704 6.053s-.113.112-.338.45c-.225.338-.563.676-.9 1.24-.789 1.013-1.915 2.59-3.379 4.73-2.815 4.166-6.643 10.473-10.81 18.468-2.026 4.055-4.391 8.447-6.756 13.064-2.365 4.73-5.405 9.573-6.981 15.316-.788 2.816-1.126 5.97-.45 8.897.562 3.041 2.026 5.97 4.39 8.109 1.127 1.013 2.59 1.914 4.167 2.252 1.577.45 3.153.45 4.842.113 3.266-.676 6.08-2.59 8.558-4.955 2.477-2.253 4.617-5.068 6.644-7.658 2.027-2.703 3.828-5.406 5.63-8.109 3.378-5.518 6.306-11.037 8.67-16.555 2.365-5.518 4.167-10.811 5.518-15.992a114.18 114.18 0 0 0 1.689-7.433c.45-2.365.788-4.73.675-6.982-.112-4.392-2.477-8.446-5.742-9.798-1.577-.675-3.266-.788-4.842-.563a13.487 13.487 0 0 0-3.941 1.239c-2.252 1.014-3.941 2.14-4.955 2.928-.563.338-.9.676-1.239.901-.225.338-.45.338-.45.338l.338-.338c.225-.225.675-.563 1.239-.901 1.126-.788 2.702-1.914 4.954-3.04C38.361 1.21 39.712.76 41.289.533c1.576-.225 3.265-.112 4.954.564 1.69.675 3.266 2.027 4.28 3.829a14.18 14.18 0 0 1 1.8 6.194c.114 2.252-.224 4.617-.675 7.095a102.126 102.126 0 0 1-1.689 7.545 113.84 113.84 0 0 1-5.517 16.105c-2.252 5.518-5.18 11.149-8.67 16.667-1.802 2.703-3.604 5.518-5.631 8.221-2.027 2.703-4.166 5.406-6.644 7.771-2.59 2.365-5.517 4.392-8.895 5.068-1.69.338-3.378.338-5.067-.113-1.69-.45-3.153-1.351-4.392-2.365-2.477-2.252-3.941-5.293-4.504-8.446-.676-3.153-.225-6.307.45-9.235 1.577-5.856 4.617-10.699 7.094-15.429 2.478-4.73 4.73-9.122 6.87-13.064 4.278-7.995 7.994-14.19 10.922-18.356 1.463-2.027 2.59-3.604 3.49-4.73.45-.45.676-.901.901-1.126.225-.564.338-.676.338-.676Z" fill="#263238"/><path opacity=".3" d="M31.268 22.157c1.126-3.153 3.49-4.054 6.08-4.955 2.59-.901 5.743-.789 7.77 1.013 2.365 2.028 2.703 5.744 2.027 8.785-.225 1.126-.563 2.14-1.351 2.928-.788.788-2.027 1.238-2.928.675-1.126-.563-1.464-2.252-2.702-2.702-1.352-.564-2.816.563-4.167 1.013-1.914.45-4.053-.788-4.842-2.59-.563-1.352-.45-2.816.113-4.167Zm4.953-15.879c1.126.338 1.802 1.69 1.802 3.04 0 1.465-.45 2.816-.9 4.055-.451 1.126-1.014 2.365-2.253 2.365-.676 0-1.239-.45-1.689-1.013-.338-.564-.45-1.24-.563-1.915-.113-1.577.113-3.04.676-4.505.337-.675.675-1.464 1.35-1.914.677-.45 1.577-.45 2.14 0m12.949 2.702c1.126.338 1.802 1.69 1.802 3.041 0 1.464-.45 2.815-.901 4.054-.45 1.126-1.014 2.365-2.252 2.365-.676 0-1.239-.45-1.69-1.013-.337-.563-.45-1.24-.562-1.915-.113-1.576.112-3.04.675-4.505.338-.675.676-1.464 1.352-1.914.675-.45 1.576-.45 2.14 0M43.99 3.913c1.127.338 1.802 1.69 1.802 3.04 0 1.465-.45 2.816-.9 4.055-.45 1.126-1.014 2.365-2.252 2.365-.676 0-1.239-.45-1.69-1.013-.337-.564-.45-1.24-.563-1.915a10.24 10.24 0 0 1 .676-4.505c.338-.675.676-1.464 1.351-1.914.676-.45 1.577-.45 2.14 0" fill="#000"/></svg>