<svg width="20" height="20" viewBox="0 0 20 20" fill="none" xmlns="http://www.w3.org/2000/svg"><g clip-path="url(#a)" fill="#F04973"><path d="M10 0C4.486 0 0 4.486 0 10s4.486 10 10 10 10-4.486 10-10S15.514 0 10 0Zm0 17.814c-4.309 0-7.814-3.505-7.814-7.814S5.69 2.186 10 2.186 17.814 5.69 17.814 10 14.31 17.814 10 17.814Z"/><rect width="1.8" height="7" rx=".9" transform="matrix(1 0 0 -1 9.102 15)"/><circle cx="1" cy="1" r="1" transform="matrix(1 0 0 -1 9 7)"/></g><defs><clipPath id="a"><path fill="#fff" d="M0 0h20v20H0z"/></clipPath></defs></svg>