<svg width="77" height="79" viewBox="0 0 77 79" fill="none" xmlns="http://www.w3.org/2000/svg"><path d="M19.81 4.794C14.218 3.37 7.287 2.234 3.437 6.59 1.3 9.06.797 12.691 1.627 15.921c.718 3.236 2.545 6.08 4.36 8.7 10.778 15.608 25.369 28.442 42.021 37.231 6.128 3.203 13.916 5.763 19.475 1.778 5.232-3.745 5.639-11.77 2.773-17.496-2.866-5.726-8.137-9.872-13.177-13.916-11.837-9.47-24.082-20.386-37.27-27.424Z" fill="#FF6B6B"/><path d="M19.809 4.794s.118.108.46.204c.349.209.81.412 1.388.723 1.157.621 2.892 1.553 4.986 2.92 4.296 2.613 10.247 6.839 17.285 12.592 3.52 2.876 7.387 5.961 11.49 9.26 4.108 3.413 8.773 6.685 12.603 11.35 1.805 2.395 3.402 5.138 4.114 8.26.6 3.129.536 6.514-.899 9.514-.718 1.5-1.778 2.904-3.08 3.98-1.3 1.077-2.956 1.833-4.632 2.138-3.348.724-6.877-.01-10.198-1.092-3.326-1.194-6.224-2.86-9.234-4.52a104.868 104.868 0 0 1-8.372-5.351c-5.362-3.69-10.177-7.745-14.542-11.822a153.995 153.995 0 0 1-11.42-12.534c-1.677-2.062-3.129-4.135-4.58-6.208-1.34-2.078-2.566-4.162-3.343-6.267-.777-2.105-1.109-4.344-.868-6.385.24-2.041 1.055-3.884 2.345-5.186 1.291-1.3 2.828-2.164 4.392-2.464 1.559-.413 2.908-.477 4.151-.423 2.485.107 4.424.578 5.79.85.686.194 1.14.285 1.484.381.455.091.68.08.68.08s-.225.011-.456-.09c-.342-.097-.798-.188-1.478-.268a31.92 31.92 0 0 0-5.784-.74c-1.243-.053-2.705.017-4.151.424-1.446.407-2.989 1.158-4.167 2.454C1.3 9.06.731 13.709 2.393 17.802c.776 2.105 1.997 4.076 3.336 6.154a158.731 158.731 0 0 0 4.58 6.209c3.24 4.13 7.05 8.345 11.42 12.534 4.253 4.081 9.176 8.018 14.43 11.826 2.678 1.79 5.469 3.573 8.367 5.239 2.897 1.665 5.908 3.326 9.116 4.413 3.208 1.087 6.625 1.826 9.86 1.108 1.564-.3 3.107-1.05 4.414-2.014 1.306-.965 2.26-2.25 2.865-3.745 1.328-2.882 1.397-6.155.802-9.17-.594-3.016-2.19-5.759-3.99-8.04-3.718-4.672-8.383-7.944-12.491-11.356a1874.871 1874.871 0 0 0-11.383-9.38c-7.033-5.64-12.876-9.983-17.177-12.71-2.095-1.365-3.836-2.41-4.992-3.031-.579-.31-1.04-.514-1.275-.729-.348-.208-.466-.316-.466-.316Z" fill="#263238"/><path opacity=".3" d="M25.599 19.852c-2.26-2.486-4.847-2.362-7.541-2.12-2.7.128-5.565 1.505-6.802 3.931-1.328 2.882-.262 6.327 1.554 8.946.605.873 1.323 1.74 2.362 2.255 1.034.402 2.383.337 3.015-.595.852-1.055.44-2.614 1.409-3.562.964-1.06 2.79-.584 4.247-.766 2.014-.322 3.497-2.31 3.4-4.334.043-1.468-.583-2.791-1.644-3.755ZM14.85 7.173c-.868.718-.911 2.186-.397 3.514.514 1.329 1.468 2.41 2.416 3.38.83.863 1.885 1.714 2.994 1.323.664-.257.975-.836 1.167-1.521.08-.68-.064-1.35-.321-2.014a10.586 10.586 0 0 0-2.437-3.83c-.59-.536-1.179-1.072-1.971-1.147-.798-.187-1.682.193-1.987.884M3.501 15.043c-.867.718-.91 2.186-.396 3.514.515 1.329 1.468 2.41 2.416 3.38.83.862 1.886 1.714 2.994 1.323.664-.257.975-.836 1.168-1.522.08-.68-.065-1.35-.322-2.014a10.588 10.588 0 0 0-2.437-3.83c-.59-.535-1.178-1.07-1.971-1.146-.798-.187-1.682.193-1.987.884M6.775 8.01c-.868.717-.91 2.185-.396 3.513.514 1.329 1.468 2.41 2.416 3.38.83.863 1.885 1.714 2.994 1.323.664-.257.975-.835 1.167-1.521.193-.686-.064-1.35-.321-2.014a10.587 10.587 0 0 0-2.438-3.83c-.589-.536-1.178-1.071-1.97-1.146-.799-.188-1.682.193-1.988.884M28.89 48.67c3.66 5.802 7.757 11.356 12.824 15.963 5.067 4.606 11.104 8.264 17.73 10.09 3.08.756 6.368 1.163 9.244.01 4.092-1.66 6.582-6.176 6.822-10.585.241-4.408-1.323-8.843-3.316-12.807-.589 4.2-1.28 8.63-4.294 11.592-2.582 2.604-6.486 3.466-10 3.07-3.626-.39-6.963-1.81-10.198-3.46-6.706-3.513-13.005-7.948-18.442-13.213" fill="#000"/><path opacity=".2" d="m24.436 42.682-.948 1.398c3.433-6.026 10.347-9.964 17.342-9.846 6.995.117 13.733 4.305 16.958 10.465 3.224 6.16 2.813 14.072-.968 19.89-12.844-4.574-24.8-11.783-34.709-21.007" fill="#fff"/></svg>