<svg width="21" height="21" viewBox="0 0 21 21" fill="none" xmlns="http://www.w3.org/2000/svg"><g clip-path="url(#a)"><path d="M14 4.702c3.864.03 7.006 3.202 7 7.065a7.053 7.053 0 0 1-3.75 6.224.28.28 0 0 0-.148.246v1.704a.28.28 0 0 1-.461.213l-1.573-1.336a.282.282 0 0 0-.219-.064A7.055 7.055 0 1 1 14 4.703Z" fill="#E9CEF7"/><path d="M20.998 11.767a7.053 7.053 0 0 1-3.75 6.223.278.278 0 0 0-.147.247v1.704a.28.28 0 0 1-.462.213l-.759-.645v-1.71a.28.28 0 0 1 .148-.247 7.054 7.054 0 0 0 3.75-6.223c.005-2.825-1.674-5.28-4.087-6.407 3.048.784 5.312 3.565 5.307 6.845Z" fill="#CB97E7"/><path d="M17.979 9.321h-7.222a.37.37 0 1 1 0-.741h7.222a.37.37 0 1 1 0 .741Zm-.002 1.847H16.69a.37.37 0 1 1 0-.742h1.286a.37.37 0 1 1 0 .742Zm-3.01 0H9.915a.37.37 0 1 1 0-.742h5.053a.37.37 0 1 1 0 .742Zm3.01 1.846H9.914a.37.37 0 1 1 0-.741h8.063a.37.37 0 1 1 0 .741Zm.003 1.846h-4.03a.37.37 0 1 1 0-.74h4.031a.37.37 0 1 1 0 .74Zm-5.756 0h-2.31a.37.37 0 1 1 0-.74h2.31a.37.37 0 1 1 0 .74Z" fill="#BD80E1"/><path d="M7.285.197C3.42.227.28 3.4.285 7.262a7.053 7.053 0 0 0 3.75 6.224.28.28 0 0 1 .148.246v1.704c0 .239.28.368.461.213l1.573-1.336a.282.282 0 0 1 .219-.064A7.055 7.055 0 1 0 7.286.198Z" fill="#FDD4DE"/><path d="M14.395 7.252a7.055 7.055 0 0 1-7.959 6.997.282.282 0 0 0-.218.063L4.645 15.65a.28.28 0 0 1-.461-.213v-.845l1.308-1.113a.284.284 0 0 1 .219-.063 7.055 7.055 0 0 0 6.576-11.193 7.032 7.032 0 0 1 2.108 5.03Z" fill="#F4A3B7"/><path d="M7.34 11.186a.613.613 0 1 0 0-1.226.613.613 0 0 0 0 1.226Zm0-2.131a.37.37 0 0 1-.372-.37v-.716c0-.646.388-1.236.989-1.503.585-.26.948-.865.902-1.506a1.533 1.533 0 0 0-1.364-1.403 1.522 1.522 0 0 0-1.68 1.516.37.37 0 1 1-.74 0A2.262 2.262 0 0 1 7.567 2.82a2.282 2.282 0 0 1 2.03 2.088c.068.951-.47 1.85-1.34 2.236a.91.91 0 0 0-.548.826v.715a.37.37 0 0 1-.37.37Z" fill="#F25D81"/></g><defs><clipPath id="a"><path fill="#fff" d="M0 0h21v21H0z"/></clipPath></defs></svg>