<svg width="15" height="15" viewBox="0 0 15 15" fill="none" xmlns="http://www.w3.org/2000/svg"><path d="M7.5 0A7.507 7.507 0 0 0 0 7.5C0 11.637 3.363 15 7.5 15c4.137 0 7.5-3.363 7.5-7.5C15 3.363 11.637 0 7.5 0Zm0 13.69A6.2 6.2 0 0 1 1.31 7.5 6.2 6.2 0 0 1 7.5 1.31a6.2 6.2 0 0 1 6.19 6.19 6.2 6.2 0 0 1-6.19 6.19Z" fill="#F04973"/><path d="M9.07 4.95 7.496 6.523 5.933 4.96a.65.65 0 0 0-.916 0 .66.66 0 0 0 0 .915L6.58 7.44 5.006 9.013a.65.65 0 0 0 0 .916.66.66 0 0 0 .915 0l1.575-1.574L9.07 9.929a.65.65 0 0 0 .915 0 .66.66 0 0 0 0-.916L8.422 7.45l1.575-1.574a.65.65 0 0 0 0-.915c-.246-.246-.67-.268-.927-.012Z" fill="#F04973"/></svg>