<svg width="15" height="11" viewBox="0 0 15 11" fill="none" xmlns="http://www.w3.org/2000/svg"><g clip-path="url(#a)"><path d="M14.95 3.164a.727.727 0 0 0-.402-.401L7.768.05a.726.726 0 0 0-.533 0L.455 2.763a.72.72 0 0 0-.003 1.336l2.034.816v4.393c0 .29.172.55.44.664 1.515.638 3.052.96 4.574.96 1.52 0 3.06-.322 4.574-.96a.718.718 0 0 0 .44-.664V4.915l2.034-.813a.722.722 0 0 0 .396-.384.736.736 0 0 0 .005-.554Zm-2.61.268L7.5 5.367 2.661 3.432l4.84-1.935 4.838 1.935Zm-8.413 2.06 3.305 1.322c.17.067.364.067.534 0l3.305-1.322v3.327c-1.19.447-2.39.673-3.57.673-1.182 0-2.382-.226-3.574-.673V5.492Z" fill="#6B57CA"/></g><defs><clipPath id="a"><path fill="#fff" d="M0 0h15v10.932H0z"/></clipPath></defs></svg>