<svg width="216" height="216" viewBox="0 0 216 216" fill="none" xmlns="http://www.w3.org/2000/svg"><g filter="url(#a)"><path d="M145.918 126.358c5.855-7.883 9.346-17.794 9.346-28.38 0-26.24-21.282-47.525-47.519-47.525-26.236 0-47.518 21.285-47.518 47.525s21.282 47.525 47.518 47.525c9.684 0 18.58-2.928 26.124-7.883l16.328 7.208-4.279-18.47Z" fill="#fff"/></g><path d="M88.02 93.706c.154-2.469 1.24-4.783 2.636-6.635 1.551-1.852 3.568-3.394 5.895-4.012 2.481-.617 5.274-.308 7.445.926 1.241.772 2.327 1.852 3.258 3.24.62-1.234 1.551-2.314 2.637-3.24 2.016-1.543 4.653-2.314 7.29-1.852 2.327.309 4.498 1.698 6.205 3.395 1.706 1.697 3.102 3.858 3.412 6.326.466 3.087.155 6.327-1.241 9.104-1.551 2.932-4.033 5.247-6.825 7.098-4.498 3.086-10.393 6.944-10.393 6.944s-5.429-3.549-10.237-6.172c-2.947-1.543-5.74-3.549-7.6-6.327-1.862-2.468-2.638-5.709-2.483-8.795Z" fill="#E8505B"/><defs><filter id="a" x=".227" y=".453" width="215.039" height="215.05" filterUnits="userSpaceOnUse" color-interpolation-filters="sRGB"><feFlood flood-opacity="0" result="BackgroundImageFix"/><feColorMatrix in="SourceAlpha" values="0 0 0 0 0 0 0 0 0 0 0 0 0 0 0 0 0 0 127 0" result="hardAlpha"/><feOffset dy="10"/><feGaussianBlur stdDeviation="30"/><feColorMatrix values="0 0 0 0 0.164706 0 0 0 0 0.4 0 0 0 0 0.756863 0 0 0 0.1 0"/><feBlend in2="BackgroundImageFix" result="effect1_dropShadow_325_10704"/><feBlend in="SourceGraphic" in2="effect1_dropShadow_325_10704" result="shape"/></filter></defs></svg>