<svg width="115" height="40" viewBox="0 0 115 40" fill="none" xmlns="http://www.w3.org/2000/svg"><rect x=".5" y=".5" width="114" height="39" rx="11.5" fill="#000"/><path d="M11.444 29V10.8h8.528c2.184 0 3.848.433 4.992 1.3 1.144.85 1.716 1.993 1.716 3.432 0 .97-.225 1.803-.676 2.496a4.627 4.627 0 0 1-1.82 1.586 5.494 5.494 0 0 1-2.444.546l.468-.936c1.023 0 1.941.19 2.756.572a4.39 4.39 0 0 1 1.924 1.612c.485.71.728 1.595.728 2.652 0 1.56-.598 2.773-1.794 3.64-1.196.867-2.973 1.3-5.33 1.3h-9.048Zm3.38-2.652h5.46c1.265 0 2.236-.208 2.912-.624.676-.416 1.014-1.083 1.014-2.002 0-.901-.338-1.56-1.014-1.976-.676-.433-1.647-.65-2.912-.65h-5.72V18.47h5.044c1.179 0 2.08-.208 2.704-.624.641-.416.962-1.04.962-1.872 0-.85-.32-1.482-.962-1.898-.624-.416-1.525-.624-2.704-.624h-4.784v12.896Zm22.613 2.834c-1.542 0-2.894-.303-4.056-.91-1.144-.624-2.036-1.473-2.678-2.548-.624-1.075-.936-2.297-.936-3.666 0-1.387.304-2.609.91-3.666a6.716 6.716 0 0 1 2.548-2.522c1.092-.607 2.332-.91 3.718-.91 1.352 0 2.557.295 3.614.884a6.4 6.4 0 0 1 2.496 2.496c.607 1.075.91 2.34.91 3.796 0 .139-.008.295-.026.468 0 .173-.008.338-.026.494h-11.57V20.94h9.854l-1.274.676c.018-.797-.147-1.5-.494-2.106a3.777 3.777 0 0 0-1.43-1.43c-.589-.347-1.274-.52-2.054-.52-.797 0-1.499.173-2.106.52a3.783 3.783 0 0 0-1.404 1.456c-.329.607-.494 1.326-.494 2.158v.52c0 .832.191 1.569.572 2.21a3.814 3.814 0 0 0 1.612 1.482c.694.347 1.491.52 2.392.52.78 0 1.482-.121 2.106-.364a4.483 4.483 0 0 0 1.664-1.144l1.742 2.002c-.624.728-1.412 1.291-2.366 1.69-.936.381-2.01.572-3.224.572Zm9.96-.182V10.8h8.528c2.184 0 3.848.433 4.992 1.3 1.144.85 1.716 1.993 1.716 3.432 0 .97-.225 1.803-.676 2.496a4.626 4.626 0 0 1-1.82 1.586 5.494 5.494 0 0 1-2.444.546l.468-.936c1.023 0 1.941.19 2.756.572a4.39 4.39 0 0 1 1.924 1.612c.486.71.728 1.595.728 2.652 0 1.56-.598 2.773-1.794 3.64-1.196.867-2.972 1.3-5.33 1.3h-9.048Zm3.38-2.652h5.46c1.265 0 2.236-.208 2.912-.624.676-.416 1.014-1.083 1.014-2.002 0-.901-.338-1.56-1.014-1.976-.676-.433-1.647-.65-2.912-.65h-5.72V18.47h5.044c1.179 0 2.08-.208 2.704-.624.642-.416.962-1.04.962-1.872 0-.85-.32-1.482-.962-1.898-.624-.416-1.525-.624-2.704-.624h-4.784v12.896Zm22.613 2.834c-1.542 0-2.894-.303-4.056-.91-1.144-.624-2.036-1.473-2.678-2.548-.624-1.075-.936-2.297-.936-3.666 0-1.387.304-2.609.91-3.666a6.717 6.717 0 0 1 2.548-2.522c1.092-.607 2.332-.91 3.718-.91 1.352 0 2.557.295 3.614.884a6.398 6.398 0 0 1 2.496 2.496c.607 1.075.91 2.34.91 3.796 0 .139-.008.295-.026.468 0 .173-.008.338-.026.494h-11.57V20.94h9.854l-1.274.676c.018-.797-.147-1.5-.494-2.106a3.776 3.776 0 0 0-1.43-1.43c-.589-.347-1.274-.52-2.054-.52-.797 0-1.499.173-2.106.52a3.783 3.783 0 0 0-1.404 1.456c-.329.607-.494 1.326-.494 2.158v.52c0 .832.191 1.569.572 2.21a3.814 3.814 0 0 0 1.612 1.482c.694.347 1.491.52 2.392.52.78 0 1.482-.121 2.106-.364a4.483 4.483 0 0 0 1.664-1.144l1.742 2.002c-.624.728-1.412 1.291-2.366 1.69-.936.381-2.01.572-3.224.572Zm13.938 0c-1.161 0-2.28-.147-3.354-.442-1.057-.312-1.898-.685-2.522-1.118l1.248-2.47c.624.399 1.37.728 2.236.988.867.26 1.734.39 2.6.39 1.023 0 1.76-.139 2.21-.416.468-.277.702-.65.702-1.118 0-.381-.156-.667-.468-.858-.312-.208-.72-.364-1.222-.468a25.64 25.64 0 0 0-1.69-.286c-.606-.087-1.222-.2-1.846-.338a7.076 7.076 0 0 1-1.664-.65 3.59 3.59 0 0 1-1.222-1.17c-.312-.485-.468-1.127-.468-1.924 0-.884.252-1.647.754-2.288.503-.659 1.205-1.161 2.106-1.508.919-.364 2.002-.546 3.25-.546.936 0 1.88.104 2.834.312.954.208 1.742.503 2.366.884l-1.248 2.47a6.31 6.31 0 0 0-2.002-.806 8.549 8.549 0 0 0-1.976-.234c-.988 0-1.724.147-2.21.442-.468.295-.702.667-.702 1.118 0 .416.156.728.468.936.312.208.72.373 1.222.494a17.94 17.94 0 0 0 1.664.312c.624.07 1.24.182 1.846.338a7.08 7.08 0 0 1 1.664.65c.52.26.936.633 1.248 1.118.312.485.468 1.118.468 1.898 0 .867-.26 1.62-.78 2.262-.502.641-1.222 1.144-2.158 1.508-.936.347-2.054.52-3.354.52Zm14.317 0c-1.525 0-2.704-.39-3.536-1.17-.832-.797-1.248-1.967-1.248-3.51V12.048h3.25v12.376c0 .659.165 1.17.494 1.534.347.364.823.546 1.43.546.728 0 1.335-.19 1.82-.572l.91 2.314c-.381.312-.849.546-1.404.702a6.311 6.311 0 0 1-1.716.234ZM94.573 17.82v-2.6h9.256v2.6h-9.256Z" fill="url(#a)"/><rect x=".5" y=".5" width="114" height="39" rx="11.5" stroke="url(#b)"/><defs><linearGradient id="a" x1="9" y1="20" x2="106" y2="20" gradientUnits="userSpaceOnUse"><stop stop-color="#F04973"/><stop offset="1" stop-color="#FA6655"/></linearGradient><linearGradient id="b" x1="0" y1="20" x2="115" y2="20" gradientUnits="userSpaceOnUse"><stop stop-color="#F14A73"/><stop offset="1" stop-color="#FA6656"/></linearGradient></defs></svg>