<svg width="98" height="99" viewBox="0 0 98 99" fill="none" xmlns="http://www.w3.org/2000/svg"><path d="M48.757 97.528c26.928 0 48.758-21.833 48.758-48.764C97.515 21.832 75.685 0 48.757 0 21.83 0 0 21.832 0 48.764c0 26.931 21.83 48.764 48.757 48.764Z" fill="#FF6B6B"/><path opacity=".7" d="M48.757 97.528c26.928 0 48.758-21.833 48.758-48.764C97.515 21.832 75.685 0 48.757 0 21.83 0 0 21.832 0 48.764c0 26.931 21.83 48.764 48.757 48.764Z" fill="#fff"/><path d="M60.353 1.352s0 .337-.112.9c-.113.676-.338 1.577-.563 2.59-.113.564-.225 1.24-.45 1.915-.226.676-.45 1.464-.676 2.253-.45 1.576-.901 3.49-1.69 5.405-.337 1.014-.675 2.027-1.125 3.154-.338 1.126-.901 2.14-1.352 3.266-.9 2.365-2.026 4.73-3.265 7.207-2.477 4.955-5.518 10.248-9.233 15.542a123.42 123.42 0 0 1-11.599 13.852c-2.026 1.914-3.828 3.829-5.742 5.405-.901.789-1.802 1.69-2.703 2.365-.9.676-1.802 1.352-2.59 2.028-1.576 1.35-3.153 2.365-4.504 3.378-.676.45-1.351.901-1.914 1.352l-1.69 1.013c-1.013.563-1.688 1.126-2.251 1.464-.563.338-.789.45-.789.45s.226-.225.789-.563c.563-.337 1.35-.9 2.252-1.463.45-.338 1.013-.676 1.576-1.127.563-.45 1.239-.9 1.915-1.351 1.35-1.014 2.927-2.027 4.504-3.491.788-.676 1.689-1.352 2.59-2.028.9-.675 1.688-1.576 2.702-2.364 1.914-1.577 3.716-3.492 5.63-5.406 3.829-4.054 7.77-8.672 11.486-13.852 3.716-5.18 6.756-10.474 9.233-15.429 1.239-2.478 2.365-4.843 3.266-7.095.45-1.126 1.013-2.252 1.35-3.266.339-1.126.79-2.14 1.127-3.04.788-1.915 1.239-3.83 1.802-5.406.225-.789.45-1.577.675-2.253.225-.675.338-1.351.45-1.914.339-1.126.564-1.915.676-2.59.113-.676.225-.901.225-.901Zm11.602 4.955s0 .337-.225 1.013c-.113.676-.338 1.577-.676 2.816-.112.563-.338 1.239-.45 2.027-.225.788-.45 1.464-.676 2.365-.563 1.69-1.013 3.604-1.914 5.743-.338 1.014-.788 2.14-1.239 3.266-.45 1.127-1.013 2.253-1.464 3.492-1.013 2.477-2.252 4.955-3.603 7.545-2.815 5.18-6.193 10.699-10.247 16.104-4.166 5.406-8.558 10.136-12.724 14.19-2.14 2.028-4.166 3.942-6.306 5.519-1.013.788-1.914 1.689-2.927 2.365-1.014.675-1.915 1.464-2.816 2.14-1.801 1.35-3.49 2.364-4.954 3.378a45.61 45.61 0 0 1-3.829 2.365c-1.013.563-1.914 1.126-2.477 1.464-.563.338-.9.45-.9.45s.225-.225.788-.563c.563-.337 1.35-.9 2.364-1.576 1.014-.676 2.365-1.464 3.829-2.478 1.464-1.013 3.153-2.14 4.842-3.491.9-.676 1.801-1.352 2.815-2.14 1.013-.675 1.914-1.576 2.927-2.365a129.294 129.294 0 0 0 6.194-5.518c4.166-4.054 8.558-8.784 12.724-14.19 4.054-5.406 7.432-10.924 10.247-15.992 1.351-2.59 2.59-5.068 3.603-7.433.563-1.239 1.126-2.365 1.464-3.49.45-1.127.788-2.253 1.239-3.267.788-2.027 1.35-3.941 1.914-5.63.225-.79.563-1.578.788-2.366.225-.676.338-1.351.563-2.027.338-1.126.563-2.027.788-2.703l.338-1.013ZM82.65 15.09s-.113.339-.226 1.014c-.225.676-.45 1.577-.788 2.816-.225.563-.338 1.239-.563 2.027-.225.676-.563 1.464-.788 2.365-.676 1.69-1.239 3.604-2.14 5.63-.45 1.014-.9 2.14-1.351 3.267-.45 1.126-1.126 2.252-1.69 3.491-1.125 2.365-2.476 4.843-3.94 7.433-2.928 5.068-6.531 10.586-10.81 15.992-4.28 5.405-8.783 10.135-13.062 14.19-2.252 2.027-4.28 3.941-6.306 5.518-1.013.788-2.027 1.69-2.928 2.365-1.013.676-1.914 1.464-2.815 2.14a65.645 65.645 0 0 1-4.954 3.378c-.789.45-1.464.901-2.027 1.352-.676.338-1.239.788-1.802 1.013-1.013.563-1.914 1.126-2.477 1.464-.563.338-.901.45-.901.45s.225-.224.788-.562a65.276 65.276 0 0 0 2.477-1.577 41.505 41.505 0 0 0 1.802-1.126l2.027-1.352c1.464-1.013 3.153-2.14 4.955-3.49.9-.676 1.801-1.352 2.815-2.14 1.013-.789 1.914-1.577 2.927-2.366 2.027-1.689 4.054-3.603 6.306-5.518a134.994 134.994 0 0 0 12.95-14.19 165.99 165.99 0 0 0 10.81-15.879c1.463-2.59 2.815-4.955 3.94-7.433l1.69-3.378c.45-1.127 1.013-2.14 1.464-3.154.9-2.027 1.576-3.941 2.252-5.63.337-.789.675-1.577.9-2.366l.676-2.027c.338-1.126.676-2.027.9-2.703-.224-.675-.112-1.013-.112-1.013Zm12.724 46.287s-.45-.113-1.126-.45c-.675-.338-1.689-.789-2.815-1.465a159.697 159.697 0 0 1-9.12-5.18c-3.492-2.14-6.644-4.167-8.897-5.743-1.126-.789-2.026-1.352-2.59-1.802-.562-.45-.9-.676-.9-.789 0 0 .338.113 1.013.563.788.45 1.69 1.014 2.703 1.69 2.252 1.464 5.405 3.378 8.895 5.518 3.491 2.14 6.757 3.942 9.121 5.293 1.126.676 2.027 1.126 2.815 1.577.563.563 1.014.788.901.788Zm2.141-10.586c0 .113-1.238-.788-3.265-2.14-2.027-1.351-4.73-3.266-7.882-5.068-3.153-1.914-6.08-3.49-8.22-4.73-2.14-1.126-3.379-1.914-3.379-2.027l1.014.338c.563.225 1.464.676 2.59 1.24 2.14 1.125 5.067 2.59 8.332 4.504 3.153 1.914 5.856 3.829 7.883 5.293 1.013.676 1.689 1.351 2.252 1.802.338.563.675.788.675.788ZM66.506 72.924c.31 11.067.711 20.034.898 20.029.186-.005.087-8.98-.223-20.048-.31-11.066-.711-20.034-.898-20.028-.186.005-.086 8.98.223 20.047Z" fill="#FF6B6B"/><path d="M43.353 98.429c.187 0 .338-4.992.338-11.15 0-6.157-.151-11.149-.338-11.149-.186 0-.337 4.992-.337 11.15 0 6.157.15 11.149.337 11.149ZM54.89 80.84c-.062 9.019.04 16.331.227 16.332.186.002.387-7.308.448-16.327.061-9.019-.04-16.33-.227-16.332-.187-.001-.387 7.309-.449 16.327ZM15.901 48.361c7.747 5.198 14.112 9.286 14.216 9.13.104-.154-6.092-4.493-13.84-9.69-7.747-5.199-14.11-9.287-14.214-9.131-.104.155 6.092 4.494 13.84 9.691Zm5.832 16.169-1.014-.337c-.563-.226-1.464-.563-2.477-1.127a66.604 66.604 0 0 1-7.883-4.392c-3.04-1.914-5.63-3.716-7.431-5.18C1.126 52.142 0 51.129 0 51.129c0-.113 1.239.788 3.153 2.027 1.914 1.352 4.504 3.153 7.544 4.955 2.928 1.915 5.743 3.491 7.77 4.505 2.027 1.126 3.266 1.802 3.266 1.915ZM51.01 28.042l-1.69.676a21.2 21.2 0 0 1-2.027.675 35.14 35.14 0 0 1-2.815.676 56 56 0 0 1-7.319 1.126c-2.815.226-5.855.338-9.12.338a73.569 73.569 0 0 1-9.122-.9 67.338 67.338 0 0 1-7.319-1.577c-1.013-.226-1.914-.564-2.702-.789a21.257 21.257 0 0 1-2.027-.675l-1.69-.676s.676.112 1.802.45c.563.226 1.239.45 2.027.563.788.226 1.69.45 2.703.676 2.027.563 4.504 1.014 7.206 1.464 2.815.338 5.856.676 9.009.788 3.265.113 6.305 0 9.008-.225 2.815-.225 5.292-.563 7.32-1.013 1.013-.226 1.913-.45 2.814-.563.788-.226 1.464-.338 2.027-.564 1.239-.337 1.914-.563 1.914-.45Zm5.403-12.726s-.563.338-1.689.788c-.563.226-1.239.45-2.027.789-.788.337-1.689.563-2.702.9-2.027.676-4.505 1.24-7.207 1.802-2.702.45-5.743.901-9.008 1.127-3.266.225-6.306.225-9.121 0-2.815-.226-5.293-.564-7.32-1.014-1.013-.225-1.914-.45-2.814-.676-.789-.225-1.464-.45-2.027-.563-1.126-.338-1.69-.563-1.69-.675 0 0 .676.112 1.802.45.563.225 1.239.338 2.027.563.788.225 1.69.45 2.815.563 2.027.45 4.504.676 7.32.788 2.815.113 5.855.113 9.008-.112 3.153-.225 6.193-.676 8.895-1.126 2.703-.563 5.18-1.014 7.207-1.69 1.013-.225 1.914-.563 2.703-.788.788-.225 1.463-.45 2.026-.676a16.558 16.558 0 0 0 1.802-.45ZM59.792 4.28s-.563.225-1.463.675c-1.014.338-2.365.901-4.167 1.352-3.603 1.126-8.557 2.365-14.188 3.153-5.63.788-10.81 1.013-14.525.788-1.802-.112-3.379-.225-4.392-.338-1.013-.112-1.576-.225-1.576-.225h1.576c1.013.113 2.477.113 4.392.113 3.715 0 8.782-.225 14.413-1.014 5.63-.788 10.584-2.027 14.075-3.04 1.802-.451 3.266-.901 4.166-1.24 1.014-.112 1.577-.337 1.69-.225Zm13.442 55.324c3.566-3.902 6.346-7.168 6.208-7.294-.137-.126-3.14 2.936-6.707 6.838-3.566 3.902-6.346 7.167-6.208 7.293.137.126 3.14-2.935 6.707-6.837Zm15.609-1.831s-.113.338-.563.901c-.338.563-.901 1.464-1.69 2.365-1.463 2.027-3.715 4.618-6.53 7.095-2.815 2.478-5.743 4.392-7.883 5.519-1.126.563-2.026 1.013-2.59 1.351-.675.338-1.013.45-1.013.338 0-.113 1.352-.788 3.378-2.027 2.14-1.239 4.842-3.153 7.657-5.631 2.815-2.478 5.068-5.068 6.531-6.87 1.69-1.802 2.59-3.04 2.703-3.04Z" fill="#FF6B6B"/></svg>