<svg width="20" height="20" viewBox="0 0 20 20" fill="none" xmlns="http://www.w3.org/2000/svg"><g clip-path="url(#a)"><path d="M10 0c5.523 0 10 4.477 10 10s-4.477 10-10 10S0 15.523 0 10 4.477 0 10 0Z" fill="#F0F0F0"/><path d="M2.066 16.088a9.963 9.963 0 0 1-1.722-3.48h5.202l-3.48 3.48Zm17.589-3.48a9.963 9.963 0 0 1-1.722 3.48l-3.48-3.48h5.202ZM.344 7.391a9.964 9.964 0 0 1 1.722-3.48l3.48 3.48H.344Zm15.745 10.542a9.964 9.964 0 0 1-3.48 1.722v-5.202l3.48 3.48ZM3.912 2.067A9.964 9.964 0 0 1 7.392.344v5.202l-3.48-3.48Zm3.48 17.588a9.965 9.965 0 0 1-3.48-1.722l3.48-3.48v5.202ZM12.61.344a9.965 9.965 0 0 1 3.479 1.723l-3.48 3.48V.343Zm1.843 7.047 3.48-3.48a9.964 9.964 0 0 1 1.722 3.48h-5.202Z" fill="#0052B4"/><path d="M19.915 11.304h-8.61v8.611a10.115 10.115 0 0 1-2.61 0v-8.61H.086a10.1 10.1 0 0 1 0-2.61h8.61V.086a10.099 10.099 0 0 1 2.61 0v8.61h8.61a10.114 10.114 0 0 1 0 2.61Z" fill="#D80027"/><path d="m12.61 7.391 4.462-4.462c.205.205.4.42.588.642l-3.82 3.82h-1.23Zm-5.218 0L2.93 2.93c.205-.205.42-.401.642-.588l3.82 3.82v1.23Zm-.002 5.218L2.928 17.07a10.02 10.02 0 0 1-.588-.642l3.82-3.82h1.23Zm5.22-.001 4.462 4.463c-.205.205-.42.4-.642.588l-3.82-3.82v-1.23Z" fill="#D80027"/></g><defs><clipPath id="a"><path fill="#fff" transform="matrix(1 0 0 -1 0 20)" d="M0 0h20v20H0z"/></clipPath></defs></svg>