<svg width="149" height="40" viewBox="0 0 149 40" fill="none" xmlns="http://www.w3.org/2000/svg"><path d="M24.34 19.536c1.005.33 1.803.884 2.392 1.664.59.763.884 1.716.884 2.86 0 1.577-.607 2.8-1.82 3.666-1.213.85-2.981 1.274-5.304 1.274h-9.048V10.8h8.528c2.15 0 3.805.425 4.966 1.274 1.161.832 1.742 1.985 1.742 3.458 0 .901-.208 1.699-.624 2.392a4.272 4.272 0 0 1-1.716 1.612Zm-9.516-6.084v5.018h4.784c1.179 0 2.08-.208 2.704-.624.641-.433.962-1.057.962-1.872 0-.832-.32-1.456-.962-1.872-.624-.433-1.525-.65-2.704-.65h-4.784Zm5.46 12.896c2.617 0 3.926-.875 3.926-2.626 0-1.75-1.309-2.626-3.926-2.626h-5.46v5.252h5.46Zm23.68-4.212c0 .225-.018.546-.053.962H33.017c.191 1.023.685 1.837 1.482 2.444.815.59 1.82.884 3.016.884 1.526 0 2.782-.503 3.77-1.508l1.742 2.002a5.87 5.87 0 0 1-2.366 1.69c-.953.381-2.028.572-3.224.572-1.525 0-2.868-.303-4.03-.91-1.161-.607-2.062-1.447-2.704-2.522-.624-1.092-.936-2.323-.936-3.692 0-1.352.304-2.565.91-3.64a6.613 6.613 0 0 1 2.574-2.548c1.092-.607 2.323-.91 3.692-.91 1.352 0 2.557.303 3.614.91a6.138 6.138 0 0 1 2.496 2.522c.607 1.075.91 2.323.91 3.744Zm-7.02-4.576c-1.04 0-1.925.312-2.653.936-.71.607-1.144 1.421-1.3 2.444h7.878c-.138-1.005-.563-1.82-1.274-2.444-.71-.624-1.594-.936-2.652-.936Zm23.35 1.976c1.005.33 1.802.884 2.391 1.664.59.763.884 1.716.884 2.86 0 1.577-.607 2.8-1.82 3.666-1.213.85-2.981 1.274-5.304 1.274h-9.048V10.8h8.528c2.15 0 3.805.425 4.966 1.274 1.162.832 1.742 1.985 1.742 3.458 0 .901-.208 1.699-.624 2.392a4.272 4.272 0 0 1-1.716 1.612Zm-9.517-6.084v5.018h4.784c1.179 0 2.08-.208 2.704-.624.642-.433.962-1.057.962-1.872 0-.832-.32-1.456-.962-1.872-.624-.433-1.525-.65-2.704-.65h-4.784Zm5.46 12.896c2.617 0 3.926-.875 3.926-2.626 0-1.75-1.308-2.626-3.926-2.626h-5.46v5.252h5.46Zm23.68-4.212c0 .225-.018.546-.053.962H68.97c.191 1.023.685 1.837 1.482 2.444.815.59 1.82.884 3.016.884 1.526 0 2.782-.503 3.77-1.508l1.742 2.002a5.869 5.869 0 0 1-2.366 1.69c-.953.381-2.028.572-3.224.572-1.525 0-2.868-.303-4.03-.91-1.16-.607-2.062-1.447-2.704-2.522-.624-1.092-.936-2.323-.936-3.692 0-1.352.304-2.565.91-3.64a6.613 6.613 0 0 1 2.574-2.548c1.092-.607 2.323-.91 3.692-.91 1.352 0 2.557.303 3.614.91a6.138 6.138 0 0 1 2.496 2.522c.607 1.075.91 2.323.91 3.744Zm-7.02-4.576c-1.04 0-1.925.312-2.653.936-.71.607-1.144 1.421-1.3 2.444h7.878c-.138-1.005-.563-1.82-1.274-2.444-.71-.624-1.594-.936-2.652-.936Zm14.431 11.622c-1.126 0-2.227-.147-3.302-.442-1.074-.295-1.932-.667-2.574-1.118l1.248-2.47c.624.416 1.37.754 2.236 1.014.884.243 1.75.364 2.6.364 1.942 0 2.912-.511 2.912-1.534 0-.485-.251-.823-.754-1.014-.485-.19-1.274-.373-2.366-.546-1.144-.173-2.08-.373-2.808-.598a4.445 4.445 0 0 1-1.872-1.17c-.52-.572-.78-1.36-.78-2.366 0-1.317.546-2.366 1.638-3.146 1.11-.797 2.6-1.196 4.472-1.196.954 0 1.907.113 2.86.338.954.208 1.734.494 2.34.858l-1.248 2.47c-1.178-.693-2.504-1.04-3.978-1.04-.953 0-1.681.147-2.184.442-.485.277-.728.65-.728 1.118 0 .52.26.893.78 1.118.538.208 1.36.407 2.47.598 1.11.173 2.02.373 2.73.598a4.18 4.18 0 0 1 1.82 1.144c.52.537.78 1.3.78 2.288 0 1.3-.563 2.34-1.69 3.12-1.126.78-2.66 1.17-4.602 1.17Zm17.437-.936c-.381.312-.849.546-1.404.702a6.123 6.123 0 0 1-1.716.234c-1.525 0-2.704-.399-3.536-1.196-.832-.797-1.248-1.959-1.248-3.484V17.82h-2.288v-2.6h2.288v-3.172h3.25v3.172h3.718v2.6h-3.718v6.604c0 .676.165 1.196.494 1.56.329.347.806.52 1.43.52.728 0 1.335-.19 1.82-.572l.91 2.314Z" fill="url(#a)"/><path d="M128.358 15.22c1.785 0 3.155.45 4.108 1.352.953.884 1.43 2.201 1.43 3.952V29h-1.768v-2.132c-.416.71-1.031 1.265-1.846 1.664-.797.399-1.751.598-2.86.598-1.525 0-2.739-.364-3.64-1.092-.901-.728-1.352-1.69-1.352-2.886 0-1.161.416-2.097 1.248-2.808.849-.71 2.193-1.066 4.03-1.066h4.342v-.832c0-1.179-.329-2.071-.988-2.678-.659-.624-1.621-.936-2.886-.936a7.14 7.14 0 0 0-2.496.442c-.797.277-1.482.667-2.054 1.17l-.832-1.378c.693-.59 1.525-1.04 2.496-1.352a9.484 9.484 0 0 1 3.068-.494Zm-.65 12.454c1.04 0 1.933-.234 2.678-.702.745-.485 1.3-1.179 1.664-2.08v-2.236h-4.29c-2.34 0-3.51.815-3.51 2.444 0 .797.303 1.43.91 1.898.607.45 1.456.676 2.548.676Zm18.404.494c-.347.312-.78.555-1.3.728a5.32 5.32 0 0 1-1.586.234c-1.283 0-2.271-.347-2.964-1.04-.693-.693-1.04-1.673-1.04-2.938v-8.268h-2.444v-1.56h2.444v-2.99h1.846v2.99h4.16v1.56h-4.16v8.164c0 .815.199 1.439.598 1.872.416.416 1.005.624 1.768.624.381 0 .745-.06 1.092-.182.364-.121.676-.295.936-.52l.65 1.326Z" fill="#454B58"/><rect x=".5" y=".5" width="114" height="39" rx="11.5" stroke="url(#b)"/><defs><linearGradient id="a" x1="9" y1="20" x2="106" y2="20" gradientUnits="userSpaceOnUse"><stop stop-color="#F04973"/><stop offset="1" stop-color="#FA6655"/></linearGradient><linearGradient id="b" x1="0" y1="20" x2="115" y2="20" gradientUnits="userSpaceOnUse"><stop stop-color="#F14A73"/><stop offset="1" stop-color="#FA6656"/></linearGradient></defs></svg>