<svg width="18" height="18" viewBox="0 0 18 18" fill="none" xmlns="http://www.w3.org/2000/svg"><path d="m17.938 14.229-1.444-3.566a.884.884 0 0 0-1.163-.493.9.9 0 0 0-.493 1.164l.623 1.533-1.944-.856a.917.917 0 0 0-.712-.006 6.369 6.369 0 0 1-2.532.513c-3.559 0-5.94-2.772-5.94-5.366 0-2.957 2.669-5.366 5.94-5.366 3.271 0 5.94 2.41 5.94 5.366 0 .233-.02.507-.06.76a.89.89 0 0 0 .752 1.013c.041.007.089.007.13.007a.903.903 0 0 0 .883-.76 7.54 7.54 0 0 0 .075-1.02c0-1.923-.814-3.73-2.293-5.085C14.25.732 12.32 0 10.273 0 8.227 0 6.29.732 4.839 2.067 3.552 3.237 2.759 4.79 2.58 6.44.965 7.55 0 9.315 0 11.183c0 1.15.356 2.259 1.027 3.21l-.959 2.382a.887.887 0 0 0 .206.972.88.88 0 0 0 .623.253.956.956 0 0 0 .362-.075l2.82-1.24a6.77 6.77 0 0 0 2.286.391h.055a6.702 6.702 0 0 0 3.333-.903 6.124 6.124 0 0 0 2.101-2.02 7.723 7.723 0 0 0 1.294-.362l3.606 1.595a.892.892 0 0 0 .985-.178.906.906 0 0 0 .2-.98Zm-15.063.363a.884.884 0 0 0-.151-.91 3.788 3.788 0 0 1-.938-2.492c0-.903.336-1.786.945-2.498.315 1.273 1.026 2.491 2.005 3.436 1.239 1.19 2.881 1.944 4.64 2.135-.835.664-1.923 1.034-3.025 1.034h-.034a4.959 4.959 0 0 1-1.923-.397.888.888 0 0 0-.712.006l-1.143.507.336-.821Z" fill="#F04973"/><path d="M9.342 7.18a.889.889 0 1 0 1.78 0 .888.888 0 0 0-.89-.89.888.888 0 0 0-.89.89Zm2.752 0a.889.889 0 1 0 1.78 0 .888.888 0 0 0-.89-.89.888.888 0 0 0-.89.89Zm-5.494 0a.889.889 0 1 0 1.78 0 .888.888 0 0 0-.89-.89.888.888 0 0 0-.89.89Z" fill="#F04973"/></svg>