<svg width="20" height="20" viewBox="0 0 20 20" fill="none" xmlns="http://www.w3.org/2000/svg"><g clip-path="url(#a)" fill="#F14A73"><path d="M10 0C4.486 0 0 4.486 0 10s4.486 10 10 10 10-4.486 10-10S15.514 0 10 0Zm0 17.814c-4.309 0-7.814-3.505-7.814-7.814S5.69 2.186 10 2.186 17.814 5.69 17.814 10 14.31 17.814 10 17.814Z"/><path d="M10.866 10.012V5.821a.847.847 0 1 0-1.694 0v4.462c0 .013.003.026.004.039a.842.842 0 0 0 .244.64l3.155 3.155a.847.847 0 1 0 1.198-1.198l-2.907-2.907Z"/></g><defs><clipPath id="a"><path fill="#fff" d="M0 0h20v20H0z"/></clipPath></defs></svg>