<svg width="15" height="15" viewBox="0 0 15 15" fill="none" xmlns="http://www.w3.org/2000/svg"><g clip-path="url(#a)" fill="#8B919E"><path d="M7.5 0C3.364 0 0 3.364 0 7.5S3.364 15 7.5 15 15 11.636 15 7.5 11.636 0 7.5 0Zm0 13.36A5.867 5.867 0 0 1 1.64 7.5 5.867 5.867 0 0 1 7.5 1.64a5.866 5.866 0 0 1 5.86 5.86 5.867 5.867 0 0 1-5.86 5.86Z"/><path d="M8.15 7.51V4.365a.635.635 0 1 0-1.271 0v3.346l.003.03a.632.632 0 0 0 .183.48l2.366 2.366a.635.635 0 1 0 .899-.899L8.15 7.51Z"/></g><defs><clipPath id="a"><path fill="#fff" d="M0 0h15v15H0z"/></clipPath></defs></svg>