<svg width="21" height="20" viewBox="0 0 21 20" fill="none" xmlns="http://www.w3.org/2000/svg"><g clip-path="url(#a)"><path d="M20.767 7.529a1.428 1.428 0 0 0-1.242-.989l-5.575-.506L11.743.87a1.445 1.445 0 0 0-2.657.008L6.888 6.042l-5.576.506a1.431 1.431 0 0 0-1.241.98A1.44 1.44 0 0 0 .49 9.064l4.215 3.7-.016.072-1.226 5.401A1.448 1.448 0 0 0 4.871 20c.261 0 .514-.071.744-.206l4.808-2.878 4.808 2.87a1.442 1.442 0 0 0 1.59-.07c.474-.34.688-.926.561-1.488l-1.242-5.472 4.215-3.693c.42-.38.594-.98.412-1.534Zm-6.208 3.946a1.448 1.448 0 0 0-.459 1.408l1.028 4.523-3.97-2.372a1.442 1.442 0 0 0-1.487 0l-3.97 2.372 1.029-4.523a1.437 1.437 0 0 0-.46-1.408L2.792 8.422l4.61-.419c.53-.047.99-.38 1.195-.87l1.819-4.262 1.819 4.254c.205.49.664.823 1.202.87l4.61.42-3.487 3.06Z" fill="#F9A502"/></g><defs><clipPath id="a"><path fill="#fff" d="M0 0h20.838v20H0z"/></clipPath></defs></svg>