<svg width="149" height="40" viewBox="0 0 149 40" fill="none" xmlns="http://www.w3.org/2000/svg">
<path d="M24.34 19.536C25.3453 19.8653 26.1427 20.42 26.732 21.2C27.3213 21.9627 27.616 22.916 27.616 24.06C27.616 25.6373 27.0093 26.8593 25.796 27.726C24.5827 28.5753 22.8147 29 20.492 29H11.444V10.8H19.972C22.1213 10.8 23.7767 11.2247 24.938 12.074C26.0993 12.906 26.68 14.0587 26.68 15.532C26.68 16.4333 26.472 17.2307 26.056 17.924C25.64 18.6173 25.068 19.1547 24.34 19.536ZM14.824 13.452V18.47H19.608C20.7867 18.47 21.688 18.262 22.312 17.846C22.9533 17.4127 23.274 16.7887 23.274 15.974C23.274 15.142 22.9533 14.518 22.312 14.102C21.688 13.6687 20.7867 13.452 19.608 13.452H14.824ZM20.284 26.348C22.9013 26.348 24.21 25.4727 24.21 23.722C24.21 21.9713 22.9013 21.096 20.284 21.096H14.824V26.348H20.284ZM43.9633 22.136C43.9633 22.3613 43.946 22.682 43.9113 23.098H33.0173C33.208 24.1207 33.702 24.9353 34.4993 25.542C35.314 26.1313 36.3193 26.426 37.5153 26.426C39.0406 26.426 40.2973 25.9233 41.2853 24.918L43.0273 26.92C42.4033 27.6653 41.6146 28.2287 40.6613 28.61C39.708 28.9913 38.6333 29.182 37.4373 29.182C35.912 29.182 34.5686 28.8787 33.4073 28.272C32.246 27.6653 31.3446 26.8247 30.7033 25.75C30.0793 24.658 29.7673 23.4273 29.7673 22.058C29.7673 20.706 30.0706 19.4927 30.6773 18.418C31.3013 17.326 32.1593 16.4767 33.2513 15.87C34.3433 15.2633 35.574 14.96 36.9433 14.96C38.2953 14.96 39.5 15.2633 40.5573 15.87C41.632 16.4593 42.464 17.3 43.0533 18.392C43.66 19.4667 43.9633 20.7147 43.9633 22.136ZM36.9433 17.56C35.9033 17.56 35.0193 17.872 34.2913 18.496C33.5806 19.1027 33.1473 19.9173 32.9913 20.94H40.8693C40.7306 19.9347 40.306 19.12 39.5953 18.496C38.8846 17.872 38.0006 17.56 36.9433 17.56ZM60.2931 19.536C61.2985 19.8653 62.0958 20.42 62.6851 21.2C63.2745 21.9627 63.5691 22.916 63.5691 24.06C63.5691 25.6373 62.9625 26.8593 61.7491 27.726C60.5358 28.5753 58.7678 29 56.4451 29H47.3971V10.8H55.9251C58.0745 10.8 59.7298 11.2247 60.8911 12.074C62.0525 12.906 62.6331 14.0587 62.6331 15.532C62.6331 16.4333 62.4251 17.2307 62.0091 17.924C61.5931 18.6173 61.0211 19.1547 60.2931 19.536ZM50.7771 13.452V18.47H55.5611C56.7398 18.47 57.6411 18.262 58.2651 17.846C58.9065 17.4127 59.2271 16.7887 59.2271 15.974C59.2271 15.142 58.9065 14.518 58.2651 14.102C57.6411 13.6687 56.7398 13.452 55.5611 13.452H50.7771ZM56.2371 26.348C58.8545 26.348 60.1631 25.4727 60.1631 23.722C60.1631 21.9713 58.8545 21.096 56.2371 21.096H50.7771V26.348H56.2371ZM79.9164 22.136C79.9164 22.3613 79.8991 22.682 79.8644 23.098H68.9704C69.1611 24.1207 69.6551 24.9353 70.4524 25.542C71.2671 26.1313 72.2724 26.426 73.4684 26.426C74.9938 26.426 76.2504 25.9233 77.2384 24.918L78.9804 26.92C78.3564 27.6653 77.5678 28.2287 76.6144 28.61C75.6611 28.9913 74.5864 29.182 73.3904 29.182C71.8651 29.182 70.5218 28.8787 69.3604 28.272C68.1991 27.6653 67.2978 26.8247 66.6564 25.75C66.0324 24.658 65.7204 23.4273 65.7204 22.058C65.7204 20.706 66.0238 19.4927 66.6304 18.418C67.2544 17.326 68.1124 16.4767 69.2044 15.87C70.2964 15.2633 71.5271 14.96 72.8964 14.96C74.2484 14.96 75.4531 15.2633 76.5104 15.87C77.5851 16.4593 78.4171 17.3 79.0064 18.392C79.6131 19.4667 79.9164 20.7147 79.9164 22.136ZM72.8964 17.56C71.8564 17.56 70.9724 17.872 70.2444 18.496C69.5338 19.1027 69.1004 19.9173 68.9444 20.94H76.8224C76.6838 19.9347 76.2591 19.12 75.5484 18.496C74.8378 17.872 73.9538 17.56 72.8964 17.56ZM87.3283 29.182C86.2016 29.182 85.1009 29.0347 84.0263 28.74C82.9516 28.4453 82.0936 28.0727 81.4523 27.622L82.7003 25.152C83.3243 25.568 84.0696 25.906 84.9363 26.166C85.8203 26.4087 86.6869 26.53 87.5363 26.53C89.4776 26.53 90.4483 26.0187 90.4483 24.996C90.4483 24.5107 90.1969 24.1727 89.6943 23.982C89.2089 23.7913 88.4203 23.6093 87.3283 23.436C86.1843 23.2627 85.2483 23.0633 84.5203 22.838C83.8096 22.6127 83.1856 22.2227 82.6483 21.668C82.1283 21.096 81.8683 20.3073 81.8683 19.302C81.8683 17.9847 82.4143 16.936 83.5063 16.156C84.6156 15.3587 86.1063 14.96 87.9783 14.96C88.9316 14.96 89.8849 15.0727 90.8383 15.298C91.7916 15.506 92.5716 15.792 93.1783 16.156L91.9303 18.626C90.7516 17.9327 89.4256 17.586 87.9523 17.586C86.9989 17.586 86.2709 17.7333 85.7683 18.028C85.2829 18.3053 85.0403 18.678 85.0403 19.146C85.0403 19.666 85.3003 20.0387 85.8203 20.264C86.3576 20.472 87.1809 20.6713 88.2903 20.862C89.3996 21.0353 90.3096 21.2347 91.0203 21.46C91.7309 21.6853 92.3376 22.0667 92.8403 22.604C93.3603 23.1413 93.6203 23.904 93.6203 24.892C93.6203 26.192 93.0569 27.232 91.9303 28.012C90.8036 28.792 89.2696 29.182 87.3283 29.182ZM104.765 28.246C104.384 28.558 103.916 28.792 103.361 28.948C102.824 29.104 102.252 29.182 101.645 29.182C100.12 29.182 98.9411 28.7833 98.1091 27.986C97.2771 27.1887 96.8611 26.0273 96.8611 24.502V17.82H94.5731V15.22H96.8611V12.048H100.111V15.22H103.829V17.82H100.111V24.424C100.111 25.1 100.276 25.62 100.605 25.984C100.934 26.3307 101.411 26.504 102.035 26.504C102.763 26.504 103.37 26.3133 103.855 25.932L104.765 28.246Z" fill="url(#paint0_linear_342_135)"/>
<path d="M128.358 15.22C130.143 15.22 131.513 15.6707 132.466 16.572C133.419 17.456 133.896 18.7733 133.896 20.524V29H132.128V26.868C131.712 27.5787 131.097 28.1333 130.282 28.532C129.485 28.9307 128.531 29.13 127.422 29.13C125.897 29.13 124.683 28.766 123.782 28.038C122.881 27.31 122.43 26.348 122.43 25.152C122.43 23.9907 122.846 23.0547 123.678 22.344C124.527 21.6333 125.871 21.278 127.708 21.278H132.05V20.446C132.05 19.2673 131.721 18.3747 131.062 17.768C130.403 17.144 129.441 16.832 128.176 16.832C127.309 16.832 126.477 16.9793 125.68 17.274C124.883 17.5513 124.198 17.9413 123.626 18.444L122.794 17.066C123.487 16.4767 124.319 16.026 125.29 15.714C126.261 15.3847 127.283 15.22 128.358 15.22ZM127.708 27.674C128.748 27.674 129.641 27.44 130.386 26.972C131.131 26.4867 131.686 25.7933 132.05 24.892V22.656H127.76C125.42 22.656 124.25 23.4707 124.25 25.1C124.25 25.8973 124.553 26.53 125.16 26.998C125.767 27.4487 126.616 27.674 127.708 27.674ZM146.112 28.168C145.765 28.48 145.332 28.7227 144.812 28.896C144.309 29.052 143.781 29.13 143.226 29.13C141.943 29.13 140.955 28.7833 140.262 28.09C139.569 27.3967 139.222 26.4173 139.222 25.152V16.884H136.778V15.324H139.222V12.334H141.068V15.324H145.228V16.884H141.068V25.048C141.068 25.8627 141.267 26.4867 141.666 26.92C142.082 27.336 142.671 27.544 143.434 27.544C143.815 27.544 144.179 27.4833 144.526 27.362C144.89 27.2407 145.202 27.0673 145.462 26.842L146.112 28.168Z" fill="#454B58"/>
<rect x="0.5" y="0.5" width="114" height="39" rx="11.5" stroke="url(#paint1_linear_342_135)"/>
<defs>
<linearGradient id="paint0_linear_342_135" x1="9" y1="20" x2="106" y2="20" gradientUnits="userSpaceOnUse">
<stop stop-color="#F04973"/>
<stop offset="1" stop-color="#FA6655"/>
</linearGradient>
<linearGradient id="paint1_linear_342_135" x1="0" y1="20" x2="115" y2="20" gradientUnits="userSpaceOnUse">
<stop stop-color="#F14A73"/>
<stop offset="1" stop-color="#FA6656"/>
</linearGradient>
</defs>
</svg>
